<svg width="1440" height="659" viewBox="0 0 1440 659" fill="none" xmlns="http://www.w3.org/2000/svg">
<rect y="0.626953" width="1440" height="657.811" fill="white"/>
<path d="M199.614 332.836H202.239L194.289 315.336H191.814L183.889 332.836H186.464L188.389 328.461H197.689L199.614 332.836ZM189.264 326.461L193.039 317.886L196.814 326.461H189.264ZM210.153 332.986C212.528 332.986 214.503 331.986 215.553 330.136L213.728 328.986C212.878 330.286 211.578 330.886 210.128 330.886C207.528 330.886 205.578 329.086 205.578 326.211C205.578 323.386 207.528 321.561 210.128 321.561C211.578 321.561 212.878 322.161 213.728 323.461L215.553 322.286C214.503 320.436 212.528 319.461 210.153 319.461C206.078 319.461 203.153 322.261 203.153 326.211C203.153 330.161 206.078 332.986 210.153 332.986ZM224.239 332.986C226.614 332.986 228.589 331.986 229.639 330.136L227.814 328.986C226.964 330.286 225.664 330.886 224.214 330.886C221.614 330.886 219.664 329.086 219.664 326.211C219.664 323.386 221.614 321.561 224.214 321.561C225.664 321.561 226.964 322.161 227.814 323.461L229.639 322.286C228.589 320.436 226.614 319.461 224.239 319.461C220.164 319.461 217.239 322.261 217.239 326.211C217.239 330.161 220.164 332.986 224.239 332.986ZM244.526 326.286C244.526 322.211 241.801 319.461 237.976 319.461C234.151 319.461 231.326 322.286 231.326 326.211C231.326 330.161 234.176 332.986 238.451 332.986C240.651 332.986 242.476 332.236 243.676 330.836L242.351 329.286C241.376 330.361 240.076 330.886 238.526 330.886C235.901 330.886 234.026 329.336 233.726 327.011H244.476C244.501 326.786 244.526 326.486 244.526 326.286ZM237.976 321.486C240.301 321.486 241.976 323.061 242.226 325.286H233.726C233.976 323.036 235.676 321.486 237.976 321.486ZM251.659 332.986C255.184 332.986 257.384 331.461 257.384 329.061C257.384 323.911 248.984 326.461 248.984 323.336C248.984 322.286 250.009 321.511 252.109 321.511C253.409 321.511 254.734 321.786 255.934 322.561L256.959 320.661C255.809 319.911 253.859 319.461 252.134 319.461C248.734 319.461 246.609 321.061 246.609 323.436C246.609 328.711 254.984 326.136 254.984 329.111C254.984 330.236 254.059 330.911 251.834 330.911C250.109 330.911 248.309 330.336 247.184 329.536L246.184 331.436C247.284 332.311 249.459 332.986 251.659 332.986ZM264.183 332.986C267.708 332.986 269.908 331.461 269.908 329.061C269.908 323.911 261.508 326.461 261.508 323.336C261.508 322.286 262.533 321.511 264.633 321.511C265.933 321.511 267.258 321.786 268.458 322.561L269.483 320.661C268.333 319.911 266.383 319.461 264.658 319.461C261.258 319.461 259.133 321.061 259.133 323.436C259.133 328.711 267.508 326.136 267.508 329.111C267.508 330.236 266.583 330.911 264.358 330.911C262.633 330.911 260.833 330.336 259.708 329.536L258.708 331.436C259.808 332.311 261.983 332.986 264.183 332.986ZM286.697 319.461C284.672 319.461 283.022 320.186 282.022 321.461V314.286H279.622V332.836H282.022V326.011C282.022 323.136 283.672 321.611 286.222 321.611C288.497 321.611 289.797 322.886 289.797 325.486V332.836H292.197V325.211C292.197 321.311 289.922 319.461 286.697 319.461ZM297.838 317.036C298.788 317.036 299.463 316.336 299.463 315.436C299.463 314.586 298.763 313.911 297.838 313.911C296.913 313.911 296.213 314.611 296.213 315.486C296.213 316.361 296.913 317.036 297.838 317.036ZM296.638 332.836H299.038V319.586H296.638V332.836ZM314.021 319.586V321.636C312.896 320.186 311.096 319.461 309.121 319.461C305.296 319.461 302.396 322.036 302.396 325.861C302.396 329.686 305.296 332.286 309.121 332.286C311.021 332.286 312.746 331.611 313.896 330.236V331.286C313.896 334.286 312.471 335.736 309.346 335.736C307.396 335.736 305.471 335.061 304.246 334.011L303.096 335.861C304.546 337.161 306.996 337.836 309.421 337.836C313.921 337.836 316.296 335.711 316.296 331.036V319.586H314.021ZM309.396 330.186C306.721 330.186 304.821 328.411 304.821 325.861C304.821 323.286 306.721 321.561 309.396 321.561C312.046 321.561 313.946 323.286 313.946 325.861C313.946 328.411 312.046 330.186 309.396 330.186ZM327.956 319.461C325.931 319.461 324.281 320.186 323.281 321.461V314.286H320.881V332.836H323.281V326.011C323.281 323.136 324.931 321.611 327.481 321.611C329.756 321.611 331.056 322.886 331.056 325.486V332.836H333.456V325.211C333.456 321.311 331.181 319.461 327.956 319.461ZM337.048 327.011H343.773V324.936H337.048V327.011ZM356.526 319.586L351.951 330.186L347.326 319.586H344.826L350.676 332.811L350.251 333.736C349.601 335.261 348.876 335.786 347.726 335.786C346.826 335.786 346.001 335.436 345.351 334.811L344.326 336.611C345.151 337.411 346.451 337.836 347.726 337.836C349.751 337.836 351.276 336.961 352.451 334.161L358.876 319.586H356.526ZM362.316 317.036C363.266 317.036 363.941 316.336 363.941 315.436C363.941 314.586 363.241 313.911 362.316 313.911C361.391 313.911 360.691 314.611 360.691 315.486C360.691 316.361 361.391 317.036 362.316 317.036ZM361.116 332.836H363.516V319.586H361.116V332.836ZM380.073 326.286C380.073 322.211 377.348 319.461 373.523 319.461C369.698 319.461 366.873 322.286 366.873 326.211C366.873 330.161 369.723 332.986 373.998 332.986C376.198 332.986 378.023 332.236 379.223 330.836L377.898 329.286C376.923 330.361 375.623 330.886 374.073 330.886C371.448 330.886 369.573 329.336 369.273 327.011H380.023C380.048 326.786 380.073 326.486 380.073 326.286ZM373.523 321.486C375.848 321.486 377.523 323.061 377.773 325.286H369.273C369.523 323.036 371.223 321.486 373.523 321.486ZM383.406 332.836H385.806V314.286H383.406V332.836ZM400.488 314.286V321.586C399.388 320.161 397.738 319.461 395.863 319.461C391.988 319.461 389.163 322.161 389.163 326.211C389.163 330.261 391.988 332.986 395.863 332.986C397.813 332.986 399.513 332.236 400.588 330.736V332.836H402.888V314.286H400.488ZM396.063 330.886C393.513 330.886 391.588 329.036 391.588 326.211C391.588 323.386 393.513 321.561 396.063 321.561C398.588 321.561 400.513 323.386 400.513 326.211C400.513 329.036 398.588 330.886 396.063 330.886ZM415.343 317.036C416.293 317.036 416.968 316.336 416.968 315.436C416.968 314.586 416.268 313.911 415.343 313.911C414.418 313.911 413.718 314.611 413.718 315.486C413.718 316.361 414.418 317.036 415.343 317.036ZM414.143 332.836H416.543V319.586H414.143V332.836ZM428.201 319.461C426.101 319.461 424.401 320.236 423.426 321.586V319.586H421.126V332.836H423.526V326.011C423.526 323.136 425.176 321.611 427.726 321.611C430.001 321.611 431.301 322.886 431.301 325.486V332.836H433.701V325.211C433.701 321.311 431.426 319.461 428.201 319.461ZM447.273 319.586L442.623 330.211L438.073 319.586H435.573L441.373 332.836H443.823L449.623 319.586H447.273ZM463.472 326.286C463.472 322.211 460.747 319.461 456.922 319.461C453.097 319.461 450.272 322.286 450.272 326.211C450.272 330.161 453.122 332.986 457.397 332.986C459.597 332.986 461.422 332.236 462.622 330.836L461.297 329.286C460.322 330.361 459.022 330.886 457.472 330.886C454.847 330.886 452.972 329.336 452.672 327.011H463.422C463.447 326.786 463.472 326.486 463.472 326.286ZM456.922 321.486C459.247 321.486 460.922 323.061 461.172 325.286H452.672C452.922 323.036 454.622 321.486 456.922 321.486ZM470.604 332.986C474.129 332.986 476.329 331.461 476.329 329.061C476.329 323.911 467.929 326.461 467.929 323.336C467.929 322.286 468.954 321.511 471.054 321.511C472.354 321.511 473.679 321.786 474.879 322.561L475.904 320.661C474.754 319.911 472.804 319.461 471.079 319.461C467.679 319.461 465.554 321.061 465.554 323.436C465.554 328.711 473.929 326.136 473.929 329.111C473.929 330.236 473.004 330.911 470.779 330.911C469.054 330.911 467.254 330.336 466.129 329.536L465.129 331.436C466.229 332.311 468.404 332.986 470.604 332.986ZM486.029 330.336C485.529 330.736 484.854 330.961 484.154 330.961C482.829 330.961 482.079 330.161 482.079 328.736V321.561H485.879V319.586H482.079V316.686H479.679V319.586H477.429V321.561H479.679V328.836C479.679 331.511 481.204 332.986 483.879 332.986C484.954 332.986 486.054 332.686 486.779 332.061L486.029 330.336ZM506.255 319.461C504.005 319.461 502.155 320.411 501.155 321.911C500.28 320.261 498.58 319.461 496.555 319.461C494.555 319.461 492.93 320.211 491.98 321.561V319.586H489.68V332.836H492.08V326.011C492.08 323.136 493.655 321.611 496.055 321.611C498.23 321.611 499.48 322.886 499.48 325.486V332.836H501.88V326.011C501.88 323.136 503.455 321.611 505.855 321.611C508.03 321.611 509.28 322.886 509.28 325.486V332.836H511.68V325.211C511.68 321.311 509.48 319.461 506.255 319.461ZM528.145 326.286C528.145 322.211 525.42 319.461 521.595 319.461C517.77 319.461 514.945 322.286 514.945 326.211C514.945 330.161 517.795 332.986 522.07 332.986C524.27 332.986 526.095 332.236 527.295 330.836L525.97 329.286C524.995 330.361 523.695 330.886 522.145 330.886C519.52 330.886 517.645 329.336 517.345 327.011H528.095C528.12 326.786 528.145 326.486 528.145 326.286ZM521.595 321.486C523.92 321.486 525.595 323.061 525.845 325.286H517.345C517.595 323.036 519.295 321.486 521.595 321.486ZM538.552 319.461C536.452 319.461 534.752 320.236 533.777 321.586V319.586H531.477V332.836H533.877V326.011C533.877 323.136 535.527 321.611 538.077 321.611C540.352 321.611 541.652 322.886 541.652 325.486V332.836H544.052V325.211C544.052 321.311 541.777 319.461 538.552 319.461ZM555.194 330.336C554.694 330.736 554.019 330.961 553.319 330.961C551.994 330.961 551.244 330.161 551.244 328.736V321.561H555.044V319.586H551.244V316.686H548.844V319.586H546.594V321.561H548.844V328.836C548.844 331.511 550.369 332.986 553.044 332.986C554.119 332.986 555.219 332.686 555.944 332.061L555.194 330.336ZM571.234 332.986C575.209 332.986 578.109 330.161 578.109 326.211C578.109 322.261 575.209 319.461 571.234 319.461C567.259 319.461 564.334 322.261 564.334 326.211C564.334 330.161 567.259 332.986 571.234 332.986ZM571.234 330.886C568.684 330.886 566.759 329.036 566.759 326.211C566.759 323.386 568.684 321.561 571.234 321.561C573.784 321.561 575.684 323.386 575.684 326.211C575.684 329.036 573.784 330.886 571.234 330.886ZM586.278 316.111C586.978 316.111 587.628 316.361 588.128 316.736L588.853 314.911C588.178 314.386 587.178 314.136 586.153 314.136C583.328 314.136 581.778 315.836 581.778 318.411V319.586H579.528V321.561H581.778V332.836H584.178V321.561H587.978V319.586H584.128V318.436C584.128 316.911 584.853 316.111 586.278 316.111ZM595.092 316.111C595.792 316.111 596.442 316.361 596.942 316.736L597.667 314.911C596.992 314.386 595.992 314.136 594.967 314.136C592.142 314.136 590.592 315.836 590.592 318.411V319.586H588.342V321.561H590.592V332.836H592.992V321.561H596.792V319.586H592.942V318.436C592.942 316.911 593.667 316.111 595.092 316.111ZM610.835 326.286C610.835 322.211 608.11 319.461 604.285 319.461C600.46 319.461 597.635 322.286 597.635 326.211C597.635 330.161 600.485 332.986 604.76 332.986C606.96 332.986 608.785 332.236 609.985 330.836L608.66 329.286C607.685 330.361 606.385 330.886 604.835 330.886C602.21 330.886 600.335 329.336 600.035 327.011H610.785C610.81 326.786 610.835 326.486 610.835 326.286ZM604.285 321.486C606.61 321.486 608.285 323.061 608.535 325.286H600.035C600.285 323.036 601.985 321.486 604.285 321.486ZM616.468 321.811V319.586H614.168V332.836H616.568V326.236C616.568 323.336 618.168 321.761 620.743 321.761C620.918 321.761 621.093 321.761 621.293 321.786V319.461C618.968 319.461 617.318 320.261 616.468 321.811ZM628.148 332.986C631.673 332.986 633.873 331.461 633.873 329.061C633.873 323.911 625.473 326.461 625.473 323.336C625.473 322.286 626.498 321.511 628.598 321.511C629.898 321.511 631.223 321.786 632.423 322.561L633.448 320.661C632.298 319.911 630.348 319.461 628.623 319.461C625.223 319.461 623.098 321.061 623.098 323.436C623.098 328.711 631.473 326.136 631.473 329.111C631.473 330.236 630.548 330.911 628.323 330.911C626.598 330.911 624.798 330.336 623.673 329.536L622.673 331.436C623.773 332.311 625.948 332.986 628.148 332.986Z" fill="black"/>
<g filter="url(#filter0_d)">
<circle cx="1363.26" cy="347.247" r="20.0382" fill="white"/>
</g>
<path d="M1359.07 337.57L1368.75 347.248L1359.07 356.926" stroke="black" stroke-width="3"/>
<g filter="url(#filter1_d)">
<circle cx="96.7384" cy="339.765" r="20.0382" transform="rotate(-180 96.7384 339.765)" fill="white"/>
</g>
<path d="M100.926 349.441L91.2483 339.764L100.926 330.086" stroke="black" stroke-width="3"/>
<path d="M191.576 287.895V282.225H202.951V277.815H191.576V272.495H204.456V267.945H185.941V292.445H204.911V287.895H191.576ZM216.496 273.335C213.486 273.335 210.441 274.14 208.376 275.61L210.336 279.425C211.701 278.34 213.766 277.675 215.761 277.675C218.701 277.675 220.101 279.04 220.101 281.385H215.761C210.021 281.385 207.676 283.695 207.676 287.02C207.676 290.275 210.301 292.725 214.711 292.725C217.476 292.725 219.436 291.815 220.451 290.1V292.445H225.561V281.7C225.561 275.995 222.236 273.335 216.496 273.335ZM216.076 289.05C214.151 289.05 212.996 288.14 212.996 286.775C212.996 285.515 213.801 284.57 216.356 284.57H220.101V286.495C219.471 288.21 217.896 289.05 216.076 289.05ZM235.717 276.1V273.615H230.502V292.445H235.962V283.555C235.962 279.95 237.957 278.305 240.967 278.305C241.387 278.305 241.737 278.34 242.192 278.375V273.335C239.287 273.335 237.047 274.28 235.717 276.1ZM256.884 273.335C254.329 273.335 252.124 274.21 250.654 275.82V273.615H245.439V292.445H250.899V283.135C250.899 279.67 252.789 278.06 255.414 278.06C257.829 278.06 259.229 279.46 259.229 282.505V292.445H264.689V281.665C264.689 275.925 261.329 273.335 256.884 273.335ZM293.06 273.615V282.925C293.06 286.39 291.24 288 288.72 288C286.305 288 284.905 286.6 284.905 283.45V273.615H279.445V284.255C279.445 290.065 282.77 292.725 287.495 292.725C289.805 292.725 291.905 291.85 293.34 290.205V292.445H298.52V273.615H293.06ZM314.709 273.335C312.189 273.335 310.159 274.14 308.794 275.785V273.615H303.579V299.235H309.039V290.45C310.439 291.99 312.364 292.725 314.709 292.725C319.994 292.725 324.089 288.945 324.089 283.03C324.089 277.115 319.994 273.335 314.709 273.335ZM313.764 288.245C311.034 288.245 308.969 286.285 308.969 283.03C308.969 279.775 311.034 277.815 313.764 277.815C316.494 277.815 318.559 279.775 318.559 283.03C318.559 286.285 316.494 288.245 313.764 288.245ZM348.331 287.685C347.736 288.14 346.931 288.385 346.126 288.385C344.656 288.385 343.781 287.51 343.781 285.9V278.235H348.471V274.035H343.781V269.45H338.321V274.035H335.416V278.235H338.321V285.97C338.321 290.45 340.911 292.725 345.356 292.725C347.036 292.725 348.681 292.34 349.801 291.535L348.331 287.685ZM361.245 292.725C367.23 292.725 371.57 288.7 371.57 283.03C371.57 277.36 367.23 273.335 361.245 273.335C355.26 273.335 350.885 277.36 350.885 283.03C350.885 288.7 355.26 292.725 361.245 292.725ZM361.245 288.245C358.515 288.245 356.415 286.285 356.415 283.03C356.415 279.775 358.515 277.815 361.245 277.815C363.975 277.815 366.04 279.775 366.04 283.03C366.04 286.285 363.975 288.245 361.245 288.245ZM382.856 267.945V272.495H387.756V292.445H393.426V267.945H382.856ZM406.082 277.15H404.087L404.472 272.495H414.692V267.945H399.747L398.487 281.735H404.752C409.197 281.735 410.457 282.995 410.457 284.92C410.457 286.915 408.707 288.105 405.872 288.105C403.317 288.105 400.762 287.3 398.907 285.9L396.667 290.24C399.047 291.92 402.617 292.865 406.012 292.865C413.012 292.865 416.197 289.085 416.197 284.745C416.197 280.405 413.327 277.15 406.082 277.15ZM423.826 281.175C427.396 281.175 429.881 278.585 429.881 274.42C429.881 270.255 427.396 267.665 423.826 267.665C420.256 267.665 417.736 270.29 417.736 274.42C417.736 278.55 420.256 281.175 423.826 281.175ZM421.691 292.445H425.856L442.586 267.945H438.421L421.691 292.445ZM423.826 278.305C422.321 278.305 421.271 277.01 421.271 274.42C421.271 271.83 422.321 270.535 423.826 270.535C425.366 270.535 426.381 271.795 426.381 274.42C426.381 277.045 425.366 278.305 423.826 278.305ZM440.451 292.725C444.021 292.725 446.541 290.1 446.541 285.97C446.541 281.84 444.021 279.215 440.451 279.215C436.916 279.215 434.396 281.84 434.396 285.97C434.396 290.1 436.916 292.725 440.451 292.725ZM440.451 289.855C438.946 289.855 437.896 288.595 437.896 285.97C437.896 283.345 438.946 282.085 440.451 282.085C441.991 282.085 443.006 283.38 443.006 285.97C443.006 288.56 441.991 289.855 440.451 289.855ZM462.646 270.99C464.676 270.99 466.041 269.66 466.041 267.84C466.041 266.16 464.676 264.9 462.646 264.9C460.616 264.9 459.251 266.23 459.251 267.945C459.251 269.66 460.616 270.99 462.646 270.99ZM459.916 292.445H465.376V273.615H459.916V292.445ZM481.889 273.335C479.334 273.335 477.129 274.21 475.659 275.82V273.615H470.444V292.445H475.904V283.135C475.904 279.67 477.794 278.06 480.419 278.06C482.834 278.06 484.234 279.46 484.234 282.505V292.445H489.694V281.665C489.694 275.925 486.334 273.335 481.889 273.335ZM505.318 287.685C504.723 288.14 503.918 288.385 503.113 288.385C501.643 288.385 500.768 287.51 500.768 285.9V278.235H505.458V274.035H500.768V269.45H495.308V274.035H492.403V278.235H495.308V285.97C495.308 290.45 497.898 292.725 502.343 292.725C504.023 292.725 505.668 292.34 506.788 291.535L505.318 287.685ZM527.717 283.1C527.717 277.045 523.447 273.335 517.917 273.335C512.177 273.335 507.872 277.395 507.872 283.03C507.872 288.63 512.107 292.725 518.617 292.725C522.012 292.725 524.637 291.675 526.387 289.68L523.482 286.53C522.187 287.755 520.752 288.35 518.757 288.35C515.887 288.35 513.892 286.915 513.367 284.57H527.612C527.647 284.115 527.717 283.52 527.717 283.1ZM517.952 277.465C520.402 277.465 522.187 279.005 522.572 281.385H513.297C513.682 278.97 515.467 277.465 517.952 277.465ZM536.567 276.1V273.615H531.352V292.445H536.812V283.555C536.812 279.95 538.807 278.305 541.817 278.305C542.237 278.305 542.587 278.34 543.042 278.375V273.335C540.137 273.335 537.897 274.28 536.567 276.1ZM564.563 283.1C564.563 277.045 560.293 273.335 554.763 273.335C549.023 273.335 544.718 277.395 544.718 283.03C544.718 288.63 548.953 292.725 555.463 292.725C558.858 292.725 561.483 291.675 563.233 289.68L560.328 286.53C559.033 287.755 557.598 288.35 555.603 288.35C552.733 288.35 550.738 286.915 550.213 284.57H564.458C564.493 284.115 564.563 283.52 564.563 283.1ZM554.798 277.465C557.248 277.465 559.033 279.005 559.418 281.385H550.143C550.528 278.97 552.313 277.465 554.798 277.465ZM574.533 292.725C580.168 292.725 583.423 290.24 583.423 286.74C583.423 279.32 572.048 282.435 572.048 279.215C572.048 278.235 573.098 277.465 575.548 277.465C577.263 277.465 579.118 277.815 580.973 278.865L582.793 274.98C581.008 273.93 578.138 273.335 575.548 273.335C570.053 273.335 566.833 275.855 566.833 279.425C566.833 286.95 578.208 283.8 578.208 286.88C578.208 287.93 577.263 288.595 574.743 288.595C572.433 288.595 569.878 287.86 568.198 286.775L566.378 290.695C568.128 291.85 571.348 292.725 574.533 292.725ZM597.466 287.685C596.871 288.14 596.066 288.385 595.261 288.385C593.791 288.385 592.916 287.51 592.916 285.9V278.235H597.606V274.035H592.916V269.45H587.456V274.035H584.551V278.235H587.456V285.97C587.456 290.45 590.046 292.725 594.491 292.725C596.171 292.725 597.816 292.34 598.936 291.535L597.466 287.685Z" fill="#21409A"/>
<g opacity="0.76">
<g opacity="0.76">
<path opacity="0.76" d="M406.743 463.299H325.645V466.159H406.743V463.299Z" fill="#49CED9"/>
<path opacity="0.76" d="M406.743 450.18H325.645V453.04H406.743V450.18Z" fill="#49CED9"/>
<path opacity="0.76" d="M406.743 456.742H325.645V459.603H406.743V456.742Z" fill="#49CED9"/>
<path opacity="0.76" d="M406.743 469.861H325.645V472.722H406.743V469.861Z" fill="#49CED9"/>
<path opacity="0.76" d="M406.743 476.424H325.645V479.284H406.743V476.424Z" fill="#49CED9"/>
<path opacity="0.76" d="M406.743 482.98H325.645V485.841H406.743V482.98Z" fill="#49CED9"/>
<path opacity="0.76" d="M406.743 489.543H325.645V492.403H406.743V489.543Z" fill="#49CED9"/>
<path opacity="0.76" d="M406.743 496.1H325.645V498.96H406.743V496.1Z" fill="#49CED9"/>
<path opacity="0.76" d="M406.743 502.662H325.645V505.523H406.743V502.662Z" fill="#49CED9"/>
<path opacity="0.76" d="M406.743 509.219H325.645V512.079H406.743V509.219Z" fill="#49CED9"/>
<path opacity="0.76" d="M406.743 515.781H325.645V518.642H406.743V515.781Z" fill="#49CED9"/>
<path opacity="0.76" d="M406.743 522.338H325.645V525.198H406.743V522.338Z" fill="#49CED9"/>
<path opacity="0.76" d="M406.743 528.9H325.645V531.761H406.743V528.9Z" fill="#49CED9"/>
</g>
</g>
<path d="M128.784 48.4185C128.784 49.2325 128.46 50.0131 127.885 50.5886C127.309 51.1641 126.529 51.4875 125.715 51.4875C125.312 51.4875 124.913 51.408 124.541 51.2538C124.169 51.0995 123.831 50.8733 123.546 50.5883C123.261 50.3033 123.036 49.9649 122.882 49.5926C122.728 49.2203 122.65 48.8213 122.65 48.4185C122.65 48.0157 122.728 47.6168 122.882 47.2444C123.036 46.8721 123.261 46.5338 123.546 46.2488C123.831 45.9637 124.169 45.7376 124.541 45.5833C124.913 45.429 125.312 45.3496 125.715 45.3496C126.529 45.3496 127.309 45.6729 127.885 46.2485C128.46 46.824 128.784 47.6046 128.784 48.4185Z" fill="#CCCCCC"/>
<path d="M144.561 48.4185C144.561 49.2325 144.237 50.0131 143.662 50.5886C143.086 51.1641 142.306 51.4875 141.492 51.4875C140.678 51.4875 139.897 51.1641 139.322 50.5886C138.746 50.0131 138.423 49.2325 138.423 48.4185C138.423 47.6046 138.746 46.824 139.322 46.2485C139.897 45.6729 140.678 45.3496 141.492 45.3496C142.306 45.3496 143.086 45.6729 143.662 46.2485C144.237 46.824 144.561 47.6046 144.561 48.4185Z" fill="#CCCCCC"/>
<path d="M160.333 48.4185C160.333 49.2325 160.01 50.0131 159.434 50.5886C158.859 51.1641 158.078 51.4875 157.264 51.4875C156.45 51.4875 155.67 51.1641 155.094 50.5886C154.519 50.0131 154.195 49.2325 154.195 48.4185C154.195 47.6046 154.519 46.824 155.094 46.2485C155.67 45.6729 156.45 45.3496 157.264 45.3496C158.078 45.3496 158.859 45.6729 159.434 46.2485C160.01 46.824 160.333 47.6046 160.333 48.4185Z" fill="#CCCCCC"/>
<path d="M176.106 48.4185C176.106 49.2325 175.783 50.0131 175.207 50.5886C174.632 51.1641 173.851 51.4875 173.037 51.4875C172.634 51.4875 172.235 51.408 171.863 51.2538C171.491 51.0995 171.153 50.8733 170.869 50.5883C170.584 50.3033 170.358 49.9649 170.205 49.5926C170.051 49.2203 169.972 48.8213 169.973 48.4185C169.972 48.0157 170.051 47.6168 170.205 47.2444C170.358 46.8721 170.584 46.5338 170.869 46.2488C171.153 45.9637 171.491 45.7376 171.863 45.5833C172.235 45.429 172.634 45.3496 173.037 45.3496C173.851 45.3496 174.632 45.6729 175.207 46.2485C175.783 46.824 176.106 47.6046 176.106 48.4185Z" fill="#CCCCCC"/>
<path d="M191.878 48.4179C191.876 49.2294 191.552 50.007 190.978 50.5804C190.404 51.1539 189.626 51.4765 188.814 51.4777C188.411 51.4777 188.012 51.3983 187.64 51.244C187.268 51.0897 186.93 50.8636 186.646 50.5785C186.361 50.2935 186.135 49.9552 185.982 49.5828C185.828 49.2105 185.749 48.8116 185.75 48.4088C185.749 48.006 185.828 47.607 185.982 47.2347C186.135 46.8624 186.361 46.524 186.646 46.239C186.93 45.9539 187.268 45.7278 187.64 45.5735C188.012 45.4193 188.411 45.3398 188.814 45.3398C189.218 45.3404 189.617 45.4206 189.989 45.5756C190.362 45.7307 190.7 45.9577 190.984 46.2435C191.269 46.5294 191.495 46.8686 191.648 47.2417C191.801 47.6148 191.88 48.0145 191.878 48.4179Z" fill="#CCCCCC"/>
<path d="M207.656 48.4185C207.656 49.2325 207.332 50.0131 206.757 50.5886C206.181 51.1641 205.401 51.4875 204.587 51.4875C203.773 51.4875 202.992 51.1641 202.417 50.5886C201.841 50.0131 201.518 49.2325 201.518 48.4185C201.518 47.6046 201.841 46.824 202.417 46.2485C202.992 45.6729 203.773 45.3496 204.587 45.3496C205.401 45.3496 206.181 45.6729 206.757 46.2485C207.332 46.824 207.656 47.6046 207.656 48.4185Z" fill="#CCCCCC"/>
<path d="M128.783 64.19C128.783 64.797 128.603 65.3903 128.266 65.895C127.929 66.3997 127.45 66.793 126.889 67.0253C126.328 67.2576 125.711 67.3184 125.116 67.2C124.52 67.0816 123.974 66.7893 123.544 66.3601C123.115 65.9309 122.823 65.384 122.704 64.7887C122.586 64.1934 122.647 63.5764 122.879 63.0156C123.111 62.4548 123.505 61.9755 124.009 61.6383C124.514 61.3011 125.108 61.1211 125.714 61.1211C126.528 61.1211 127.309 61.4444 127.885 62.02C128.46 62.5955 128.783 63.3761 128.783 64.19Z" fill="#CCCCCC"/>
<path d="M144.561 64.19C144.561 64.797 144.381 65.3903 144.043 65.895C143.706 66.3997 143.227 66.793 142.666 67.0253C142.105 67.2576 141.488 67.3184 140.893 67.2C140.298 67.0816 139.751 66.7893 139.322 66.3601C138.893 65.9309 138.6 65.384 138.482 64.7887C138.363 64.1934 138.424 63.5764 138.656 63.0156C138.889 62.4548 139.282 61.9755 139.787 61.6383C140.291 61.3011 140.885 61.1211 141.492 61.1211C142.306 61.1211 143.086 61.4444 143.662 62.02C144.237 62.5955 144.561 63.3761 144.561 64.19Z" fill="#CCCCCC"/>
<path d="M160.333 64.19C160.333 64.797 160.153 65.3903 159.816 65.895C159.479 66.3997 158.999 66.793 158.439 67.0253C157.878 67.2576 157.261 67.3184 156.666 67.2C156.07 67.0816 155.523 66.7893 155.094 66.3601C154.665 65.9309 154.373 65.384 154.254 64.7887C154.136 64.1934 154.197 63.5764 154.429 63.0156C154.661 62.4548 155.055 61.9755 155.559 61.6383C156.064 61.3011 156.657 61.1211 157.264 61.1211C158.078 61.1211 158.859 61.4444 159.434 62.02C160.01 62.5955 160.333 63.3761 160.333 64.19Z" fill="#CCCCCC"/>
<path d="M176.106 64.19C176.106 64.797 175.926 65.3903 175.589 65.895C175.251 66.3997 174.772 66.793 174.211 67.0253C173.651 67.2576 173.033 67.3184 172.438 67.2C171.843 67.0816 171.296 66.7893 170.867 66.3601C170.438 65.9309 170.145 65.384 170.027 64.7887C169.909 64.1934 169.969 63.5764 170.202 63.0156C170.434 62.4548 170.827 61.9755 171.332 61.6383C171.837 61.3011 172.43 61.1211 173.037 61.1211C173.851 61.1211 174.631 61.4444 175.207 62.02C175.782 62.5955 176.106 63.3761 176.106 64.19Z" fill="#CCCCCC"/>
<path d="M191.878 64.19C191.878 64.7972 191.698 65.3907 191.361 65.8955C191.024 66.4003 190.544 66.7936 189.983 67.0258C189.422 67.2579 188.805 67.3184 188.209 67.1996C187.614 67.0808 187.067 66.7881 186.638 66.3585C186.209 65.9288 185.917 65.3816 185.799 64.7859C185.681 64.1903 185.743 63.5731 185.976 63.0124C186.209 62.4517 186.603 61.9728 187.108 61.6361C187.613 61.2994 188.207 61.1202 188.814 61.1211C189.627 61.1223 190.407 61.4462 190.981 62.0216C191.556 62.597 191.879 63.3769 191.878 64.19Z" fill="#CCCCCC"/>
<path d="M207.656 64.19C207.656 64.797 207.476 65.3903 207.138 65.895C206.801 66.3997 206.322 66.793 205.761 67.0253C205.2 67.2576 204.583 67.3184 203.988 67.2C203.393 67.0816 202.846 66.7893 202.417 66.3601C201.987 65.9309 201.695 65.384 201.577 64.7887C201.458 64.1934 201.519 63.5764 201.751 63.0156C201.984 62.4548 202.377 61.9755 202.882 61.6383C203.386 61.3011 203.98 61.1211 204.587 61.1211C205.401 61.1211 206.181 61.4444 206.757 62.02C207.332 62.5955 207.656 63.3761 207.656 64.19Z" fill="#CCCCCC"/>
<path d="M128.783 79.9635C128.783 80.5704 128.603 81.1638 128.266 81.6685C127.929 82.1731 127.45 82.5665 126.889 82.7988C126.328 83.031 125.711 83.0918 125.116 82.9734C124.52 82.855 123.974 82.5627 123.544 82.1335C123.115 81.7043 122.823 81.1575 122.704 80.5622C122.586 79.9669 122.647 79.3498 122.879 78.789C123.111 78.2283 123.505 77.749 124.009 77.4117C124.514 77.0745 125.108 76.8945 125.714 76.8945C126.528 76.8945 127.309 77.2179 127.885 77.7934C128.46 78.3689 128.783 79.1495 128.783 79.9635Z" fill="#CCCCCC"/>
<path d="M144.561 79.9635C144.561 80.5704 144.381 81.1638 144.043 81.6685C143.706 82.1731 143.227 82.5665 142.666 82.7988C142.105 83.031 141.488 83.0918 140.893 82.9734C140.298 82.855 139.751 82.5627 139.322 82.1335C138.893 81.7043 138.6 81.1575 138.482 80.5622C138.363 79.9669 138.424 79.3498 138.656 78.789C138.889 78.2283 139.282 77.749 139.787 77.4117C140.291 77.0745 140.885 76.8945 141.492 76.8945C142.306 76.8945 143.086 77.2179 143.662 77.7934C144.237 78.3689 144.561 79.1495 144.561 79.9635Z" fill="#CCCCCC"/>
<path d="M160.333 79.9635C160.333 80.5704 160.153 81.1638 159.816 81.6685C159.479 82.1731 158.999 82.5665 158.439 82.7988C157.878 83.031 157.261 83.0918 156.666 82.9734C156.07 82.855 155.523 82.5627 155.094 82.1335C154.665 81.7043 154.373 81.1575 154.254 80.5622C154.136 79.9669 154.197 79.3498 154.429 78.789C154.661 78.2283 155.055 77.749 155.559 77.4117C156.064 77.0745 156.657 76.8945 157.264 76.8945C158.078 76.8945 158.859 77.2179 159.434 77.7934C160.01 78.3689 160.333 79.1495 160.333 79.9635Z" fill="#CCCCCC"/>
<path d="M176.106 79.9635C176.106 80.5704 175.926 81.1638 175.589 81.6685C175.251 82.1731 174.772 82.5665 174.211 82.7988C173.651 83.031 173.033 83.0918 172.438 82.9734C171.843 82.855 171.296 82.5627 170.867 82.1335C170.438 81.7043 170.145 81.1575 170.027 80.5622C169.909 79.9669 169.969 79.3498 170.202 78.789C170.434 78.2283 170.827 77.749 171.332 77.4117C171.837 77.0745 172.43 76.8945 173.037 76.8945C173.851 76.8945 174.631 77.2179 175.207 77.7934C175.782 78.3689 176.106 79.1495 176.106 79.9635Z" fill="#CCCCCC"/>
<path d="M191.878 79.9635C191.878 80.5704 191.699 81.1638 191.361 81.6685C191.024 82.1731 190.545 82.5665 189.984 82.7988C189.423 83.031 188.806 83.0918 188.211 82.9734C187.616 82.855 187.069 82.5627 186.64 82.1335C186.21 81.7043 185.918 81.1575 185.8 80.5622C185.681 79.9669 185.742 79.3498 185.974 78.789C186.207 78.2283 186.6 77.749 187.105 77.4117C187.609 77.0745 188.203 76.8945 188.81 76.8945C189.624 76.8945 190.404 77.2179 190.98 77.7934C191.555 78.3689 191.878 79.1495 191.878 79.9635Z" fill="#CCCCCC"/>
<path d="M207.656 79.9635C207.656 80.5704 207.476 81.1638 207.138 81.6685C206.801 82.1731 206.322 82.5665 205.761 82.7988C205.2 83.031 204.583 83.0918 203.988 82.9734C203.393 82.855 202.846 82.5627 202.417 82.1335C201.987 81.7043 201.695 81.1575 201.577 80.5622C201.458 79.9669 201.519 79.3498 201.751 78.789C201.984 78.2283 202.377 77.749 202.882 77.4117C203.386 77.0745 203.98 76.8945 204.587 76.8945C205.401 76.8945 206.181 77.2179 206.757 77.7934C207.332 78.3689 207.656 79.1495 207.656 79.9635Z" fill="#CCCCCC"/>
<path d="M128.783 95.7362C128.784 96.3434 128.605 96.9372 128.268 97.4425C127.932 97.9478 127.453 98.3418 126.892 98.5748C126.331 98.8078 125.714 98.8692 125.118 98.7513C124.523 98.6334 123.976 98.3415 123.546 97.9125C123.116 97.4834 122.824 96.9366 122.705 96.3412C122.586 95.7458 122.647 95.1285 122.879 94.5674C123.111 94.0064 123.504 93.5268 124.009 93.1894C124.514 92.852 125.107 92.6719 125.714 92.6719C126.528 92.6719 127.307 92.9946 127.883 93.5691C128.458 94.1437 128.782 94.9231 128.783 95.7362Z" fill="#CCCCCC"/>
<path d="M144.561 95.7362C144.562 96.3434 144.382 96.9372 144.046 97.4425C143.709 97.9478 143.23 98.3418 142.669 98.5748C142.109 98.8078 141.491 98.8692 140.896 98.7513C140.3 98.6334 139.753 98.3415 139.323 97.9125C138.894 97.4834 138.601 96.9366 138.482 96.3412C138.363 95.7458 138.424 95.1285 138.656 94.5674C138.888 94.0064 139.282 93.5268 139.786 93.1894C140.291 92.852 140.885 92.6719 141.492 92.6719C142.305 92.6719 143.085 92.9946 143.66 93.5691C144.236 94.1437 144.56 94.9231 144.561 95.7362Z" fill="#CCCCCC"/>
<path d="M160.333 95.7362C160.334 96.3434 160.155 96.9372 159.818 97.4425C159.482 97.9478 159.003 98.3418 158.442 98.5748C157.881 98.8078 157.264 98.8692 156.668 98.7513C156.073 98.6334 155.525 98.3415 155.096 97.9125C154.666 97.4834 154.373 96.9366 154.255 96.3412C154.136 95.7458 154.196 95.1285 154.428 94.5674C154.661 94.0064 155.054 93.5268 155.559 93.1894C156.064 92.852 156.657 92.6719 157.264 92.6719C158.077 92.6719 158.857 92.9946 159.433 93.5691C160.008 94.1437 160.332 94.9231 160.333 95.7362Z" fill="#CCCCCC"/>
<path d="M176.106 95.7362C176.107 96.3434 175.928 96.9372 175.591 97.4425C175.254 97.9478 174.775 98.3418 174.215 98.5748C173.654 98.8078 173.037 98.8692 172.441 98.7513C171.845 98.6334 171.298 98.3415 170.868 97.9125C170.439 97.4834 170.146 96.9366 170.027 96.3412C169.909 95.7458 169.969 95.1285 170.201 94.5674C170.433 94.0064 170.827 93.5268 171.331 93.1894C171.836 92.852 172.43 92.6719 173.037 92.6719C173.85 92.6719 174.63 92.9946 175.205 93.5691C175.781 94.1437 176.105 94.9231 176.106 95.7362Z" fill="#CCCCCC"/>
<path d="M191.878 95.7362C191.879 96.3434 191.7 96.9372 191.364 97.4425C191.027 97.9478 190.548 98.3418 189.987 98.5748C189.426 98.8078 188.809 98.8692 188.214 98.7513C187.618 98.6334 187.071 98.3415 186.641 97.9125C186.211 97.4834 185.919 96.9366 185.8 96.3412C185.681 95.7458 185.742 95.1285 185.974 94.5674C186.206 94.0064 186.599 93.5268 187.104 93.1894C187.609 92.852 188.202 92.6719 188.81 92.6719C189.623 92.6719 190.403 92.9946 190.978 93.5691C191.553 94.1437 191.877 94.9231 191.878 95.7362Z" fill="#CCCCCC"/>
<path d="M207.656 95.7362C207.657 96.3434 207.477 96.9372 207.141 97.4425C206.804 97.9478 206.325 98.3418 205.764 98.5748C205.204 98.8078 204.586 98.8692 203.991 98.7513C203.395 98.6334 202.848 98.3415 202.418 97.9125C201.989 97.4834 201.696 96.9366 201.577 96.3412C201.458 95.7458 201.519 95.1285 201.751 94.5674C201.983 94.0064 202.376 93.5268 202.881 93.1894C203.386 92.852 203.98 92.6719 204.587 92.6719C205.4 92.6719 206.18 92.9946 206.755 93.5691C207.331 94.1437 207.654 94.9231 207.656 95.7362Z" fill="#CCCCCC"/>
<path d="M128.783 111.512C128.783 112.119 128.603 112.713 128.266 113.217C127.929 113.722 127.45 114.115 126.889 114.348C126.328 114.58 125.711 114.641 125.116 114.522C124.52 114.404 123.974 114.112 123.544 113.682C123.115 113.253 122.823 112.706 122.704 112.111C122.586 111.516 122.647 110.899 122.879 110.338C123.111 109.777 123.505 109.298 124.009 108.961C124.514 108.623 125.108 108.443 125.714 108.443C126.118 108.443 126.517 108.522 126.89 108.676C127.262 108.83 127.601 109.056 127.886 109.341C128.171 109.626 128.397 109.965 128.551 110.337C128.705 110.71 128.784 111.109 128.783 111.512Z" fill="#CCCCCC"/>
<path d="M144.561 111.512C144.561 112.119 144.381 112.713 144.043 113.217C143.706 113.722 143.227 114.115 142.666 114.348C142.105 114.58 141.488 114.641 140.893 114.522C140.298 114.404 139.751 114.112 139.322 113.682C138.893 113.253 138.6 112.706 138.482 112.111C138.363 111.516 138.424 110.899 138.656 110.338C138.889 109.777 139.282 109.298 139.787 108.961C140.291 108.623 140.885 108.443 141.492 108.443C141.895 108.443 142.294 108.522 142.667 108.676C143.04 108.83 143.378 109.056 143.663 109.341C143.948 109.626 144.174 109.965 144.328 110.337C144.482 110.71 144.561 111.109 144.561 111.512Z" fill="#CCCCCC"/>
<path d="M160.333 111.512C160.333 112.119 160.153 112.713 159.816 113.217C159.479 113.722 158.999 114.115 158.439 114.348C157.878 114.58 157.261 114.641 156.666 114.522C156.07 114.404 155.523 114.112 155.094 113.682C154.665 113.253 154.373 112.706 154.254 112.111C154.136 111.516 154.197 110.899 154.429 110.338C154.661 109.777 155.055 109.298 155.559 108.961C156.064 108.623 156.657 108.443 157.264 108.443C157.667 108.443 158.067 108.522 158.439 108.676C158.812 108.83 159.151 109.056 159.436 109.341C159.721 109.626 159.947 109.965 160.101 110.337C160.255 110.71 160.334 111.109 160.333 111.512Z" fill="#CCCCCC"/>
<path d="M176.106 111.512C176.106 112.119 175.926 112.713 175.589 113.217C175.251 113.722 174.772 114.115 174.211 114.348C173.651 114.58 173.033 114.641 172.438 114.522C171.843 114.404 171.296 114.112 170.867 113.682C170.438 113.253 170.145 112.706 170.027 112.111C169.909 111.516 169.969 110.899 170.202 110.338C170.434 109.777 170.827 109.298 171.332 108.961C171.837 108.623 172.43 108.443 173.037 108.443C173.44 108.443 173.839 108.522 174.212 108.676C174.585 108.83 174.923 109.056 175.208 109.341C175.493 109.626 175.719 109.965 175.873 110.337C176.027 110.71 176.106 111.109 176.106 111.512Z" fill="#CCCCCC"/>
<path d="M191.878 111.512C191.878 112.119 191.699 112.713 191.361 113.217C191.024 113.722 190.545 114.115 189.984 114.348C189.423 114.58 188.806 114.641 188.211 114.522C187.616 114.404 187.069 114.112 186.64 113.682C186.21 113.253 185.918 112.706 185.8 112.111C185.681 111.516 185.742 110.899 185.974 110.338C186.207 109.777 186.6 109.298 187.105 108.961C187.609 108.623 188.203 108.443 188.81 108.443C189.213 108.443 189.612 108.522 189.985 108.676C190.357 108.83 190.696 109.056 190.981 109.341C191.266 109.626 191.492 109.965 191.646 110.337C191.8 110.71 191.879 111.109 191.878 111.512Z" fill="#CCCCCC"/>
<path d="M207.656 111.512C207.656 112.119 207.476 112.713 207.138 113.217C206.801 113.722 206.322 114.115 205.761 114.348C205.2 114.58 204.583 114.641 203.988 114.522C203.393 114.404 202.846 114.112 202.417 113.682C201.987 113.253 201.695 112.706 201.577 112.111C201.458 111.516 201.519 110.899 201.751 110.338C201.984 109.777 202.377 109.298 202.882 108.961C203.386 108.623 203.98 108.443 204.587 108.443C204.99 108.443 205.389 108.522 205.762 108.676C206.134 108.83 206.473 109.056 206.758 109.341C207.043 109.626 207.269 109.965 207.423 110.337C207.577 110.71 207.656 111.109 207.656 111.512Z" fill="#CCCCCC"/>
<path d="M128.783 127.286C128.783 127.893 128.603 128.486 128.266 128.991C127.929 129.495 127.45 129.889 126.889 130.121C126.328 130.353 125.711 130.414 125.116 130.296C124.52 130.177 123.974 129.885 123.544 129.456C123.115 129.027 122.823 128.48 122.704 127.884C122.586 127.289 122.647 126.672 122.879 126.111C123.111 125.551 123.505 125.071 124.009 124.734C124.514 124.397 125.108 124.217 125.714 124.217C126.528 124.217 127.309 124.54 127.885 125.116C128.46 125.691 128.783 126.472 128.783 127.286Z" fill="#CCCCCC"/>
<path d="M144.561 127.286C144.561 127.893 144.381 128.486 144.043 128.991C143.706 129.495 143.227 129.889 142.666 130.121C142.105 130.353 141.488 130.414 140.893 130.296C140.298 130.177 139.751 129.885 139.322 129.456C138.893 129.027 138.6 128.48 138.482 127.884C138.363 127.289 138.424 126.672 138.656 126.111C138.889 125.551 139.282 125.071 139.787 124.734C140.291 124.397 140.885 124.217 141.492 124.217C142.306 124.217 143.086 124.54 143.662 125.116C144.237 125.691 144.561 126.472 144.561 127.286Z" fill="#CCCCCC"/>
<path d="M160.333 127.286C160.333 127.893 160.153 128.486 159.816 128.991C159.479 129.495 158.999 129.889 158.439 130.121C157.878 130.353 157.261 130.414 156.666 130.296C156.07 130.177 155.523 129.885 155.094 129.456C154.665 129.027 154.373 128.48 154.254 127.884C154.136 127.289 154.197 126.672 154.429 126.111C154.661 125.551 155.055 125.071 155.559 124.734C156.064 124.397 156.657 124.217 157.264 124.217C158.078 124.217 158.859 124.54 159.434 125.116C160.01 125.691 160.333 126.472 160.333 127.286Z" fill="#CCCCCC"/>
<path d="M176.106 127.286C176.106 127.893 175.926 128.486 175.589 128.991C175.251 129.495 174.772 129.889 174.211 130.121C173.651 130.353 173.033 130.414 172.438 130.296C171.843 130.177 171.296 129.885 170.867 129.456C170.438 129.027 170.145 128.48 170.027 127.884C169.909 127.289 169.969 126.672 170.202 126.111C170.434 125.551 170.827 125.071 171.332 124.734C171.837 124.397 172.43 124.217 173.037 124.217C173.851 124.217 174.631 124.54 175.207 125.116C175.782 125.691 176.106 126.472 176.106 127.286Z" fill="#CCCCCC"/>
<path d="M191.878 127.286C191.878 127.893 191.699 128.486 191.361 128.991C191.024 129.495 190.545 129.889 189.984 130.121C189.423 130.353 188.806 130.414 188.211 130.296C187.616 130.177 187.069 129.885 186.64 129.456C186.21 129.027 185.918 128.48 185.8 127.884C185.681 127.289 185.742 126.672 185.974 126.111C186.207 125.551 186.6 125.071 187.105 124.734C187.609 124.397 188.203 124.217 188.81 124.217C189.624 124.217 190.404 124.54 190.98 125.116C191.555 125.691 191.878 126.472 191.878 127.286Z" fill="#CCCCCC"/>
<path d="M207.656 127.286C207.656 127.893 207.476 128.486 207.138 128.991C206.801 129.495 206.322 129.889 205.761 130.121C205.2 130.353 204.583 130.414 203.988 130.296C203.393 130.177 202.846 129.885 202.417 129.456C201.987 129.027 201.695 128.48 201.577 127.884C201.458 127.289 201.519 126.672 201.751 126.111C201.984 125.551 202.377 125.071 202.882 124.734C203.386 124.397 203.98 124.217 204.587 124.217C205.401 124.217 206.181 124.54 206.757 125.116C207.332 125.691 207.656 126.472 207.656 127.286Z" fill="#CCCCCC"/>
<g clip-path="url(#clip0)">
<path d="M705.724 490.184C705.724 490.184 644.242 446.078 690.945 382.949C737.647 319.82 732.01 297.64 689.583 232.674C647.155 167.708 688.305 120.203 751.635 126.537C814.965 132.871 845.062 82.1992 889.4 58.4466C933.738 34.694 988.126 33.5961 1046.4 77.6915C1104.67 121.787 1204.5 56.8631 1253.58 91.7002C1302.67 126.537 1256.48 175.52 1248.4 206.346C1240.33 237.171 1253.94 274.753 1294.71 313.528C1360.17 375.717 1301.05 489.529 1301.05 489.529L705.724 490.184Z" fill="#EDF7F4"/>
<g opacity="0.63">
<path opacity="0.63" d="M855.85 470.074V490.195" stroke="#75C0F2" stroke-width="12" stroke-miterlimit="10"/>
<path opacity="0.63" d="M882.769 454.619V490.195" stroke="#75C0F2" stroke-width="12" stroke-miterlimit="10"/>
<path opacity="0.63" d="M909.689 423.963V490.196" stroke="#75C0F2" stroke-width="12" stroke-miterlimit="10"/>
<path opacity="0.63" d="M936.608 443.66V490.194" stroke="#75C0F2" stroke-width="12" stroke-miterlimit="10"/>
<path opacity="0.63" d="M963.528 461.301V490.194" stroke="#75C0F2" stroke-width="12" stroke-miterlimit="10"/>
<path opacity="0.63" d="M990.448 419.031V490.194" stroke="#75C0F2" stroke-width="12" stroke-miterlimit="10"/>
<path opacity="0.63" d="M1017.37 450.744V490.195" stroke="#75C0F2" stroke-width="12" stroke-miterlimit="10"/>
<path opacity="0.63" d="M1044.29 416.615V490.195" stroke="#75C0F2" stroke-width="12" stroke-miterlimit="10"/>
<path opacity="0.63" d="M1071.21 367.895V490.194" stroke="#75C0F2" stroke-width="12" stroke-miterlimit="10"/>
<path opacity="0.63" d="M1098.13 395.807V490.194" stroke="#75C0F2" stroke-width="12" stroke-miterlimit="10"/>
<path opacity="0.63" d="M1125.05 367.895V490.194" stroke="#75C0F2" stroke-width="12" stroke-miterlimit="10"/>
<path opacity="0.63" d="M1151.96 427.91V489.614" stroke="#75C0F2" stroke-width="12" stroke-miterlimit="10"/>
<path opacity="0.63" d="M1178.88 381.334V490.195" stroke="#75C0F2" stroke-width="12" stroke-miterlimit="10"/>
<path opacity="0.63" d="M1205.8 319.092V490.195" stroke="#75C0F2" stroke-width="12" stroke-miterlimit="10"/>
<path opacity="0.63" d="M1232.72 371.178V490.194" stroke="#75C0F2" stroke-width="12" stroke-miterlimit="10"/>
<path opacity="0.63" d="M1259.64 312.029V490.195" stroke="#75C0F2" stroke-width="12" stroke-miterlimit="10"/>
</g>
<g opacity="0.64">
<path opacity="0.64" d="M1233.72 253.923L1229.45 258.188L1164.66 322.975H1083.25L1013.46 392.765H904.305L806.824 490.235H770.763L893.748 367.26H1002.89L1072.68 297.47H1154.1L1211.42 240.168L1215.69 235.893L1224.7 244.919L1233.72 253.923Z" fill="#75C0F2"/>
<path opacity="0.64" d="M1284.29 185.316L1176.23 227.585L1224.7 244.919L1242.03 293.375L1284.29 185.316Z" fill="#75C0F2"/>
</g>
<path d="M1157.03 112.443H840.743C832.569 112.443 825.943 119.07 825.943 127.244V325.984C825.943 334.158 832.569 340.785 840.743 340.785H1157.03C1165.21 340.785 1171.83 334.158 1171.83 325.984V127.244C1171.83 119.07 1165.21 112.443 1157.03 112.443Z" fill="white" stroke="#C3E6DD" stroke-width="5" stroke-miterlimit="10"/>
<path d="M874.218 301.619V312.028" stroke="#C3E6DD" stroke-width="0.76" stroke-linecap="round" stroke-linejoin="round"/>
<path d="M919.095 271.756V312.03" stroke="#C3E6DD" stroke-width="0.76" stroke-linecap="round" stroke-linejoin="round"/>
<path d="M965.924 241.299V312.029" stroke="#C3E6DD" stroke-width="0.76" stroke-linecap="round" stroke-linejoin="round"/>
<path d="M1014.35 285.627V312.029" stroke="#C3E6DD" stroke-width="0.76" stroke-linecap="round" stroke-linejoin="round"/>
<path d="M1061.48 225.053V312.029" stroke="#C3E6DD" stroke-width="0.76" stroke-linecap="round" stroke-linejoin="round"/>
<path d="M1108.63 271.756V312.03" stroke="#C3E6DD" stroke-width="0.76" stroke-linecap="round" stroke-linejoin="round"/>
<path d="M1156.12 209.902V312.028" stroke="#C3E6DD" stroke-width="0.76" stroke-linecap="round" stroke-linejoin="round"/>
<path d="M852.957 167.096V188.241" stroke="#C3E6DD" stroke-width="7.37" stroke-miterlimit="10"/>
<path d="M864.897 157.795V188.24" stroke="#C3E6DD" stroke-width="7.37" stroke-miterlimit="10"/>
<path d="M849.009 192.369H868.866" stroke="#C3E6DD" stroke-width="2.46" stroke-miterlimit="10"/>
<path d="M881.714 154.723V188.24" stroke="#C3E6DD" stroke-width="7.37" stroke-miterlimit="10"/>
<path d="M893.653 144.578V188.241" stroke="#C3E6DD" stroke-width="7.37" stroke-miterlimit="10"/>
<path d="M877.755 192.369H897.623" stroke="#C3E6DD" stroke-width="2.46" stroke-miterlimit="10"/>
<path d="M910.459 154.723V188.24" stroke="#C3E6DD" stroke-width="7.37" stroke-miterlimit="10"/>
<path d="M922.399 164.457V188.241" stroke="#C3E6DD" stroke-width="7.37" stroke-miterlimit="10"/>
<path d="M906.511 192.369H926.368" stroke="#C3E6DD" stroke-width="2.46" stroke-miterlimit="10"/>
<path d="M939.216 171.477V188.241" stroke="#C3E6DD" stroke-width="7.37" stroke-miterlimit="10"/>
<path d="M951.156 165.301V188.24" stroke="#C3E6DD" stroke-width="7.37" stroke-miterlimit="10"/>
<path d="M935.257 192.369H955.125" stroke="#C3E6DD" stroke-width="2.46" stroke-miterlimit="10"/>
<path d="M967.962 157.795V188.24" stroke="#C3E6DD" stroke-width="7.37" stroke-miterlimit="10"/>
<path d="M979.901 146.859V188.242" stroke="#C3E6DD" stroke-width="7.37" stroke-miterlimit="10"/>
<path d="M964.014 192.369H983.871" stroke="#C3E6DD" stroke-width="2.46" stroke-miterlimit="10"/>
<path d="M996.718 159.379V188.241" stroke="#C3E6DD" stroke-width="7.37" stroke-miterlimit="10"/>
<path d="M1008.66 173.018V188.24" stroke="#C3E6DD" stroke-width="7.37" stroke-miterlimit="10"/>
<path d="M992.759 192.369H1012.63" stroke="#C3E6DD" stroke-width="2.46" stroke-miterlimit="10"/>
<path d="M1025.46 155.99V188.241" stroke="#C3E6DD" stroke-width="7.37" stroke-miterlimit="10"/>
<path d="M1037.4 162.758V188.242" stroke="#C3E6DD" stroke-width="7.37" stroke-miterlimit="10"/>
<path d="M1021.52 192.369H1041.37" stroke="#C3E6DD" stroke-width="2.46" stroke-miterlimit="10"/>
<path d="M1054.22 162.758V188.242" stroke="#C3E6DD" stroke-width="7.37" stroke-miterlimit="10"/>
<path d="M1066.16 171.477V188.241" stroke="#C3E6DD" stroke-width="7.37" stroke-miterlimit="10"/>
<path d="M1050.26 192.369H1070.13" stroke="#C3E6DD" stroke-width="2.46" stroke-miterlimit="10"/>
<path d="M1082.97 157.795V188.24" stroke="#C3E6DD" stroke-width="7.37" stroke-miterlimit="10"/>
<path d="M1094.91 147.523V188.241" stroke="#C3E6DD" stroke-width="7.37" stroke-miterlimit="10"/>
<path d="M1079.02 192.369H1098.88" stroke="#C3E6DD" stroke-width="2.46" stroke-miterlimit="10"/>
<path d="M1111.71 159.379V188.241" stroke="#C3E6DD" stroke-width="7.37" stroke-miterlimit="10"/>
<path d="M1123.66 152.338V188.241" stroke="#C3E6DD" stroke-width="7.37" stroke-miterlimit="10"/>
<path d="M1107.76 192.369H1127.63" stroke="#C3E6DD" stroke-width="2.46" stroke-miterlimit="10"/>
<path d="M1140.47 142.225V188.241" stroke="#C3E6DD" stroke-width="7.37" stroke-miterlimit="10"/>
<path d="M1152.41 149.445V188.241" stroke="#C3E6DD" stroke-width="7.37" stroke-miterlimit="10"/>
<path d="M1136.51 192.369H1156.38" stroke="#C3E6DD" stroke-width="2.46" stroke-miterlimit="10"/>
<path d="M849.009 209.902H868.866" stroke="#C3E6DD" stroke-width="2.4" stroke-miterlimit="10"/>
<path d="M849.009 224.492H868.866" stroke="#C3E6DD" stroke-width="2.4" stroke-miterlimit="10"/>
<path d="M849.009 239.082H868.866" stroke="#C3E6DD" stroke-width="2.4" stroke-miterlimit="10"/>
<path d="M849.009 253.672H868.866" stroke="#C3E6DD" stroke-width="2.4" stroke-miterlimit="10"/>
<path d="M849.009 268.262H868.866" stroke="#C3E6DD" stroke-width="2.4" stroke-miterlimit="10"/>
<path d="M849.009 282.85H868.866" stroke="#C3E6DD" stroke-width="2.4" stroke-miterlimit="10"/>
<path d="M849.009 297.439H868.866" stroke="#C3E6DD" stroke-width="2.4" stroke-miterlimit="10"/>
<path d="M849.009 312.029H868.866" stroke="#C3E6DD" stroke-width="2.4" stroke-miterlimit="10"/>
<path d="M872.941 297.429C896.514 297.429 896.514 265.759 920.087 265.759C943.66 265.759 943.639 240.18 967.202 240.18C990.764 240.18 990.775 282.882 1014.35 282.882C1037.92 282.882 1037.91 224.535 1061.48 224.535C1085.06 224.535 1085.06 268.936 1108.63 268.936C1132.2 268.936 1132.21 209.945 1155.79 209.945" stroke="#C3E6DD" stroke-width="2.4" stroke-miterlimit="10"/>
<path d="M876.815 297.376C876.813 296.861 876.658 296.357 876.37 295.929C876.082 295.502 875.673 295.169 875.196 294.974C874.719 294.778 874.194 294.729 873.689 294.831C873.183 294.934 872.72 295.184 872.357 295.551C871.993 295.917 871.747 296.382 871.648 296.888C871.55 297.395 871.604 297.919 871.803 298.394C872.002 298.87 872.338 299.276 872.768 299.561C873.198 299.845 873.703 299.996 874.218 299.994C874.561 299.993 874.9 299.924 875.215 299.792C875.531 299.659 875.818 299.466 876.059 299.223C876.3 298.98 876.491 298.692 876.621 298.375C876.751 298.058 876.817 297.719 876.815 297.376Z" fill="#C3E6DD"/>
<path d="M921.692 265.642C921.69 265.126 921.535 264.623 921.246 264.195C920.958 263.767 920.55 263.435 920.072 263.239C919.595 263.044 919.071 262.994 918.565 263.097C918.06 263.2 917.596 263.45 917.233 263.816C916.87 264.182 916.623 264.648 916.525 265.154C916.426 265.66 916.48 266.184 916.679 266.66C916.879 267.136 917.214 267.542 917.644 267.826C918.074 268.111 918.579 268.262 919.095 268.26C919.438 268.26 919.777 268.192 920.094 268.06C920.41 267.928 920.697 267.735 920.939 267.492C921.18 267.248 921.371 266.96 921.5 266.642C921.629 266.325 921.695 265.985 921.692 265.642Z" fill="#C3E6DD"/>
<path d="M968.521 240.35C968.521 239.834 968.368 239.329 968.081 238.9C967.794 238.471 967.386 238.137 966.909 237.94C966.432 237.743 965.907 237.692 965.401 237.793C964.895 237.895 964.431 238.144 964.066 238.51C963.702 238.875 963.455 239.341 963.355 239.847C963.256 240.354 963.309 240.879 963.508 241.355C963.707 241.831 964.043 242.238 964.473 242.523C964.903 242.808 965.408 242.959 965.924 242.957C966.614 242.954 967.275 242.678 967.761 242.19C968.248 241.701 968.521 241.039 968.521 240.35Z" fill="#C3E6DD"/>
<path d="M1016.94 282.839C1016.94 282.323 1016.79 281.82 1016.5 281.392C1016.21 280.965 1015.8 280.632 1015.33 280.437C1014.85 280.241 1014.32 280.192 1013.82 280.294C1013.31 280.397 1012.85 280.647 1012.49 281.013C1012.12 281.38 1011.88 281.845 1011.78 282.351C1011.68 282.858 1011.73 283.382 1011.93 283.857C1012.13 284.333 1012.47 284.739 1012.9 285.024C1013.33 285.308 1013.83 285.459 1014.35 285.457C1014.69 285.456 1015.03 285.387 1015.34 285.255C1015.66 285.122 1015.95 284.929 1016.19 284.686C1016.43 284.443 1016.62 284.155 1016.75 283.838C1016.88 283.521 1016.95 283.182 1016.94 282.839Z" fill="#C3E6DD"/>
<path d="M1064.09 224.492C1064.09 223.977 1063.94 223.472 1063.65 223.044C1063.37 222.615 1062.96 222.281 1062.48 222.083C1062 221.886 1061.48 221.834 1060.97 221.935C1060.47 222.035 1060 222.284 1059.64 222.648C1059.28 223.013 1059.03 223.478 1058.93 223.984C1058.83 224.489 1058.88 225.014 1059.07 225.49C1059.27 225.967 1059.61 226.374 1060.03 226.66C1060.46 226.947 1060.97 227.1 1061.48 227.1C1062.17 227.097 1062.84 226.821 1063.32 226.333C1063.81 225.845 1064.09 225.183 1064.09 224.492Z" fill="#C3E6DD"/>
<path d="M1111.24 268.895C1111.24 268.379 1111.08 267.875 1110.8 267.446C1110.51 267.017 1110.1 266.683 1109.63 266.486C1109.15 266.288 1108.63 266.237 1108.12 266.337C1107.62 266.438 1107.15 266.686 1106.79 267.051C1106.42 267.415 1106.17 267.88 1106.07 268.386C1105.97 268.892 1106.02 269.416 1106.22 269.892C1106.42 270.369 1106.75 270.776 1107.18 271.063C1107.61 271.349 1108.11 271.502 1108.63 271.502C1109.32 271.499 1109.98 271.224 1110.47 270.735C1110.96 270.247 1111.23 269.585 1111.24 268.895Z" fill="#C3E6DD"/>
<path d="M1158.38 209.902C1158.38 209.386 1158.23 208.882 1157.94 208.453C1157.66 208.024 1157.25 207.689 1156.77 207.492C1156.29 207.295 1155.77 207.244 1155.26 207.346C1154.76 207.447 1154.29 207.697 1153.93 208.062C1153.56 208.428 1153.32 208.894 1153.22 209.4C1153.12 209.907 1153.17 210.431 1153.37 210.908C1153.57 211.384 1153.9 211.79 1154.33 212.076C1154.77 212.361 1155.27 212.512 1155.79 212.51C1156.48 212.507 1157.14 212.231 1157.62 211.742C1158.11 211.254 1158.38 210.592 1158.38 209.902Z" fill="#C3E6DD"/>
<path d="M871.611 312.029H1155.77" stroke="#C3E6DD" stroke-width="2.4" stroke-miterlimit="10"/>
<path d="M979.838 326.48H975.278V331.041H979.838V326.48Z" fill="#C3E6DD"/>
<path d="M994.058 326.48H989.497V331.041H994.058V326.48Z" fill="#C3E6DD"/>
<path d="M1008.29 326.48H1003.73V331.041H1008.29V326.48Z" fill="#C3E6DD"/>
<path d="M1022.52 326.48H1017.96V331.041H1022.52V326.48Z" fill="#C3E6DD"/>
<path d="M680.081 490.193H1317.71" stroke="#C3E6DD" stroke-miterlimit="10" stroke-linecap="round"/>
<path d="M773.803 357.507C773.803 358.108 773.625 358.696 773.291 359.196C772.957 359.696 772.482 360.086 771.926 360.316C771.371 360.546 770.759 360.606 770.17 360.489C769.58 360.372 769.038 360.082 768.613 359.657C768.188 359.232 767.898 358.69 767.781 358.1C767.663 357.511 767.724 356.899 767.954 356.344C768.184 355.788 768.574 355.313 769.074 354.979C769.574 354.645 770.161 354.467 770.763 354.467C771.569 354.467 772.342 354.787 772.913 355.357C773.483 355.927 773.803 356.701 773.803 357.507V357.507Z" stroke="#C3E6DD" stroke-width="2" stroke-linecap="round" stroke-linejoin="round"/>
<path d="M896.693 76.0978C896.693 76.7016 896.514 77.2919 896.179 77.7939C895.843 78.2958 895.366 78.6868 894.808 78.9174C894.25 79.148 893.636 79.2078 893.044 79.0892C892.451 78.9707 891.908 78.6791 891.482 78.2513C891.055 77.8236 890.766 77.279 890.649 76.6865C890.533 76.094 890.594 75.4802 890.827 74.9229C891.06 74.3656 891.452 73.8899 891.955 73.5559C892.458 73.222 893.049 73.0448 893.653 73.0469C894.053 73.0469 894.45 73.1259 894.819 73.2793C895.189 73.4328 895.524 73.6577 895.807 73.9411C896.089 74.2246 896.313 74.561 896.465 74.9311C896.617 75.3011 896.695 75.6976 896.693 76.0978V76.0978Z" stroke="#C3E6DD" stroke-width="2" stroke-linecap="round" stroke-linejoin="round"/>
<path d="M1241.57 185.527C1241.57 186.131 1241.39 186.722 1241.06 187.224C1240.72 187.725 1240.24 188.117 1239.68 188.347C1239.13 188.578 1238.51 188.638 1237.92 188.519C1237.33 188.4 1236.78 188.109 1236.36 187.681C1235.93 187.253 1235.64 186.709 1235.53 186.116C1235.41 185.524 1235.47 184.91 1235.7 184.353C1235.94 183.795 1236.33 183.32 1236.83 182.986C1237.34 182.652 1237.93 182.474 1238.53 182.477C1238.93 182.477 1239.33 182.556 1239.7 182.709C1240.07 182.862 1240.4 183.087 1240.68 183.371C1240.97 183.654 1241.19 183.991 1241.34 184.361C1241.49 184.731 1241.57 185.127 1241.57 185.527V185.527Z" stroke="#C3E6DD" stroke-width="2" stroke-linecap="round" stroke-linejoin="round"/>
<path d="M1236.76 315.068C1236.75 315.669 1236.57 316.256 1236.24 316.755C1235.9 317.253 1235.43 317.641 1234.87 317.87C1234.32 318.098 1233.71 318.157 1233.12 318.039C1232.53 317.92 1231.99 317.63 1231.56 317.204C1231.14 316.778 1230.85 316.237 1230.73 315.647C1230.62 315.058 1230.68 314.447 1230.91 313.892C1231.14 313.337 1231.53 312.863 1232.03 312.529C1232.53 312.196 1233.12 312.018 1233.72 312.018C1234.12 312.018 1234.51 312.097 1234.88 312.25C1235.25 312.403 1235.59 312.628 1235.87 312.912C1236.15 313.195 1236.38 313.532 1236.53 313.902C1236.68 314.272 1236.76 314.668 1236.76 315.068V315.068Z" stroke="#C3E6DD" stroke-width="2" stroke-linecap="round" stroke-linejoin="round"/>
<path d="M948.917 419.031C948.917 419.635 948.738 420.226 948.403 420.728C948.067 421.229 947.59 421.62 947.032 421.851C946.474 422.082 945.86 422.141 945.267 422.023C944.675 421.904 944.132 421.613 943.706 421.185C943.279 420.757 942.99 420.213 942.873 419.62C942.756 419.028 942.818 418.414 943.051 417.857C943.283 417.299 943.676 416.823 944.179 416.49C944.682 416.156 945.273 415.978 945.877 415.98C946.277 415.98 946.673 416.059 947.043 416.213C947.413 416.366 947.748 416.591 948.031 416.875C948.313 417.158 948.537 417.495 948.689 417.865C948.841 418.235 948.919 418.631 948.917 419.031Z" stroke="#C3E6DD" stroke-width="2" stroke-linecap="round" stroke-linejoin="round"/>
<path d="M731.513 241.869V247.96" stroke="#C3E6DD" stroke-width="2" stroke-linecap="round" stroke-linejoin="round"/>
<path d="M734.564 244.908H728.473" stroke="#C3E6DD" stroke-width="2" stroke-linecap="round" stroke-linejoin="round"/>
<path d="M1109.76 70.0059V76.0971" stroke="#C3E6DD" stroke-width="2" stroke-linecap="round" stroke-linejoin="round"/>
<path d="M1112.81 73.0566H1106.72" stroke="#C3E6DD" stroke-width="2" stroke-linecap="round" stroke-linejoin="round"/>
<path d="M958.102 56.5469L962.409 60.854" stroke="#C3E6DD" stroke-width="2" stroke-linecap="round" stroke-linejoin="round"/>
<path d="M962.409 56.5469L958.102 60.854" stroke="#C3E6DD" stroke-width="2" stroke-linecap="round" stroke-linejoin="round"/>
<path d="M1281.82 245.701V251.792" stroke="#C3E6DD" stroke-width="2" stroke-linecap="round" stroke-linejoin="round"/>
<path d="M1284.87 248.752H1278.78" stroke="#C3E6DD" stroke-width="2" stroke-linecap="round" stroke-linejoin="round"/>
<path d="M704.731 158.133V164.224" stroke="#C3E6DD" stroke-width="2" stroke-linecap="round" stroke-linejoin="round"/>
<path d="M707.771 161.184H701.68" stroke="#C3E6DD" stroke-width="2" stroke-linecap="round" stroke-linejoin="round"/>
<path d="M792.837 168.51H753.249C751.5 168.51 750.082 169.928 750.082 171.677V218.126C750.082 219.875 751.5 221.293 753.249 221.293H792.837C794.586 221.293 796.004 219.875 796.004 218.126V171.677C796.004 169.928 794.586 168.51 792.837 168.51Z" fill="white" stroke="#C3E6DD" stroke-width="1.89" stroke-miterlimit="10"/>
<path d="M775.132 205.662C783.017 204.504 788.471 197.173 787.314 189.288C786.157 181.402 778.826 175.948 770.94 177.106C763.055 178.263 757.6 185.594 758.758 193.479C759.915 201.365 767.246 206.819 775.132 205.662Z" stroke="#C3E6DD" stroke-width="4" stroke-miterlimit="10"/>
<path d="M773.043 197.721C776.541 197.721 779.377 194.885 779.377 191.387C779.377 187.889 776.541 185.053 773.043 185.053C769.545 185.053 766.709 187.889 766.709 191.387C766.709 194.885 769.545 197.721 773.043 197.721Z" stroke="#C3E6DD" stroke-width="4" stroke-miterlimit="10"/>
<path d="M758.622 213.408H771.227" stroke="#C3E6DD" stroke-width="1.84" stroke-miterlimit="10" stroke-linecap="round"/>
<path d="M774.869 213.408H787.474" stroke="#C3E6DD" stroke-width="1.84" stroke-miterlimit="10" stroke-linecap="round"/>
<path d="M1080.14 105.898H1060.1V132.121H1080.14V105.898Z" fill="#C3E6DD"/>
<path d="M1070.13 83.4238L1052.62 105.899H1087.64L1070.13 83.4238Z" fill="#C3E6DD"/>
<path d="M1045.95 133.504H1036.8V145.475H1045.95V133.504Z" fill="#C3E6DD"/>
<path d="M1041.37 123.244L1033.38 133.505H1049.38L1041.37 123.244Z" fill="#C3E6DD"/>
<path d="M1097.38 127.91H1092.45V134.36H1097.38V127.91Z" fill="#C3E6DD"/>
<path d="M1094.91 122.377L1090.6 127.909H1099.22L1094.91 122.377Z" fill="#C3E6DD"/>
<path d="M859.164 78.0176H738.903C735.469 78.0176 732.685 80.8014 732.685 84.2355V140.64C732.685 144.074 735.469 146.858 738.903 146.858H859.164C862.599 146.858 865.382 144.074 865.382 140.64V84.2355C865.382 80.8014 862.599 78.0176 859.164 78.0176Z" fill="white" stroke="#C3E6DD" stroke-width="2" stroke-miterlimit="10"/>
<path d="M808.44 98.4238H855.712" stroke="#C3E6DD" stroke-width="3.49" stroke-linecap="round" stroke-linejoin="round"/>
<path d="M808.44 107.768H833.216" stroke="#C3E6DD" stroke-width="3.49" stroke-linecap="round" stroke-linejoin="round"/>
<path d="M808.44 117.109H847.584" stroke="#C3E6DD" stroke-width="3.49" stroke-linecap="round" stroke-linejoin="round"/>
<path d="M808.44 126.463H833.216" stroke="#C3E6DD" stroke-width="3.49" stroke-linecap="round" stroke-linejoin="round"/>
<path d="M755.392 94.8984C752.801 97.5108 750.821 100.665 749.595 104.135C748.37 107.605 747.929 111.303 748.305 114.964C748.681 118.624 749.864 122.156 751.769 125.304C753.674 128.452 756.254 131.139 759.322 133.17C762.39 135.201 765.871 136.526 769.513 137.05C773.155 137.575 776.869 137.284 780.385 136.201C783.902 135.117 787.134 133.267 789.849 130.783C792.565 128.3 794.696 125.245 796.088 121.839L773.043 112.433L755.392 94.8984Z" fill="#C3E6DD"/>
<path d="M788.815 93.1772C784.029 89.2437 777.948 87.2369 771.761 87.5493C765.574 87.8616 759.726 90.4707 755.36 94.8663L773.011 112.401L788.815 93.1772Z" fill="#DCF0EA"/>
<path d="M788.815 93.1777L772.98 112.401L796.025 121.808C798.03 116.89 798.412 111.46 797.115 106.31C795.818 101.16 792.91 96.5591 788.815 93.1777Z" fill="#A2D2C5"/>
<path d="M1215.34 139.336C1228.17 137.496 1237.08 125.605 1235.24 112.775C1233.4 99.9456 1221.51 91.0365 1208.68 92.8761C1195.85 94.7157 1186.94 106.607 1188.78 119.437C1190.62 132.267 1202.51 141.176 1215.34 139.336Z" stroke="#C3E6DD" stroke-width="1.89" stroke-miterlimit="10"/>
<path d="M1218.98 118.872C1219.51 115.133 1216.42 113.688 1213.57 112.576L1214.22 108.068C1215.52 108.417 1216.84 109.066 1218.08 110.029L1219.87 106.957C1218.55 105.82 1216.69 105.012 1214.72 104.567L1215.14 101.677L1212.49 101.297L1212.06 104.24C1207.8 104.117 1205.42 106.237 1205.01 109.048C1204.47 112.84 1207.62 114.293 1210.46 115.431L1209.82 119.86C1207.94 119.4 1206.13 118.411 1204.95 117.239L1203.03 120.265C1204.32 121.615 1206.72 122.798 1209.33 123.334L1208.91 126.224L1211.56 126.605L1211.99 123.634C1216.22 123.728 1218.58 121.63 1218.98 118.872ZM1209.31 109.448C1209.44 108.573 1210.11 107.884 1211.56 107.767L1211.02 111.533C1209.9 110.994 1209.18 110.376 1209.31 109.448ZM1212.49 120.134L1213.02 116.474C1214.1 117.036 1214.8 117.65 1214.66 118.578C1214.54 119.427 1213.86 120.032 1212.49 120.134Z" fill="#C3E6DD"/>
<path d="M1216.14 185.513C1220.58 177.696 1217.85 167.759 1210.03 163.319C1202.21 158.878 1192.27 161.615 1187.83 169.432C1183.39 177.249 1186.13 187.186 1193.95 191.627C1201.76 196.067 1211.7 193.33 1216.14 185.513Z" stroke="#C3E6DD" stroke-width="1.89" stroke-miterlimit="10"/>
<path d="M1201.49 180.471C1201.39 180.126 1201.19 179.87 1200.88 179.702C1200.57 179.533 1200.1 179.434 1199.47 179.404C1198.61 179.385 1197.94 179.232 1197.46 178.946C1196.98 178.654 1196.66 178.207 1196.49 177.603C1196.32 176.988 1196.35 176.433 1196.6 175.939C1196.85 175.444 1197.28 175.071 1197.88 174.82L1197.54 173.588L1198.37 173.353L1198.72 174.59C1199.38 174.499 1199.94 174.626 1200.41 174.97C1200.89 175.314 1201.24 175.87 1201.45 176.639L1200.42 176.93C1200.27 176.401 1200.03 176.016 1199.69 175.776C1199.35 175.535 1198.96 175.475 1198.54 175.595C1198.09 175.721 1197.78 175.933 1197.61 176.232C1197.44 176.527 1197.41 176.881 1197.53 177.293C1197.64 177.676 1197.84 177.947 1198.16 178.106C1198.47 178.26 1198.94 178.351 1199.56 178.378C1200.19 178.4 1200.69 178.479 1201.07 178.615C1201.46 178.745 1201.77 178.938 1202 179.192C1202.24 179.445 1202.41 179.77 1202.52 180.167C1202.7 180.801 1202.65 181.365 1202.38 181.859C1202.11 182.351 1201.64 182.73 1200.98 182.994L1201.28 184.069L1200.45 184.303L1200.14 183.228C1199.43 183.361 1198.81 183.267 1198.29 182.948C1197.78 182.624 1197.41 182.09 1197.2 181.348L1198.25 181.055C1198.39 181.576 1198.64 181.939 1198.99 182.143C1199.35 182.348 1199.78 182.379 1200.28 182.238C1200.77 182.1 1201.12 181.873 1201.34 181.557C1201.55 181.242 1201.6 180.88 1201.49 180.471Z" fill="#C3E6DD"/>
<path d="M1254.9 159.135C1254.22 161.71 1252.78 164.023 1250.78 165.782C1248.78 167.541 1246.3 168.666 1243.66 169.016C1241.02 169.366 1238.34 168.924 1235.95 167.747C1233.56 166.569 1231.57 164.709 1230.24 162.402C1228.91 160.095 1228.29 157.444 1228.47 154.786C1228.64 152.128 1229.6 149.582 1231.23 147.47C1232.85 145.358 1235.06 143.775 1237.59 142.922C1240.11 142.069 1242.83 141.984 1245.4 142.677C1248.84 143.605 1251.77 145.858 1253.55 148.943C1255.33 152.028 1255.82 155.693 1254.9 159.135Z" stroke="#C3E6DD" stroke-width="1.89" stroke-miterlimit="10"/>
<path d="M1241.35 157.141C1241.44 156.793 1241.4 156.466 1241.22 156.161C1241.04 155.858 1240.69 155.532 1240.16 155.183C1239.42 154.72 1238.91 154.242 1238.65 153.749C1238.39 153.252 1238.34 152.699 1238.5 152.089C1238.67 151.468 1238.98 151.006 1239.45 150.705C1239.92 150.404 1240.48 150.301 1241.14 150.395L1241.47 149.15L1242.32 149.377L1241.98 150.628C1242.59 150.885 1243.02 151.285 1243.25 151.827C1243.49 152.369 1243.5 153.029 1243.29 153.806L1242.25 153.525C1242.39 152.991 1242.38 152.533 1242.21 152.15C1242.04 151.768 1241.74 151.519 1241.3 151.403C1240.85 151.282 1240.48 151.307 1240.18 151.478C1239.88 151.645 1239.67 151.937 1239.56 152.354C1239.45 152.74 1239.5 153.083 1239.68 153.381C1239.88 153.676 1240.24 153.996 1240.76 154.34C1241.29 154.681 1241.69 155.008 1241.95 155.322C1242.21 155.633 1242.38 155.958 1242.45 156.298C1242.53 156.639 1242.51 157.01 1242.41 157.412C1242.23 158.052 1241.9 158.516 1241.41 158.802C1240.92 159.09 1240.32 159.177 1239.61 159.063L1239.32 160.149L1238.48 159.923L1238.77 158.838C1238.08 158.584 1237.6 158.186 1237.31 157.643C1237.03 157.096 1236.99 156.448 1237.19 155.698L1238.24 155.98C1238.1 156.507 1238.13 156.949 1238.33 157.307C1238.53 157.666 1238.89 157.913 1239.4 158.049C1239.89 158.182 1240.31 158.167 1240.66 158.005C1241.01 157.842 1241.24 157.554 1241.35 157.141Z" fill="#C3E6DD"/>
<path d="M962.409 76.0977H1013.32" stroke="#C3E6DD" stroke-width="2" stroke-linecap="round" stroke-linejoin="round"/>
<path d="M962.409 83.877H997.13" stroke="#C3E6DD" stroke-width="2" stroke-linecap="round" stroke-linejoin="round"/>
<path d="M962.409 91.6465H986.045" stroke="#C3E6DD" stroke-width="2" stroke-linecap="round" stroke-linejoin="round"/>
<path d="M962.409 99.416H977.072" stroke="#C3E6DD" stroke-width="2" stroke-linecap="round" stroke-linejoin="round"/>
<path d="M906.29 95.3535H898.488V103.155H906.29V95.3535Z" fill="#C3E6DD"/>
<path d="M924.458 95.3535H916.656V103.155H924.458V95.3535Z" fill="#C3E6DD"/>
<path d="M942.636 95.3535H934.835V103.155H942.636V95.3535Z" fill="#C3E6DD"/>
<path d="M709.745 221.156C716.013 221.156 721.093 216.075 721.093 209.807C721.093 203.54 716.013 198.459 709.745 198.459C703.477 198.459 698.397 203.54 698.397 209.807C698.397 216.075 703.477 221.156 709.745 221.156Z" fill="#C3E6DD"/>
<path d="M704.731 205.85C705.314 205.85 705.786 205.377 705.786 204.794C705.786 204.211 705.314 203.738 704.731 203.738C704.148 203.738 703.675 204.211 703.675 204.794C703.675 205.377 704.148 205.85 704.731 205.85Z" fill="#FAFAFA"/>
<path d="M709.745 205.85C710.328 205.85 710.801 205.377 710.801 204.794C710.801 204.211 710.328 203.738 709.745 203.738C709.162 203.738 708.689 204.211 708.689 204.794C708.689 205.377 709.162 205.85 709.745 205.85Z" fill="#FAFAFA"/>
<path d="M714.759 205.85C715.342 205.85 715.815 205.377 715.815 204.794C715.815 204.211 715.342 203.738 714.759 203.738C714.176 203.738 713.704 204.211 713.704 204.794C713.704 205.377 714.176 205.85 714.759 205.85Z" fill="#FAFAFA"/>
<path d="M704.731 210.863C705.314 210.863 705.786 210.391 705.786 209.808C705.786 209.225 705.314 208.752 704.731 208.752C704.148 208.752 703.675 209.225 703.675 209.808C703.675 210.391 704.148 210.863 704.731 210.863Z" fill="#FAFAFA"/>
<path d="M709.745 210.863C710.328 210.863 710.801 210.391 710.801 209.808C710.801 209.225 710.328 208.752 709.745 208.752C709.162 208.752 708.689 209.225 708.689 209.808C708.689 210.391 709.162 210.863 709.745 210.863Z" fill="#FAFAFA"/>
<path d="M714.759 210.863C715.342 210.863 715.815 210.391 715.815 209.808C715.815 209.225 715.342 208.752 714.759 208.752C714.176 208.752 713.704 209.225 713.704 209.808C713.704 210.391 714.176 210.863 714.759 210.863Z" fill="#FAFAFA"/>
<path d="M704.731 215.879C705.314 215.879 705.786 215.406 705.786 214.823C705.786 214.24 705.314 213.768 704.731 213.768C704.148 213.768 703.675 214.24 703.675 214.823C703.675 215.406 704.148 215.879 704.731 215.879Z" fill="#FAFAFA"/>
<path d="M709.745 215.879C710.328 215.879 710.801 215.406 710.801 214.823C710.801 214.24 710.328 213.768 709.745 213.768C709.162 213.768 708.689 214.24 708.689 214.823C708.689 215.406 709.162 215.879 709.745 215.879Z" fill="#FAFAFA"/>
<path d="M714.759 215.879C715.342 215.879 715.815 215.406 715.815 214.823C715.815 214.24 715.342 213.768 714.759 213.768C714.176 213.768 713.704 214.24 713.704 214.823C713.704 215.406 714.176 215.879 714.759 215.879Z" fill="#FAFAFA"/>
<path d="M774.384 308.196H770.235C769.873 308.199 769.52 308.087 769.226 307.877C768.932 307.666 768.712 307.368 768.599 307.025C768.339 306.21 768.011 305.419 767.617 304.66C767.454 304.335 767.398 303.967 767.456 303.609C767.515 303.251 767.686 302.92 767.944 302.665L770.879 299.73C771.204 299.403 771.387 298.961 771.387 298.5C771.387 298.039 771.204 297.597 770.879 297.27L767.934 294.325C767.607 293.999 767.165 293.816 766.704 293.816C766.243 293.816 765.8 293.999 765.474 294.325L762.539 297.26C762.283 297.516 761.952 297.686 761.594 297.745C761.236 297.803 760.869 297.748 760.544 297.587C759.785 297.193 758.994 296.865 758.179 296.605C757.835 296.489 757.536 296.268 757.326 295.972C757.115 295.676 757.004 295.321 757.007 294.958V290.82C757.007 290.358 756.824 289.915 756.497 289.588C756.17 289.262 755.727 289.078 755.265 289.078H751.096C750.634 289.078 750.191 289.262 749.864 289.588C749.537 289.915 749.354 290.358 749.354 290.82V294.958C749.357 295.321 749.246 295.676 749.035 295.972C748.825 296.268 748.526 296.489 748.182 296.605C747.367 296.865 746.576 297.193 745.817 297.587C745.492 297.748 745.125 297.803 744.767 297.745C744.409 297.686 744.078 297.516 743.822 297.26L740.898 294.325C740.571 293.999 740.129 293.816 739.668 293.816C739.207 293.816 738.765 293.999 738.438 294.325L735.482 297.27C735.157 297.597 734.974 298.039 734.974 298.5C734.974 298.961 735.157 299.403 735.482 299.73L738.417 302.665C738.675 302.92 738.846 303.251 738.905 303.609C738.963 303.967 738.907 304.335 738.744 304.66C738.35 305.419 738.022 306.21 737.762 307.025C737.649 307.368 737.429 307.666 737.135 307.877C736.841 308.087 736.488 308.199 736.126 308.196H731.977C731.749 308.196 731.523 308.241 731.312 308.329C731.102 308.417 730.91 308.545 730.749 308.707C730.589 308.869 730.461 309.061 730.375 309.272C730.288 309.484 730.245 309.71 730.246 309.938V314.108C730.245 314.336 730.289 314.562 730.375 314.772C730.462 314.983 730.589 315.174 730.75 315.335C730.911 315.496 731.103 315.624 731.313 315.71C731.524 315.797 731.75 315.841 731.977 315.839H736.126C736.489 315.839 736.842 315.953 737.136 316.165C737.43 316.378 737.649 316.677 737.762 317.022C738.026 317.835 738.354 318.626 738.744 319.386C738.907 319.711 738.963 320.079 738.905 320.437C738.846 320.796 738.675 321.126 738.417 321.382L735.482 324.306C735.157 324.632 734.974 325.075 734.974 325.536C734.974 325.997 735.157 326.439 735.482 326.765L738.438 329.711C738.599 329.873 738.791 330.002 739.002 330.09C739.213 330.178 739.439 330.224 739.668 330.224C739.897 330.224 740.123 330.178 740.334 330.09C740.545 330.002 740.737 329.873 740.898 329.711L743.822 326.787C744.077 326.529 744.408 326.358 744.766 326.299C745.125 326.24 745.493 326.296 745.817 326.459C746.576 326.853 747.367 327.182 748.182 327.441C748.525 327.555 748.823 327.775 749.034 328.069C749.245 328.363 749.356 328.716 749.354 329.077V333.226C749.354 333.454 749.399 333.68 749.487 333.891C749.574 334.102 749.703 334.293 749.865 334.454C750.026 334.615 750.219 334.742 750.43 334.829C750.641 334.915 750.867 334.959 751.096 334.958H755.265C755.494 334.959 755.72 334.915 755.931 334.829C756.143 334.742 756.335 334.615 756.497 334.454C756.658 334.293 756.787 334.102 756.875 333.891C756.962 333.68 757.007 333.454 757.007 333.226V329.077C757.005 328.716 757.116 328.363 757.327 328.069C757.538 327.775 757.836 327.555 758.179 327.441C758.994 327.182 759.785 326.853 760.544 326.459C760.868 326.296 761.236 326.24 761.595 326.299C761.953 326.358 762.284 326.529 762.539 326.787L765.474 329.711C765.635 329.873 765.826 330.002 766.037 330.09C766.249 330.178 766.475 330.224 766.704 330.224C766.932 330.224 767.159 330.178 767.37 330.09C767.581 330.002 767.773 329.873 767.934 329.711L770.879 326.765C771.204 326.439 771.387 325.997 771.387 325.536C771.387 325.075 771.204 324.632 770.879 324.306L767.944 321.382C767.686 321.126 767.515 320.796 767.456 320.437C767.398 320.079 767.454 319.711 767.617 319.386C768.007 318.626 768.335 317.835 768.599 317.022C768.712 316.677 768.931 316.378 769.225 316.165C769.519 315.953 769.872 315.839 770.235 315.839H774.384C774.612 315.841 774.838 315.797 775.049 315.711C775.261 315.624 775.453 315.497 775.615 315.336C775.777 315.175 775.905 314.984 775.993 314.773C776.08 314.562 776.125 314.336 776.125 314.108V309.938C776.125 309.476 775.942 309.033 775.615 308.706C775.289 308.38 774.846 308.196 774.384 308.196ZM753.186 320.674C751.473 320.676 749.799 320.17 748.374 319.221C746.949 318.271 745.838 316.919 745.181 315.338C744.524 313.756 744.351 312.015 744.684 310.335C745.017 308.656 745.84 307.112 747.05 305.901C748.261 304.689 749.803 303.863 751.483 303.528C753.162 303.194 754.903 303.364 756.485 304.019C758.068 304.674 759.42 305.784 760.372 307.207C761.324 308.631 761.832 310.305 761.832 312.018C761.833 313.154 761.611 314.28 761.177 315.33C760.743 316.38 760.106 317.334 759.303 318.138C758.5 318.942 757.547 319.58 756.497 320.015C755.447 320.45 754.322 320.674 753.186 320.674Z" fill="#75C0F2"/>
<path d="M723.089 290.294H720.481C720.247 290.304 720.016 290.235 719.825 290.1C719.634 289.964 719.493 289.769 719.425 289.544C719.259 289.033 719.054 288.536 718.813 288.056C718.706 287.853 718.667 287.621 718.703 287.394C718.739 287.167 718.848 286.958 719.014 286.799L720.861 284.962C720.968 284.864 721.054 284.744 721.112 284.61C721.171 284.477 721.201 284.332 721.201 284.187C721.201 284.041 721.171 283.897 721.112 283.763C721.054 283.629 720.968 283.51 720.861 283.411L719.003 281.553C718.904 281.447 718.785 281.363 718.653 281.306C718.52 281.248 718.377 281.218 718.233 281.218C718.088 281.218 717.945 281.248 717.813 281.306C717.68 281.363 717.561 281.447 717.462 281.553L715.615 283.4C715.455 283.566 715.247 283.675 715.02 283.711C714.793 283.747 714.561 283.708 714.358 283.601C713.879 283.358 713.381 283.153 712.87 282.988C712.647 282.919 712.454 282.777 712.321 282.586C712.187 282.395 712.12 282.166 712.131 281.933V279.325C712.131 279.045 712.02 278.777 711.822 278.579C711.624 278.381 711.355 278.27 711.075 278.27H708.425C708.145 278.27 707.877 278.381 707.679 278.579C707.481 278.777 707.37 279.045 707.37 279.325V281.933C707.38 282.166 707.314 282.395 707.18 282.586C707.046 282.777 706.853 282.919 706.631 282.988C706.116 283.153 705.615 283.358 705.132 283.601C704.929 283.708 704.697 283.747 704.47 283.711C704.243 283.675 704.035 283.566 703.875 283.4L702.039 281.553C701.831 281.35 701.553 281.236 701.263 281.236C700.973 281.236 700.694 281.35 700.487 281.553L698.629 283.411C698.426 283.618 698.312 283.896 698.312 284.187C698.312 284.477 698.426 284.755 698.629 284.962L700.476 286.799C700.643 286.957 700.755 287.165 700.793 287.392C700.831 287.619 700.794 287.852 700.687 288.056C700.433 288.531 700.214 289.025 700.033 289.534C699.965 289.758 699.825 289.953 699.633 290.089C699.442 290.225 699.211 290.293 698.977 290.283H696.391C696.111 290.283 695.842 290.394 695.644 290.592C695.446 290.79 695.335 291.059 695.335 291.339V293.967C695.335 294.247 695.446 294.516 695.644 294.714C695.842 294.912 696.111 295.023 696.391 295.023H698.998C699.231 295.012 699.461 295.079 699.652 295.213C699.843 295.346 699.984 295.54 700.054 295.762C700.222 296.274 700.431 296.771 700.677 297.25C700.783 297.454 700.82 297.687 700.782 297.914C700.744 298.141 700.633 298.349 700.466 298.507L698.618 300.344C698.415 300.551 698.301 300.829 698.301 301.12C698.301 301.41 698.415 301.688 698.618 301.895L700.476 303.753C700.683 303.956 700.962 304.07 701.252 304.07C701.542 304.07 701.821 303.956 702.028 303.753L703.865 301.906C704.024 301.74 704.233 301.631 704.459 301.595C704.686 301.559 704.918 301.598 705.121 301.705C705.604 301.948 706.105 302.153 706.62 302.318C706.843 302.387 707.036 302.529 707.169 302.72C707.303 302.911 707.37 303.14 707.359 303.373V305.981C707.359 306.261 707.47 306.529 707.668 306.727C707.866 306.925 708.135 307.037 708.415 307.037H711.043C711.323 307.037 711.592 306.925 711.79 306.727C711.988 306.529 712.099 306.261 712.099 305.981V303.373C712.088 303.14 712.155 302.911 712.289 302.72C712.423 302.529 712.616 302.387 712.838 302.318C713.35 302.153 713.847 301.948 714.327 301.705C714.529 301.598 714.762 301.559 714.988 301.595C715.215 301.631 715.424 301.74 715.583 301.906L717.43 303.753C717.529 303.859 717.648 303.943 717.781 304C717.913 304.058 718.056 304.088 718.201 304.088C718.345 304.088 718.488 304.058 718.621 304C718.753 303.943 718.873 303.859 718.972 303.753L720.83 301.895C720.937 301.797 721.022 301.677 721.081 301.543C721.139 301.41 721.169 301.265 721.169 301.12C721.169 300.974 721.139 300.829 721.081 300.696C721.022 300.562 720.937 300.442 720.83 300.344L718.982 298.507C718.817 298.348 718.708 298.139 718.671 297.912C718.635 297.686 718.674 297.453 718.782 297.25C719.024 296.771 719.229 296.273 719.394 295.762C719.464 295.54 719.605 295.346 719.796 295.213C719.987 295.079 720.217 295.012 720.449 295.023H723.057C723.337 295.023 723.605 294.912 723.803 294.714C724.001 294.516 724.113 294.247 724.113 293.967V291.339C724.11 291.066 724.002 290.805 723.811 290.61C723.62 290.415 723.361 290.302 723.089 290.294ZM709.745 298.148C708.665 298.15 707.608 297.831 706.709 297.232C705.81 296.633 705.109 295.781 704.694 294.783C704.28 293.786 704.171 292.688 704.381 291.628C704.591 290.568 705.111 289.595 705.875 288.831C706.639 288.067 707.613 287.547 708.672 287.337C709.732 287.126 710.83 287.235 711.828 287.65C712.826 288.064 713.678 288.765 714.277 289.664C714.876 290.564 715.194 291.62 715.192 292.701C715.192 293.416 715.051 294.124 714.778 294.785C714.504 295.446 714.103 296.047 713.597 296.552C713.091 297.058 712.49 297.459 711.83 297.733C711.169 298.007 710.46 298.148 709.745 298.148Z" fill="#75C0F2"/>
<path d="M904.706 356.145L908.696 353.03L904.706 349.916" stroke="#C3E6DD" stroke-width="2" stroke-linecap="round" stroke-linejoin="round"/>
<path d="M917.1 356.145L921.09 353.03L917.1 349.916" stroke="#C3E6DD" stroke-width="2" stroke-linecap="round" stroke-linejoin="round"/>
<path d="M929.493 356.145L933.484 353.03L929.493 349.916" stroke="#C3E6DD" stroke-width="2" stroke-linecap="round" stroke-linejoin="round"/>
<path d="M941.876 356.145L945.877 353.03L941.876 349.916" stroke="#C3E6DD" stroke-width="2" stroke-linecap="round" stroke-linejoin="round"/>
<path d="M1154.76 480.144L1165.08 479.838L1163.23 464.826L1153.69 466.294L1154.76 480.144Z" fill="#FFC29F"/>
<path d="M1168.64 489.613C1169.83 485.665 1167.06 482.783 1166.18 479.299C1165.65 477.188 1154.84 475.815 1153.76 480.523C1153.16 483.518 1153.09 486.595 1153.56 489.613H1168.64Z" fill="#213F3B"/>
<path d="M1097.32 480.535H1107.89L1108.94 463.412L1098.61 462.758L1097.32 480.535Z" fill="#FFC29F"/>
<path d="M1107.89 479.299H1098.04C1098.04 479.299 1096.99 479.299 1093.72 482.688C1090.46 486.076 1082.78 482.835 1079.24 489.613H1108.68C1108.68 489.613 1111.59 484.218 1107.89 479.299Z" fill="#213F3B"/>
<path d="M1145.63 201.754C1146.74 200.612 1147.6 199.244 1148.14 197.743C1148.4 196.989 1148.49 196.186 1148.39 195.395C1148.29 194.604 1148 193.847 1147.56 193.182C1146.83 192.263 1145.82 191.613 1144.68 191.335C1144.14 191.125 1143.56 191.066 1142.99 191.162C1142.43 191.259 1141.9 191.508 1141.46 191.884C1141.19 192.254 1140.99 192.676 1140.88 193.123C1140.77 193.571 1140.75 194.036 1140.83 194.491C1141.11 196.206 1141.29 197.937 1141.36 199.675C1141.3 200.73 1141.05 201.68 1141.06 202.694C1141.06 203.549 1141.53 205.766 1142.7 204.911C1143.78 203.958 1144.76 202.9 1145.63 201.754Z" fill="#213F3B"/>
<path d="M1153.34 302.232L1166.01 473.758H1153.34L1131.31 348.946L1109.96 473.758H1097.44L1109.05 302.232H1153.34Z" fill="#2C6A65"/>
<path d="M1077.93 238.058C1077.93 238.058 1075.42 234.004 1075.82 231.724C1076.22 229.443 1076.19 226.699 1074.94 225.147C1073.7 223.595 1074.02 221.758 1072.72 222.265C1072.29 222.423 1072.49 225.179 1073.1 226.488C1073.1 226.488 1069.38 218.929 1068.87 218.042C1068.8 217.89 1068.68 217.769 1068.52 217.701C1068.37 217.632 1068.2 217.62 1068.04 217.667C1067.88 217.714 1067.74 217.817 1067.64 217.957C1067.55 218.097 1067.51 218.266 1067.53 218.433C1067.53 218.433 1067.12 217.641 1066.48 217.979C1065.83 218.317 1066.18 219.203 1066.21 219.605C1066.09 219.615 1065.97 219.652 1065.86 219.713C1065.75 219.774 1065.66 219.856 1065.58 219.956C1065.51 220.056 1065.46 220.171 1065.43 220.292C1065.41 220.413 1065.41 220.539 1065.43 220.66C1065.49 221.139 1065.58 221.612 1065.72 222.075C1065.72 222.075 1065.31 222.149 1065.21 222.898C1065.16 223.7 1065.3 224.502 1065.61 225.242C1066.45 227.121 1065.85 227.522 1066.72 229.465C1067.59 231.407 1069.76 231.576 1070.74 235.197C1071.72 238.818 1072.11 239.852 1072.11 239.852L1077.93 238.058Z" fill="#FFC29F"/>
<path d="M1109.43 229.36C1106.97 229.729 1098.27 247.919 1093.5 256.543L1088.73 265.168L1077.18 235.609C1076 235.471 1074.8 235.656 1073.71 236.145C1072.63 236.634 1071.7 237.408 1071.02 238.386C1071.02 238.386 1077.18 278.269 1078.72 282.724C1080.26 287.179 1085.06 290.43 1093.5 279.8C1101.95 269.169 1116.6 248.552 1117.78 246.24C1118.96 243.928 1123.64 227.164 1109.43 229.36Z" fill="#F43131"/>
<path d="M1156.19 266.044C1152.17 287.421 1153.34 302.2 1153.34 302.2H1109.05C1109.05 302.2 1107.22 233.096 1108.23 230.753C1110.08 226.53 1128.65 220.629 1128.65 220.629H1144.36C1144.36 220.629 1157.24 224.398 1160.2 225.168C1161.06 225.401 1161.41 227.185 1161.37 230.14C1161.27 237.256 1158.99 250.969 1156.19 266.044Z" fill="#F94B4B"/>
<path d="M1156.19 266.044C1152.17 287.421 1153.34 302.201 1153.34 302.201H1148.2C1148.2 302.201 1149.59 249.47 1157.24 232.527C1158.39 229.972 1159.8 229.36 1161.34 230.173C1161.27 237.256 1158.99 250.969 1156.19 266.044Z" fill="#F94B4B"/>
<path d="M1141.78 205.396C1141.78 205.396 1141.33 215.953 1143.18 220.271L1137.07 226.943L1132.77 226.151L1131.2 225.349L1130.09 222.118V205.396H1141.78Z" fill="#FFA980"/>
<path d="M1126.19 187.755C1126.19 187.755 1121.1 210.843 1127.57 214.96C1131.79 217.61 1139.06 216.016 1141.29 205.755C1143.52 195.494 1139.35 189.92 1133.97 188.6C1131.43 187.925 1128.81 187.64 1126.19 187.755Z" fill="#FFC29F"/>
<path d="M1141.91 201.237C1142.13 201.028 1142.39 200.868 1142.67 200.77C1142.95 200.672 1143.25 200.638 1143.55 200.67C1143.85 200.702 1144.14 200.8 1144.39 200.957C1144.65 201.113 1144.87 201.324 1145.03 201.575C1146.37 203.475 1143.17 206.801 1141.04 206.737L1141.91 201.237Z" fill="#FFC29F"/>
<path d="M1153.34 302.232H1109V306.117H1153.34V302.232Z" fill="#213F3B"/>
<path d="M1131.31 348.946L1127.44 323.938L1128.06 367.896L1131.31 348.946Z" fill="#20534E"/>
<path d="M1117.54 284.159H1064.03L1051.21 248.942C1051.09 248.599 1051.04 248.23 1051.09 247.867C1051.13 247.504 1051.26 247.157 1051.47 246.855C1051.68 246.554 1051.95 246.306 1052.28 246.132C1052.6 245.959 1052.96 245.865 1053.32 245.859H1101.95C1102.41 245.868 1102.86 246.017 1103.24 246.286C1103.61 246.556 1103.9 246.933 1104.06 247.369L1117.54 284.159Z" fill="#213F3B"/>
<path d="M1149.34 287.484H1096.16C1095.94 287.484 1095.73 287.44 1095.53 287.356C1095.32 287.272 1095.14 287.149 1094.99 286.994C1094.83 286.839 1094.71 286.655 1094.63 286.453C1094.55 286.251 1094.5 286.034 1094.5 285.816C1094.5 285.376 1094.68 284.954 1094.99 284.644C1095.3 284.333 1095.72 284.158 1096.16 284.158H1149.34C1149.55 284.157 1149.77 284.199 1149.97 284.281C1150.18 284.364 1150.36 284.486 1150.52 284.64C1150.67 284.794 1150.79 284.977 1150.88 285.179C1150.96 285.381 1151 285.597 1151 285.816C1151 286.258 1150.83 286.682 1150.52 286.995C1150.2 287.308 1149.78 287.484 1149.34 287.484Z" fill="#213F3B"/>
<path d="M1117.37 287.484H1064.2C1063.75 287.484 1063.33 287.308 1063.02 286.995C1062.7 286.682 1062.53 286.258 1062.53 285.816C1062.53 285.597 1062.57 285.381 1062.66 285.179C1062.74 284.977 1062.86 284.794 1063.02 284.64C1063.17 284.486 1063.36 284.364 1063.56 284.281C1063.76 284.199 1063.98 284.157 1064.2 284.158H1117.37C1117.81 284.158 1118.23 284.333 1118.54 284.644C1118.85 284.954 1119.03 285.376 1119.03 285.816C1119.03 286.034 1118.99 286.251 1118.91 286.453C1118.82 286.655 1118.7 286.839 1118.55 286.994C1118.39 287.149 1118.21 287.272 1118.01 287.356C1117.81 287.44 1117.59 287.484 1117.37 287.484Z" fill="#213F3B"/>
<path d="M1119.08 281.899C1119.08 281.899 1114.49 281.678 1112.75 280.717C1111.01 279.756 1106.6 279.566 1105.69 279.566C1104.79 279.566 1105.63 281.076 1106.75 281.255C1107.62 281.485 1108.44 281.875 1109.17 282.406C1109.17 282.406 1102.35 283.008 1100.67 282.881C1098.99 282.755 1096.99 283.251 1097.59 284.085C1097.78 284.339 1098.03 284.55 1098.31 284.707C1098.59 284.863 1098.9 284.96 1099.22 284.993C1099.22 284.993 1099.7 286.259 1100.67 286.439C1100.85 286.741 1101.11 286.995 1101.41 287.179C1101.72 287.362 1102.06 287.471 1102.41 287.494C1102.98 287.778 1103.59 287.981 1104.22 288.096C1104.22 288.096 1109.17 289.057 1112 288.582C1114.83 288.107 1119.69 287.811 1119.69 287.811L1119.08 281.899Z" fill="#FFC29F"/>
<path d="M1160 225.199C1160 225.199 1167.39 226.318 1170.48 238.332C1173.57 250.345 1167.42 275.734 1165.2 284.158C1163.88 289.088 1119.02 289.088 1119.02 289.088C1118.56 286.23 1118.28 283.346 1118.18 280.453C1118.18 280.453 1148.8 275.46 1155.28 271.501C1155.28 271.501 1153.9 251.01 1153.59 243.103C1153.28 235.196 1152.36 226.023 1160 225.199Z" fill="#F43131"/>
<path d="M1130.09 219.162C1130.09 219.162 1130.09 223.902 1132.77 226.151C1131.06 227.54 1129.57 229.185 1128.36 231.028C1127.77 227.587 1127.87 224.064 1128.65 220.661L1130.09 219.162Z" fill="#FF7800"/>
<path d="M1142.74 218.982C1142.74 218.982 1139.01 224.958 1132.77 226.15C1134 228.211 1135.09 230.356 1136.01 232.569C1139.12 230.458 1143.5 225.095 1144.36 220.703L1142.74 218.982Z" fill="#FF7800"/>
<path d="M1138.1 193.89C1137.83 194.886 1137.92 195.949 1138.38 196.877C1138.9 197.655 1139.55 198.338 1140.3 198.894C1141.05 199.459 1141.57 200.276 1141.77 201.195C1143.51 200.401 1145.08 199.283 1146.4 197.901C1147.06 197.203 1147.56 196.368 1147.85 195.455C1148.15 194.542 1148.24 193.575 1148.11 192.623C1147.95 191.738 1147.55 190.914 1146.95 190.24C1146.36 189.566 1145.59 189.069 1144.73 188.801C1143.87 188.534 1142.95 188.506 1142.08 188.722C1141.21 188.938 1140.41 189.389 1139.77 190.026C1139.43 190.436 1139.2 190.921 1139.09 191.441C1138.8 192.296 1138.33 193.024 1138.1 193.89Z" fill="#213F3B"/>
<path d="M1139.1 184.874C1135.6 183.412 1131.83 182.741 1128.04 182.91C1125.74 182.994 1123.55 183.926 1121.89 185.529C1121.15 186.275 1120.73 187.279 1120.71 188.33C1120.69 189.381 1121.09 190.398 1121.8 191.166C1123.03 192.112 1124.49 192.707 1126.03 192.887C1129.91 193.812 1133.92 194.146 1137.9 193.879C1140.73 193.604 1143.52 192.38 1144.29 189.762C1145.06 187.144 1141.18 185.655 1139.1 184.874Z" fill="#213F3B"/>
<path d="M838.727 479.721H846.127L847.098 468.806L838.062 467.908L838.727 479.721Z" fill="#FFC29F"/>
<path d="M838.727 479.723C838.727 479.723 836.869 482.077 837.618 487.302C837.977 489.773 843.361 489.614 852.461 489.614H859.544C859.544 489.614 862.184 486.764 857.993 485.465C847.763 482.298 846.159 479.723 846.159 479.723H838.727Z" fill="#213F3B"/>
<path d="M802.95 481.59L794.209 481.326L795.771 468.605L803.868 469.851L802.95 481.59Z" fill="#FFC29F"/>
<path d="M791.179 489.613C790.187 486.267 792.531 483.828 793.291 480.872C793.745 479.046 802.908 477.917 803.847 481.928C804.364 484.462 804.424 487.068 804.027 489.624L791.179 489.613Z" fill="#213F3B"/>
<path d="M843.213 216.005C843.213 216.005 847.943 217.43 847.573 224.113C847.204 230.795 845.536 234.068 847.499 241.056C849.463 248.045 850.582 257.24 838.568 256.459C826.555 255.677 822.966 254.674 818.912 257.029C814.858 259.383 803.594 249.069 809.041 242.028C814.489 234.986 816.832 230.848 815.798 224.704C814.763 218.56 819.482 212.606 826.988 210.769C833.29 209.302 845.937 208.616 843.213 216.005Z" fill="#213F3B"/>
<path d="M811.649 279.26C813.201 287.262 813.032 293.153 813.042 307.14H847.784C847.784 307.14 846.824 295.866 848.386 288.951C848.587 287.84 848.973 286.769 849.526 285.784C851.996 281.836 854.213 278.141 854.245 274.066C854.245 273.032 854.106 272.002 853.833 271.005C852.408 265.674 850.255 253.861 847.573 250.588C844.892 247.316 831.601 247.717 831.601 247.717C831.601 247.717 814.204 247.717 808.988 250.683C807.595 251.464 807.067 253.206 806.951 255.307C806.592 261.863 810.403 272.884 811.649 279.26Z" fill="#F94B4B"/>
<path d="M816.79 282.037C816.79 282.037 841.134 284 848.386 288.951C848.587 287.84 848.973 286.769 849.526 285.784C851.996 281.836 854.213 278.141 854.245 274.066C852.63 277.413 848.513 281.857 838.041 281.994C821.203 282.237 816.79 282.037 816.79 282.037Z" fill="#F43131"/>
<path d="M771.66 259.034L768.757 255.751C768.757 255.751 766.878 252.288 766.054 251.032C764.847 249.56 763.542 248.17 762.148 246.873C761.652 246.303 761.241 247.38 761.779 248.383C762.317 249.385 763.12 251.55 763.12 251.55C763.12 251.55 757.556 247.77 755.92 246.82C754.284 245.87 753.566 246.598 753.693 247.01C753.693 247.01 752.637 247.834 753.503 248.615C753.503 248.615 752.616 249.523 753.851 250.504C753.851 250.504 752.932 251.412 754.695 252.552C756.458 253.693 757.461 257.145 760.174 258.211C762.934 259.363 765.412 261.099 767.437 263.299L771.66 259.034Z" fill="#FFC29F"/>
<path d="M816.79 252.046C817.545 259.148 815.862 266.295 812.018 272.315C805.536 281.985 797.83 292.214 793.016 292.689C788.202 293.164 765.643 262.444 765.643 262.444L771.09 256.427L792.14 276.147C792.14 276.147 799.984 263.479 801.725 260.143C803.668 256.448 807.69 249.227 811.754 249.987C815.819 250.747 816.79 252.046 816.79 252.046Z" fill="#F43131"/>
<path d="M883.909 253.872L886.802 250.567C886.802 250.567 888.692 247.105 889.504 245.849C890.715 244.379 892.019 242.989 893.41 241.689C893.917 241.13 894.318 242.196 893.79 243.199C893.263 244.202 892.439 246.366 892.439 246.366C892.439 246.366 898.003 242.587 899.639 241.637C901.275 240.686 902.004 241.415 901.877 241.827C901.877 241.827 902.88 242.65 902.067 243.431C902.067 243.431 902.943 244.35 901.719 245.321C901.719 245.321 902.626 246.229 900.863 247.369C899.1 248.509 898.098 251.961 895.395 253.027C892.63 254.176 890.149 255.912 888.121 258.116L883.909 253.872Z" fill="#FFC29F"/>
<path d="M837.734 255.35C837.734 255.35 842.073 259.572 850.17 267.722C857.475 275.038 865.498 279.704 869.573 277.149C873.648 274.594 891.742 255.592 891.742 255.592L886.242 250.166L867.325 266.402C867.325 266.402 854.9 254.516 852.303 252.584C849.706 250.652 840.965 246.894 838.22 249.976C835.475 253.059 837.734 255.35 837.734 255.35Z" fill="#F94B4B"/>
<path d="M840.289 248.13C840.289 248.13 840.384 254.939 835.771 258.834C835.771 258.834 825.974 254.263 822.438 248.151C828.373 247.566 834.352 247.559 840.289 248.13Z" fill="#FFC29F"/>
<path d="M838.294 247.939C837.574 247.832 836.923 247.452 836.475 246.878C836.027 246.305 835.817 245.581 835.887 244.856C835.887 242.027 835.602 236.633 835.602 236.633L826.513 237.403C826.513 237.403 827.283 246.303 825.826 247.96L824.359 249.596C824.359 249.596 836.837 251.697 838.294 247.939Z" fill="#FFC29F"/>
<path d="M835.876 243.717C835.876 243.717 829.912 244.646 826.724 242.102L826.513 237.404L835.876 239.431V243.717Z" fill="#FFA980"/>
<path d="M843.224 219.858C843.224 219.858 848.238 242.682 836.774 243.621C825.309 244.561 824.57 232.663 824.57 232.663C824.57 232.663 821.783 231.608 821.678 229.042C821.572 226.477 824.845 227.987 824.845 227.987C824.845 227.987 823.092 218.644 830.218 216.533C837.66 214.231 842.263 216.533 843.224 219.858Z" fill="#FFC29F"/>
<path d="M842.517 217.007C842.517 217.007 838.294 228.873 824.792 227.891C824.792 227.891 822.501 218.781 825.33 215.424C828.159 212.067 839.255 211.243 842.517 217.007Z" fill="#213F3B"/>
<path d="M813.095 307.141C813.095 307.141 797.503 331.273 793.438 476.438H804.291C804.291 476.438 826.565 378.261 829.247 348.913C829.553 350.951 837.207 476.438 837.207 476.438H848.069C848.069 476.438 862.141 323.926 847.837 307.141H813.095Z" fill="#2C6A65"/>
<path d="M829.194 348.914L832.994 331.041L830.587 365.54L829.194 348.914Z" fill="#20534E"/>
<path d="M1258.08 479.712C1252.21 476.133 1274.97 415.316 1285.53 389.357C1295.83 363.947 1259.35 354.414 1250.77 385.451C1246.34 401.349 1246.12 460.139 1258.08 479.712Z" fill="#F94B4B"/>
<path d="M1258.08 479.711C1258.08 479.711 1246.03 420.245 1270.5 377.543" stroke="white" stroke-width="1.06" stroke-miterlimit="10"/>
<path d="M1239.4 407.492C1221.03 381.449 1202.72 402.784 1214.9 420.783C1227.09 438.782 1258.19 479.521 1258.19 479.521C1258.19 479.521 1257.77 433.536 1239.4 407.492Z" fill="#F94B4B"/>
<path d="M1258.14 479.554C1258.14 479.554 1243.55 436.535 1224.06 410.154" stroke="white" stroke-miterlimit="10"/>
<path d="M1287.66 413.046C1312.69 398.203 1317 418.546 1306.11 431.393C1295.23 444.241 1255.56 475.932 1255.56 475.932C1255.56 475.932 1262.63 427.92 1287.66 413.046Z" fill="#F94B4B"/>
<path d="M1255.89 473.621C1255.89 473.621 1266.54 449.266 1300.22 420.457" stroke="white" stroke-miterlimit="10"/>
<path d="M1268.87 470.072H1243.53V475.192H1268.87V470.072Z" fill="#2C6A65"/>
<path d="M1248.05 490.194H1264.35L1267.52 475.193H1244.89L1248.05 490.194Z" fill="#305F59"/>
<path d="M744.973 407.768C758.696 379.001 780.338 396.947 771.364 416.741C762.391 436.535 738.639 481.929 738.639 481.929C738.639 481.929 731.249 436.482 744.973 407.768Z" fill="#F94B4B"/>
<path d="M738.639 481.876C738.639 481.876 745.764 437.01 760.544 407.715" stroke="white" stroke-width="1.06" stroke-miterlimit="10"/>
<path d="M710.695 411.99C687.998 393.779 680.872 413.309 689.846 427.561C698.819 441.812 733.656 478.761 733.656 478.761C733.656 478.761 733.36 430.147 710.695 411.99Z" fill="#F94B4B"/>
<path d="M733.624 476.387C733.624 476.387 726.53 450.734 697.204 417.48" stroke="white" stroke-width="1.06" stroke-miterlimit="10"/>
<path d="M736.031 478.709C736.031 478.709 710.273 409.879 715.815 381.376C721.357 352.873 748.763 367.177 747.971 386.707C747.179 406.237 736.031 478.709 736.031 478.709Z" fill="#F94B4B"/>
<path d="M736.031 478.708C736.031 478.708 732.6 415.895 731.545 381.322" stroke="white" stroke-width="1.06" stroke-miterlimit="10"/>
<path d="M749.322 470.072H723.986V475.192H749.322V470.072Z" fill="#2C6A65"/>
<path d="M744.804 490.194H728.504L725.337 475.193H747.971L744.804 490.194Z" fill="#305F59"/>
</g>
<defs>
<filter id="filter0_d" x="1339.22" y="323.209" width="48.0763" height="48.0763" filterUnits="userSpaceOnUse" color-interpolation-filters="sRGB">
<feFlood flood-opacity="0" result="BackgroundImageFix"/>
<feColorMatrix in="SourceAlpha" type="matrix" values="0 0 0 0 0 0 0 0 0 0 0 0 0 0 0 0 0 0 127 0"/>
<feOffset/>
<feGaussianBlur stdDeviation="2"/>
<feColorMatrix type="matrix" values="0 0 0 0 0 0 0 0 0 0 0 0 0 0 0 0 0 0 0.25 0"/>
<feBlend mode="normal" in2="BackgroundImageFix" result="effect1_dropShadow"/>
<feBlend mode="normal" in="SourceGraphic" in2="effect1_dropShadow" result="shape"/>
</filter>
<filter id="filter1_d" x="72.7002" y="315.727" width="48.0763" height="48.0763" filterUnits="userSpaceOnUse" color-interpolation-filters="sRGB">
<feFlood flood-opacity="0" result="BackgroundImageFix"/>
<feColorMatrix in="SourceAlpha" type="matrix" values="0 0 0 0 0 0 0 0 0 0 0 0 0 0 0 0 0 0 127 0"/>
<feOffset/>
<feGaussianBlur stdDeviation="2"/>
<feColorMatrix type="matrix" values="0 0 0 0 0 0 0 0 0 0 0 0 0 0 0 0 0 0 0.25 0"/>
<feBlend mode="normal" in2="BackgroundImageFix" result="effect1_dropShadow"/>
<feBlend mode="normal" in="SourceGraphic" in2="effect1_dropShadow" result="shape"/>
</filter>
<clipPath id="clip0">
<rect width="653.312" height="448.554" fill="white" transform="translate(672.237 42.168)"/>
</clipPath>
</defs>
</svg>
