<svg width="714" height="502" viewBox="0 0 714 502" fill="none" xmlns="http://www.w3.org/2000/svg">
<g opacity="0.11">
<path opacity="0.11" d="M164.321 408.016C149.871 408.248 135.421 408.405 120.971 408.487C95.2341 408.562 61.5011 404.717 42.281 419.326C32.6121 426.654 35.7926 441.278 51.1348 443.87C55.4792 444.605 60.1535 444.525 64.2246 445.755C68.2958 446.985 71.5235 450.401 69.2664 453.003C68.1073 454.327 65.8832 455.039 63.7534 455.599C50.2678 459.124 35.3167 459.572 21.9018 463.215C-9.97941 471.877 -4.48526 489.286 24.5075 494.908C50.5694 499.96 79.5527 499.258 106.425 499.62C263.687 501.623 421.378 503.999 577.768 497.264C611.496 495.808 645.026 493.965 678.604 492.259C693.969 491.472 713.208 489.432 713.27 484.851C713.312 481.665 703.163 479.285 693.164 478.041C675.649 475.864 652.782 473.965 656.095 466.834C657.301 464.238 663.002 461.848 670.923 460.633C677.049 459.69 684.074 459.44 690.714 458.875C697.353 458.309 704.143 457.263 706.932 455.411C714.438 450.415 695.529 447.442 682.223 446.985C666.282 446.438 653.286 442.927 658.781 437.63C662.607 433.94 675.065 431.442 678.854 427.733C680.38 426.244 680.375 424.647 679.362 423.124C669.246 407.917 616.392 409.217 596.696 408.082C560.253 405.975 523.66 405.57 487.095 405.381C404.165 404.952 321.234 405.669 238.341 406.795C213.698 407.073 189.007 407.624 164.321 408.016Z" fill="#272525"/>
</g>
<path d="M251.483 386.37L253.834 407.459L249.81 413.016L250.22 416.682L260.963 413.162L265.802 410.768L260.775 381.021L251.483 386.37Z" fill="#B99A6F"/>
<path d="M253.834 407.46L239.627 421.56L240.697 427.012L252.157 425.735L267.178 414.792L267.225 406.899L265.699 405.673C265.699 405.673 251.798 414.185 250.828 413.831C249.857 413.478 253.834 407.46 253.834 407.46Z" fill="#273140"/>
<path d="M319.17 386.903L321.597 407.983L326.761 412.497L327.181 416.164L315.924 415.136L310.67 413.883L303.63 384.98L319.17 386.903Z" fill="#B99A6F"/>
<path d="M321.597 407.983L338.603 418.563L338.777 424.114L327.322 425.434L310.227 418.115L308.418 410.429L309.634 408.897C309.634 408.897 325.084 414.081 325.951 413.515C326.818 412.95 321.597 407.983 321.597 407.983Z" fill="#273140"/>
<path d="M239.849 292.433L249.042 394.698H268.832L277.073 220.329L232.31 193.467L239.849 292.433Z" fill="#273140"/>
<path d="M271.891 221.743L289.325 294.789L301.576 392.341H322.309L318.068 272.64L312.414 189.225L271.891 221.743Z" fill="#273140"/>
<path d="M226.185 112.409C226.185 112.409 211.577 122.306 210.164 129.375C208.75 136.444 212.52 157.651 218.174 174.145C223.829 190.639 227.598 235.409 221.944 250.49C238.436 244.835 264.351 236.352 288.382 236.352C312.414 236.352 322.78 208.076 322.78 208.076C322.78 208.076 286.027 128.432 270.477 116.179C254.928 103.926 249.273 105.34 226.185 112.409Z" fill="#A0A4A9"/>
<path d="M244.768 105.726L246.988 105.42L250.96 167.415L233.865 143.927L226.538 116.664L228.06 112.164L244.768 105.726Z" fill="#C5CCCC"/>
<path d="M244.315 105.646L246.379 106.019L250.465 169.861L261.542 140.991L255.916 136.792L262.683 121.622L246.483 103.054L244.315 105.646Z" fill="#273140"/>
<path d="M229.793 112.103L228.022 112.621L235.203 140.322L251.124 168.334L226.82 146.152L229.162 137.768L218.937 134.045L226.486 110.67L229.793 112.103Z" fill="#273140"/>
<path d="M242.252 74.8348C232.06 59.0851 210.927 71.1778 210.046 87.6769C209.471 98.4359 220.412 109.497 231.49 109.798C231.623 110.144 231.738 110.496 231.834 110.854C232.266 112.452 232.813 114.018 233.469 115.538C233.704 116.113 242.341 112.117 243.303 111.669C243.659 111.555 243.956 111.304 244.127 110.972C244.353 110.312 243.34 108.785 243.119 108.168L242.327 105.986C246.818 102.215 248.726 96.089 248.283 90.4715C247.84 84.854 245.315 79.5711 242.252 74.8348Z" fill="#B99A6F"/>
<path d="M223.565 62.9542C222.65 64.4952 222.599 66.3379 222.66 68.0863C222.633 69.1264 222.826 70.1606 223.225 71.1212C225.039 74.8207 228.88 73.6566 232.178 74.175C236.271 74.8663 240.06 76.7784 243.049 79.6606C247.567 84.0151 247.76 91.0134 247.855 97.0315C247.888 99.1522 247.695 102.366 249.692 103.771C251.69 105.175 255.309 104.006 256.968 102.602C258.485 101.32 259.512 99.3878 261.336 98.5961C263.263 97.7619 266.194 97.9693 266.674 95.8957C266.806 95.316 266.674 94.6846 266.886 94.1332C267.603 92.2481 270.826 93.4451 272.112 91.9371C272.908 90.9945 272.536 89.543 271.923 88.4638C271.311 87.3846 270.467 86.3384 270.401 85.1037C270.345 84.0386 270.873 83.0537 271.104 82.0216C271.307 80.9848 271.21 79.9115 270.826 78.9275C270.441 77.9435 269.784 77.0895 268.931 76.4654C265.765 74.2363 261.086 75.947 257.755 73.9064C256.025 72.8461 254.984 70.9563 253.985 69.1702C252.986 67.3841 251.879 65.5132 250.079 64.58C247.855 63.4302 245.291 64.3538 243.011 62.9023C241.673 62.0446 240.608 60.7628 239.18 60.0747C237.295 59.1793 233.997 58.9531 231.886 58.7788C230.247 58.6277 228.599 58.9388 227.128 59.6768C225.658 60.4148 224.423 61.5502 223.565 62.9542Z" fill="#363636"/>
<path d="M216.002 94.0012C217.302 99.6988 221.656 105.128 220.266 110.764C218.876 116.401 212.52 119.007 207.002 120.642C206.093 120.911 194.666 124.662 194.431 124.652C186.83 124.29 189.695 117.833 187.73 114.171C184.903 108.903 178.151 115.255 176.633 109.93C177.722 109.459 177.953 107.913 177.529 106.768C177.105 105.623 176.233 104.718 175.597 103.672C174.836 102.384 174.443 100.913 174.459 99.417C174.476 97.9216 174.902 96.4592 175.691 95.1888C178.905 90.2546 186.882 90.0049 189.356 84.6277C190.887 81.3053 189.624 77.3466 189.949 73.6708C190.576 66.5641 197.404 63.416 202.031 59.1275C206.913 54.6033 211.813 51.5872 218.612 51.0358C227.037 50.376 235.104 57.1246 233.903 65.6451C232.367 76.5832 216.148 79.6983 215.658 90.5421C215.613 91.7055 215.729 92.8694 216.002 94.0012Z" fill="#363636"/>
<path d="M463.743 101.589H261.783V371.134H463.743V101.589Z" fill="#647380"/>
<path opacity="0.26" d="M276.848 359.555H279.873L458.221 365.088L453.556 110.17L445.267 112.555L276.848 359.555Z" fill="black"/>
<path d="M453.55 110.17H271.965V359.555H453.55V110.17Z" fill="#FFFFF0"/>
<path d="M386.028 86.4562H384.803V85.6315C384.803 77.8603 377.566 71.5595 368.641 71.5595H356.861C347.937 71.5595 340.699 77.8603 340.699 85.6315V86.4562H339.474C330.521 86.4562 323.312 92.7618 323.312 100.533V116.259H402.195V100.533C402.195 92.7618 394.957 86.4562 386.028 86.4562ZM373.15 86.7814H352.371C351.37 86.7464 350.422 86.3242 349.726 85.6038C349.031 84.8833 348.642 83.9209 348.642 82.9194C348.642 81.9178 349.031 80.9554 349.726 80.235C350.422 79.5145 351.37 79.0923 352.371 79.0574H373.15C374.151 79.0923 375.099 79.5145 375.795 80.235C376.491 80.9554 376.879 81.9178 376.879 82.9194C376.879 83.9209 376.491 84.8833 375.795 85.6038C375.099 86.3242 374.151 86.7464 373.15 86.7814Z" fill="#C6D1D1"/>
<path opacity="0.12" d="M402.195 108.856H323.331V116.259H402.195V108.856Z" fill="black"/>
<path d="M310.411 220.843H291.29V252.771H310.411V220.843Z" fill="#6699C4"/>
<path d="M341.015 208.736H321.894V252.771H341.015V208.736Z" fill="#6699C4"/>
<path d="M373.867 196.252H354.746V252.766H373.867V196.252Z" fill="#6699C4"/>
<path d="M404.603 183.848H385.481V252.766H404.603V183.848Z" fill="#6699C4"/>
<path d="M437.455 171.407H418.334V252.771H437.455V171.407Z" fill="#6699C4"/>
<path d="M447.176 254.887H279.901V256.593H447.176V254.887Z" fill="#CBCCCE"/>
<path d="M310.363 220.946H291.473V232.931H310.363V220.946Z" fill="#B1CFDF"/>
<path d="M340.774 208.505H321.884V220.489H340.774V208.505Z" fill="#B1CFDF"/>
<path d="M373.49 196.059H354.6V208.043H373.49V196.059Z" fill="#B1CFDF"/>
<path d="M404.363 183.617H385.473V195.602H404.363V183.617Z" fill="#B1CFDF"/>
<path d="M437.078 171.633H418.188V183.617H437.078V171.633Z" fill="#B1CFDF"/>
<path d="M437.493 277.018H287.728V280.896H437.493V277.018Z" fill="#E0E0E0"/>
<path d="M354.402 288.286H287.728V341.44H354.402V288.286Z" fill="#E0E0E0"/>
<path d="M437.488 288.799H364.66V311.948H437.488V288.799Z" fill="#E0E0E0"/>
<path d="M437.431 318.037H364.603V341.185H437.431V318.037Z" fill="#E0E0E0"/>
<path d="M212.51 124.898L205.353 133.159L194.643 201.243L203.699 211.917L265.925 201.455L262.071 188.236H215.267L223.527 161.798L212.51 124.898Z" fill="#A0A4A9"/>
<path d="M262.872 190.064L271.707 183.57L286.026 189.06L284.924 195.658H270.91C270.91 195.658 269.096 197.322 264.898 198.146L262.872 190.064Z" fill="#B99A6F"/>
<path d="M284.612 101.589L292.623 94.972L307.701 96.8571L310.057 115.237H298.748L292.151 101.725L284.612 101.589Z" fill="#B99A6F"/>
<path d="M588.982 426.574L603.259 437.121L603.41 440.472L598.264 442.197L579.063 438.214L577.103 427.861L588.982 426.574Z" fill="#3A3029"/>
<path d="M504.463 429.1L495.011 433.638L492.74 439.294C492.74 439.294 499.167 441.179 501.061 440.806C502.955 440.434 519.584 439.294 519.584 439.294C519.584 439.294 520.715 428.709 519.584 429.086C518.453 429.463 504.463 429.1 504.463 429.1Z" fill="#3A3029"/>
<path d="M510.08 240.358L502.07 328.485L504.562 429.699C504.562 429.699 519.268 431.692 520.211 428.864C521.153 426.037 533.64 336.025 533.64 336.025L556.022 247.662L515.735 224.335L510.08 240.358Z" fill="#0E4779"/>
<path d="M542.616 256.673L563.928 349.107L575.92 429.713L593.717 425.82L591.875 240.292L542.616 256.673Z" fill="#0E4779"/>
<path d="M609.38 246.871C610.563 255.094 611.59 266.15 608.16 266.942C607.517 267.027 606.863 266.927 606.275 266.654C599.914 264.383 595.155 260.702 588.888 258.52C582.324 256.23 575.063 255.448 568.014 255.132C557.488 254.574 546.936 254.801 536.444 255.811C527.491 256.711 518.637 261.805 510.429 264.977C507.267 266.193 504.883 268.855 502.381 271.009C498.687 274.195 497.056 275.477 496.986 269.803C496.877 260.542 496.797 251.282 496.925 242.026C497.184 223.562 498.258 205.051 501.505 186.845C502.749 179.89 504.304 173 505.858 166.11C507.743 157.721 509.628 149.331 511.513 140.939C513.869 130.51 518.92 122.791 528.735 118.158C537.217 114.157 548.054 112.131 557.111 115.444C567.161 119.134 573.452 134.766 579.021 142.848C583.903 149.95 591.272 169.965 593.675 177.934C596.569 187.524 599.33 197.081 601.714 206.653C604.393 217.149 606.504 227.782 608.037 238.506C608.221 239.674 608.82 242.95 609.38 246.871Z" fill="#0E4779"/>
<path d="M546.697 118.022L529.112 120.109C529.112 120.109 517.435 188.189 517.987 199.645C518.524 210.89 518.698 256.701 518.698 256.701C518.698 256.701 535.459 259.944 558.217 260.226C580.689 262.526 585.014 254.628 585.014 254.628C585.014 254.628 567.962 208.326 566.077 194.692C564.145 180.747 557.308 134.742 557.308 134.742L546.697 118.022Z" fill="white"/>
<path d="M544.242 119.379L535.577 120.321C535.121 120.37 534.688 120.546 534.326 120.829C533.965 121.111 533.691 121.489 533.533 121.92C533.376 122.35 533.342 122.816 533.436 123.265C533.53 123.714 533.747 124.128 534.064 124.459L538.13 128.734L536.048 201.681L548.954 211.846L555.48 197.369L546.146 127.843L546.951 122.145C547 121.775 546.964 121.399 546.846 121.045C546.728 120.691 546.531 120.369 546.27 120.103C546.009 119.836 545.691 119.632 545.339 119.507C544.988 119.382 544.613 119.338 544.242 119.379Z" fill="#FC3544"/>
<path d="M536.058 119.53C536.289 119.691 536.55 119.805 536.826 119.864C537.401 119.939 537.986 119.891 538.541 119.723L545.434 118.13C543.889 111.085 547.88 109.016 551.442 103.992C555.004 98.9684 553.096 92.7618 552.243 87.0972C552.008 85.5184 551.772 83.8926 550.924 82.5306C549.473 80.1366 546.584 79.0432 543.856 78.506C536.84 77.1393 529.14 78.506 523.594 83.0019C522.12 84.1989 520.767 85.6457 520.098 87.4224C519.052 90.1651 519.731 93.2236 520.414 96.0748C521.469 100.458 523.241 104.675 526.181 108.149C528.905 111.382 533.551 112.564 534.521 116.693C534.748 117.758 535.209 118.941 536.058 119.53Z" fill="#E7CAAD"/>
<path d="M520.022 90.8814C520.616 92.6298 521.648 94.3547 521.408 96.1832C518.458 95.5281 516.281 92.8183 514.947 89.9719C514.296 88.693 513.911 87.2948 513.817 85.8624C513.772 85.1545 513.878 84.445 514.128 83.7813C514.379 83.1175 514.767 82.5144 515.268 82.0122C516.71 80.7256 519.565 80.8576 520.234 82.8369C520.903 84.8162 519.132 88.2518 520.022 90.8814Z" fill="#3A3029"/>
<path d="M503.196 76.7953C503.027 74.6369 503.634 72.6293 505.411 71.1401C506.942 69.8394 508.752 68.7084 509.562 66.8186C510.189 65.3576 510.118 63.6375 510.74 62.1719C511.866 59.5139 514.821 58.4442 517.37 57.3084C523.75 54.4808 527.039 51.6249 534.333 53.576C539.516 54.9662 545.981 54.5185 550.91 56.8324C552.964 57.775 554.816 59.5139 556.39 61.4697C561.855 68.2606 564.098 78.3976 561.888 86.3431C561.385 88.075 560.734 89.7605 559.942 91.381C558.42 94.5856 556.847 98.4924 553.732 100.335C553.374 98.9448 552.234 98.2803 551.753 96.9278C551.463 95.9308 551.314 94.8981 551.31 93.8599C551.075 89.8352 551.612 83.3742 547.399 81.8284C542.07 79.8727 532.839 83.1715 528.207 85.8248C524.103 88.1811 517.106 91.4187 512.295 89.9059C507.833 88.4686 503.55 81.3948 503.196 76.7953Z" fill="#3A3029"/>
<path d="M439.189 0.789412C430.334 -0.292689 421.351 0.547356 412.85 3.25228C404.349 5.9572 396.532 10.4634 389.93 16.4637L431.711 62.563L483.284 27.7647C478.304 20.3628 471.788 14.1216 464.178 9.46648C456.569 4.81136 448.046 1.85176 439.189 0.789412Z" fill="#0E4779"/>
<path d="M494.361 60.9655L432.163 62.351L424.689 124.125C433.542 125.198 442.522 124.356 451.021 121.654C459.52 118.952 467.338 114.454 473.946 108.464C480.554 102.475 485.796 95.1347 489.319 86.9409C492.841 78.7471 494.561 69.8916 494.361 60.9749V60.9655Z" fill="#D70100"/>
<path d="M389.972 16.6758C383.99 22.2427 379.164 28.9345 375.769 36.3685C372.375 43.8025 370.479 51.8328 370.19 60.0002C369.901 68.1676 371.225 76.3118 374.086 83.9671C376.947 91.6223 381.288 98.6384 386.863 104.614C388.884 106.78 391.055 108.8 393.36 110.661L432.385 62.2049L389.972 16.6758Z" fill="#6699C4"/>
<path d="M424.803 124.049C412.959 122.629 401.777 117.818 392.602 110.194L432.286 62.2803L424.803 124.049Z" fill="#AECCDC"/>
<path d="M431.72 62.5348L493.918 61.1492C493.918 61.1492 494.101 69.5472 493.018 73.8734L431.72 62.5348Z" fill="#930303"/>
<path d="M532.933 116.65L518.227 118.267L482.736 160.492L460.75 123.724L449.154 129.601L469.731 181.704L483.08 189.018L508.751 161.27L527.953 119.883L532.933 116.65Z" fill="#0E4779"/>
<path d="M457.707 125.256L461.383 119.322L462.287 111.839L455.116 108.955L454.786 111.655L458.094 115.123L455.003 120.468L449.16 122.249L450.781 128.484L457.707 125.256Z" fill="#E7CAAD"/>
<path d="M706.762 193.321C700.855 182.956 692.08 174.518 681.492 169.022L652.749 224.212L706.762 193.321Z" fill="#D70100"/>
<path d="M556.021 115.708L570.629 119.949L614.921 171.789L663.454 184.513L661.098 196.766L610.68 192.053L581.937 176.03L556.021 115.708Z" fill="#0E4779"/>
<path d="M663.455 184.513L672.408 181.214L678.533 184.513L679.947 192.996H676.648L672.078 187.105L667.427 196.04H661.24L663.455 184.513Z" fill="#E7CAAD"/>
<path d="M174.932 426.423L186.052 433.554L189.912 439.209C189.912 439.209 185.958 441.193 183.734 441.744C181.51 442.296 163.892 440.411 163.892 440.411L163.421 430.09L174.932 426.423Z" fill="#273140"/>
<path d="M119.374 434.209L124.877 440.368C124.877 440.368 129.349 448.724 127.106 448.596C124.863 448.469 112.683 449.119 111.863 447.725C111.043 446.33 104.573 441.457 103.73 440.509C102.886 439.562 103.73 431.725 103.73 431.725L119.374 434.209Z" fill="#273140"/>
<path d="M150.792 270.283L136.986 354.239L119.373 434.209L103.682 433.309L106.702 348.909C106.702 348.909 95.3937 271.339 95.356 248.393L150.792 270.283Z" fill="#2E4661"/>
<path d="M185.43 274.421L179.116 429.378L162.969 430.123L154.379 351.393L141.873 281.914L175.248 238.925L185.43 274.421Z" fill="#2E4661"/>
<path d="M176.968 192.835C168.486 151.628 179.248 131.759 160.716 120.303C160.716 120.303 130.527 112.008 111.297 125.812L110.501 126.396L103.513 140.925L98.2073 206.111C98.2073 206.111 83.3693 291.693 91.2477 292.381C100.167 293.163 141.129 274.053 148.908 274.525C156.687 274.996 180.478 279.237 202.935 271.593C222.193 265.038 185.435 234.048 176.968 192.835Z" fill="#2E4661"/>
<path d="M139.422 119.035L133.547 119.256L132.948 125.166L154.524 185.512L159.359 159.361L154.081 121.382L139.422 119.035Z" fill="white"/>
<path d="M158.478 164.149C158.431 161.765 158.318 159.625 158.124 157.891C156.767 145.916 148.229 130.284 148.229 130.284C147.875 128.168 147.63 126.035 147.494 123.894L140.426 122.744L140.897 130.162L143.965 133.371C143.965 133.371 151.419 161.882 151.561 173.315C151.561 174.517 151.561 175.752 151.514 176.996L154.557 185.512L158.478 164.149Z" fill="#2E4661"/>
<path d="M157.611 206.436L148.842 274.407L166.375 276.881L178.494 275.938L163.614 216.667L157.611 206.436Z" fill="white"/>
<path d="M149.191 121.65L137.128 122.145C136.639 118.968 136.406 115.756 136.431 112.541C132.958 111.848 128.892 110.656 127.827 107.263C127.553 106.178 127.462 105.055 127.558 103.94C127.704 99.3312 126.409 94.6563 127.992 90.1133C128.515 88.6052 128.1 86.8757 128.76 85.4006C129.914 82.8511 132.652 81.4231 135.314 80.5654C142.114 78.374 149.921 78.8123 155.967 82.6154C157.574 83.6287 159.081 84.9058 159.962 86.5882C161.324 89.1849 161.018 92.3 160.679 95.2124L159.736 103.276C159.374 106.367 158.723 109.911 156.009 111.433C154.567 112.244 152.744 112.324 151.486 113.394C149.257 115.307 150.096 118.879 149.191 121.65Z" fill="#E7CAAD"/>
<path d="M166.493 61.7524C165.549 61.6895 164.616 61.5155 163.713 61.234C160.702 60.2161 158.45 57.8503 155.264 56.9267C148.823 55.0416 141.025 56.0642 135.116 59.1652C129.462 62.1294 121.536 63.7553 116.565 67.516C114.527 69.1458 112.917 71.2489 111.877 73.6425C108.079 81.819 109.521 92.1586 115.378 98.9966C116.717 100.514 118.186 101.911 119.769 103.172C123.011 105.825 126.898 109.115 130.922 109.699C130.531 106.231 125.843 95.7685 128.095 92.5591C131.087 88.3177 137.627 87.8465 142.349 87.8936C147.97 87.9454 152.409 85.7635 157.997 85.5702C160.825 85.4713 164.095 85.7729 166.111 83.7606C168.467 81.4419 173.179 74.2881 174.197 71.2437C175.083 68.5764 174.079 65.466 171.987 63.5857C170.192 61.9833 168.387 61.9268 166.493 61.7524Z" fill="#3A3029"/>
<path d="M163.354 122.145L175.295 130.788L192.729 183.57L228.069 214.203L221.472 222.214L183.776 199.593L169.169 180.743L163.354 122.145Z" fill="#2E4661"/>
<path d="M246.752 160.478C246.752 160.478 181.039 227.718 180.007 229.651C178.975 231.583 160.217 193.792 160.217 193.792L110.454 249.345L92.0772 225.273L52.3647 270.123L89.5233 244.519L109.799 270.693L154.539 224.768L173.919 263.883L266.641 177.067L246.752 160.478Z" fill="#FC3544"/>
<path d="M206.054 167.128L277.172 146.703L259.054 220.221L206.054 167.128Z" fill="#FC3544"/>
<path d="M116.867 122.306L100.375 129.846L54.6689 190.639L58.9097 212.317L136.186 237.766L141.369 225.513L83.8831 193.467L110.685 168.018L116.867 122.306Z" fill="#2E4661"/>
<path d="M83.8831 193.467L54.6689 190.639L58.9097 211.846L136.186 237.766L141.369 225.513L83.8831 193.467Z" fill="#344F6E"/>
<path d="M140.968 226.46L148.908 230.226V236.352L141.369 241.065L137.797 240.372L136.779 236.361L140.968 226.46Z" fill="#E7CAAD"/>
<path d="M229.011 215.616L229.954 209.019L221.472 202.421L217.231 207.134L219.116 218.915L224.662 220.899L229.011 215.616Z" fill="#E7CAAD"/>
</svg>
