<svg width="660" height="615" viewBox="0 0 660 615" fill="none" xmlns="http://www.w3.org/2000/svg">
<path d="M330.1 614.785C511.903 614.785 659.284 529.699 659.284 424.741C659.284 319.783 511.903 234.698 330.1 234.698C148.297 234.698 0.916748 319.783 0.916748 424.741C0.916748 529.699 148.297 614.785 330.1 614.785Z" fill="#E7F3FE"/>
<path d="M261.983 568.748C324.676 568.748 375.498 539.41 375.498 503.22C375.498 467.031 324.676 437.693 261.983 437.693C199.291 437.693 148.469 467.031 148.469 503.22C148.469 539.41 199.291 568.748 261.983 568.748Z" fill="#CCE2FF"/>
<path d="M471.574 575.734C534.266 575.734 585.088 546.396 585.088 510.206C585.088 474.017 534.266 444.679 471.574 444.679C408.882 444.679 358.06 474.017 358.06 510.206C358.06 546.396 408.882 575.734 471.574 575.734Z" fill="#CCE2FF"/>
<path d="M584.795 421.234L571.479 413.55C571.479 413.55 568.224 385.048 570.389 362.972C573.435 331.955 593.472 294.623 617.366 303.397C641.259 312.171 606.411 343.747 598.656 370.056C590.901 396.365 584.795 421.234 584.795 421.234Z" fill="#9CD499"/>
<path opacity="0.15" d="M584.795 421.279L571.479 413.594C571.479 413.594 568.224 385.092 570.389 363.017C573.435 331.999 593.472 294.667 617.366 303.441C641.259 312.215 606.411 343.792 598.656 370.1C590.901 396.409 584.795 421.279 584.795 421.279Z" fill="#9CD499"/>
<path d="M577.794 418.007C578.007 417.996 578.207 417.902 578.35 417.745C578.494 417.588 578.571 417.381 578.563 417.169C576.229 348.246 610.546 313.568 610.882 313.233C611.034 313.081 611.119 312.875 611.119 312.66C611.119 312.445 611.034 312.239 610.882 312.087C610.808 312.013 610.72 311.953 610.622 311.913C610.525 311.872 610.421 311.851 610.316 311.851C610.211 311.851 610.106 311.872 610.009 311.913C609.912 311.953 609.824 312.013 609.75 312.087C609.387 312.423 574.581 347.604 576.942 417.225C576.946 417.332 576.971 417.438 577.016 417.536C577.061 417.634 577.125 417.722 577.204 417.795C577.283 417.868 577.376 417.924 577.478 417.96C577.579 417.997 577.687 418.013 577.794 418.007Z" fill="white"/>
<path d="M593.165 426.027L583.691 420.564C583.691 420.564 582.07 401.003 591.67 377.252C600.053 356.573 620.733 339.402 631.157 343.007C641.58 346.612 641.315 354.003 636.229 361.757C631.143 369.511 600.249 387.968 593.165 426.027Z" fill="#9CD499"/>
<path d="M588.163 423.959C588.376 423.955 588.58 423.869 588.732 423.718C588.883 423.566 588.969 423.362 588.973 423.149C588.777 379.557 629.704 350.104 630.123 349.811C630.21 349.751 630.284 349.674 630.341 349.585C630.398 349.496 630.436 349.396 630.453 349.291C630.47 349.187 630.465 349.08 630.44 348.977C630.414 348.874 630.368 348.778 630.304 348.693C630.181 348.521 629.994 348.404 629.785 348.367C629.576 348.331 629.361 348.378 629.187 348.498C628.767 348.791 587.171 378.746 587.352 423.149C587.352 423.364 587.438 423.57 587.59 423.722C587.742 423.874 587.948 423.959 588.163 423.959Z" fill="white"/>
<path d="M95.5013 399.318L107.797 391.019C107.797 391.019 113.205 358.884 108.175 330.536C101.104 290.772 73.62 277.555 63.8391 281.747C54.0582 285.938 51.9622 297.772 70.2246 320.462C81.0535 333.805 95.124 362.293 95.5013 399.318Z" fill="#9CD499"/>
<path opacity="0.15" d="M97.7681 399.318L110.064 391.019C110.064 391.019 115.472 358.884 110.441 330.536C103.371 290.772 75.8868 277.555 66.1059 281.747C56.325 285.938 54.2291 297.772 72.4915 320.462C83.3203 333.805 97.3909 362.293 97.7681 399.318Z" fill="#9CD499"/>
<path d="M99.7209 383.391H99.5952C99.4696 383.383 99.3471 383.349 99.2356 383.29C99.1242 383.232 99.0264 383.15 98.9486 383.051C98.8708 382.952 98.8147 382.838 98.7841 382.716C98.7534 382.594 98.7489 382.467 98.7708 382.343C103.214 344.913 87.411 304.283 70.2105 288.118C70.045 287.95 69.9521 287.724 69.9521 287.489C69.9521 287.254 70.045 287.028 70.2105 286.86C70.2925 286.777 70.3903 286.71 70.4983 286.665C70.6063 286.619 70.7222 286.596 70.8393 286.596C70.9564 286.596 71.0723 286.619 71.1803 286.665C71.2883 286.71 71.3861 286.777 71.4681 286.86C88.9899 303.319 105.086 344.619 100.587 382.594C100.561 382.808 100.459 383.006 100.301 383.152C100.142 383.298 99.9364 383.383 99.7209 383.391Z" fill="white"/>
<path d="M63.3082 421.031C61.352 422.204 55.6511 417.971 54.0722 416.951C51.3662 415.184 49.162 412.749 47.6727 409.881C46.0019 406.629 45.3819 402.938 45.8981 399.319C46.1843 397.429 46.5998 395.562 47.1417 393.73C47.6308 391.9 48.1198 390.069 48.539 388.225C49.1587 386.431 49.3966 384.528 49.2376 382.636C48.6927 378.906 45.3253 376.349 42.2513 374.156C38.8699 371.71 35.2649 368.483 35.2649 363.984C35.4373 360.449 36.7902 357.075 39.1074 354.399C41.2033 351.605 43.7184 349.174 45.6047 346.254C47.0797 344.231 47.8326 341.77 47.7425 339.268C47.4996 337.726 46.9484 336.248 46.1217 334.923C44.4729 332.017 42.3351 329.334 41.1754 326.246C40.0156 323.159 40.0995 319.191 42.5726 316.885C44.5428 314.999 47.5469 314.692 50.2716 314.818C52.8391 315.073 55.3193 315.889 57.5374 317.207C64.7613 321.049 69.009 329.432 76.6521 332.352C79.6004 333.47 82.8141 333.665 85.8741 334.42C88.9342 335.174 92.092 336.669 93.5591 339.45C96.4515 344.969 91.4073 351.927 93.4753 357.781C95.3197 362.978 100.462 364.878 103.368 369.531C104.548 371.597 105.037 373.986 104.765 376.349C104.601 380.339 103.706 384.265 102.124 387.932C100.305 391.734 98.2519 395.421 95.9764 398.969C95.9764 398.969 63.6016 420.849 63.3082 421.031Z" fill="#9CD499"/>
<path d="M82.1993 409.448C82.0819 409.446 81.9659 409.421 81.8581 409.375C81.7503 409.328 81.6528 409.261 81.571 409.176C81.4893 409.092 81.425 408.992 81.3817 408.883C81.3385 408.774 81.3172 408.657 81.319 408.54C82.1015 373.163 64.6915 334.49 52.3675 323.312C52.1924 323.154 52.0867 322.934 52.0736 322.698C52.0606 322.463 52.1411 322.231 52.2977 322.055C52.3796 321.971 52.4774 321.905 52.5854 321.86C52.6934 321.814 52.8093 321.791 52.9264 321.791C53.0435 321.791 53.1595 321.814 53.2674 321.86C53.3754 321.905 53.4732 321.971 53.5552 322.055C66.1307 333.372 83.89 372.716 83.0936 408.582C83.0917 408.697 83.0672 408.811 83.0212 408.918C82.9753 409.024 82.9089 409.12 82.8259 409.2C82.7428 409.281 82.6448 409.344 82.5373 409.386C82.4298 409.429 82.3149 409.45 82.1993 409.448Z" fill="white"/>
<path d="M75.6739 366.345C75.5914 366.366 75.505 366.366 75.4224 366.345C63.9927 363.048 49.8244 362.713 49.6846 362.699C49.5678 362.697 49.4525 362.672 49.3455 362.625C49.2385 362.578 49.1418 362.511 49.0612 362.426C48.9805 362.342 48.9175 362.242 48.8758 362.133C48.8342 362.024 48.8146 361.907 48.8183 361.791C48.8161 361.673 48.8385 361.555 48.8839 361.447C48.9293 361.338 48.9968 361.239 49.0822 361.158C49.1676 361.077 49.2689 361.014 49.3799 360.974C49.4908 360.933 49.6088 360.917 49.7265 360.924C49.8663 360.924 64.2582 361.274 75.9114 364.627C76.1366 364.695 76.326 364.849 76.4385 365.055C76.5509 365.262 76.5774 365.505 76.5123 365.731C76.4579 365.91 76.3467 366.067 76.1956 366.178C76.0444 366.289 75.8614 366.347 75.6739 366.345Z" fill="white"/>
<path d="M326.44 0.672049C328.851 1.20867 331.175 2.08358 333.342 3.27079C335.417 4.38612 337.276 5.86225 338.833 7.62996C340.323 9.3304 341.429 11.3319 342.075 13.4981C342.734 15.8169 342.783 18.2668 342.215 20.6097C341.84 22.4672 341.104 24.2331 340.049 25.8072C339.086 27.1532 337.938 28.3572 336.64 29.3839C335.365 30.3738 334.004 31.2482 332.574 31.9966L328.549 34.1343C327.337 34.7665 326.186 35.5102 325.112 36.3558C324.14 37.1013 323.395 38.1028 322.96 39.2479C322.747 39.7711 322.395 40.2255 321.94 40.5613C321.725 40.7282 321.475 40.844 321.209 40.8996C320.943 40.9553 320.667 40.9495 320.403 40.8826L314.479 39.5693C314.194 39.5095 313.923 39.3934 313.683 39.2279C313.443 39.0624 313.239 38.8507 313.082 38.6052C312.914 38.3771 312.803 38.1127 312.757 37.8336C312.711 37.5544 312.731 37.2684 312.816 36.9985C313.293 35.1638 314.134 33.4438 315.289 31.9407C316.343 30.6112 317.564 29.4231 318.922 28.4059C320.245 27.4375 321.647 26.5822 323.114 25.8491C324.511 25.1365 325.909 24.4519 327.124 23.7673C328.255 23.1595 329.318 22.4336 330.296 21.6017C331.154 20.8835 331.749 19.9005 331.987 18.8073C332.209 17.8581 332.198 16.8691 331.955 15.925C331.711 14.981 331.243 14.1099 330.589 13.3863C328.956 11.6025 326.772 10.4171 324.386 10.0191C319.97 9.04111 316.244 10.5268 313.207 14.4761C312.914 14.9072 312.545 15.2812 312.117 15.5799C311.635 15.8189 311.078 15.8591 310.567 15.6916L304.265 14.2945C303.815 14.2076 303.418 13.9464 303.161 13.5679C303.023 13.3657 302.931 13.1363 302.89 12.8952C302.849 12.6541 302.86 12.4071 302.923 12.1708C303.459 10.2293 304.456 8.44617 305.83 6.97329C307.379 5.26519 309.219 3.84595 311.265 2.78178C313.502 1.61151 315.913 0.809484 318.405 0.406588C321.075 -0.0276671 323.804 0.062499 326.44 0.672049ZM319.747 45.633C320.301 45.7631 320.782 46.105 321.088 46.5854C321.393 47.0658 321.499 47.6467 321.381 48.2038L319.872 55.0499C319.821 55.3366 319.71 55.6092 319.546 55.85C319.383 56.0908 319.17 56.2942 318.922 56.4471C318.688 56.6084 318.423 56.719 318.144 56.7719C317.865 56.8249 317.578 56.8189 317.301 56.7545L310.539 55.2036C310.251 55.1552 309.977 55.0452 309.736 54.8812C309.495 54.7172 309.292 54.5031 309.141 54.2536C308.985 54.0176 308.878 53.7521 308.827 53.4734C308.777 53.1948 308.784 52.9087 308.848 52.6328L310.371 45.7867C310.501 45.2317 310.842 44.7492 311.322 44.4415C311.802 44.1338 312.383 44.0249 312.942 44.138L319.747 45.633Z" fill="#9EC8FF"/>
<path d="M333.901 66.2133C335.584 65.9435 337.296 65.9105 338.987 66.1155C340.603 66.3076 342.173 66.7804 343.626 67.5127C345.01 68.2306 346.229 69.23 347.203 70.4468C348.079 71.6376 348.696 72.9989 349.014 74.4428C349.332 75.8867 349.343 77.3812 349.048 78.8298C348.781 79.9435 348.353 81.0121 347.776 82.0014C347.22 82.9636 346.574 83.8711 345.848 84.7119C345.135 85.5502 344.451 86.3466 343.822 87.115C343.206 87.8309 342.659 88.6027 342.187 89.4204C341.744 90.137 341.521 90.9675 341.544 91.8095C341.532 92.2031 341.421 92.5873 341.223 92.9273C341.122 93.0839 340.989 93.2173 340.832 93.3185C340.675 93.4196 340.499 93.4863 340.315 93.5141L336.123 94.1847C335.927 94.2203 335.726 94.2163 335.532 94.1731C335.337 94.1299 335.153 94.0484 334.991 93.9332C334.826 93.8295 334.688 93.6879 334.588 93.5203C334.489 93.3527 334.43 93.1638 334.418 92.9692C334.242 91.669 334.338 90.3466 334.698 89.085C335.026 87.9682 335.496 86.8977 336.095 85.8995C336.682 84.9415 337.356 84.039 338.107 83.2029C338.847 82.3646 339.504 81.5822 340.147 80.8278C340.721 80.154 341.218 79.4182 341.628 78.6342C341.992 77.9594 342.124 77.184 342.005 76.4267C341.9 75.7601 341.636 75.1288 341.234 74.5864C340.833 74.0439 340.307 73.6064 339.7 73.311C338.198 72.5854 336.497 72.379 334.865 72.7242C333.388 72.9402 332.013 73.6081 330.93 74.6362C329.846 75.6642 329.108 77.0022 328.815 78.4665C328.733 78.8188 328.591 79.1543 328.396 79.4585C328.147 79.7237 327.808 79.8879 327.446 79.9196L323.03 80.6322C322.72 80.6915 322.399 80.6263 322.136 80.4505C322.002 80.3581 321.888 80.2379 321.804 80.0982C321.72 79.9584 321.666 79.8023 321.647 79.6402C321.516 78.2537 321.732 76.8564 322.276 75.5744C322.828 74.0826 323.642 72.7011 324.679 71.4946C325.816 70.1736 327.155 69.0417 328.647 68.1414C330.257 67.1651 332.042 66.5103 333.901 66.2133ZM341.111 96.7415C341.303 96.711 341.5 96.7188 341.689 96.7643C341.879 96.8099 342.057 96.8923 342.215 97.007C342.38 97.1152 342.519 97.2571 342.625 97.4233C342.731 97.5894 342.801 97.7761 342.83 97.971L343.612 102.763C343.673 103.152 343.578 103.549 343.347 103.868C343.117 104.187 342.771 104.403 342.383 104.468L337.702 105.236C337.313 105.296 336.917 105.201 336.598 104.971C336.436 104.861 336.299 104.719 336.195 104.553C336.092 104.387 336.024 104.201 335.997 104.007L335.215 99.2145C335.179 99.0222 335.184 98.8246 335.23 98.6345C335.276 98.4443 335.361 98.2659 335.48 98.1108C335.59 97.9487 335.732 97.8115 335.898 97.708C336.064 97.6045 336.25 97.537 336.444 97.51L341.111 96.7415Z" fill="#9EC8FF"/>
<g opacity="0.2">
<path opacity="0.2" d="M333.901 66.2133C335.584 65.9435 337.296 65.9105 338.987 66.1155C340.603 66.3076 342.173 66.7804 343.626 67.5127C345.01 68.2306 346.229 69.23 347.203 70.4468C348.079 71.6376 348.696 72.9989 349.014 74.4428C349.332 75.8867 349.343 77.3812 349.048 78.8298C348.781 79.9435 348.353 81.0121 347.776 82.0014C347.22 82.9636 346.574 83.8711 345.848 84.7119C345.135 85.5502 344.451 86.3466 343.822 87.115C343.206 87.8309 342.659 88.6027 342.187 89.4204C341.744 90.137 341.521 90.9675 341.544 91.8095C341.532 92.2031 341.421 92.5873 341.223 92.9273C341.122 93.0839 340.989 93.2173 340.832 93.3185C340.675 93.4196 340.499 93.4863 340.315 93.5141L336.123 94.1847C335.927 94.2203 335.726 94.2163 335.532 94.1731C335.337 94.1299 335.153 94.0484 334.991 93.9332C334.826 93.8295 334.688 93.6879 334.588 93.5203C334.489 93.3527 334.43 93.1638 334.418 92.9692C334.242 91.669 334.338 90.3466 334.698 89.085C335.026 87.9682 335.496 86.8977 336.095 85.8995C336.682 84.9415 337.356 84.039 338.107 83.2029C338.847 82.3646 339.504 81.5822 340.147 80.8278C340.721 80.154 341.218 79.4182 341.628 78.6342C341.992 77.9594 342.124 77.184 342.005 76.4267C341.9 75.7601 341.636 75.1288 341.234 74.5864C340.833 74.0439 340.307 73.6064 339.7 73.311C338.198 72.5854 336.497 72.379 334.865 72.7242C333.388 72.9402 332.013 73.6081 330.93 74.6362C329.846 75.6642 329.108 77.0022 328.815 78.4665C328.733 78.8188 328.591 79.1543 328.396 79.4585C328.147 79.7237 327.808 79.8879 327.446 79.9196L323.03 80.6322C322.72 80.6915 322.399 80.6263 322.136 80.4505C322.002 80.3581 321.888 80.2379 321.804 80.0982C321.72 79.9584 321.666 79.8023 321.647 79.6402C321.516 78.2537 321.732 76.8564 322.276 75.5744C322.828 74.0826 323.642 72.7011 324.679 71.4946C325.816 70.1736 327.155 69.0417 328.647 68.1414C330.257 67.1651 332.042 66.5103 333.901 66.2133ZM341.111 96.7415C341.303 96.711 341.5 96.7188 341.689 96.7643C341.879 96.8099 342.057 96.8923 342.215 97.007C342.38 97.1152 342.519 97.2571 342.625 97.4233C342.731 97.5894 342.801 97.7761 342.83 97.971L343.612 102.763C343.673 103.152 343.578 103.549 343.347 103.868C343.117 104.187 342.771 104.403 342.383 104.468L337.702 105.236C337.313 105.296 336.917 105.201 336.598 104.971C336.436 104.861 336.299 104.719 336.195 104.553C336.092 104.387 336.024 104.201 335.997 104.007L335.215 99.2145C335.179 99.0222 335.184 98.8246 335.23 98.6345C335.276 98.4443 335.361 98.2659 335.48 98.1108C335.59 97.9487 335.732 97.8115 335.898 97.708C336.064 97.6045 336.25 97.537 336.444 97.51L341.111 96.7415Z" fill="#9EC8FF"/>
</g>
<path d="M373.416 73.7441C373.606 73.8765 373.768 74.0464 373.89 74.2434C374.013 74.4404 374.094 74.6604 374.129 74.8898C374.173 75.1171 374.17 75.3511 374.119 75.5772C374.069 75.8032 373.972 76.0163 373.835 76.2031L370.51 80.8836C370.377 81.0741 370.207 81.2356 370.01 81.3581C369.813 81.4806 369.593 81.5616 369.364 81.5962C369.137 81.6406 368.902 81.6375 368.676 81.587C368.45 81.5365 368.237 81.4397 368.05 81.3028L363.467 78.0474C363.276 77.9167 363.116 77.747 362.995 77.5495C362.875 77.352 362.797 77.1312 362.769 76.9017C362.724 76.6744 362.727 76.4403 362.778 76.2143C362.828 75.9882 362.925 75.7751 363.062 75.5883L366.43 70.9078C366.702 70.5285 367.113 70.2717 367.573 70.1932C368.033 70.1148 368.506 70.2209 368.889 70.4887L373.416 73.7441ZM392.754 42.0423C394.425 43.2133 395.913 44.6259 397.17 46.2338C398.395 47.7294 399.341 49.4331 399.964 51.2636C400.544 53.0177 400.739 54.8762 400.537 56.7126C400.3 58.6709 399.559 60.5341 398.385 62.1196C397.513 63.4016 396.392 64.4946 395.088 65.3331C393.94 66.0526 392.692 66.5987 391.385 66.9538C390.111 67.2867 388.812 67.511 387.5 67.6245L383.784 67.9598C382.669 68.0489 381.565 68.2406 380.486 68.5326C379.491 68.7586 378.58 69.2625 377.859 69.9857C377.534 70.3161 377.123 70.5485 376.672 70.6563C376.457 70.7179 376.231 70.7271 376.012 70.6834C375.793 70.6396 375.588 70.5441 375.414 70.4048L371.362 67.5267C370.975 67.2501 370.709 66.8346 370.621 66.367C370.569 66.1404 370.571 65.9047 370.627 65.679C370.683 65.4532 370.791 65.2438 370.943 65.0676C371.889 63.8395 373.072 62.8133 374.422 62.0498C375.637 61.3862 376.934 60.8837 378.278 60.5548C379.577 60.2399 380.9 60.0388 382.233 59.954C383.546 59.8702 384.776 59.7724 385.922 59.6606C386.97 59.568 388.005 59.3619 389.01 59.0458C389.888 58.7534 390.644 58.1786 391.161 57.4111C391.628 56.7631 391.932 56.0118 392.046 55.2212C392.161 54.4307 392.082 53.6242 391.818 52.8703C391.157 51.0082 389.893 49.4199 388.227 48.3575C385.209 46.2058 381.916 46.136 378.348 48.1479C377.989 48.3764 377.592 48.5374 377.175 48.6229C376.957 48.6381 376.74 48.61 376.533 48.5405C376.327 48.4709 376.137 48.3613 375.973 48.2178L371.669 45.158C371.514 45.0545 371.38 44.9208 371.277 44.7648C371.174 44.6088 371.103 44.4337 371.069 44.2498C371.035 44.0597 371.041 43.8647 371.087 43.6771C371.133 43.4895 371.217 43.3135 371.334 43.16C372.349 41.8591 373.669 40.8276 375.177 40.1561C376.889 39.3802 378.724 38.9075 380.598 38.7589C382.66 38.5866 384.737 38.7518 386.746 39.2479C388.915 39.7704 390.957 40.7204 392.754 42.0423Z" fill="#9EC8FF"/>
<g opacity="0.6">
<path opacity="0.6" d="M373.416 73.7441C373.606 73.8765 373.768 74.0464 373.89 74.2434C374.013 74.4404 374.094 74.6604 374.129 74.8898C374.173 75.1171 374.17 75.3511 374.119 75.5772C374.069 75.8032 373.972 76.0163 373.835 76.2031L370.51 80.8836C370.377 81.0741 370.207 81.2356 370.01 81.3581C369.813 81.4806 369.593 81.5616 369.364 81.5962C369.137 81.6406 368.902 81.6375 368.676 81.587C368.45 81.5365 368.237 81.4397 368.05 81.3028L363.467 78.0474C363.276 77.9167 363.116 77.747 362.995 77.5495C362.875 77.352 362.797 77.1312 362.769 76.9017C362.724 76.6744 362.727 76.4403 362.778 76.2143C362.828 75.9882 362.925 75.7751 363.062 75.5883L366.43 70.9078C366.702 70.5285 367.113 70.2717 367.573 70.1932C368.033 70.1148 368.506 70.2209 368.889 70.4887L373.416 73.7441ZM392.754 42.0423C394.425 43.2133 395.913 44.6259 397.17 46.2338C398.395 47.7294 399.341 49.4331 399.964 51.2636C400.544 53.0177 400.739 54.8762 400.537 56.7126C400.3 58.6709 399.559 60.5341 398.385 62.1196C397.513 63.4016 396.392 64.4946 395.088 65.3331C393.94 66.0526 392.692 66.5987 391.385 66.9538C390.111 67.2867 388.812 67.511 387.5 67.6245L383.784 67.9598C382.669 68.0489 381.565 68.2406 380.486 68.5326C379.491 68.7586 378.58 69.2625 377.859 69.9857C377.534 70.3161 377.123 70.5485 376.672 70.6563C376.457 70.7179 376.231 70.7271 376.012 70.6834C375.793 70.6396 375.588 70.5441 375.414 70.4048L371.362 67.5267C370.975 67.2501 370.709 66.8346 370.621 66.367C370.569 66.1404 370.571 65.9047 370.627 65.679C370.683 65.4532 370.791 65.2438 370.943 65.0676C371.889 63.8395 373.072 62.8133 374.422 62.0498C375.637 61.3862 376.934 60.8837 378.278 60.5548C379.577 60.2399 380.9 60.0388 382.233 59.954C383.546 59.8702 384.776 59.7724 385.922 59.6606C386.97 59.568 388.005 59.3619 389.01 59.0458C389.888 58.7534 390.644 58.1786 391.161 57.4111C391.628 56.7631 391.932 56.0118 392.046 55.2212C392.161 54.4307 392.082 53.6242 391.818 52.8703C391.157 51.0082 389.893 49.4199 388.227 48.3575C385.209 46.2058 381.916 46.136 378.348 48.1479C377.989 48.3764 377.592 48.5374 377.175 48.6229C376.957 48.6381 376.74 48.61 376.533 48.5405C376.327 48.4709 376.137 48.3613 375.973 48.2178L371.669 45.158C371.514 45.0545 371.38 44.9208 371.277 44.7648C371.174 44.6088 371.103 44.4337 371.069 44.2498C371.035 44.0597 371.041 43.8647 371.087 43.6771C371.133 43.4895 371.217 43.3135 371.334 43.16C372.349 41.8591 373.669 40.8276 375.177 40.1561C376.889 39.3802 378.724 38.9075 380.598 38.7589C382.66 38.5866 384.737 38.7518 386.746 39.2479C388.915 39.7704 390.957 40.7204 392.754 42.0423Z" fill="#9EC8FF"/>
</g>
<path d="M269.361 197.422H219.716V77.1532C219.716 66.7073 223.866 56.6893 231.253 49.3029C238.64 41.9165 248.658 37.7669 259.105 37.7669H263.688C274.135 37.7669 284.153 41.9165 291.54 49.3029C298.927 56.6893 303.077 66.7073 303.077 77.1532V163.778C303.059 172.707 299.498 181.264 293.177 187.572C286.856 193.879 278.291 197.422 269.361 197.422Z" fill="#263238"/>
<path d="M214.881 486.957C214.003 491.941 213.536 496.987 213.484 502.047C213.302 511.212 211.626 514.468 211.402 521.985C211.137 530.577 212.632 533.791 216.111 538.625C219.59 543.459 228.686 547.832 232.627 539.673C236.567 531.513 235.994 526.162 234.75 517.737C233.479 509.019 233.353 504.199 232.571 497.562C231.928 491.708 231.173 487.251 231.173 487.251L214.881 486.957Z" fill="#263238"/>
<path d="M240.898 426.083L210.717 425.538C211.164 445.685 214.364 468.054 214.909 487.013C215.021 490.576 214.825 514.663 216.167 521.943C218.193 532.952 231.243 531.457 231.942 524.877C232.641 518.296 231.103 490.171 231.145 487.265C231.02 475.137 236.735 454.669 239.683 432.901C239.809 431.853 240.759 427.13 240.898 426.083Z" fill="#FFA8A7"/>
<path d="M279.673 471.281C279.673 471.281 278.485 470.639 278.275 471.91C277.982 473.419 277.535 476.535 276.878 479.022C276.012 482.473 275.285 488.159 275.802 490.981C276.319 493.804 282.886 497.408 287.148 498.722C292.4 500.342 297.19 503.192 301.121 507.035C305.313 511.003 314.437 514.747 320.683 514.705C328.018 514.705 333.132 512.26 335.55 508.334C337.967 504.408 333.342 503.933 324.958 498.554L318.461 494.362C305.173 485.686 300.296 481.047 296.566 472.371L279.673 471.281Z" fill="#263238"/>
<path d="M296.677 465.902C296.454 459.671 300.757 406.704 300.757 406.704L272.099 419.767C278.233 456.401 279.547 465.05 279.645 471.044C279.519 471.546 279.467 472.063 279.491 472.58C279.491 479.692 287.553 483.534 293.813 488.285C299.134 492.453 304.805 496.155 310.762 499.35C315.317 501.628 324.567 501.837 325.713 498.917C318.084 493.091 306.989 484.373 300.925 477.722C297.963 474.592 296.901 472.147 296.677 465.902Z" fill="#FFA8A7"/>
<path d="M223.083 229.487C212.073 253.644 212.073 272.338 213.903 303.174C215.524 331.466 218.221 356.406 218.221 356.406C217.802 361.422 210.829 371.216 209.921 393.403C209.083 414.137 211.318 440.501 211.318 440.501C211.318 440.501 226.982 449.178 238.565 440.418C238.565 440.418 249.743 387.06 253.013 361.1C255.807 338.452 260.838 309.517 260.838 309.517L271.415 360.947C269.132 368.244 267.477 375.722 266.469 383.301C264.988 398.572 273.539 428.556 273.539 428.556C273.539 428.556 289.719 433.376 299.598 424.616C299.598 424.616 303.287 375.868 304.67 357.482C306.515 332.849 302.63 266.176 299.598 230.87L223.083 229.487Z" fill="#455A64"/>
<path d="M260.865 309.475L265.211 270.717C265.211 270.717 284.689 268.118 293.52 259.819C290.992 263.773 287.625 267.123 283.658 269.629C279.69 272.135 275.219 273.738 270.563 274.322L264.275 310.383L271.415 360.947L260.865 309.475Z" fill="#263238"/>
<path d="M339.742 219.958C340.546 212.885 340.901 205.769 340.804 198.651C340.37 192.504 339.267 191.498 330.673 180.614C319.076 165.902 309.169 152.67 298.69 139.523C291.2 130.134 283.32 128.695 275.663 129.114C270.297 129.407 280.777 155.213 286.044 170.484L316.128 202.871C317.06 204.149 317.488 205.726 317.329 207.3L315.513 234.852L324.525 246.923C324.525 246.923 338.177 235.159 339.742 219.958Z" fill="#FFA8A7"/>
<path d="M246.655 129.952C240.828 130.357 230.237 131.349 230.237 131.349C224.131 134.759 222.58 137.567 221.448 145.67C220.959 149.135 223.782 158.343 226.199 171.434L230.782 195.703L230.279 207.747C227.904 215.096 222.524 224.219 217.773 237.674C241.108 250.696 260.67 251.185 278.415 248.852C291.941 247.105 299.109 243.836 301.498 240.594C300.995 227.307 300.101 219.092 299.821 205.204C299.724 199.378 300.073 193.482 300.31 186.775C309.379 179.314 309.49 166.907 304.502 158.832C293.003 140.207 281.81 128.485 274.405 129.086L246.655 129.952Z" fill="#9CD499"/>
<path opacity="0.1" d="M282.244 186.957C282.244 186.957 271.597 195.228 259.427 190.911C256.009 189.834 252.927 187.894 250.479 185.277C248.032 182.66 246.301 179.457 245.454 175.975C245.454 175.975 244.168 189.877 259.496 194.613C274.349 199.182 282.244 186.957 282.244 186.957Z" fill="black"/>
<path d="M296.692 91.7955C296.231 111.971 289.705 116.945 286.408 118.342C283.11 119.739 276.795 118.901 270.647 117.881V130.064C270.647 130.064 277.745 137.497 277.214 143.044C276.683 148.59 266.036 149.219 258.099 143.784C253.72 140.776 249.759 137.201 246.32 133.152C245.66 132.371 245.298 131.38 245.3 130.357V101.855C245.3 101.855 241.933 105.418 235.98 101.338C234.696 100.519 233.596 99.4407 232.751 98.1732C231.906 96.9056 231.333 95.4761 231.071 93.9754C230.808 92.4748 230.86 90.9358 231.224 89.4565C231.588 87.9772 232.256 86.5897 233.186 85.3825C235.785 82.3227 242.38 82.1131 245.538 86.7797C247.326 90.2586 247.564 93.7655 249.562 92.3683C254.871 88.5401 252.021 79.7938 258.434 75.6023C260.539 74.5039 262.725 73.5697 264.974 72.8079C276.417 68.854 286.338 65.5287 288.727 57.7045C293.227 60.2753 297.251 68.0017 296.692 91.7955Z" fill="#FFA8A7"/>
<path d="M274.126 109.819C275.592 109.819 276.78 108.631 276.78 107.164C276.78 105.698 275.592 104.51 274.126 104.51C272.659 104.51 271.471 105.698 271.471 107.164C271.471 108.631 272.659 109.819 274.126 109.819Z" fill="#B16668"/>
<path d="M272.365 88.7358C272.364 89.2823 272.203 89.8167 271.902 90.2727C271.601 90.7287 271.172 91.0864 270.67 91.3014C270.167 91.5164 269.613 91.5793 269.075 91.4823C268.537 91.3853 268.039 91.1327 267.643 90.7558C267.247 90.3788 266.971 89.8941 266.848 89.3615C266.725 88.829 266.76 88.2721 266.951 87.7597C267.141 87.2473 267.477 86.8019 267.918 86.4788C268.359 86.1556 268.885 85.9688 269.431 85.9414C269.809 85.9225 270.188 85.9807 270.543 86.1126C270.898 86.2446 271.223 86.4474 271.498 86.7088C271.772 86.9702 271.991 87.2847 272.14 87.6331C272.289 87.9816 272.365 88.3567 272.365 88.7358Z" fill="#263238"/>
<path d="M293.534 89.0152C293.562 89.357 293.522 89.7011 293.417 90.0275C293.311 90.3538 293.141 90.6558 292.918 90.9159C292.694 91.176 292.421 91.3889 292.114 91.5424C291.807 91.6958 291.473 91.7866 291.13 91.8095C290.785 91.8414 290.437 91.7995 290.109 91.6865C289.781 91.5735 289.481 91.3921 289.228 91.1542C288.976 90.9164 288.777 90.6275 288.645 90.3069C288.513 89.9863 288.45 89.6412 288.462 89.2946C288.426 88.9502 288.46 88.6021 288.563 88.2716C288.667 87.9411 288.836 87.6352 289.062 87.3726C289.288 87.11 289.565 86.8962 289.876 86.7444C290.187 86.5926 290.526 86.5059 290.872 86.4897C291.218 86.4735 291.563 86.5281 291.887 86.6502C292.211 86.7723 292.507 86.9592 292.756 87.1996C293.005 87.44 293.203 87.7287 293.337 88.0481C293.47 88.3675 293.537 88.7109 293.534 89.0571V89.0152Z" fill="#263238"/>
<path d="M268.774 95.9172C266.364 95.9172 264.053 94.9608 262.347 93.2581C260.642 91.5554 259.682 89.2455 259.678 86.8356C259.678 80.6601 266.05 80.6601 268.774 80.6601C271.499 80.6601 277.857 80.6601 277.857 86.8356C277.853 89.243 276.895 91.5508 275.192 93.2532C273.49 94.9555 271.182 95.9135 268.774 95.9172ZM268.774 82.0852C263.185 82.0852 261.117 83.4824 261.117 86.8356C261.117 88.8736 261.927 90.8282 263.368 92.2693C264.809 93.7104 266.764 94.52 268.802 94.52C270.84 94.52 272.795 93.7104 274.236 92.2693C275.678 90.8282 276.487 88.8736 276.487 86.8356C276.431 83.4125 274.279 82.0852 268.774 82.0852Z" fill="#455A64"/>
<path d="M291.843 95.9172C289.433 95.9172 287.121 94.9608 285.416 93.2581C283.71 91.5554 282.75 89.2455 282.747 86.8356C282.747 80.6601 289.118 80.6601 291.843 80.6601C294.568 80.6601 300.925 80.6601 300.925 86.8356C300.921 89.243 299.963 91.5508 298.261 93.2532C296.558 94.9555 294.25 95.9135 291.843 95.9172ZM291.843 82.0852C286.338 82.0852 284.186 83.4824 284.186 86.8356C284.186 88.8736 284.995 90.8282 286.437 92.2693C287.878 93.7104 289.833 94.52 291.871 94.52C293.909 94.52 295.864 93.7104 297.305 92.2693C298.746 90.8282 299.556 88.8736 299.556 86.8356C299.5 83.4125 297.348 82.0852 291.843 82.0852Z" fill="#455A64"/>
<path d="M279.268 83.9015L279.715 100.877L288.643 98.1108L279.268 83.9015Z" fill="#F28F8F"/>
<path d="M270.632 117.923C264.149 117.07 250.805 113.242 248.723 107.961C249.561 110.63 251.194 112.979 253.404 114.695C257.386 118.118 270.632 121.96 270.632 121.96V117.923Z" fill="#F28F8F"/>
<path d="M270.954 75.6582L265.029 79.2769C264.562 78.4636 264.427 77.5018 264.651 76.5911C264.874 75.6805 265.44 74.891 266.231 74.3868C266.622 74.1496 267.057 73.9942 267.509 73.9298C267.962 73.8655 268.423 73.8936 268.864 74.0124C269.306 74.1312 269.719 74.3384 270.078 74.6212C270.437 74.9041 270.735 75.2569 270.954 75.6582Z" fill="#263238"/>
<path d="M295.057 79.6821L288.462 77.3767C288.589 76.9397 288.805 76.5334 289.095 76.1827C289.386 75.8321 289.745 75.5446 290.151 75.3378C290.556 75.131 291 75.0094 291.455 74.9804C291.909 74.9514 292.365 75.0157 292.793 75.1692C293.678 75.487 294.406 76.1329 294.828 76.973C295.249 77.8131 295.331 78.7831 295.057 79.6821Z" fill="#263238"/>
<path d="M277.143 87.5621C277.049 87.5621 276.955 87.5432 276.867 87.5066C276.78 87.4699 276.701 87.4161 276.635 87.3485C276.568 87.2808 276.516 87.2006 276.481 87.1125C276.446 87.0245 276.429 86.9303 276.431 86.8356C276.431 85.6759 278.722 84.9214 280.79 84.9214C282.858 84.9214 284.186 85.6759 284.186 86.8356C284.142 86.9874 284.051 87.1209 283.925 87.216C283.799 87.3111 283.645 87.3625 283.487 87.3625C283.329 87.3625 283.176 87.3111 283.049 87.216C282.923 87.1209 282.832 86.9874 282.788 86.8356C282.788 86.6958 282.076 86.3466 280.832 86.3466C279.831 86.3252 278.835 86.496 277.898 86.8495C277.898 86.9467 277.878 87.043 277.84 87.1323C277.802 87.2216 277.745 87.3021 277.675 87.3688C277.604 87.4356 277.52 87.4871 277.429 87.5204C277.338 87.5536 277.24 87.5678 277.143 87.5621Z" fill="#455A64"/>
<path d="M260.418 86.9474H260.334L244.364 85.5502C243.617 84.8106 242.728 84.2306 241.751 83.8456L260.502 85.5781C260.69 85.6026 260.861 85.6996 260.979 85.8484C261.096 85.9972 261.151 86.186 261.131 86.3745C261.098 86.5384 261.009 86.6856 260.879 86.7903C260.748 86.895 260.585 86.9506 260.418 86.9474Z" fill="#455A64"/>
<path d="M194.844 103.602C200.07 96.6158 203.633 91.3484 208.398 85.4384C211.108 82.0433 212.841 79.6122 215.384 76.1333C217.172 73.7301 218.179 71.7042 220.219 70.9637C222.423 70.0607 224.409 68.6985 226.045 66.9678C227.051 65.8551 227.984 64.6791 228.84 63.4469C231.835 59.4162 235.392 55.8356 239.403 52.8145C243.595 49.6569 248.276 47.2258 252.593 44.2219C255.164 42.4195 257.917 39.4296 254.787 36.6352C253.827 35.8268 252.678 35.2741 251.448 35.0285C243.832 33.3798 237.209 35.9925 229.762 37.8927C226.527 38.7 223.363 39.7701 220.302 41.0922C218.797 41.6876 217.385 42.4969 216.111 43.4953C214.329 45.2917 212.868 47.3805 211.793 49.6708C208.537 55.4831 201.551 60.6805 196.661 65.2772C190.946 70.6563 185.832 75.5884 179.306 81.5124C173.438 86.8635 167.695 91.7816 162.316 97.6217C157.858 102.442 159.521 106.214 160.108 107.528C163.741 114.989 167.807 117.671 172.683 122.296C181.067 130.302 210.06 153.341 219.66 160.956C221.722 162.575 223.342 164.69 224.368 167.103L226.213 171.364C237.167 173.376 244.475 156.932 235.407 137.134C233.905 133.932 231.611 131.167 228.742 129.1C217.284 120.759 194.844 103.602 194.844 103.602Z" fill="#FFA8A7"/>
<path d="M194.844 103.602C191.357 107.891 186.711 111.087 181.458 112.809C181.458 112.809 188.445 114.597 198.016 106.005L194.844 103.602Z" fill="#F28F8F"/>
<path d="M322.918 210.974L321.13 209.437C320.863 209.261 320.558 209.151 320.24 209.114C319.922 209.078 319.6 209.117 319.299 209.228L299.891 214.509C298.914 214.835 298.018 215.368 297.266 216.072C296.513 216.777 295.922 217.635 295.532 218.589L281.559 258.869C281.391 259.197 281.325 259.569 281.37 259.935C281.414 260.301 281.568 260.645 281.811 260.923L283.655 262.516C283.923 262.701 284.233 262.818 284.557 262.857C284.88 262.896 285.209 262.855 285.513 262.739L304.949 257.458C305.927 257.132 306.823 256.599 307.575 255.895C308.328 255.191 308.919 254.332 309.309 253.378C312.103 245.456 320.487 221.02 323.282 213.098C323.617 212.106 323.449 211.351 322.918 210.974Z" fill="#455A64"/>
<path d="M283.39 260.42L297.362 220.14C297.751 219.186 298.342 218.329 299.095 217.627C299.847 216.925 300.744 216.395 301.722 216.074L321.116 210.793C322.918 210.304 323.911 211.338 323.268 213.098C320.473 221.02 312.09 245.456 309.295 253.378C308.905 254.332 308.314 255.191 307.561 255.895C306.809 256.599 305.913 257.132 304.936 257.458L285.541 262.795C283.753 263.214 282.789 262.181 283.39 260.42Z" fill="#28A0DD"/>
<path d="M299.612 217.192C298.603 217.956 297.821 218.979 297.348 220.154L283.376 260.42C283.215 260.74 283.149 261.098 283.184 261.454C283.218 261.81 283.353 262.149 283.571 262.432L281.839 260.951C281.59 260.676 281.432 260.333 281.384 259.966C281.337 259.599 281.403 259.226 281.573 258.897L295.546 218.617C295.988 217.522 296.705 216.559 297.628 215.822L299.612 217.192Z" fill="#37474F"/>
<path d="M317.595 229.333C316.197 233.427 311.349 236.165 303.328 238.065C295.308 239.966 290.879 248.474 292.15 251.059C293.422 253.644 306.389 256.061 311.572 255.32C316.756 254.58 321.954 247.091 323.533 244.772C325.112 242.452 326.928 226.273 325.266 224.052C323.603 221.83 320.096 222.18 320.096 222.18L317.595 229.333Z" fill="#FFA8A7"/>
<path d="M401.361 197.547L372.102 177.763L349.145 177.344L378.907 133.333C384.887 124.475 397.966 122.869 408.11 129.729L434.952 147.892C445.096 154.766 448.477 167.452 442.483 176.338L430.564 193.971C424.598 202.801 411.519 204.408 401.361 197.547Z" fill="#4385F4"/>
<path d="M380.402 168.626C380.443 168.565 380.49 168.509 380.542 168.458C382.596 167.327 381.73 165.51 381.59 163.862C381.59 163.596 381.352 163.47 381.143 163.359C380.933 163.247 380.556 163.065 380.263 162.898C379.145 162.269 379.131 162.255 379.34 160.997C379.517 160.046 379.774 159.111 380.109 158.203C380.277 157.756 380.514 157.477 380.989 157.588C382.638 157.966 383.504 157.071 384.385 155.842C384.667 155.543 384.852 155.165 384.914 154.758C384.977 154.351 384.914 153.935 384.734 153.565C384.631 153.299 384.542 153.029 384.468 152.754C384.406 152.614 384.396 152.455 384.443 152.308C384.489 152.161 384.588 152.037 384.72 151.958C385.76 151.14 386.902 150.459 388.115 149.932C388.247 149.846 388.408 149.816 388.562 149.847C388.716 149.879 388.852 149.969 388.94 150.1C389.336 150.717 389.936 151.175 390.636 151.395C391.336 151.614 392.09 151.581 392.768 151.301C393.116 151.274 393.451 151.153 393.736 150.951C394.021 150.749 394.247 150.474 394.389 150.155C395.102 148.66 395.157 148.688 396.806 148.996C397.663 149.163 398.504 149.401 399.321 149.708C399.741 149.862 399.978 150.086 399.908 150.533C399.769 151.166 399.841 151.827 400.114 152.415C400.386 153.003 400.844 153.485 401.417 153.788C401.78 154.117 402.228 154.337 402.71 154.423C403.191 154.509 403.688 154.459 404.142 154.277C405.26 153.816 405.302 153.9 406.014 154.92C406.544 155.716 407.011 156.552 407.412 157.421C407.677 157.952 407.663 158.371 407.188 158.706C406.689 159.037 406.309 159.521 406.105 160.084C405.902 160.648 405.884 161.262 406.056 161.836C406.061 162.391 406.244 162.93 406.579 163.373C406.913 163.815 407.382 164.139 407.915 164.295C408.599 164.532 408.711 164.965 408.599 165.608C408.418 166.752 408.123 167.876 407.719 168.961C407.565 169.339 407.356 169.604 406.95 169.506C405.246 169.115 404.324 169.995 403.443 171.323C403.177 171.603 403.003 171.958 402.946 172.341C402.889 172.723 402.95 173.114 403.122 173.46C403.234 173.712 403.276 174.005 403.373 174.271C403.448 174.419 403.465 174.589 403.421 174.749C403.377 174.909 403.276 175.047 403.136 175.137C402.111 175.936 400.994 176.612 399.81 177.149C399.736 177.197 399.652 177.231 399.564 177.247C399.476 177.262 399.385 177.261 399.298 177.241C399.211 177.221 399.129 177.185 399.056 177.133C398.983 177.081 398.921 177.015 398.874 176.939C398.489 176.382 397.934 175.964 397.292 175.747C396.65 175.531 395.955 175.527 395.311 175.738C394.808 175.796 394.334 176.002 393.948 176.331C393.563 176.659 393.283 177.095 393.145 177.582C393.107 177.71 393.044 177.829 392.959 177.932C392.873 178.035 392.768 178.12 392.65 178.181C392.531 178.242 392.401 178.279 392.268 178.289C392.134 178.299 392 178.282 391.874 178.239C390.729 178.069 389.605 177.778 388.52 177.372C388.115 177.219 387.85 176.995 387.934 176.548C388.283 174.899 387.431 174.033 386.173 173.069C385.819 172.801 385.396 172.639 384.953 172.602C384.51 172.565 384.066 172.654 383.672 172.859C382.596 173.195 382.596 173.181 381.939 172.287C381.304 171.414 380.761 170.477 380.318 169.492C380.207 169.185 380.067 168.822 380.402 168.626ZM398.05 157.449C396.856 156.641 395.449 156.205 394.007 156.196C392.566 156.187 391.154 156.605 389.95 157.398C388.746 158.192 387.804 159.324 387.243 160.652C386.682 161.98 386.527 163.444 386.799 164.86C387.07 166.276 387.754 167.58 388.766 168.607C389.778 169.634 391.071 170.338 392.483 170.631C393.895 170.923 395.362 170.79 396.698 170.249C398.035 169.709 399.181 168.784 399.992 167.592C400.549 166.802 400.94 165.907 401.142 164.961C401.344 164.016 401.353 163.039 401.167 162.09C400.982 161.141 400.606 160.24 400.064 159.439C399.521 158.639 398.821 157.957 398.008 157.435L398.05 157.449Z" fill="#FEFEFE"/>
<path d="M409.871 167.508C409.94 167.438 409.954 167.396 409.982 167.383C411.519 166.516 410.877 165.161 410.779 163.932C410.761 163.843 410.72 163.761 410.662 163.692C410.603 163.624 410.528 163.572 410.443 163.54L409.773 163.205C408.934 162.716 408.934 162.716 409.088 161.808C409.217 161.071 409.408 160.346 409.661 159.642C409.787 159.321 409.968 159.097 410.318 159.181C411.561 159.475 412.204 158.79 412.875 157.882C413.087 157.655 413.225 157.369 413.269 157.062C413.314 156.755 413.264 156.441 413.126 156.163C413.042 155.968 413.014 155.758 412.931 155.562C412.887 155.455 412.883 155.336 412.918 155.226C412.954 155.116 413.028 155.022 413.126 154.962C413.904 154.346 414.759 153.834 415.669 153.439C415.768 153.375 415.887 153.352 416.002 153.376C416.117 153.399 416.219 153.467 416.284 153.564C416.583 154.028 417.035 154.371 417.561 154.535C418.087 154.698 418.654 154.671 419.162 154.459C419.425 154.439 419.677 154.349 419.893 154.199C420.109 154.049 420.281 153.845 420.392 153.606C420.923 152.489 420.965 152.503 422.209 152.726C422.85 152.859 423.481 153.041 424.095 153.271C424.402 153.383 424.584 153.551 424.528 153.886C424.423 154.361 424.476 154.858 424.681 155.3C424.885 155.741 425.229 156.104 425.66 156.331C425.931 156.577 426.266 156.743 426.626 156.81C426.986 156.876 427.358 156.841 427.7 156.708C428.552 156.359 428.58 156.415 429.097 157.183C429.508 157.778 429.873 158.404 430.187 159.055C430.397 159.461 430.383 159.782 430.019 160.033C429.647 160.284 429.365 160.647 429.212 161.069C429.058 161.49 429.043 161.95 429.167 162.381C429.176 162.796 429.315 163.198 429.566 163.529C429.817 163.861 430.167 164.104 430.564 164.225C431.081 164.393 431.165 164.728 431.081 165.203C430.948 166.061 430.728 166.904 430.424 167.718C430.313 168.011 430.159 168.207 429.838 168.137C428.566 167.844 427.867 168.5 427.211 169.534C427.006 169.745 426.872 170.015 426.83 170.306C426.787 170.597 426.837 170.894 426.973 171.155C427.057 171.337 427.085 171.56 427.169 171.756C427.222 171.87 427.231 172 427.195 172.121C427.159 172.242 427.08 172.346 426.973 172.412C426.207 173.013 425.372 173.519 424.486 173.921C424.37 173.991 424.232 174.015 424.099 173.986C423.967 173.957 423.85 173.879 423.773 173.768C423.487 173.348 423.072 173.032 422.591 172.868C422.109 172.705 421.588 172.701 421.105 172.859C420.725 172.903 420.368 173.059 420.079 173.308C419.79 173.557 419.582 173.888 419.484 174.257C419.454 174.353 419.405 174.442 419.34 174.52C419.275 174.597 419.196 174.661 419.106 174.708C419.016 174.755 418.919 174.783 418.818 174.792C418.717 174.801 418.616 174.79 418.52 174.76C417.662 174.623 416.82 174.403 416.005 174.103C415.697 173.977 415.502 173.81 415.571 173.474C415.823 172.245 415.18 171.588 414.244 170.875C413.978 170.672 413.659 170.549 413.325 170.519C412.991 170.489 412.656 170.555 412.358 170.708C411.547 170.959 411.561 170.959 411.072 170.289C410.588 169.627 410.176 168.915 409.843 168.165C409.745 167.872 409.661 167.648 409.871 167.508ZM423.131 159.125C422.233 158.519 421.177 158.193 420.094 158.187C419.011 158.182 417.951 158.497 417.047 159.094C416.144 159.691 415.437 160.542 415.017 161.539C414.597 162.537 414.482 163.637 414.687 164.7C414.892 165.764 415.407 166.742 416.168 167.513C416.929 168.283 417.901 168.811 418.962 169.029C420.022 169.247 421.124 169.146 422.127 168.739C423.13 168.331 423.99 167.636 424.598 166.74C425.02 166.147 425.318 165.475 425.472 164.765C425.627 164.054 425.637 163.319 425.5 162.605C425.362 161.89 425.082 161.211 424.675 160.608C424.267 160.005 423.742 159.491 423.131 159.097V159.125Z" fill="#FEFEFE"/>
<path d="M504.047 492.602C504.047 492.602 505.081 505.372 505.444 508.474C505.808 511.576 508.896 515.041 508.896 520.909C508.896 526.777 475.361 532.296 475.361 532.296H452.585L458.105 518.142C458.105 518.142 475.71 510.891 478.477 507.789C481.244 504.688 483.172 489.85 483.172 489.85L504.047 492.602Z" fill="#D08B73"/>
<path d="M476.381 498.302C476.381 498.302 492.659 502.173 496.599 501.991C500.54 501.809 514.205 501.991 514.205 501.991L508.867 487.349L462.757 485.504L476.381 498.302Z" fill="#BC6C56"/>
<path d="M509.426 512.791C509.248 512.066 508.892 511.397 508.39 510.844C507.888 510.291 507.257 509.872 506.553 509.623C505.849 509.375 505.094 509.306 504.356 509.423C503.619 509.539 502.922 509.837 502.328 510.29C499.218 512.771 495.951 515.049 492.547 517.108C488.928 518.911 473.754 517.793 467.801 517.793C461.849 517.793 458.132 518.142 458.132 518.142C458.132 518.142 440.443 524.695 436.558 524.961C435.723 524.997 434.917 525.283 434.245 525.781C433.574 526.279 433.066 526.966 432.788 527.755C432.51 528.544 432.474 529.398 432.686 530.207C432.897 531.016 433.345 531.743 433.974 532.296C436.768 534.797 507.75 534.531 507.75 534.531C507.75 534.531 513.702 530.34 512.416 524.961C511.746 522.082 510.46 516.969 509.426 512.791Z" fill="#282E5B"/>
<path d="M510.6 252.736C510.6 252.736 519.92 273.442 518.886 281.378C517.852 289.314 511.285 302.084 510.6 316.936C509.916 331.788 503.363 356.965 503.363 361.45C503.363 365.935 504.397 388.722 504.397 388.722C504.397 388.722 514.177 401.493 515.784 425.817C517.391 450.142 518.984 495.187 518.984 495.187C518.984 495.187 508.029 498.303 503.363 498.303C498.696 498.303 480.587 493.119 480.587 493.119C480.587 493.119 482.138 449.122 480.587 442.388C479.036 435.653 474.369 420.131 473.852 415.464C473.335 410.798 466.6 406.662 466.6 401.493C466.6 396.323 461.43 359.577 458.845 357.482C456.26 355.386 448.031 312.968 448.52 308.818C449.009 304.669 450.14 311.403 448.282 299.038C446.424 286.673 448.282 280.4 448.282 280.4L448.855 274.434C448.855 274.434 466.083 247.776 472.609 247.273C479.134 246.77 510.6 252.736 510.6 252.736Z" fill="#263238"/>
<path d="M453.549 279.408C453.549 279.408 466.125 300.365 484.541 302.14" stroke="#282E5B" stroke-width="0.929702" stroke-linecap="round" stroke-linejoin="round"/>
<path d="M486.092 272.729C486.092 272.729 482.235 339.109 483.199 353.556C484.164 368.002 498.178 418.412 498.877 422.981C499.575 427.55 508.867 501.991 508.867 501.991" stroke="#282E5B" stroke-width="0.929702" stroke-linecap="round" stroke-linejoin="round"/>
<path d="M522.17 265.031L509.734 268.705L477.862 272.729L433.904 284.815" stroke="#282E5B" stroke-width="0.929702" stroke-linecap="round" stroke-linejoin="round"/>
<path d="M491.988 105.362C491.988 105.362 458.454 125.384 453.996 135.038C449.539 144.692 446.745 164.029 449.162 169.562C451.579 175.095 449.847 210.29 449.847 210.29L448.868 276.208C448.868 276.208 473.726 267.224 488.565 264.472C503.404 261.72 516.874 258.953 516.874 258.953C516.874 258.953 507.554 234.097 506.855 214.076C506.157 194.055 511.69 157.477 508.253 142.289C504.815 127.102 491.988 105.362 491.988 105.362Z" fill="#455A64"/>
<path d="M482.515 98.2085C506.171 72.291 481.942 45.8007 471.672 33.9387C464.238 25.2762 429.307 43.146 427.909 44.8366C425.674 47.4354 424.849 52.5909 427.909 54.2256C430.969 55.8603 434.267 56.3633 437.299 57.97C441.183 61.1416 445.236 64.1735 449.232 67.2333C448.407 70.1254 453.521 73.6742 455.492 78.746C457.462 83.8177 466.251 81.4285 466.237 73.2411C466.181 70.7541 479.93 99.3263 482.515 98.2085Z" fill="#282E5B"/>
<path d="M432.101 55.6787C431.004 59.2698 430.247 62.9558 429.838 66.6884C429.628 70.1534 431.053 70.1673 432.101 73.5066C433.149 76.8458 428.86 81.694 429.139 84.8935C429.175 85.267 429.31 85.624 429.53 85.9274C430.928 88.0511 434.882 87.5621 435.804 87.4364C438.361 93.0949 440.974 98.7395 443.489 104.412C444.006 105.723 444.945 106.824 446.158 107.542C450.056 109.637 455.464 105.739 457.21 104.482C461.49 101.251 464.577 96.6904 465.985 91.5161C467.445 86.0931 467.131 80.3455 465.091 75.1133L457.923 78.1452C456.623 74.4496 454.995 70.8773 453.06 67.4708C452.644 66.6411 452 65.9478 451.202 65.4728C449.316 64.4529 447.346 65.6545 445.976 63.2793C444.16 60.0798 442.679 54.3933 439.269 54.519C435.86 54.6448 435.091 55.5529 432.101 55.6787Z" fill="#D08B73"/>
<path d="M495.356 109.26C493.316 106.941 491.402 104.677 489.599 102.498C488.228 101.022 487.139 99.3082 486.385 97.4401C485.898 96.0938 485.625 94.6795 485.575 93.2486C484.806 92.5932 484.129 91.8365 483.563 90.9992C482.678 89.6352 482.084 88.1038 481.816 86.5003C481.397 84.5442 479.846 81.8477 474.746 78.6342C474.858 77.8378 475.808 70.0276 471.099 66.0597C469.869 65.0648 468.439 64.3454 466.907 63.9499C459.32 62.0079 456.861 69.9717 462.352 75.3648C468.961 81.8477 467.48 90.1608 464.239 95.2605C462.171 98.5299 461.025 101.003 460.047 102.051C459.481 102.703 458.869 103.315 458.216 103.881C457.113 104.831 454.57 105.711 448.212 108.31C453.088 106.312 459.041 111.328 461.472 116.693C463.903 122.058 461.29 126.767 463.233 128.457C465.51 130.343 473.251 127.493 495.356 109.26Z" fill="#D08B73"/>
<path d="M449.316 106.312L466.935 86.5841L458.118 114.975L445.25 107.36L449.316 106.312Z" fill="#BC6C56"/>
<path d="M474.02 143.826L498.877 198.316C493.4 199.084 471.63 167.396 474.02 161.193C476.116 155.674 474.02 143.826 474.02 143.826Z" fill="#455A64"/>
<path d="M512.668 153.509L527.689 202.172C527.689 202.172 532.342 209.675 530.791 213.349C529.24 217.024 516.301 232.756 516.301 232.756C516.301 232.756 484.373 266.582 481.607 268.649C478.84 270.717 478.812 281.42 478.323 283.669C477.834 285.918 469.702 292.122 467.285 292.988C464.867 293.854 454.863 281.601 454.709 280.036C454.556 278.472 456.106 274.001 455.576 272.617C455.045 271.234 449.539 273.833 448.673 271.22C447.807 268.608 451.09 264.654 453.158 264.654C455.226 264.654 466.279 265.352 467.997 263.969C469.716 262.586 502.859 209.479 501.825 205.288C500.791 201.096 495.607 198.567 493.539 193.901C491.471 189.234 480.056 156.61 480.056 156.61L512.668 153.509Z" fill="#D08B73"/>
<path d="M486.162 173.949C486.162 173.949 497.661 164.756 501.071 163.708C504.48 162.66 516.818 166.935 516.818 166.935L513.143 155.562C513.143 155.562 500.791 152.936 496.376 155.562C491.96 158.189 482.571 166.74 482.571 166.74L486.162 173.949Z" fill="#BC6C56"/>
<path d="M491.96 104.328C491.96 104.328 509.915 119.515 513.367 131.252C516.818 142.988 516.818 162.995 516.818 162.995C516.818 162.995 509.049 157.127 505.416 158.175C501.783 159.223 490.661 164.896 488.858 166.712C487.622 167.865 486.206 168.808 484.667 169.506L468.626 148.549C468.626 148.549 457.448 133.962 459.125 130.86C460.801 127.759 467.103 115.366 491.96 104.328Z" fill="#455A64"/>
<g style="mix-blend-mode:multiply" opacity="0.5">
<path d="M469.828 73.0874C469.702 72.8639 470.47 72.4308 470.512 71.6903C470.435 71.1122 470.213 70.5632 469.866 70.0945C469.519 69.6258 469.059 69.2526 468.528 69.0098C467.998 68.767 467.415 68.6625 466.833 68.7062C466.252 68.7498 465.691 68.94 465.203 69.2592C464.434 69.9717 463.624 70.4468 463.512 70.2093C463.4 69.9717 463.666 69.5107 464.336 68.4348C464.941 67.7491 465.757 67.2846 466.656 67.1151C467.554 66.9455 468.484 67.0805 469.297 67.4987C470.155 67.8586 470.861 68.5056 471.294 69.3289C471.728 70.1523 471.861 71.1006 471.672 72.0116C471.575 72.2895 471.413 72.54 471.199 72.7418C470.985 72.9437 470.726 73.091 470.443 73.1713C470.037 73.2271 469.828 73.1852 469.828 73.0874Z" fill="#EE5F43"/>
</g>
</svg>
