<svg width="375" height="425" viewBox="0 0 375 425" fill="none" xmlns="http://www.w3.org/2000/svg">
<path opacity="0.3" d="M57.4037 37.0736C118.235 -23.7118 232.87 0.118179 282.298 49.2046C356.675 123.076 379.86 184.804 373.12 273.555C365.191 378.179 304.06 425.97 184.644 424.046C66.7433 422.136 18.3605 377.917 3.56084 314.842C-11.2388 251.766 38.0846 187.447 35.6289 154.274C33.1732 121.1 22.3052 72.1447 57.4037 37.0736Z" fill="#BFD1FF"/>
<path opacity="0.55" d="M283.147 355.37C287.575 334.995 279.816 314.109 275.009 312.879C273.899 294.244 267.616 275.335 258.733 279.418C249.851 283.501 248.754 312.879 248.754 312.879C248.754 312.879 230.885 319.828 245.593 359.728C232.4 365.734 239.192 397.94 245.593 419.846C261.249 417.281 276.526 412.78 291.076 406.446L293.113 404.653C293.113 404.653 296.092 365.433 283.147 355.37Z" fill="#80B377"/>
<path style="mix-blend-mode:multiply" opacity="0.2" d="M370.73 153.607H368.966V135.286C368.966 125.204 364.969 115.534 357.852 108.405C350.736 101.276 341.084 97.2705 331.02 97.2705C320.956 97.2705 311.305 101.276 304.188 108.405C297.072 115.534 293.074 125.204 293.074 135.286V153.607H291.363C290.925 153.607 290.49 153.693 290.085 153.862C289.68 154.03 289.313 154.277 289.003 154.589C288.694 154.9 288.449 155.269 288.282 155.676C288.115 156.082 288.031 156.517 288.032 156.957V221.851C288.031 223.109 288.276 224.354 288.755 225.516C289.234 226.678 289.937 227.734 290.824 228.624C291.711 229.514 292.764 230.219 293.924 230.701C295.083 231.183 296.326 231.43 297.581 231.43H364.46C366.996 231.43 369.428 230.421 371.221 228.625C373.014 226.828 374.022 224.392 374.022 221.851V156.957C374.025 156.076 373.681 155.23 373.064 154.602C372.448 153.975 371.609 153.617 370.73 153.607ZM305.235 135.286C305.235 128.424 307.956 121.844 312.799 116.992C317.642 112.14 324.21 109.415 331.059 109.415C337.908 109.415 344.477 112.14 349.32 116.992C354.163 121.844 356.884 128.424 356.884 135.286V153.607H305.235V135.286Z" fill="url(#paint0_linear)"/>
<path d="M363.637 164.336H287.745V131.621C287.745 121.539 291.742 111.869 298.859 104.74C305.975 97.6107 315.627 93.6055 325.691 93.6055C335.755 93.6055 345.406 97.6107 352.523 104.74C359.639 111.869 363.637 121.539 363.637 131.621V164.336ZM299.866 152.127H351.515V131.647C351.515 124.786 348.794 118.205 343.951 113.353C339.108 108.501 332.54 105.776 325.691 105.776C318.842 105.776 312.273 108.501 307.43 113.353C302.587 118.205 299.866 124.786 299.866 131.647V152.127Z" fill="#ED1C24"/>
<path d="M284.479 150.008H366.916C367.387 150.008 367.839 150.195 368.172 150.529C368.505 150.863 368.692 151.316 368.692 151.788V222.715C368.692 224.072 368.154 225.373 367.196 226.333C366.238 227.292 364.939 227.832 363.585 227.832H287.823C286.469 227.832 285.169 227.292 284.212 226.333C283.254 225.373 282.716 224.072 282.716 222.715V151.788C282.716 151.318 282.901 150.867 283.231 150.534C283.562 150.2 284.01 150.011 284.479 150.008Z" fill="#E84D59"/>
<path opacity="0.79" d="M334.56 179.229C334.564 177.739 334.193 176.272 333.482 174.963C332.771 173.654 331.744 172.545 330.493 171.738C329.243 170.931 327.809 170.453 326.326 170.346C324.842 170.239 323.356 170.508 322.003 171.128C320.65 171.747 319.475 172.698 318.585 173.892C317.695 175.086 317.119 176.485 316.91 177.96C316.701 179.436 316.865 180.94 317.389 182.335C317.912 183.73 318.777 184.97 319.904 185.943C320.214 186.205 320.444 186.548 320.569 186.934C320.693 187.321 320.708 187.734 320.61 188.128L317.449 200.194C317.375 200.478 317.367 200.775 317.425 201.063C317.484 201.35 317.608 201.621 317.787 201.853C317.966 202.085 318.196 202.274 318.458 202.403C318.721 202.533 319.01 202.601 319.303 202.601H332.17C332.452 202.6 332.73 202.535 332.982 202.41C333.235 202.285 333.456 202.104 333.629 201.881C333.801 201.657 333.92 201.398 333.978 201.121C334.035 200.845 334.029 200.559 333.959 200.285L330.785 188.128C330.682 187.741 330.69 187.332 330.811 186.949C330.931 186.567 331.158 186.227 331.464 185.969C332.435 185.136 333.215 184.102 333.749 182.939C334.283 181.775 334.56 180.51 334.56 179.229Z" fill="black"/>
<path d="M331.085 179.23C330.949 178.036 330.516 176.895 329.825 175.913C329.135 174.93 328.208 174.137 327.132 173.607C326.056 173.077 324.863 172.826 323.665 172.878C322.467 172.929 321.3 173.282 320.274 173.903C319.247 174.524 318.392 175.394 317.788 176.432C317.184 177.471 316.851 178.644 316.818 179.846C316.785 181.047 317.054 182.237 317.6 183.307C318.146 184.377 318.952 185.292 319.943 185.969C320.25 186.227 320.477 186.567 320.599 186.949C320.722 187.331 320.734 187.74 320.635 188.128L317.461 200.285C317.389 200.559 317.381 200.846 317.437 201.123C317.493 201.401 317.613 201.662 317.786 201.886C317.959 202.11 318.181 202.291 318.435 202.415C318.689 202.539 318.968 202.603 319.251 202.602H329.322C329.534 202.612 329.745 202.571 329.937 202.482C330.129 202.392 330.296 202.257 330.425 202.089C330.554 201.92 330.639 201.722 330.675 201.513C330.71 201.304 330.694 201.089 330.628 200.887L327.31 188.168C327.206 187.766 327.218 187.343 327.342 186.947C327.467 186.551 327.7 186.199 328.016 185.93C328.978 185.1 329.751 184.072 330.28 182.915C330.81 181.759 331.085 180.502 331.085 179.23Z" fill="black"/>
<path opacity="0.3" d="M189.621 61.3093V4.25343C142.596 -4.4489 91.5358 3.01024 57.4039 37.126C22.3055 72.1971 33.1604 121.14 35.6291 154.313C37.3534 177.515 13.7496 215.962 4.46228 258.558C165.834 246.754 189.621 121.349 189.621 61.3093Z" fill="#96B4FF"/>
<path d="M262.744 103.094V109.192" stroke="white" stroke-width="0.76" stroke-miterlimit="10"/>
<path d="M262.744 115.12V121.218" stroke="white" stroke-width="0.76" stroke-miterlimit="10"/>
<path d="M271.796 112.149H265.708" stroke="white" stroke-width="0.76" stroke-miterlimit="10"/>
<path d="M259.791 112.149H253.704" stroke="white" stroke-width="0.76" stroke-miterlimit="10"/>
<path d="M74.058 323.714V329.813" stroke="white" stroke-width="0.76" stroke-miterlimit="10"/>
<path d="M74.058 335.74V341.838" stroke="white" stroke-width="0.76" stroke-miterlimit="10"/>
<path d="M83.0972 332.783H77.0101" stroke="white" stroke-width="0.76" stroke-miterlimit="10"/>
<path d="M71.106 332.783H65.006" stroke="white" stroke-width="0.76" stroke-miterlimit="10"/>
<path d="M224.21 41.0908V47.189" stroke="white" stroke-width="0.76" stroke-miterlimit="10"/>
<path d="M224.21 53.1045V59.2027" stroke="white" stroke-width="0.76" stroke-miterlimit="10"/>
<path d="M233.249 50.1465H227.162" stroke="white" stroke-width="0.76" stroke-miterlimit="10"/>
<path d="M221.258 50.1465H215.157" stroke="white" stroke-width="0.76" stroke-miterlimit="10"/>
<path d="M68.0493 140.952V147.05" stroke="#3465D9" stroke-width="0.8" stroke-miterlimit="10"/>
<path d="M68.0493 152.965V159.063" stroke="#3465D9" stroke-width="0.8" stroke-miterlimit="10"/>
<path d="M77.1015 150.008H71.0144" stroke="#3465D9" stroke-width="0.8" stroke-miterlimit="10"/>
<path d="M65.0973 150.008H59.0103" stroke="#3465D9" stroke-width="0.8" stroke-miterlimit="10"/>
<path d="M118.77 147.796C97.7661 156.956 74.058 257.655 74.058 257.655L103.161 243.823L125.863 182.016L118.77 147.796Z" fill="#3465D9"/>
<path style="mix-blend-mode:multiply" opacity="0.2" d="M115.884 209.17L125.863 182.016L118.77 147.796C112.853 150.413 106.727 160.189 100.979 172.987L115.884 209.17Z" fill="url(#paint1_linear)"/>
<path d="M232.256 421.704L219.703 314.999L206.183 254.462H134.615L121.082 314.999L109.326 415.134C125.054 418.938 141.065 421.455 157.2 422.659L170.419 342.14L183.847 424.02H184.67C200.566 424.33 216.465 423.556 232.256 421.704Z" fill="#203E87"/>
<path d="M116.667 416.888L127.274 317.066" stroke="#3465D9" stroke-width="1.05" stroke-miterlimit="10"/>
<path d="M224.21 422.567L213.002 317.066" stroke="#3465D9" stroke-width="1.05" stroke-miterlimit="10"/>
<path style="mix-blend-mode:multiply" opacity="0.2" d="M219.703 315.051L206.184 254.515H134.615L121.082 315.051L117.922 341.957C150.577 337.416 170.393 309.83 170.393 309.83C170.393 309.83 190.261 337.416 222.877 341.957L219.703 315.051Z" fill="url(#paint2_linear)"/>
<path d="M217.822 262.209L222.015 147.796C222.015 147.796 192.612 141.253 170.393 141.253C148.174 141.253 118.771 147.796 118.771 147.796L122.977 262.209L112.174 326.789C148.187 324.97 170.393 294.074 170.393 294.074C170.393 294.074 192.599 324.944 228.625 326.789L217.822 262.209Z" fill="#203E87"/>
<path d="M217.822 262.209L222.015 147.796C222.015 147.796 192.612 141.253 170.393 141.253C148.174 141.253 118.771 147.796 118.771 147.796L122.977 262.209L112.174 326.789C148.187 324.97 170.393 294.074 170.393 294.074C170.393 294.074 192.599 324.944 228.625 326.789L217.822 262.209Z" fill="#203E87"/>
<path d="M220.056 147.796C234.15 153.92 247.983 195.404 255.572 222.073C256.23 224.328 256.271 226.719 255.688 228.994C255.106 231.27 253.923 233.347 252.264 235.007C250.605 236.666 248.53 237.848 246.257 238.428C243.985 239.007 241.599 238.963 239.349 238.3C237.369 237.732 235.552 236.704 234.044 235.298C232.537 233.893 231.383 232.15 230.676 230.213L212.976 182.016L220.056 147.796Z" fill="#3465D9"/>
<path d="M149.388 107.556L146.671 97.5579C146.671 97.5579 140.01 93.2787 138.403 88.9864C134.145 77.5621 151.57 62.971 169.57 66.0855C187.047 69.0953 187.779 77.0648 187.779 77.0648C187.779 77.0648 196.713 78.9362 196.191 88.2012C195.668 97.4662 189.268 108.838 189.268 108.838L149.388 107.556Z" fill="black"/>
<path d="M181.94 144.603L158.402 145.205L158.01 119.922L181.561 119.556L181.94 144.603Z" fill="url(#paint3_linear)"/>
<path d="M192.625 102.099C191.724 102.006 190.813 102.112 189.957 102.41C189.102 102.709 188.322 103.192 187.674 103.826C187.674 101.903 187.752 99.9003 187.674 97.7018C187.674 97.7018 168.289 97.3485 163.496 84.7334C161.317 90.5473 157.088 95.3607 151.609 98.2645C151.609 100.555 151.609 102.688 151.792 104.703C151.105 103.996 150.264 103.457 149.335 103.128C148.406 102.799 147.414 102.688 146.436 102.805C142.335 103.434 146.893 119.307 153.581 115.015C156.547 124.594 162.621 131.346 170.158 131.229C177.695 131.111 183.494 124.215 186.172 114.648C192.782 118.103 196.7 102.583 192.625 102.099Z" fill="#FF9C91"/>
<path d="M241.974 207.089L255.481 195.508C255.481 195.508 265.304 228.891 257.584 236.402C250.831 242.945 240.028 239.87 235.691 236.52C231.969 233.68 241.974 207.089 241.974 207.089Z" fill="#3465D9"/>
<path d="M170.419 220.059L185.506 142.209C175.491 140.953 165.359 140.953 155.345 142.209L170.419 220.059Z" fill="#3465D9"/>
<path d="M152.301 145.649L138.077 157.466L151.322 177.226L139.213 189.685L170.393 235.264L201.586 189.685L189.464 177.226L202.709 157.466L188.497 145.649" stroke="white" stroke-width="0.5" stroke-miterlimit="10"/>
<path d="M170.393 235.264V285.908" stroke="white" stroke-width="0.5" stroke-miterlimit="10"/>
<path d="M196.413 142.64C187.354 147.517 180.216 155.331 176.167 164.803C172.119 174.274 171.4 184.842 174.129 194.776L33.8391 270.257L43.4139 288.106L183.69 212.625C189.31 219.075 196.633 223.806 204.817 226.272C213.001 228.739 221.713 228.842 229.952 226.568C238.192 224.295 245.624 219.738 251.393 213.422C257.163 207.106 261.036 199.287 262.567 190.864C264.098 182.44 263.226 173.755 260.049 165.807C256.873 157.858 251.522 150.969 244.612 145.932C237.701 140.895 229.512 137.913 220.986 137.331C212.459 136.749 203.942 138.589 196.413 142.64ZM224.758 195.535C222.228 196.9 219.351 197.481 216.491 197.207C213.63 196.932 210.916 195.812 208.692 193.99C206.467 192.168 204.832 189.726 203.995 186.972C203.157 184.218 203.154 181.278 203.987 178.523C204.819 175.767 206.449 173.322 208.67 171.495C210.892 169.669 213.604 168.545 216.464 168.265C219.323 167.984 222.202 168.561 224.734 169.921C227.266 171.281 229.339 173.364 230.689 175.905C232.494 179.297 232.883 183.268 231.772 186.948C230.66 190.627 228.138 193.715 224.758 195.535Z" fill="#E84D59"/>
<path d="M50.4745 284.48L43.4541 288.256L51.3875 303.06L58.4079 299.285L50.4745 284.48Z" fill="#E84D59"/>
<path d="M64.7325 276.482L57.7129 280.259L65.6488 295.062L72.6684 291.285L64.7325 276.482Z" fill="#E84D59"/>
<path d="M79.0654 268.764L72.0458 272.541L79.9817 287.344L87.0013 283.567L79.0654 268.764Z" fill="#E84D59"/>
<g style="mix-blend-mode:multiply" opacity="0.2">
<path d="M174.085 194.625L33.7958 270.111L36.5462 275.242L176.835 199.755L174.085 194.625Z" fill="#E84D59"/>
</g>
<path d="M257.231 180.669C257.231 180.669 263.619 200.416 263.318 203.635C263.122 205.938 255.089 214.405 250.622 218.946C250.312 219.272 249.924 219.512 249.495 219.644C249.066 219.775 248.61 219.794 248.172 219.698C247.734 219.602 247.327 219.395 246.992 219.096C246.657 218.797 246.405 218.416 246.259 217.991L242.849 208.83C241.99 206.53 241.755 204.043 242.168 201.623C242.581 199.202 243.627 196.934 245.201 195.051L257.231 180.669Z" fill="#FF9C91"/>
<path d="M82.5488 258.728L105.33 246.021C105.603 245.865 105.915 245.79 106.229 245.805C106.543 245.82 106.846 245.924 107.104 246.105C107.361 246.286 107.562 246.537 107.683 246.828C107.803 247.119 107.839 247.438 107.785 247.748L105.734 259.945C105.616 260.637 105.342 261.292 104.932 261.861C104.522 262.431 103.988 262.899 103.37 263.229L85.9711 272.521C85.5174 272.765 85.0144 272.904 84.4997 272.926C83.9849 272.947 83.472 272.852 82.9994 272.647C82.5267 272.442 82.1066 272.132 81.7706 271.74C81.4347 271.349 81.1915 270.887 81.0596 270.388L79.7534 265.323C79.4281 264.069 79.5259 262.742 80.0315 261.549C80.5371 260.356 81.422 259.364 82.5488 258.728Z" fill="#FF9C91"/>
<path d="M178.413 249.777C180.361 249.777 181.94 248.195 181.94 246.244C181.94 244.292 180.361 242.71 178.413 242.71C176.465 242.71 174.886 244.292 174.886 246.244C174.886 248.195 176.465 249.777 178.413 249.777Z" fill="white"/>
<path d="M178.413 270.048C180.361 270.048 181.94 268.466 181.94 266.514C181.94 264.563 180.361 262.981 178.413 262.981C176.465 262.981 174.886 264.563 174.886 266.514C174.886 268.466 176.465 270.048 178.413 270.048Z" fill="white"/>
<path d="M320.714 280.935C319.487 260.324 312.537 239.425 302.728 243.94C292.918 248.455 291.677 280.935 291.677 280.935C291.677 280.935 271.927 288.63 288.189 332.743C272.005 340.111 282.964 383.138 290.488 406.72C311.257 397.559 328.095 384.8 341.039 368.207C340.752 354.506 338.688 334.863 329.714 327.928C334.626 305.393 326.031 282.296 320.714 280.935Z" fill="#80B377"/>
<defs>
<linearGradient id="paint0_linear" x1="317.318" y1="164.337" x2="405.894" y2="164.337" gradientUnits="userSpaceOnUse">
<stop offset="0.13"/>
<stop offset="1" stop-color="white"/>
</linearGradient>
<linearGradient id="paint1_linear" x1="38707.2" y1="15447.2" x2="37051.8" y2="15983.2" gradientUnits="userSpaceOnUse">
<stop offset="0.13"/>
<stop offset="1" stop-color="white"/>
</linearGradient>
<linearGradient id="paint2_linear" x1="165946" y1="34991.8" x2="165946" y2="28129.3" gradientUnits="userSpaceOnUse">
<stop offset="0.13"/>
<stop offset="1" stop-color="white"/>
</linearGradient>
<linearGradient id="paint3_linear" x1="167.679" y1="144.867" x2="170.702" y2="128.682" gradientUnits="userSpaceOnUse">
<stop offset="0.19" stop-color="#FF9C91"/>
<stop offset="1" stop-color="#F27C6F"/>
</linearGradient>
</defs>
</svg>
