<svg width="67" height="61" viewBox="0 0 67 61" fill="none" xmlns="http://www.w3.org/2000/svg">
<path d="M30.8169 60.2715C47.3792 60.2715 60.8057 46.845 60.8057 30.2827C60.8057 13.7204 47.3792 0.293945 30.8169 0.293945C14.2545 0.293945 0.828125 13.7204 0.828125 30.2827C0.828125 46.845 14.2545 60.2715 30.8169 60.2715Z" fill="#21409A"/>
<g filter="url(#filter0_d)">
<path d="M30.942 29.5977C32.9259 29.5972 34.8483 28.9088 36.3816 27.6498C37.9149 26.3908 38.9642 24.6391 39.3508 22.6932C39.7374 20.7473 39.4373 18.7275 38.5017 16.978C37.5661 15.2286 36.0528 13.8576 34.2197 13.0988C32.3866 12.34 30.3471 12.2403 28.4487 12.8166C26.5503 13.3929 24.9104 14.6096 23.8085 16.2594C22.7066 17.9092 22.2109 19.8901 22.4057 21.8644C22.6006 23.8388 23.474 25.6845 24.8771 27.0871C25.6656 27.8941 26.6097 28.5326 27.6522 28.9641C28.6946 29.3957 29.8138 29.6112 30.942 29.5977Z" fill="white"/>
</g>
<g filter="url(#filter1_d)">
<path d="M45.9673 39.8388C45.9099 39.082 45.8126 38.3287 45.6758 37.5821C45.5441 36.8147 45.3587 36.0575 45.121 35.316C44.8824 34.5829 44.5672 33.8769 44.1807 33.2098C43.806 32.5191 43.3342 31.8858 42.7797 31.3292C42.1869 30.7982 41.4973 30.3863 40.7487 30.1162C39.9306 29.7981 39.0594 29.6386 38.1817 29.6461C37.6667 29.7019 37.1795 29.9079 36.7806 30.2384L35.3326 31.1787C34.7403 31.5273 34.1091 31.805 33.452 32.0062C31.9583 32.4951 30.3477 32.4951 28.854 32.0062C28.1962 31.8068 27.5648 31.529 26.9734 31.1787L25.5159 30.2384C25.1212 29.9072 24.6367 29.701 24.1243 29.6461C23.2435 29.6378 22.3691 29.7974 21.5479 30.1162C20.8029 30.4038 20.1198 30.8315 19.5357 31.3762C18.9782 31.9303 18.5061 32.5641 18.1346 33.2568C17.7482 33.9239 17.433 34.6299 17.1944 35.363C16.9566 36.1045 16.7713 36.8617 16.6396 37.6291C16.5028 38.3757 16.4055 39.129 16.3481 39.8858C16.3011 40.5628 16.2823 41.2681 16.2823 41.9827C16.2438 42.8096 16.3796 43.6355 16.6809 44.4065C16.9822 45.1776 17.4422 45.8767 18.0312 46.4585C19.2641 47.587 20.8934 48.1819 22.5634 48.1134H39.7238C40.5494 48.1481 41.3738 48.0199 42.1498 47.7359C42.9258 47.4519 43.6383 47.0179 44.2466 46.4585C44.8368 45.8772 45.2982 45.1784 45.6011 44.4073C45.904 43.6363 46.0416 42.8103 46.0049 41.9827C46.0049 41.2681 46.0049 40.5628 45.9391 39.8858L45.9673 39.8388Z" fill="white"/>
</g>
<circle cx="56.598" cy="13.3836" r="9.5306" fill="#ED1C24"/>
<path d="M51.75 12.75L55.042 16.1068L61.8497 9.88257" stroke="white" stroke-width="1.5"/>
<defs>
<filter id="filter0_d" x="18.3643" y="12.4468" width="25.151" height="25.1515" filterUnits="userSpaceOnUse" color-interpolation-filters="sRGB">
<feFlood flood-opacity="0" result="BackgroundImageFix"/>
<feColorMatrix in="SourceAlpha" type="matrix" values="0 0 0 0 0 0 0 0 0 0 0 0 0 0 0 0 0 0 127 0"/>
<feOffset dy="4"/>
<feGaussianBlur stdDeviation="2"/>
<feColorMatrix type="matrix" values="0 0 0 0 0 0 0 0 0 0 0 0 0 0 0 0 0 0 0.25 0"/>
<feBlend mode="normal" in2="BackgroundImageFix" result="effect1_dropShadow"/>
<feBlend mode="normal" in="SourceGraphic" in2="effect1_dropShadow" result="shape"/>
</filter>
<filter id="filter1_d" x="12.2759" y="29.6458" width="37.7348" height="26.4732" filterUnits="userSpaceOnUse" color-interpolation-filters="sRGB">
<feFlood flood-opacity="0" result="BackgroundImageFix"/>
<feColorMatrix in="SourceAlpha" type="matrix" values="0 0 0 0 0 0 0 0 0 0 0 0 0 0 0 0 0 0 127 0"/>
<feOffset dy="4"/>
<feGaussianBlur stdDeviation="2"/>
<feColorMatrix type="matrix" values="0 0 0 0 0 0 0 0 0 0 0 0 0 0 0 0 0 0 0.25 0"/>
<feBlend mode="normal" in2="BackgroundImageFix" result="effect1_dropShadow"/>
<feBlend mode="normal" in="SourceGraphic" in2="effect1_dropShadow" result="shape"/>
</filter>
</defs>
</svg>
