<svg width="64" height="59" viewBox="0 0 64 59" fill="none" xmlns="http://www.w3.org/2000/svg">
<path d="M29.3613 58.1504C45.2745 58.1504 58.1748 45.2501 58.1748 29.3369C58.1748 13.4237 45.2745 0.523438 29.3613 0.523438C13.4481 0.523438 0.547852 13.4237 0.547852 29.3369C0.547852 45.2501 13.4481 58.1504 29.3613 58.1504Z" fill="#21409A"/>
<path d="M24.9814 41.4273C25.5964 41.8414 26.1565 42.4776 26.8263 42.6272C29.7339 43.2809 32.6701 43.8135 35.6064 44.3249C35.9544 44.386 36.4097 44.1004 36.7515 43.8783C38.0437 43.0389 39.3048 42.1508 40.5896 41.2976C41.4453 40.7288 42.2897 40.6739 42.9833 41.547C43.5895 42.3029 43.3575 43.2996 42.3995 43.9657C40.778 45.0883 39.1876 46.2645 37.4775 47.23C36.7053 47.6666 35.6862 47.7214 34.7657 47.8275C31.8731 48.1618 28.9767 48.4861 26.0729 48.7006C25.3669 48.753 24.591 48.4699 23.9162 48.1805C23.0156 47.795 22.1998 47.2175 21.3155 46.7872C19.2474 45.7818 17.1406 45.1344 14.7569 45.5535C12.9083 45.8791 11.0048 45.8878 9.12881 46.0649C7.92386 46.1785 7.13304 45.7618 6.88357 44.5095C6.66902 43.4181 6.3946 42.3366 6.22247 41.2389C5.99545 39.782 6.62911 39.0473 8.0935 38.9787C10.1479 38.8814 12.2335 38.9787 14.2467 38.6507C15.8857 38.3787 17.43 37.563 19.0328 37.0378C19.7226 36.8121 20.481 36.5015 21.162 36.59C24.8717 37.0728 28.5551 37.5879 32.1912 36.136C33.1454 35.7543 34.0385 36.0562 34.389 37.089C34.7395 38.1218 34.2318 38.9014 33.2352 39.1883C30.5846 39.9567 27.9028 40.6427 24.9814 41.4273Z" fill="white"/>
<path d="M35.6315 37.0158C35.4232 36.5281 35.2424 36.1065 35.0677 35.6961C42.0754 31.3017 42.1041 23.1814 38.1387 18.5662C33.9164 13.6541 26.4136 13.3473 21.7634 17.8639C17.4975 22.0114 16.6206 30.3886 23.6183 35.3905C21.5227 35.539 20.7755 35.2109 19.5419 33.6056C17.9613 31.529 17.0535 29.0186 16.9405 26.4113C16.8274 23.8041 17.5145 21.2246 18.9095 19.019C21.7996 14.4786 27.1969 12.277 32.5269 13.4633C37.6685 14.6083 41.6114 19.0127 42.2562 24.3315C42.8887 29.5579 40.1931 34.7718 35.6315 37.0158Z" fill="white"/>
<path d="M31.0079 32.5775C30.6986 33.402 31.4021 34.698 29.8641 34.6756C28.4496 34.6506 29.0508 33.4457 28.5855 32.9966C27.4467 32.0474 26.248 31.1593 25.1965 30.1277C24.7649 29.7011 24.3071 28.8729 25.2115 28.3889C25.9873 27.9723 26.7894 27.8026 27.3881 28.8691C28.0829 30.104 29.2005 30.5768 30.5589 30.1539C31.0927 29.988 31.7339 29.3618 31.8299 28.8517C31.9023 28.465 31.2798 27.7291 30.8009 27.507C30.0025 27.1328 29.0633 27.0804 28.1989 26.8372C26.2779 26.2971 25.184 25.0398 25.1154 23.3533C25.0431 21.5871 26.0322 20.0678 27.8696 19.4541C28.6916 19.1797 28.9448 18.7992 28.8762 17.9972C28.8151 17.2999 29.2205 17.0218 29.9115 17.0205C30.6237 17.0205 30.9979 17.3311 30.8894 18.0259C30.7447 18.9439 31.2013 19.2558 31.9846 19.5639C32.6282 19.8133 33.202 20.346 33.6935 20.8611C34.1849 21.3763 34.6153 22.0598 33.8569 22.6349C33.1683 23.1575 32.36 23.3296 31.7276 22.4365C31.0403 21.4561 30.0537 21.1754 29.0171 21.5746C28.5182 21.7667 27.902 22.4116 27.8758 22.8806C27.8521 23.3159 28.4596 23.9471 28.9423 24.2065C29.566 24.5408 30.3368 24.5807 31.0428 24.7616C33.3667 25.3454 34.6178 26.6414 34.6602 28.5037C34.7051 30.2961 33.5563 31.6819 31.3909 32.4465L31.0079 32.5775Z" fill="white"/>
<circle cx="53.722" cy="16.6469" r="9.5306" fill="#ED1C24"/>
<path d="M48.874 16.0133L52.166 19.3701L58.9737 13.1459" stroke="white" stroke-width="1.5"/>
</svg>
