<svg width="64" height="59" viewBox="0 0 64 59" fill="none" xmlns="http://www.w3.org/2000/svg">
<path d="M29.4519 58.2905C45.4228 58.2905 58.3699 45.3435 58.3699 29.3726C58.3699 13.4016 45.4228 0.45459 29.4519 0.45459C13.4809 0.45459 0.533936 13.4016 0.533936 29.3726C0.533936 45.3435 13.4809 58.2905 29.4519 58.2905Z" fill="#21409A"/>
<path d="M40.9294 22.0449C40.9389 21.6947 40.8587 21.3479 40.6964 21.0373C40.6132 20.9237 40.5056 20.8301 40.3816 20.7634C40.2168 20.7062 40.0602 20.6279 39.9156 20.5304L39.8872 20.5147C39.8654 20.5041 39.8469 20.4878 39.8337 20.4674C39.752 20.4052 39.6751 20.3367 39.6038 20.2628C39.5882 20.2871 39.5641 20.3048 39.5362 20.3124C39.5082 20.32 39.4785 20.3169 39.4527 20.3037C39.3319 20.2564 39.2044 20.2287 39.0748 20.2218H39.1189H32.9568V20.1242C33.722 20.1242 34.484 20.1494 35.246 20.1242C36.1465 20.0864 37.0471 20.2344 37.9539 19.9825C38.0001 19.9701 38.0477 19.9637 38.0956 19.9636L38.1239 19.9353C38.2515 19.8463 38.3527 19.7244 38.4168 19.5826C38.5018 19.23 38.5962 18.8458 38.6907 18.4585C38.6907 18.3861 38.6907 18.3168 38.6907 18.2444L37.9728 17.2463C37.7051 17.0196 37.2769 17.1109 36.9494 17.0322C36.9199 17.023 36.8937 17.0055 36.8739 16.9818L36.8361 17.029C33.7566 17.1266 30.6142 17.1235 27.4718 17.1329C27.1317 17.1329 26.9648 17.0353 26.9018 16.6889C26.824 16.3563 26.7273 16.0283 26.6122 15.7065C25.8901 15.9692 25.1845 16.2752 24.4993 16.6228C23.7279 17.0699 23.0415 17.6556 22.2952 18.1468C21.9853 18.3664 21.6339 18.5207 21.2625 18.6002C20.5288 18.7262 19.7794 18.764 19.0363 18.8269C18.4506 18.8773 18.4443 18.8679 18.4443 19.4567C18.4443 22.2024 18.4443 24.9491 18.4443 27.6969C18.4443 27.8386 18.4443 27.9803 18.4695 28.1629L18.9828 28.1377C20.0218 28.0811 21.0609 27.9961 22.1 27.9866C22.5104 27.9888 22.9154 28.0801 23.2871 28.2542C24.9477 29.0139 26.7574 29.3916 28.5833 29.3594C31.1022 29.3594 33.6139 29.3594 36.1182 29.3594C36.3556 29.3508 36.5917 29.3202 36.8235 29.2681C36.8349 29.2604 36.8478 29.2551 36.8613 29.2524C37.0852 29.2416 37.3048 29.186 37.5068 29.0887C37.6778 28.9426 37.8135 28.7595 37.9035 28.5534L37.7776 27.3096V27.253V27.275C37.7196 27.1171 37.6319 26.9717 37.5194 26.8468L37.4942 26.8184C37.3492 26.6692 37.1728 26.5541 36.9778 26.4815C36.8322 26.457 36.6843 26.4496 36.537 26.4595C36.5175 26.4598 36.4984 26.4538 36.4825 26.4425C36.4667 26.4311 36.4548 26.415 36.4488 26.3965H32.9852V26.302C34.1439 26.302 35.3027 26.302 36.4488 26.302C36.4564 26.2889 36.4674 26.2781 36.4808 26.2708C36.4941 26.2636 36.5092 26.2602 36.5244 26.2611C36.6694 26.2538 36.8148 26.2591 36.9589 26.2768C36.9718 26.26 36.9898 26.2478 37.0103 26.2421C37.0307 26.2364 37.0525 26.2376 37.0722 26.2454L37.299 26.3115C37.3096 26.2963 37.3249 26.285 37.3425 26.2794C37.3601 26.2737 37.3791 26.2739 37.3966 26.28C37.5449 26.3209 37.7016 26.3209 37.85 26.28H37.8626C37.8771 26.2691 37.8949 26.2635 37.913 26.2642C38.1371 26.2434 38.3557 26.1826 38.5584 26.0848C38.7568 25.9617 38.9226 25.7927 39.0421 25.5922C39.1615 25.3916 39.2311 25.1653 39.2449 24.9323C39.2719 24.7569 39.2627 24.5778 39.2177 24.4062C39.1727 24.2345 39.093 24.0738 38.9835 23.9342C38.9274 23.9049 38.8776 23.8648 38.837 23.8162C38.7965 23.7675 38.766 23.7113 38.7474 23.6508C38.4325 23.3202 37.998 23.2855 37.5634 23.2792C36.1717 23.2635 34.78 23.2792 33.3882 23.2792C33.2418 23.287 33.0951 23.271 32.9537 23.232H38.8261V23.2792C38.8436 23.2746 38.8621 23.2746 38.8796 23.2792C39.1018 23.2437 39.3257 23.2196 39.5503 23.2068C39.7953 23.1783 40.0368 23.1256 40.2714 23.0494C40.8287 22.8762 40.9483 22.5582 40.9294 22.0449Z" fill="white"/>
<path d="M43.0011 41.211C43.0011 41.0787 42.9664 40.9465 42.9664 40.8142C42.9664 40.1435 42.9664 39.476 42.9664 38.8053C42.9534 38.6875 42.9708 38.5682 43.0168 38.459C42.9538 38.3145 42.9032 38.1649 42.8657 38.0118H42.8373C42.7901 37.845 42.7082 37.5805 42.661 37.423H42.6925C42.6632 37.3364 42.639 37.248 42.62 37.1585C42.572 37.074 42.5289 36.9867 42.491 36.8972C42.4861 36.9306 42.4861 36.9645 42.491 36.9979C42.3839 36.746 42.2737 36.491 42.1446 36.1824C42.195 36.1888 42.2446 36.2004 42.2926 36.2171C42.2135 36.119 42.1439 36.0135 42.0848 35.9022L42.0596 35.9841L41.7101 35.3921H41.8203C41.7854 35.3324 41.7549 35.2703 41.729 35.2063C41.3895 34.9669 41.1296 34.6313 40.9827 34.2428C40.8922 34.1408 40.812 34.0301 40.7434 33.9122C40.7151 33.8744 40.6867 33.8335 40.6615 33.7925C40.4842 33.3891 40.2428 33.017 39.9468 32.6905C39.8654 32.6061 39.7906 32.5156 39.7232 32.4197C39.3695 32.067 39.0169 31.7133 38.6652 31.3586L38.5582 31.3901L37.7112 30.4454C37.4498 30.1526 37.1759 29.929 36.7288 30.055C36.4414 30.1172 36.1471 30.1415 35.8534 30.1274C33.3848 30.1274 30.9173 30.1274 28.4508 30.1274C26.9069 30.1337 25.3738 29.8716 23.9197 29.3528C23.8379 29.3307 23.752 29.328 23.6689 29.345C23.5858 29.3619 23.5078 29.398 23.4411 29.4504C22.0935 30.8831 20.7332 32.3032 19.4454 33.7894C18.3329 35.0021 17.5349 36.4693 17.1216 38.0622C16.8762 39.2598 16.8634 40.4934 17.0838 41.6959C17.5719 45.0367 19.332 47.4297 22.4524 48.7805C24.4519 49.6496 26.5678 49.9392 28.7215 50.04C31.5554 50.1723 34.342 49.9802 36.9775 48.8561C38.8132 48.072 40.523 47.0802 41.5526 45.2508C41.5908 45.1974 41.6352 45.1488 41.6849 45.1059L41.729 45.1343C41.8108 44.9642 41.8958 44.7974 41.9777 44.6273C42.2642 43.7929 42.5539 42.9585 42.8153 42.1997L42.894 42.291C42.8706 41.9324 42.9232 41.573 43.0483 41.2361L43.0011 41.211ZM31.1587 45.5405C30.7588 45.6129 30.6864 45.7703 30.7115 46.1104C30.7153 46.3332 30.7069 46.556 30.6864 46.7779H29.1876C29.1876 46.4914 29.1687 46.2143 29.1876 45.9435C29.2064 45.6727 29.0931 45.5625 28.8412 45.4932C27.3833 45.0965 26.6371 44.0795 26.382 42.6405C26.3753 42.5535 26.3753 42.4661 26.382 42.3791C26.9929 42.3413 27.5912 42.2941 28.1863 42.2784C28.2681 42.2784 28.3846 42.4106 28.4287 42.5082C28.5358 42.7475 28.5798 43.0183 28.6995 43.2513C28.7874 43.4338 28.9122 43.5961 29.066 43.728C29.2197 43.8599 29.3991 43.9586 29.5928 44.0177C29.7866 44.0769 29.9905 44.0953 30.1917 44.0718C30.3929 44.0482 30.587 43.9833 30.7619 43.8811C30.9356 43.7882 31.0863 43.6576 31.2031 43.499C31.3198 43.3404 31.3997 43.1577 31.4368 42.9643C31.4739 42.7708 31.4674 42.5715 31.4176 42.381C31.3678 42.1904 31.2762 42.0133 31.1492 41.8627C30.5911 41.2657 29.9845 40.716 29.3355 40.2191C28.7247 39.6901 28.0761 39.2147 27.4935 38.6447C25.9884 37.1774 26.3096 34.3373 28.8538 33.7579C29.197 33.6792 29.2002 33.4966 29.2002 33.2226C29.2002 32.3504 29.0931 32.4732 29.9307 32.4606H30.0629C30.7934 32.4606 30.7399 32.3819 30.7147 33.125C30.6989 33.5155 30.806 33.6855 31.2122 33.7768C32.5347 34.0917 33.3785 35.0363 33.4383 36.2674C33.092 36.3147 32.7708 36.3556 32.4528 36.4028C32.1348 36.4501 31.8451 36.4942 31.4893 36.5477C31.4452 36.3997 31.4074 36.2486 31.3507 36.1069C31.1555 35.622 30.8721 35.2221 30.3022 35.1622C29.2474 35.0331 28.5924 35.792 28.8506 36.8342C29.0333 37.5773 29.5402 38.078 30.1101 38.5345C30.932 39.1926 31.7947 39.794 32.5661 40.5214C33.1503 41.0332 33.5081 41.7554 33.5611 42.5303C33.6169 43.2445 33.4001 43.9533 32.9544 44.5142C32.5086 45.075 31.867 45.4462 31.1587 45.5531V45.5405Z" fill="white"/>
<path d="M15.248 18.4138C15.248 17.9604 15.248 17.5038 15.248 17.0504C15.248 16.7135 15.1032 16.5781 14.7662 16.5875C14.2687 16.5875 13.7681 16.5875 13.2706 16.5875H11.1232C11.0676 16.6016 11.0105 16.609 10.9531 16.6096C10.8801 16.6091 10.8078 16.5963 10.739 16.5718C10.7421 16.6032 10.7421 16.6348 10.739 16.6662C10.7902 16.8246 10.8094 16.9916 10.7957 17.1574C10.7957 21.3264 10.7957 25.4953 10.7957 29.6642V30.294C12.2126 30.294 13.5477 30.294 14.889 30.294C14.9835 30.294 15.122 30.1271 15.1598 30.0137C15.1873 29.8546 15.1926 29.6925 15.1756 29.532L15.248 18.4138Z" fill="white"/>
<path d="M16.2839 17.7317C16.5301 17.8181 16.7843 17.8793 17.0428 17.9143C17.7324 17.9458 17.7544 17.9584 17.6914 18.6606C17.6631 18.9754 17.6505 19.2746 17.6505 19.5831C17.6505 22.6091 17.6505 25.6319 17.6505 28.6578C17.6505 29.0451 17.5466 29.1584 17.1561 29.149C16.1958 29.1301 16.1926 29.149 16.1926 28.1666C16.1926 24.9528 16.1926 21.7379 16.1926 18.522C16.2099 18.2613 16.2415 18.0016 16.2871 17.7443L16.2839 17.7317Z" fill="white"/>
<path d="M33.4542 36.2962C33.1078 36.3434 32.7866 36.3844 32.4686 36.4316C32.1506 36.4788 31.8609 36.5229 31.5051 36.5764C31.461 36.4285 31.4232 36.2773 31.3666 36.1356C31.1713 35.6507 30.8879 35.2508 30.318 35.191C29.2632 35.0619 28.6083 35.8208 28.8665 36.863C29.0491 37.6061 29.556 38.1067 30.126 38.5633C30.9478 39.2214 31.8105 39.8228 32.582 40.5501C33.1661 41.0619 33.5239 41.7842 33.577 42.559C33.6269 43.2701 33.407 43.9738 32.9611 44.53C32.5153 45.0861 31.8762 45.4538 31.1713 45.5598C30.7714 45.6322 30.699 45.7896 30.7242 46.1297C30.728 46.3525 30.7196 46.5754 30.699 46.7972H29.2002C29.2002 46.5107 29.1813 46.2336 29.2002 45.9628C29.2191 45.692 29.1058 45.5818 28.8539 45.5126C27.396 45.1158 26.6498 44.0988 26.3947 42.6598C26.388 42.5728 26.388 42.4854 26.3947 42.3985C27.0056 42.3607 27.6038 42.3134 28.1989 42.2977C28.2808 42.2977 28.3973 42.4299 28.4414 42.5276C28.5484 42.7669 28.5925 43.0377 28.7122 43.2707C28.8001 43.4532 28.9249 43.6155 29.0786 43.7474C29.2324 43.8793 29.4118 43.9779 29.6055 44.037C29.7993 44.0962 30.0032 44.1146 30.2044 44.0911C30.4056 44.0676 30.5997 44.0026 30.7746 43.9004C30.9483 43.8075 31.099 43.6769 31.2157 43.5183C31.3325 43.3597 31.4123 43.177 31.4495 42.9836C31.4866 42.7901 31.48 42.5909 31.4303 42.4003C31.3805 42.2097 31.2888 42.0327 31.1619 41.8821C30.6038 41.285 29.9971 40.7353 29.3482 40.2384C28.7374 39.7094 28.0887 39.234 27.5062 38.6641C26.0011 37.1968 26.3223 34.3566 28.8665 33.7772C29.2097 33.6985 29.2128 33.5159 29.2128 33.2419C29.2128 32.3697 29.1058 32.4925 29.9433 32.4799H30.0756C30.8061 32.4799 30.7526 32.4012 30.7274 33.1443C30.7116 33.5348 30.8187 33.7048 31.2249 33.7961C32.5379 34.1078 33.3817 35.0714 33.4542 36.2962Z" fill="#000173"/>
<path d="M36.7063 26.4099H32.9719V26.3154C34.137 26.3154 35.302 26.3154 36.467 26.3154C36.5426 26.3154 36.6182 26.3784 36.6969 26.413L36.7063 26.4099Z" fill="black"/>
<path d="M25.5819 11.3599C26.0133 11.234 26.2117 11.848 26.6431 11.9456C26.7961 11.9607 26.9503 11.9327 27.0883 11.8649C27.2263 11.797 27.3425 11.6919 27.4239 11.5614C27.5628 11.2981 27.7989 11.0992 28.082 11.0073C28.2693 10.993 28.4571 11.0265 28.6278 11.1047C28.7986 11.183 28.9466 11.3033 29.0581 11.4544C29.1609 11.6067 29.2929 11.7372 29.4464 11.8382C29.5999 11.9393 29.7718 12.009 29.9524 12.0432C30.4751 12.081 30.8372 11.6433 31.3284 11.5048C31.3854 11.4923 31.4445 11.4923 31.5016 11.5048C31.6873 11.5425 31.6653 11.7472 31.6779 11.8952C31.7157 12.3486 32.5091 12.5627 33.0287 12.3612C33.2578 12.2598 33.4624 12.1103 33.6286 11.9229C33.7949 11.7354 33.9189 11.5145 33.9922 11.2749C34.0197 11.1753 34.0768 11.0863 34.1559 11.0199C34.2699 10.9657 34.3988 10.9512 34.522 10.9786C34.6452 11.006 34.7557 11.0737 34.8361 11.171C34.9468 11.3568 35.0416 11.5517 35.1194 11.7535C35.4343 12.3171 36.5616 12.4809 37.1315 12.0464C37.2742 12.2087 37.3627 12.4115 37.3847 12.6265C37.4067 12.8416 37.3611 13.0581 37.2543 13.246C37.0278 13.6357 36.7687 14.0054 36.4797 14.3512C36.034 14.9622 35.7758 15.6898 35.7366 16.4451C35.7366 16.3979 27.6884 16.76 27.0052 16.4703C26.3219 16.1806 26.3471 15.2738 26.1802 14.7385C25.8496 13.6239 25.2324 12.5061 25.5819 11.3599Z" fill="white"/>
<circle cx="53.973" cy="20.7633" r="9.5306" fill="#ED1C24"/>
<path d="M49.125 20.1296L52.417 23.4864L59.2247 17.2622" stroke="white" stroke-width="1.5"/>
</svg>
