<svg width="67" height="61" viewBox="0 0 67 61" fill="none" xmlns="http://www.w3.org/2000/svg">
<path d="M30.4381 60.2586C47.0235 60.2586 60.4686 46.8135 60.4686 30.2282C60.4686 13.6428 47.0235 0.197754 30.4381 0.197754C13.8528 0.197754 0.407715 13.6428 0.407715 30.2282C0.407715 46.8135 13.8528 60.2586 30.4381 60.2586Z" fill="#21409A"/>
<path d="M14.4551 43.8586V26.7736C14.8867 26.7736 15.3118 26.7736 15.7401 26.7736C16.1685 26.7736 16.5543 26.7736 16.9565 26.7736C17.2835 26.7932 17.4012 26.6787 17.398 26.3387C17.398 24.8901 17.3718 23.4448 17.398 21.9963C17.3962 20.671 17.6764 19.3606 18.2199 18.1519C18.7633 16.9432 19.5576 15.8639 20.5501 14.9857C21.5027 14.1103 22.6321 13.4497 23.8619 13.0484C25.0918 12.6471 26.3935 12.5145 27.679 12.6595C28.9645 12.8046 30.204 13.224 31.3135 13.8893C32.423 14.5546 33.3767 15.4504 34.1102 16.516C35.2838 18.1471 35.911 20.1078 35.9021 22.1173C35.9021 22.7385 35.925 23.3631 35.9021 23.9844C35.8906 24.1901 35.806 24.3849 35.6634 24.5337C34.5389 25.4769 33.6439 26.6636 33.0463 28.0041C32.4486 29.3445 32.1638 30.8034 32.2137 32.2702C32.2137 33.0288 32.2137 33.7874 32.2137 34.5591C32.2024 34.7913 32.1125 35.0127 31.9586 35.1869C29.4409 37.7374 26.874 40.2421 24.3955 42.8351C24.0744 43.2063 23.6699 43.4961 23.2152 43.6809C22.7605 43.8656 22.2685 43.9399 21.7796 43.8978C19.5103 43.8161 17.2345 43.8717 14.9619 43.8717L14.4551 43.8586ZM26.619 26.7801C27.8484 26.7801 29.0779 26.7801 30.3106 26.7801C30.6736 26.7801 30.7684 26.6657 30.7651 26.319C30.7651 24.8443 30.739 23.3762 30.7651 21.8949C30.7913 20.2011 29.8496 19.1188 28.4991 18.321C27.1487 17.5231 25.7459 17.667 24.4576 18.5466C23.1693 19.4262 22.476 20.5085 22.5447 22.1205C22.6068 23.5233 22.5676 24.9326 22.5447 26.3387C22.5447 26.6657 22.6101 26.7899 22.9665 26.7834C24.1829 26.767 25.3993 26.7801 26.619 26.7801Z" fill="white"/>
<path d="M25.5658 45.4365C25.3042 44.328 25.8078 43.5858 26.5893 42.8206C29.0973 40.3944 31.5301 37.8897 34.0021 35.4275C34.1181 35.3354 34.1994 35.2066 34.2326 35.0622C34.2659 34.9179 34.2492 34.7665 34.1852 34.6329C33.7017 33.2401 33.6053 31.7423 33.906 30.2989C34.2067 28.8556 34.8933 27.5209 35.8928 26.4371C36.8922 25.3533 38.167 24.5609 39.5813 24.1444C40.9955 23.7279 42.4963 23.7029 43.9236 24.0721C45.351 24.4413 46.6514 25.1908 47.6864 26.2408C48.7213 27.2908 49.452 28.6019 49.8006 30.0344C50.1492 31.4669 50.1026 32.9671 49.6658 34.3752C49.229 35.7833 48.4183 37.0466 47.3202 38.0303C45.1163 39.9661 42.556 40.5383 39.7145 39.8287C39.5969 39.7903 39.4714 39.7828 39.35 39.8069C39.2286 39.8309 39.1154 39.8857 39.0213 39.9661C38.7884 40.0893 38.5256 40.1448 38.2627 40.1263C37.4354 40.1492 37.4387 40.1263 37.3929 40.9405C37.3675 41.3757 37.2293 41.7969 36.992 42.1626C36.7547 42.5284 36.4263 42.8261 36.0392 43.0266C35.9172 43.0815 35.7835 43.1051 35.6501 43.0953C35.1105 43.0953 34.5678 43.1117 34.0151 43.0953C33.747 43.0953 33.6489 43.1869 33.6653 43.4485C33.6915 43.7181 33.6915 43.9897 33.6653 44.2594C33.6318 44.4605 33.556 44.6522 33.4429 44.8218C33.165 45.2698 32.7432 45.3744 32.2265 45.3515C31.4647 45.3155 31.4614 45.3515 31.4516 46.1232C31.445 46.1633 31.445 46.2041 31.4516 46.2442C31.5889 46.8491 31.1409 47.1467 30.7976 47.49C30.76 47.5179 30.7172 47.5381 30.6717 47.5493C30.6263 47.5605 30.579 47.5626 30.5327 47.5554C30.344 47.5254 30.1506 47.5512 29.9764 47.6297C29.8021 47.7081 29.6545 47.8357 29.5518 47.9968C29.4627 48.1146 29.3442 48.2069 29.2082 48.2643C29.0721 48.3217 28.9233 48.3422 28.7768 48.3238C28.3158 48.2977 27.8547 48.3238 27.3969 48.3238C26.1838 48.2977 25.5756 47.6698 25.5593 46.4829C25.5626 46.1396 25.5658 45.7864 25.5658 45.4365ZM37.3177 35.5648C37.2241 35.7494 37.1147 35.9255 36.9907 36.0913C34.8893 38.2101 32.7835 40.3268 30.6733 42.4413C29.5289 43.5891 28.3844 44.7302 27.2465 45.891C27.1681 45.9695 27.1125 46.1853 27.1582 46.2442C27.3234 46.435 27.5015 46.6142 27.6912 46.7804L38.1711 36.3954L37.3177 35.5648ZM47.0881 29.0055C47.0893 28.5623 46.9593 28.1286 46.7143 27.7592C46.4693 27.3898 46.1204 27.1013 45.7116 26.9301C45.3028 26.7588 44.8524 26.7125 44.4173 26.797C43.9822 26.8815 43.5819 27.093 43.2669 27.4048C42.9519 27.7166 42.7363 28.1148 42.6474 28.549C42.5585 28.9832 42.6002 29.434 42.7673 29.8446C42.9344 30.2551 43.2193 30.6069 43.5862 30.8556C43.953 31.1044 44.3854 31.2388 44.8286 31.2421C45.4236 31.2412 45.9944 31.0061 46.4173 30.5874C46.8402 30.1688 47.0812 29.6005 47.0881 29.0055Z" fill="white"/>
<circle cx="56.473" cy="15.5086" r="9.5306" fill="#ED1C24"/>
<path d="M51.625 14.875L54.917 18.2318L61.7247 12.0076" stroke="white" stroke-width="1.5"/>
</svg>
