<svg width="54" height="59" viewBox="0 0 54 59" fill="none" xmlns="http://www.w3.org/2000/svg">
<path d="M15.675 37.6555L13.6063 37.8029C13.6063 38.2138 13.6256 38.5497 13.6256 38.7938C13.6812 41.3627 15.1336 41.904 16.3468 41.904C16.5136 41.904 16.6247 41.8847 16.6247 41.8847H16.6634L20.1096 41.5488C20.2401 41.138 20.2594 40.8407 20.2594 40.8407C20.2594 40.8407 19.793 19.1316 19.6794 16.3935C19.668 15.8655 19.5144 15.3504 19.2348 14.9024C18.1466 14.8234 17.0591 14.7364 15.9722 14.6414L15.5807 14.622C14.7421 14.622 14.109 14.8468 13.7005 15.2745C13.0843 15.9271 13.1399 16.9348 13.1399 16.9348V16.9711C13.1399 17.0073 13.1592 17.5849 13.1785 18.5177C14.8557 18.612 16.0858 18.6869 16.0858 18.6869C16.0858 18.6869 18.0047 19.0953 18.0965 21.0698C18.1908 23.2134 18.1714 35.2702 18.1714 35.2702C18.1714 35.2702 18.3962 37.2278 15.675 37.6555ZM9.0605 38.1219L5.59497 38.3805C5.59497 38.3805 2.74328 38.772 2.66836 35.6424C2.63211 33.3321 2.33244 20.2698 2.33244 20.2698C2.33244 20.2698 2.12702 17.8459 5.07296 18.0513C5.94781 18.1069 7.27215 18.1818 8.68591 18.2761C8.64966 16.1131 8.61341 14.233 8.59408 12.7781C6.97676 12.668 5.36138 12.5311 3.74862 12.3673C-0.12775 11.9419 0.116335 15.2045 0.116335 15.2045C0.116335 15.2045 0.580339 39.1853 0.67459 42.1119C0.785758 45.6161 4.55096 45.0361 4.55096 45.0361L9.20792 44.5334C9.15234 42.8006 9.11609 40.6015 9.0605 38.1243V38.1219ZM50.5381 8.39907C50.3714 3.90886 46.4201 2.9591 46.4201 2.9591C46.4201 2.9591 32.7416 0.890414 26.7628 0.143657C20.7621 -0.600683 21.1343 5.19454 21.1343 5.19454C21.1343 5.19454 22.4949 47.5301 22.6447 52.7671C22.8139 59.0094 28.626 58.0209 28.626 58.0209L49.2355 54.4636C52.9814 53.7168 53.1675 49.0405 53.1675 49.0405C53.1675 49.0405 50.7436 13.2808 50.5381 8.39907ZM45.9368 44.3449L30.6198 45.9278C30.6198 45.9278 26.1658 46.5997 26.0522 41.196C25.9797 37.2084 25.1025 14.3248 25.1025 14.3248C25.1025 14.3248 24.8052 10.1318 29.3897 10.4702C34.066 10.8254 45.3036 11.664 45.3036 11.664C45.3036 11.664 48.3027 12.3721 48.4332 15.799C48.583 19.5255 49.8687 40.2099 49.8687 40.2099C49.8687 40.2099 50.2046 43.6199 45.9368 44.3473V44.3449ZM30.5255 45.1279L36.4343 44.5117C36.154 38.4941 35.11 15.1247 34.9602 11.7341V11.6785C32.7996 11.5093 30.7503 11.3643 29.3148 11.2508C29.1649 11.2314 28.9982 11.2314 28.8484 11.2314C27.8623 11.2314 27.1156 11.4924 26.6322 12.0144C25.8106 12.8724 25.9072 14.2136 25.9072 14.233V14.2499C25.9072 14.2692 25.9072 14.3997 25.9242 14.6051C28.3263 14.8105 30.134 14.9773 30.134 14.9773C30.134 14.9773 32.7247 15.5549 32.8359 18.3679C32.9495 21.425 33.6938 37.9721 33.6938 37.9721C33.6938 37.9721 33.9911 40.7658 30.3032 41.3627L26.8739 41.6986C27.1156 44.5117 28.7565 45.1279 30.1364 45.1279C30.3394 45.1279 30.47 45.1086 30.47 45.1086C30.5086 45.1279 30.5255 45.1279 30.5255 45.1279ZM21.5065 42.24L16.7359 42.6871C16.7359 42.6871 12.8789 43.2429 12.8064 38.8107C12.7484 35.5312 12.3569 16.988 12.3569 16.988C12.3569 16.988 12.0983 13.5635 16.0471 13.8439C17.2023 13.9164 18.8602 14.0662 20.6147 14.1967C20.5011 10.6756 20.4069 7.86256 20.3706 6.3908C18.0603 6.16605 15.8417 5.94129 14.2395 5.75521C9.02183 5.1607 9.33842 9.78141 9.33842 9.78141C9.33842 9.78141 9.95468 43.8084 10.0852 47.9796C10.2326 52.958 15.3028 52.1556 15.3028 52.1556L21.7868 51.334C21.7016 48.3032 21.6081 45.2727 21.5065 42.2424V42.24Z" fill="#354C9C"/>
</svg>
