<svg width="72" height="60" viewBox="0 0 72 60" fill="none" xmlns="http://www.w3.org/2000/svg">
<path d="M70.1438 32.6917C68.3399 28.6041 64.9365 25.3577 60.9851 23.3583C54.0125 19.8276 45.3426 19.8483 38.3877 23.4472C33.5566 25.9264 29.5223 30.3695 28.379 35.7752C27.437 39.7562 28.2812 44.0423 30.3932 47.5079C33.5359 52.727 39.2171 56.0593 45.1175 57.1286C49.3917 57.9965 53.814 57.4811 57.9668 56.2844C60.4609 57.25 62.6824 58.814 65.0994 59.9751C64.4757 57.8859 63.8081 55.81 63.0971 53.7489C65.8103 51.8236 68.2688 49.4213 69.7439 46.406C71.9477 42.2147 72.0809 37.0134 70.1438 32.6917ZM40.7485 4.65305C33.3582 0.494343 24.1551 -0.130648 16.205 2.74253C10.9799 4.62343 6.25252 8.11864 3.33194 12.8727C0.680914 17.1677 -0.31137 22.523 0.96527 27.4371C2.24783 32.8872 6.03332 37.4577 10.6275 40.5086C9.73884 43.0263 8.89466 45.5411 8.09491 48.0766C10.9829 46.5659 13.8709 44.9872 16.7618 43.4528C20.2274 44.5636 23.9152 45.1086 27.6029 44.9872C26.6438 42.1783 26.3846 39.1779 26.8476 36.2462C27.5141 32.1852 29.7356 28.4708 32.7539 25.7191C37.8664 20.9354 45.1086 18.9182 51.9953 19.407C50.7039 13.083 46.2608 7.7395 40.6685 4.65601H40.7485V4.65305ZM45.8817 34.2409C45.2626 36.1721 42.4576 36.7527 41.098 35.2835C39.5992 33.9239 40.1827 31.0833 42.1495 30.4761C44.3236 29.5579 46.8355 32.0667 45.8817 34.2409ZM60.0847 34.5134C59.3264 36.2491 56.705 36.6549 55.4165 35.3131C54.7974 34.7474 54.6167 33.8943 54.3976 33.1509C54.7056 31.7942 55.6416 30.3873 57.1523 30.3221C59.2405 30.0318 61.1095 32.6118 60.0402 34.5164H60.0847V34.5134ZM38.8913 15.3964C38.915 18.2429 35.1147 20.0201 32.982 18.0889C30.7693 16.5042 31.3973 12.6476 33.995 11.8508C36.3202 10.9178 39.069 12.8698 38.8853 15.3608L38.8913 15.3964ZM20.9442 16.1191C20.4348 18.5924 17.1202 19.7861 15.1801 18.1274C12.9319 16.5427 13.5628 12.615 16.202 11.8153C18.7879 10.82 21.7262 13.4444 20.9442 16.1191Z" fill="#354C9C"/>
</svg>
