<svg width="67" height="52" viewBox="0 0 67 52" fill="none" xmlns="http://www.w3.org/2000/svg">
<path d="M16.0457 0.510498L25.4282 10.6654L18.8088 23.7138L32.7874 21.2091L39.1512 36.5638L66.1837 1.11696L16.0457 0.510498ZM14.3161 22.5064L16.9187 20.3661L13.5628 21.4267L13.2201 20.9372L14.6071 19.591L12.7877 20.3253C5.84464 23.0176 0.914062 29.7513 0.914062 37.6244C0.914062 42.9303 3.14955 47.7004 6.7149 51.0781C5.13281 48.2978 4.30324 45.1529 4.30808 41.954C4.30808 34.1624 9.22778 27.2275 16.043 24.4944L16.8997 22.4112L14.86 23.3113L14.2862 22.5363L14.3161 22.5064ZM26.1843 17.1488L30.5301 9.47691L56.0886 3.49114L26.1843 17.1488Z" fill="#354C9C"/>
</svg>
