<svg width="162" height="34" viewBox="0 0 162 34" fill="none" xmlns="http://www.w3.org/2000/svg">
<path d="M84.3151 18.6079L85.0612 12.7922H79.4656V8.94074C79.4656 7.2461 79.9505 6.12925 82.2634 6.12925H85.2477V0.9683C83.8107 0.806302 82.3659 0.729157 80.9204 0.73722C79.9326 0.664529 78.9412 0.815832 78.016 1.18058C77.0907 1.54532 76.2541 2.11458 75.5644 2.84854C74.8749 3.58251 74.3492 4.46338 74.0243 5.42932C73.6994 6.39523 73.5831 7.42289 73.6834 8.44015V12.7152H68.834V18.5309H73.6834V33.4362H79.4656V18.5309L84.3151 18.6079Z" fill="#354C9C"/>
<path d="M161.276 7.13055C160.096 7.68534 158.836 8.03671 157.545 8.17052C158.91 7.2987 159.897 5.92029 160.306 4.31907C159.08 5.10033 157.728 5.64815 156.316 5.9366C155.745 5.27112 155.043 4.73819 154.26 4.37301C153.475 4.00785 152.624 3.81883 151.764 3.81836C150.928 3.82838 150.102 4.00896 149.334 4.34974C148.566 4.69052 147.87 5.18479 147.288 5.80403C146.705 6.42328 146.247 7.15529 145.94 7.95801C145.633 8.76074 145.482 9.61835 145.497 10.4814C145.441 10.9805 145.441 11.4843 145.497 11.9834C142.986 11.8446 140.532 11.1544 138.3 9.95896C136.068 8.76349 134.108 7.09027 132.552 5.05085C132.011 6.06503 131.728 7.20491 131.731 8.36304C131.72 9.45385 131.969 10.5308 132.457 11.4983C132.945 12.4659 133.657 13.294 134.529 13.9091C133.52 13.8699 132.534 13.5792 131.657 13.0618C131.648 14.5779 132.143 16.0513 133.06 17.236C133.976 18.4205 135.259 19.2446 136.693 19.5708C136.159 19.7257 135.606 19.8035 135.052 19.8018C134.655 19.84 134.255 19.84 133.858 19.8018C134.23 21.1946 135.041 22.4198 136.162 23.2844C137.283 24.1491 138.651 24.604 140.05 24.5776C137.854 26.4137 135.117 27.4194 132.291 27.4277H130.762C133.479 29.2594 136.63 30.2872 139.874 30.3995C143.117 30.5118 146.328 29.7041 149.158 28.0646C151.989 26.4251 154.329 24.016 155.926 21.0995C157.523 18.1828 158.315 14.8701 158.217 11.5213V10.6354C159.454 9.69787 160.515 8.53653 161.351 7.20765" fill="#45C1DC"/>
<path d="M15.6771 9.0564C14.1189 9.04878 12.5934 9.51895 11.2941 10.4073C9.99481 11.2956 8.98015 12.5621 8.37869 14.0463C7.77721 15.5306 7.616 17.1659 7.91549 18.7447C8.21496 20.3237 8.96166 21.7754 10.061 22.9157C11.1603 24.0561 12.5627 24.8339 14.0905 25.1505C15.6184 25.4673 17.2029 25.3085 18.6433 24.6946C20.0838 24.0807 21.3152 23.0391 22.1818 21.7019C23.0483 20.3646 23.511 18.792 23.511 17.1831C23.5159 16.1176 23.317 15.0618 22.9253 14.0761C22.5339 13.0903 21.9577 12.1941 21.2297 11.439C20.5018 10.6839 19.6365 10.0847 18.6836 9.67582C17.7308 9.26695 16.7091 9.0564 15.6771 9.0564ZM15.6771 22.421C14.6603 22.4439 13.66 22.1532 12.8041 21.586C11.9483 21.0185 11.2759 20.2004 10.8729 19.2362C10.47 18.2721 10.3549 17.2057 10.5423 16.1735C10.7297 15.1414 11.2111 14.1904 11.925 13.4424C12.6388 12.6944 13.5526 12.1834 14.5494 11.9746C15.5461 11.7659 16.5807 11.8689 17.5204 12.2706C18.4601 12.6723 19.2624 13.3543 19.8245 14.2295C20.3867 15.1046 20.6831 16.133 20.6758 17.1831C20.6665 18.5559 20.1392 19.8711 19.2058 20.8492C18.2725 21.8271 17.0067 22.3909 15.6771 22.421ZM30.8599 10.6741C30.8335 9.35841 30.594 8.05657 30.151 6.8226C29.7783 5.77268 29.1787 4.8243 28.3977 4.04955C27.6341 3.2415 26.7031 2.6226 25.6745 2.23936C24.4849 1.76216 23.2205 1.51413 21.9443 1.50757C20.3028 1.50757 19.7806 1.50757 15.6399 1.50757C11.4992 1.50757 10.9769 1.50757 9.33552 1.50757C8.0588 1.5097 6.79366 1.75789 5.60515 2.23936C4.57662 2.6226 3.64559 3.2415 2.88197 4.04955C2.101 4.8243 1.50138 5.77268 1.12868 6.8226C0.685823 8.05657 0.446256 9.35841 0.419922 10.6741C0.419922 12.3302 0.419922 12.8694 0.419922 17.1831C0.419922 21.4968 0.419922 21.9973 0.419922 23.6921C0.441963 25.0082 0.681665 26.3107 1.12868 27.5435C1.49151 28.5984 2.09253 29.549 2.88197 30.3166C3.65413 31.1231 4.58193 31.7528 5.60515 32.1653C6.79916 32.6267 8.06077 32.8742 9.33552 32.897C10.9769 32.897 11.4992 32.897 15.6399 32.897C19.7806 32.897 20.3028 32.897 21.9443 32.897C23.219 32.8742 24.4806 32.6267 25.6745 32.1653C26.6979 31.7528 27.6257 31.1231 28.3977 30.3166C29.1872 29.549 29.7882 28.5984 30.151 27.5435C30.598 26.3107 30.8378 25.0082 30.8599 23.6921C30.8599 21.9973 30.8599 21.4581 30.8599 17.1831C30.8599 12.9079 30.9344 12.3302 30.8599 10.6741ZM28.1367 23.538C28.1486 24.5395 27.9711 25.5337 27.6143 26.4651C27.3816 27.1497 26.9986 27.7692 26.4953 28.2753C26.0032 28.82 25.3879 29.2302 24.7047 29.4692C23.7981 29.8211 22.8381 30.0036 21.8695 30.0084C20.2655 30.0084 19.7806 30.0084 15.7144 30.0084C11.6484 30.0084 11.1634 30.0084 9.52205 30.0084C8.5539 29.9995 7.59459 29.8172 6.68695 29.4692C6.01974 29.2191 5.41904 28.81 4.93368 28.2753C4.43029 27.7692 4.04726 27.1497 3.81457 26.4651C3.45783 25.5337 3.28043 24.5395 3.29232 23.538C3.29232 21.8817 3.29232 21.3812 3.29232 17.1831C3.29232 12.985 3.29232 12.4457 3.29232 10.7896C3.28043 9.78813 3.45783 8.79383 3.81457 7.86247C4.04726 7.17796 4.43029 6.55838 4.93368 6.05227C5.43872 5.54212 6.03392 5.13681 6.68695 4.85832C7.59968 4.52975 8.55584 4.34796 9.52205 4.31918C11.1634 4.31918 11.6484 4.31918 15.7144 4.31918C19.7806 4.31918 20.2655 4.31918 21.8695 4.31918C22.8363 4.34358 23.7931 4.5255 24.7047 4.85832C25.3737 5.12693 25.983 5.53312 26.4953 6.05227C26.9986 6.55838 27.3816 7.17796 27.6143 7.86247C27.9711 8.79383 28.1486 9.78813 28.1367 10.7896C28.1367 12.4457 28.1367 12.9465 28.1367 17.1831C28.1367 21.4197 28.1367 21.8817 28.1367 23.538ZM25.7119 8.74834C25.7192 9.13238 25.6152 9.50998 25.4131 9.8325C25.2111 10.155 24.9203 10.4077 24.5778 10.5582C24.2356 10.7087 23.8575 10.7501 23.4923 10.677C23.127 10.6039 22.7913 10.4198 22.5281 10.1482C22.2651 9.87659 22.0867 9.52989 22.0159 9.15279C21.9452 8.77567 21.9853 8.38536 22.1311 8.03196C22.2769 7.67853 22.5216 7.37822 22.834 7.16958C23.1464 6.96094 23.5121 6.85355 23.8841 6.86116C24.3623 6.87124 24.8176 7.0745 25.1525 7.42734C25.4872 7.78017 25.6747 8.25442 25.6745 8.74834H25.7119Z" fill="#9C3B35"/>
</svg>
