<svg width="303" height="300" viewBox="0 0 303 300" fill="none" xmlns="http://www.w3.org/2000/svg">
<path d="M215.189 8.25745C218.007 13.1531 210.292 20.5425 217.36 22.5746C221.517 23.7754 221.979 18.6952 225.166 17.91C228.076 17.1711 229.878 17.5405 232.834 17.4943C238.284 17.3558 242.949 21.3277 246.506 14.8619C245.629 14.3538 244.982 13.3839 243.642 12.7374C244.058 8.30364 246.321 6.82576 243.503 3.22336C242.626 2.06874 241.61 1.0065 240.547 0.0366211C228.676 1.14505 217.591 2.99243 207.336 5.53258C210.385 5.20929 213.202 4.79363 215.189 8.25745Z" fill="black" fill-opacity="0.05"/>
<path d="M14.6841 118.619C12.4669 128.133 12.5593 135.476 7.66303 144.76C3.13633 153.258 1.01155 157.414 1.15012 167.713C1.33489 180.968 -2.86849 220.548 20.5041 214.406C39.8119 209.326 29.2804 183.878 42.9991 172.793C49.512 167.529 57.9188 169.607 61.8914 161.201C65.5403 153.535 60.7828 145.314 67.1569 138.202C78.52 125.593 102.077 130.904 110.53 115.756C96.7191 107.674 81.1064 100.792 88.8666 79.9626C91.7767 72.2035 101.015 65.8765 100.969 56.7782C100.877 44.6316 92.2385 53.2681 84.2473 47.1256C77.6423 42.0453 84.2013 32.3927 78.2891 28.0051C76.2106 26.4349 72.8387 26.8043 69.1892 28.0051C43.3224 40.5673 24.4765 58.5793 11.774 79.8704C33.068 77.0071 16.4855 110.722 14.6841 118.619Z" fill="black" fill-opacity="0.05"/>
<path d="M72.6987 174.683C73.2527 174.498 73.7152 174.36 74.1304 174.221C75.0081 173.39 75.8397 172.327 76.5786 170.803L72.6987 174.683Z" fill="black" fill-opacity="0.05"/>
<path d="M74.1317 174.22C69.2354 178.839 62.3994 174.174 57.2259 178.516C55.1473 180.27 52.2835 197.82 54.2697 200.822C61.152 211.075 77.0878 181.471 77.3654 174.821C75.9331 173.851 75.1482 173.897 74.1317 174.22Z" fill="black" fill-opacity="0.05"/>
<path d="M245.593 268.031C236.863 271.772 226.147 269.186 217.047 273.25C202.959 279.485 180.048 304.794 210.488 298.652C214.229 297.913 218.941 294.957 222.405 297.035C223.052 297.405 223.468 297.959 223.837 298.513C227.717 297.127 231.458 295.558 235.154 293.941C249.196 287.567 261.944 279.393 273.123 269.556C272.615 264.937 269.843 261.381 263.377 260.319C263.331 260.319 255.339 263.829 245.593 268.031Z" fill="black" fill-opacity="0.05"/>
<path d="M283.515 236.57C279.034 243.036 284.161 250.056 285.363 257.307C287.487 254.952 289.566 252.504 291.552 249.964C292.291 242.99 289.843 235.416 283.515 236.57Z" fill="black" fill-opacity="0.05"/>
<path d="M267.07 212.416C261.666 216.711 253.86 214.217 248.732 218.466C243.652 222.669 244.483 230.844 251.596 233.707C262.682 238.187 262.221 227.288 265.362 221.098C266.701 218.42 272.198 215.51 272.013 212.416C271.644 207.197 269.334 210.615 267.07 212.416Z" fill="black" fill-opacity="0.05"/>
<path d="M221.62 197.909C218.756 203.913 223.699 210.748 223.606 217.26C223.56 220.816 220.973 239.013 229.657 226.913C233.075 222.156 229.796 201.004 224.114 197.724C222.452 196.801 221.62 197.909 221.62 197.909Z" fill="black" fill-opacity="0.05"/>
<path d="M286.24 184.531C284.069 183.977 281.667 184.3 279.635 185.178C280.42 197.232 271.413 201.481 279.82 213.258C283.607 209.425 283.653 205.268 284.439 199.864C284.67 198.248 283.561 194.923 283.653 193.122C283.884 190.028 286.979 188.503 286.24 184.531Z" fill="black" fill-opacity="0.05"/>
<path d="M139.446 90.3614C135.936 85.2814 135.566 86.4822 134.55 79.9238C133.395 72.3957 136.074 65.699 131.871 59.3717C130.116 56.7392 126.467 53.4139 122.818 51.8899H122.91C122.864 51.8899 122.818 51.8899 122.772 51.8899C120.508 50.92 118.244 50.6891 116.49 51.7051C110.485 51.6127 104.11 52.2131 101.339 57.6629C99.0295 62.189 100.138 74.0122 98.9829 79.8777C94.4102 103.016 109.006 103.062 127.76 103.062C134.227 103.062 146.052 106.249 145.22 97.1968C144.989 94.3334 140.971 92.532 139.446 90.3614Z" fill="black" fill-opacity="0.05"/>
<path d="M239.265 32.8081C228.133 41.9988 241.944 44.5851 240.05 51.9284C238.942 56.2236 233.445 55.1613 230.258 55.808C230.951 55.6694 218.156 57.332 219.911 57.9786C219.727 58.4866 219.357 58.6714 218.895 58.579C218.156 49.4345 209.426 40.6132 200.557 46.9405C192.243 38.304 205.961 31.7458 206.932 23.0631C201.989 22.8322 195.938 21.9085 191.873 25.049C186.469 29.2056 189.148 34.2397 182.173 36.2719C181.203 36.549 177.462 33.547 175.199 34.4707C171.688 35.8562 171.642 39.4586 169.609 42.2759C166.607 46.5248 163.789 53.2216 159.725 56.7778C155.29 60.6573 152.657 64.4444 149.793 56.7778C146.699 48.4184 155.567 48.8341 156.815 42.2297C158.57 32.9466 138.662 28.2819 140.232 43.1072C133.072 43.6614 127.622 36.4566 119.076 37.4727C107.714 38.812 111.224 42.045 121.017 45.1855C140.555 51.5128 138.846 59.6874 143.465 76.8681C148.546 95.8037 168.732 87.1208 169.378 106.103C169.702 115.709 172.565 118.111 175.891 126.424C179.586 135.568 176.261 139.171 174.136 147.669C172.658 153.581 168.686 163.88 176.122 165.126C183.79 161.247 189.472 160.185 193.536 151.594C195.523 147.345 192.751 145.545 197.416 142.635C201.343 140.187 206.192 143.281 209.98 142.958C217.001 142.358 223.56 136.123 230.258 140.926C239.542 147.576 231.736 155.566 233.168 163.233C234.6 170.854 245.039 172.562 246.979 179.444C249.058 186.741 236.263 190.158 237.926 197.086C241.344 211.08 247.118 190.343 248.549 189.096C250.951 186.972 256.772 188.912 258.573 186.741C260.236 184.663 259.589 177.596 259.312 174.872C258.573 167.205 254.323 162.217 264.116 159.4C271.091 157.368 279.867 164.757 286.38 161.386C296.634 156.074 284.855 152.38 283.655 146.653C282.176 139.402 290.583 134.229 287.442 126.516C298.344 120.42 297.974 138.34 298.113 144.805C308.136 144.852 298.713 129.796 297.743 124.854C296.08 116.541 300.792 110.629 299.729 102.408C297.743 87.3057 289.475 65.0448 278.62 54.7918C274.555 50.9585 268.92 43.9847 262.776 38.4425C258.758 35.6715 254.554 33.0852 250.259 30.6836C246.471 29.4366 242.729 29.9446 239.265 32.8081Z" fill="black" fill-opacity="0.05"/>
</svg>
