<svg width="21" height="21" viewBox="0 0 21 21" fill="none" xmlns="http://www.w3.org/2000/svg">
<rect x="0.626953" y="0.682617" width="20.0644" height="19.9767" rx="4" fill="#3C6FC8"/>
<path d="M6.42773 14.9558C6.42773 15.0046 6.41309 15.0486 6.38379 15.0876C6.35449 15.1218 6.30322 15.1511 6.22998 15.1755C6.16162 15.2 6.06885 15.217 5.95166 15.2268C5.83447 15.2415 5.68555 15.2488 5.50488 15.2488C5.32422 15.2488 5.17529 15.2415 5.05811 15.2268C4.94092 15.217 4.8457 15.2 4.77246 15.1755C4.7041 15.1511 4.65527 15.1218 4.62598 15.0876C4.59668 15.0486 4.58203 15.0046 4.58203 14.9558V8.43726C4.58203 8.38843 4.59668 8.34692 4.62598 8.31274C4.65527 8.27368 4.7041 8.24194 4.77246 8.21753C4.8457 8.18823 4.94092 8.16626 5.05811 8.15161C5.17529 8.13696 5.32422 8.12964 5.50488 8.12964C5.68555 8.12964 5.83447 8.13696 5.95166 8.15161C6.06885 8.16626 6.16162 8.18823 6.22998 8.21753C6.30322 8.24194 6.35449 8.27368 6.38379 8.31274C6.41309 8.34692 6.42773 8.38843 6.42773 8.43726V14.9558ZM6.56689 6.21069C6.56689 6.58179 6.49121 6.83813 6.33984 6.97974C6.18848 7.12134 5.90771 7.19214 5.49756 7.19214C5.08252 7.19214 4.80176 7.12378 4.65527 6.98706C4.51367 6.85034 4.44287 6.60376 4.44287 6.24731C4.44287 5.87622 4.51611 5.61987 4.6626 5.47827C4.81396 5.33179 5.09717 5.25854 5.51221 5.25854C5.92236 5.25854 6.20068 5.32935 6.34717 5.47095C6.49365 5.60767 6.56689 5.85425 6.56689 6.21069ZM15.9387 14.9558C15.9387 15.0046 15.924 15.0486 15.8947 15.0876C15.8654 15.1218 15.8166 15.1511 15.7482 15.1755C15.6799 15.2 15.5847 15.217 15.4626 15.2268C15.3454 15.2415 15.1989 15.2488 15.0231 15.2488C14.8425 15.2488 14.6911 15.2415 14.569 15.2268C14.4519 15.217 14.3591 15.2 14.2907 15.1755C14.2224 15.1511 14.1735 15.1218 14.1442 15.0876C14.1149 15.0486 14.1003 15.0046 14.1003 14.9558V11.2278C14.1003 10.9104 14.0759 10.6614 14.0271 10.4807C13.9831 10.3 13.9172 10.1462 13.8293 10.0193C13.7414 9.88745 13.6267 9.78735 13.4851 9.71899C13.3483 9.64575 13.1872 9.60913 13.0017 9.60913C12.7673 9.60913 12.5305 9.69458 12.2912 9.86548C12.052 10.0364 11.8029 10.2854 11.5441 10.6125V14.9558C11.5441 15.0046 11.5295 15.0486 11.5002 15.0876C11.4709 15.1218 11.4196 15.1511 11.3464 15.1755C11.278 15.2 11.1853 15.217 11.0681 15.2268C10.9509 15.2415 10.802 15.2488 10.6213 15.2488C10.4406 15.2488 10.2917 15.2415 10.1745 15.2268C10.0573 15.217 9.96211 15.2 9.88887 15.1755C9.82051 15.1511 9.77168 15.1218 9.74238 15.0876C9.71309 15.0486 9.69844 15.0046 9.69844 14.9558V8.42261C9.69844 8.37378 9.71064 8.33228 9.73506 8.2981C9.75947 8.25903 9.80342 8.22729 9.86689 8.20288C9.93037 8.17847 10.0109 8.16138 10.1086 8.15161C10.2111 8.13696 10.3381 8.12964 10.4895 8.12964C10.6457 8.12964 10.7751 8.13696 10.8776 8.15161C10.9802 8.16138 11.0583 8.17847 11.112 8.20288C11.1706 8.22729 11.2121 8.25903 11.2365 8.2981C11.2609 8.33228 11.2731 8.37378 11.2731 8.42261V9.177C11.6345 8.78638 12.0007 8.49341 12.3718 8.2981C12.7478 8.10278 13.1384 8.00513 13.5437 8.00513C13.988 8.00513 14.3615 8.07837 14.6643 8.22485C14.9719 8.37134 15.2185 8.57153 15.404 8.82544C15.5944 9.07446 15.7312 9.36743 15.8142 9.70435C15.8972 10.0413 15.9387 10.4465 15.9387 10.9202V14.9558Z" fill="white"/>
</svg>
