<svg width="21" height="19" viewBox="0 0 21 19" fill="none" xmlns="http://www.w3.org/2000/svg">
<path d="M20.8419 2.93085C20.0599 3.29847 19.2249 3.5313 18.3699 3.61997C19.2739 3.04227 19.9279 2.12889 20.1989 1.06787C19.3869 1.58556 18.4909 1.94856 17.5549 2.1397C17.1769 1.69873 16.7119 1.34559 16.1929 1.10361C15.6729 0.861644 15.1089 0.736394 14.5389 0.736084C13.9849 0.742724 13.4375 0.862384 12.9285 1.08819C12.4195 1.314 11.9588 1.64152 11.5729 2.05185C11.1869 2.46219 10.8833 2.94724 10.6797 3.47915C10.476 4.01107 10.3762 4.57935 10.386 5.15124C10.3494 5.48194 10.3494 5.81582 10.386 6.14652C8.72207 6.05455 7.09627 5.59721 5.61717 4.80505C4.13807 4.01289 2.83967 2.90416 1.80857 1.55277C1.44957 2.2248 1.26247 2.98012 1.26467 3.74754C1.25677 4.47035 1.42177 5.18398 1.74527 5.8251C2.06867 6.46621 2.54037 7.01496 3.11857 7.42257C2.44957 7.39656 1.79657 7.20393 1.21527 6.86111C1.20947 7.86574 1.53767 8.84205 2.14497 9.62705C2.75227 10.412 3.60197 10.9581 4.55227 11.1742C4.19837 11.2769 3.83237 11.3284 3.46467 11.3273C3.20157 11.3526 2.93677 11.3526 2.67367 11.3273C2.92047 12.2502 3.45757 13.0621 4.20047 13.635C4.94347 14.208 5.84987 14.5094 6.77697 14.4919C5.32197 15.7086 3.50777 16.375 1.63547 16.3805H0.62207C2.42257 17.5942 4.51087 18.2753 6.65997 18.3497C8.80917 18.4241 10.937 17.8889 12.8122 16.8025C14.6879 15.7161 16.2389 14.1198 17.2969 12.1872C18.3549 10.2545 18.8799 8.05935 18.8149 5.84028V5.25327C19.6349 4.63204 20.3379 3.8625 20.8919 2.98194" fill="#3C6FC8"/>
</svg>
