<svg width="98" height="98" viewBox="0 0 98 98" fill="none" xmlns="http://www.w3.org/2000/svg">
<g filter="url(#filter0_d)">
<path d="M48.8045 0.00513267C40.0025 0.0051338 31.3983 2.6155 24.08 7.50608C16.7618 12.3967 11.0583 19.3477 7.69091 27.4801C4.32358 35.6125 3.44367 44.5609 5.16249 53.1934C6.88131 61.8259 11.1216 69.7548 17.3472 75.9772C23.5727 82.1995 31.5037 86.4358 40.1371 88.1503C48.7705 89.8647 57.7184 88.9803 65.8491 85.6088C73.9798 82.2373 80.9279 76.5303 85.8148 69.2096C90.7017 61.8888 93.3077 53.2833 93.3032 44.4813C93.3032 38.6387 92.1521 32.8534 89.9155 27.4558C87.679 22.0582 84.4009 17.1542 80.2685 13.0239C76.1361 8.89363 71.2304 5.61801 65.8317 3.3842C60.433 1.15039 54.6471 0.0021699 48.8045 0.00513267ZM39.6025 22.1981C41.7405 20.0645 44.552 18.7379 47.5581 18.4444C50.5643 18.1509 53.5793 18.9086 56.0895 20.5884C58.5998 22.2682 60.4501 24.7663 61.3254 27.6571C62.2007 30.548 62.0468 33.6529 60.8899 36.443C59.733 39.2331 57.6447 41.5359 54.9806 42.9592C52.3165 44.3826 49.2414 44.8383 46.279 44.249C43.3166 43.6596 40.6501 42.0616 38.7337 39.727C36.8172 37.3924 35.7693 34.4656 35.7684 31.4452C35.7502 29.7248 36.0805 28.0186 36.7394 26.4294C37.3984 24.8401 38.3723 23.4008 39.6025 22.1981ZM69.1481 70.125C67.2671 71.8359 64.787 72.7355 62.2466 72.6285H36.1293C33.5888 72.7355 31.1088 71.8359 29.2278 70.125C28.335 69.2455 27.6353 68.1896 27.1732 67.0246C26.7111 65.8597 26.4967 64.6112 26.5439 63.3588C26.5439 62.2537 26.5439 61.1034 26.6567 60.1336C26.7694 59.1638 26.8822 57.8783 27.1077 56.7055C27.3142 55.5465 27.5929 54.4015 27.9422 53.2773C28.3078 52.1578 28.7838 51.0774 29.3631 50.0521C29.9332 49.0245 30.6556 48.0892 31.5057 47.278C32.39 46.4352 33.4325 45.7759 34.573 45.3383C35.8249 44.8581 37.1568 44.6209 38.4974 44.6392C39.2774 44.725 40.0148 45.0388 40.6175 45.5413L42.8728 46.9622C43.7703 47.5027 44.7328 47.9271 45.7372 48.2252C48.0071 48.977 50.459 48.977 52.7289 48.2252C53.7332 47.9271 54.6957 47.5027 55.5932 46.9622L57.8486 45.5413C58.4513 45.0388 59.1886 44.725 59.9686 44.6392C61.3093 44.6209 62.6412 44.8581 63.893 45.3383C65.0335 45.7759 66.0761 46.4352 66.9603 47.278C67.8505 48.081 68.6113 49.0167 69.2157 50.0521C69.795 51.0774 70.271 52.1578 70.6366 53.2773C70.9965 54.3985 71.2754 55.5442 71.4711 56.7055C71.6874 57.8385 71.838 58.9832 71.9222 60.1336C71.9222 61.1711 72.035 62.2537 72.035 63.3588C72.0561 64.6262 71.8099 65.8837 71.3125 67.0495C70.8151 68.2153 70.0776 69.2633 69.1481 70.125Z" fill="#2E4CA0"/>
</g>
<defs>
<filter id="filter0_d" x="0.305786" y="0.00512695" width="96.9974" height="96.9974" filterUnits="userSpaceOnUse" color-interpolation-filters="sRGB">
<feFlood flood-opacity="0" result="BackgroundImageFix"/>
<feColorMatrix in="SourceAlpha" type="matrix" values="0 0 0 0 0 0 0 0 0 0 0 0 0 0 0 0 0 0 127 0"/>
<feOffset dy="4"/>
<feGaussianBlur stdDeviation="2"/>
<feColorMatrix type="matrix" values="0 0 0 0 0 0 0 0 0 0 0 0 0 0 0 0 0 0 0.25 0"/>
<feBlend mode="normal" in2="BackgroundImageFix" result="effect1_dropShadow"/>
<feBlend mode="normal" in="SourceGraphic" in2="effect1_dropShadow" result="shape"/>
</filter>
</defs>
</svg>
