<svg width="67" height="86" viewBox="0 0 67 86" fill="none" xmlns="http://www.w3.org/2000/svg">
<path d="M6.65457 3.50544C6.65457 4.31937 6.33123 5.09996 5.7557 5.6755C5.18016 6.25103 4.39959 6.57436 3.58566 6.57436C3.18286 6.57437 2.78401 6.49495 2.41193 6.34067C2.03984 6.18638 1.70179 5.96026 1.41717 5.67522C1.13256 5.39019 0.906975 5.05184 0.753244 4.67952C0.599513 4.30721 0.520645 3.90825 0.521244 3.50544C0.520645 3.10264 0.599513 2.70367 0.753244 2.33136C0.906975 1.95905 1.13256 1.6207 1.41717 1.33566C1.70179 1.05063 2.03984 0.824502 2.41193 0.670219C2.78401 0.515935 3.18286 0.436523 3.58566 0.436523C4.39959 0.436523 5.18016 0.759854 5.7557 1.33539C6.33123 1.91092 6.65457 2.69152 6.65457 3.50544Z" fill="#ED1C24"/>
<path d="M22.4318 3.50544C22.4318 4.31937 22.1085 5.09996 21.533 5.6755C20.9574 6.25103 20.1768 6.57436 19.3629 6.57436C18.5489 6.57436 17.7684 6.25103 17.1928 5.6755C16.6173 5.09996 16.2939 4.31937 16.2939 3.50544C16.2939 2.69152 16.6173 1.91092 17.1928 1.33539C17.7684 0.759854 18.5489 0.436523 19.3629 0.436523C20.1768 0.436523 20.9574 0.759854 21.533 1.33539C22.1085 1.91092 22.4318 2.69152 22.4318 3.50544Z" fill="#ED1C24"/>
<path d="M38.2042 3.50544C38.2042 4.31937 37.881 5.09996 37.3054 5.6755C36.7299 6.25103 35.9493 6.57436 35.1353 6.57436C34.3214 6.57436 33.5408 6.25103 32.9653 5.6755C32.3897 5.09996 32.0664 4.31937 32.0664 3.50544C32.0664 2.69152 32.3897 1.91092 32.9653 1.33539C33.5408 0.759854 34.3214 0.436523 35.1353 0.436523C35.9493 0.436523 36.7299 0.759854 37.3054 1.33539C37.881 1.91092 38.2042 2.69152 38.2042 3.50544Z" fill="#ED1C24"/>
<path d="M53.977 3.50544C53.977 4.31937 53.6537 5.09996 53.0782 5.6755C52.5026 6.25103 51.722 6.57436 50.9081 6.57436C50.5053 6.57437 50.1065 6.49495 49.7344 6.34067C49.3623 6.18638 49.0243 5.96026 48.7397 5.67522C48.4551 5.39019 48.2294 5.05184 48.0757 4.67952C47.922 4.30721 47.8432 3.90825 47.8438 3.50544C47.8432 3.10264 47.922 2.70367 48.0757 2.33136C48.2294 1.95905 48.4551 1.6207 48.7397 1.33566C49.0243 1.05063 49.3623 0.824502 49.7344 0.670219C50.1065 0.515935 50.5053 0.436523 50.9081 0.436523C51.722 0.436523 52.5026 0.759854 53.0782 1.33539C53.6537 1.91092 53.977 2.69152 53.977 3.50544Z" fill="#ED1C24"/>
<path d="M69.7496 3.50564C69.7472 4.3172 69.4234 5.09477 68.8491 5.6682C68.2748 6.24164 67.4968 6.56425 66.6852 6.56545C66.2824 6.56545 65.8836 6.48604 65.5115 6.33176C65.1394 6.17747 64.8014 5.95135 64.5168 5.66631C64.2322 5.38128 64.0065 5.04293 63.8528 4.67061C63.6991 4.2983 63.6203 3.89933 63.6209 3.49653C63.6203 3.09373 63.6991 2.69476 63.8528 2.32245C64.0065 1.95014 64.2322 1.61179 64.5168 1.32675C64.8014 1.04172 65.1394 0.815591 65.5115 0.661308C65.8836 0.507024 66.2824 0.427612 66.6852 0.427612C67.0886 0.428209 67.4879 0.508331 67.8603 0.663396C68.2327 0.81846 68.5709 1.04542 68.8555 1.33131C69.1401 1.61719 69.3656 1.95638 69.519 2.32947C69.6724 2.70256 69.7508 3.10224 69.7496 3.50564Z" fill="#ED1C24"/>
<path d="M6.65449 19.2783C6.65449 19.8852 6.47446 20.4786 6.13724 20.9833C5.80002 21.488 5.32074 21.8813 4.75997 22.1136C4.19919 22.3459 3.58215 22.4066 2.98684 22.2882C2.39153 22.1698 1.84467 21.8775 1.41547 21.4483C0.986278 21.0191 0.693986 20.4723 0.575571 19.877C0.457156 19.2817 0.517931 18.6646 0.750211 18.1038C0.98249 17.5431 1.37585 17.0638 1.88053 16.7266C2.38521 16.3893 2.9786 16.2094 3.58557 16.2094C4.3995 16.2094 5.18008 16.5327 5.75561 17.1082C6.33115 17.6838 6.65449 18.4643 6.65449 19.2783Z" fill="#ED1C24"/>
<path d="M22.4318 19.2783C22.4318 19.8852 22.2518 20.4786 21.9146 20.9833C21.5774 21.488 21.0981 21.8813 20.5373 22.1136C19.9765 22.3459 19.3595 22.4066 18.7642 22.2882C18.1689 22.1698 17.622 21.8775 17.1928 21.4483C16.7636 21.0191 16.4713 20.4723 16.3529 19.877C16.2345 19.2817 16.2953 18.6646 16.5276 18.1038C16.7598 17.5431 17.1532 17.0638 17.6579 16.7266C18.1626 16.3893 18.7559 16.2094 19.3629 16.2094C20.1768 16.2094 20.9574 16.5327 21.533 17.1082C22.1085 17.6838 22.4318 18.4643 22.4318 19.2783Z" fill="#ED1C24"/>
<path d="M38.2042 19.2783C38.2042 19.8852 38.0243 20.4786 37.687 20.9833C37.3498 21.488 36.8705 21.8813 36.3098 22.1136C35.749 22.3459 35.132 22.4066 34.5366 22.2882C33.9413 22.1698 33.3945 21.8775 32.9653 21.4483C32.5361 21.0191 32.2438 20.4723 32.1254 19.877C32.007 19.2817 32.0677 18.6646 32.3 18.1038C32.5323 17.5431 32.9257 17.0638 33.4303 16.7266C33.935 16.3893 34.5283 16.2094 35.1353 16.2094C35.9492 16.2094 36.7299 16.5327 37.3054 17.1082C37.8809 17.6838 38.2042 18.4643 38.2042 19.2783Z" fill="#ED1C24"/>
<path d="M53.9769 19.2783C53.9769 19.8852 53.797 20.4786 53.4597 20.9833C53.1225 21.488 52.6432 21.8813 52.0825 22.1136C51.5217 22.3459 50.9046 22.4066 50.3093 22.2882C49.714 22.1698 49.1672 21.8775 48.738 21.4483C48.3088 21.0191 48.0165 20.4723 47.8981 19.877C47.7797 19.2817 47.8404 18.6646 48.0727 18.1038C48.305 17.5431 48.6984 17.0638 49.203 16.7266C49.7077 16.3893 50.301 16.2094 50.908 16.2094C51.722 16.2094 52.5025 16.5327 53.0781 17.1082C53.6536 17.6838 53.9769 18.4643 53.9769 19.2783Z" fill="#ED1C24"/>
<path d="M69.7497 19.2783C69.7497 19.8854 69.5695 20.479 69.2321 20.9837C68.8947 21.4885 68.4152 21.8819 67.8541 22.114C67.2931 22.3462 66.6758 22.4067 66.0803 22.2879C65.4849 22.1691 64.9381 21.8764 64.5091 21.4467C64.0801 21.0171 63.7881 20.4698 63.6702 19.8742C63.5523 19.2786 63.6137 18.6614 63.8467 18.1007C64.0797 17.54 64.4738 17.061 64.979 16.7243C65.4843 16.3877 66.0781 16.2085 66.6853 16.2094C67.4984 16.2106 68.2778 16.5344 68.8524 17.1098C69.4269 17.6852 69.7497 18.4651 69.7497 19.2783Z" fill="#ED1C24"/>
<path d="M6.65449 35.0504C6.65449 35.6573 6.47446 36.2507 6.13724 36.7554C5.80002 37.26 5.32074 37.6534 4.75997 37.8857C4.19919 38.118 3.58215 38.1787 2.98684 38.0603C2.39153 37.9419 1.84467 37.6496 1.41547 37.2204C0.986278 36.7912 0.693986 36.2444 0.575571 35.6491C0.457156 35.0538 0.517931 34.4367 0.750211 33.8759C0.98249 33.3152 1.37585 32.8359 1.88053 32.4987C2.38521 32.1614 2.9786 31.9814 3.58557 31.9814C4.3995 31.9814 5.18008 32.3048 5.75561 32.8803C6.33115 33.4558 6.65449 34.2364 6.65449 35.0504Z" fill="#ED1C24"/>
<path d="M22.4318 35.0504C22.4318 35.6573 22.2518 36.2507 21.9146 36.7554C21.5774 37.26 21.0981 37.6534 20.5373 37.8857C19.9765 38.118 19.3595 38.1787 18.7642 38.0603C18.1689 37.9419 17.622 37.6496 17.1928 37.2204C16.7636 36.7912 16.4713 36.2444 16.3529 35.6491C16.2345 35.0538 16.2953 34.4367 16.5276 33.8759C16.7598 33.3152 17.1532 32.8359 17.6579 32.4987C18.1626 32.1614 18.7559 31.9814 19.3629 31.9814C20.1768 31.9814 20.9574 32.3048 21.533 32.8803C22.1085 33.4558 22.4318 34.2364 22.4318 35.0504Z" fill="#ED1C24"/>
<path d="M38.2042 35.0504C38.2042 35.6573 38.0243 36.2507 37.687 36.7554C37.3498 37.26 36.8705 37.6534 36.3098 37.8857C35.749 38.118 35.132 38.1787 34.5366 38.0603C33.9413 37.9419 33.3945 37.6496 32.9653 37.2204C32.5361 36.7912 32.2438 36.2444 32.1254 35.6491C32.007 35.0538 32.0677 34.4367 32.3 33.8759C32.5323 33.3152 32.9257 32.8359 33.4303 32.4987C33.935 32.1614 34.5283 31.9814 35.1353 31.9814C35.9492 31.9814 36.7299 32.3048 37.3054 32.8803C37.8809 33.4558 38.2042 34.2364 38.2042 35.0504Z" fill="#ED1C24"/>
<path d="M53.9769 35.0504C53.9769 35.6573 53.797 36.2507 53.4597 36.7554C53.1225 37.26 52.6432 37.6534 52.0825 37.8857C51.5217 38.118 50.9046 38.1787 50.3093 38.0603C49.714 37.9419 49.1672 37.6496 48.738 37.2204C48.3088 36.7912 48.0165 36.2444 47.8981 35.6491C47.7797 35.0538 47.8404 34.4367 48.0727 33.8759C48.305 33.3152 48.6984 32.8359 49.203 32.4987C49.7077 32.1614 50.301 31.9814 50.908 31.9814C51.722 31.9814 52.5025 32.3048 53.0781 32.8803C53.6536 33.4558 53.9769 34.2364 53.9769 35.0504Z" fill="#ED1C24"/>
<path d="M69.7496 35.0504C69.7496 35.6573 69.5697 36.2507 69.2325 36.7554C68.8952 37.26 68.416 37.6534 67.8552 37.8857C67.2944 38.118 66.6773 38.1787 66.082 38.0603C65.4867 37.9419 64.9399 37.6496 64.5107 37.2204C64.0815 36.7912 63.7892 36.2444 63.6708 35.6491C63.5524 35.0538 63.6131 34.4367 63.8454 33.8759C64.0777 33.3152 64.4711 32.8359 64.9757 32.4987C65.4804 32.1614 66.0738 31.9814 66.6807 31.9814C67.4947 31.9814 68.2752 32.3048 68.8508 32.8803C69.4263 33.4558 69.7496 34.2364 69.7496 35.0504Z" fill="#ED1C24"/>
<path d="M6.65443 50.8232C6.65533 51.4303 6.47608 52.0241 6.13941 52.5294C5.80274 53.0347 5.32377 53.4287 4.76308 53.6617C4.20239 53.8947 3.58518 53.9561 2.98956 53.8382C2.39395 53.7203 1.84668 53.4284 1.41703 52.9994C0.987381 52.5704 0.694692 52.0235 0.575907 51.4281C0.457123 50.8327 0.517624 50.2154 0.749769 49.6543C0.981913 49.0933 1.37525 48.6137 1.88003 48.2763C2.38481 47.9389 2.97835 47.7588 3.58552 47.7588C4.39866 47.7588 5.17854 48.0815 5.75395 48.656C6.32935 49.2306 6.65323 50.01 6.65443 50.8232Z" fill="#ED1C24"/>
<path d="M22.4318 50.8232C22.4327 51.4303 22.2535 52.0241 21.9168 52.5294C21.5801 53.0347 21.1012 53.4287 20.5405 53.6617C19.9798 53.8947 19.3626 53.9561 18.767 53.8382C18.1714 53.7203 17.6241 53.4284 17.1944 52.9994C16.7648 52.5704 16.472 52.0235 16.3533 51.4281C16.2345 50.8327 16.295 50.2154 16.5271 49.6543C16.7593 49.0933 17.1527 48.6137 17.6574 48.2763C18.1622 47.9389 18.7557 47.7588 19.3629 47.7588C20.176 47.7588 20.9559 48.0815 21.5313 48.656C22.1067 49.2306 22.4306 50.01 22.4318 50.8232Z" fill="#ED1C24"/>
<path d="M38.2042 50.8232C38.2051 51.4303 38.0259 52.0241 37.6893 52.5294C37.3526 53.0347 36.8736 53.4287 36.3129 53.6617C35.7523 53.8947 35.135 53.9561 34.5394 53.8382C33.9438 53.7203 33.3965 53.4284 32.9669 52.9994C32.5372 52.5704 32.2445 52.0235 32.1257 51.4281C32.0069 50.8327 32.0674 50.2154 32.2996 49.6543C32.5317 49.0933 32.9251 48.6137 33.4299 48.2763C33.9347 47.9389 34.5282 47.7588 35.1353 47.7588C35.9485 47.7588 36.7284 48.0815 37.3038 48.656C37.8792 49.2306 38.203 50.01 38.2042 50.8232Z" fill="#ED1C24"/>
<path d="M53.9769 50.8232C53.9778 51.4303 53.7986 52.0241 53.462 52.5294C53.1253 53.0347 52.6463 53.4287 52.0856 53.6617C51.525 53.8947 50.9077 53.9561 50.3121 53.8382C49.7165 53.7203 49.1693 53.4284 48.7396 52.9994C48.3099 52.5704 48.0172 52.0235 47.8984 51.4281C47.7796 50.8327 47.8401 50.2154 48.0723 49.6543C48.3044 49.0933 48.6978 48.6137 49.2025 48.2763C49.7073 47.9389 50.3009 47.7588 50.908 47.7588C51.7212 47.7588 52.5011 48.0815 53.0765 48.656C53.6519 49.2306 53.9757 50.01 53.9769 50.8232Z" fill="#ED1C24"/>
<path d="M69.7496 50.8232C69.7505 51.4303 69.5713 52.0241 69.2347 52.5294C68.898 53.0347 68.419 53.4287 67.8583 53.6617C67.2976 53.8947 66.6804 53.9561 66.0848 53.8382C65.4892 53.7203 64.942 53.4284 64.5123 52.9994C64.0827 52.5704 63.7899 52.0235 63.6711 51.4281C63.5523 50.8327 63.6128 50.2154 63.845 49.6543C64.0771 49.0933 64.4705 48.6137 64.9752 48.2763C65.48 47.9389 66.0736 47.7588 66.6807 47.7588C67.4939 47.7588 68.2738 48.0815 68.8492 48.656C69.4246 49.2306 69.7484 50.01 69.7496 50.8232Z" fill="#ED1C24"/>
<path d="M6.65449 66.6005C6.65449 67.2075 6.47446 67.8009 6.13724 68.3055C5.80002 68.8102 5.32074 69.2036 4.75997 69.4359C4.19919 69.6681 3.58215 69.7289 2.98684 69.6105C2.39153 69.4921 1.84467 69.1998 1.41547 68.7706C0.986278 68.3414 0.693986 67.7946 0.575571 67.1993C0.457156 66.6039 0.517931 65.9869 0.750211 65.4261C0.98249 64.8653 1.37585 64.386 1.88053 64.0488C2.38521 63.7116 2.9786 63.5316 3.58557 63.5316C3.98876 63.531 4.38808 63.61 4.76069 63.764C5.1333 63.918 5.47185 64.1441 5.75695 64.4291C6.04204 64.7142 6.26808 65.0528 6.4221 65.4254C6.57611 65.798 6.65509 66.1974 6.65449 66.6005Z" fill="#ED1C24"/>
<path d="M22.4318 66.6005C22.4318 67.2075 22.2518 67.8009 21.9146 68.3055C21.5774 68.8102 21.0981 69.2036 20.5373 69.4359C19.9765 69.6681 19.3595 69.7289 18.7642 69.6105C18.1689 69.4921 17.622 69.1998 17.1928 68.7706C16.7636 68.3414 16.4713 67.7946 16.3529 67.1993C16.2345 66.6039 16.2953 65.9869 16.5276 65.4261C16.7598 64.8653 17.1532 64.386 17.6579 64.0488C18.1626 63.7116 18.7559 63.5316 19.3629 63.5316C19.766 63.531 20.1654 63.61 20.538 63.764C20.9106 63.918 21.2492 64.1441 21.5343 64.4291C21.8194 64.7142 22.0454 65.0528 22.1994 65.4254C22.3535 65.798 22.4324 66.1974 22.4318 66.6005Z" fill="#ED1C24"/>
<path d="M38.2042 66.6005C38.2042 67.2075 38.0243 67.8009 37.687 68.3055C37.3498 68.8102 36.8705 69.2036 36.3098 69.4359C35.749 69.6681 35.132 69.7289 34.5366 69.6105C33.9413 69.4921 33.3945 69.1998 32.9653 68.7706C32.5361 68.3414 32.2438 67.7946 32.1254 67.1993C32.007 66.6039 32.0677 65.9869 32.3 65.4261C32.5323 64.8653 32.9257 64.386 33.4303 64.0488C33.935 63.7116 34.5283 63.5316 35.1353 63.5316C35.5385 63.531 35.9379 63.61 36.3105 63.764C36.6831 63.918 37.0217 64.1441 37.3067 64.4291C37.5918 64.7142 37.8178 65.0528 37.9718 65.4254C38.1259 65.798 38.2048 66.1974 38.2042 66.6005Z" fill="#ED1C24"/>
<path d="M53.9769 66.6005C53.9769 67.2075 53.797 67.8009 53.4597 68.3055C53.1225 68.8102 52.6432 69.2036 52.0825 69.4359C51.5217 69.6681 50.9046 69.7289 50.3093 69.6105C49.714 69.4921 49.1672 69.1998 48.738 68.7706C48.3088 68.3414 48.0165 67.7946 47.8981 67.1993C47.7797 66.6039 47.8404 65.9869 48.0727 65.4261C48.305 64.8653 48.6984 64.386 49.203 64.0488C49.7077 63.7116 50.301 63.5316 50.908 63.5316C51.3112 63.531 51.7105 63.61 52.0831 63.764C52.4558 63.918 52.7944 64.1441 53.0795 64.4291C53.3646 64.7142 53.5905 65.0528 53.7446 65.4254C53.8986 65.798 53.9775 66.1974 53.9769 66.6005Z" fill="#ED1C24"/>
<path d="M69.7496 66.6005C69.7496 67.2075 69.5697 67.8009 69.2325 68.3055C68.8952 68.8102 68.416 69.2036 67.8552 69.4359C67.2944 69.6681 66.6773 69.7289 66.082 69.6105C65.4867 69.4921 64.9399 69.1998 64.5107 68.7706C64.0815 68.3414 63.7892 67.7946 63.6708 67.1993C63.5524 66.6039 63.6131 65.9869 63.8454 65.4261C64.0777 64.8653 64.4711 64.386 64.9757 64.0488C65.4804 63.7116 66.0738 63.5316 66.6807 63.5316C67.0839 63.531 67.4832 63.61 67.8558 63.764C68.2285 63.918 68.567 64.1441 68.8521 64.4291C69.1372 64.7142 69.3632 65.0528 69.5173 65.4254C69.6713 65.798 69.7502 66.1974 69.7496 66.6005Z" fill="#ED1C24"/>
<path d="M6.65449 82.3726C6.65449 82.9796 6.47446 83.573 6.13724 84.0776C5.80002 84.5823 5.32074 84.9757 4.75997 85.2079C4.19919 85.4402 3.58215 85.501 2.98684 85.3826C2.39153 85.2642 1.84467 84.9719 1.41547 84.5427C0.986278 84.1135 0.693986 83.5667 0.575571 82.9714C0.457156 82.376 0.517931 81.759 0.750211 81.1982C0.98249 80.6374 1.37585 80.1581 1.88053 79.8209C2.38521 79.4837 2.9786 79.3037 3.58557 79.3037C4.3995 79.3037 5.18008 79.627 5.75561 80.2026C6.33115 80.7781 6.65449 81.5587 6.65449 82.3726Z" fill="#ED1C24"/>
<path d="M22.4318 82.3726C22.4318 82.9796 22.2518 83.573 21.9146 84.0776C21.5774 84.5823 21.0981 84.9757 20.5373 85.2079C19.9765 85.4402 19.3595 85.501 18.7642 85.3826C18.1689 85.2642 17.622 84.9719 17.1928 84.5427C16.7636 84.1135 16.4713 83.5667 16.3529 82.9714C16.2345 82.376 16.2953 81.759 16.5276 81.1982C16.7598 80.6374 17.1532 80.1581 17.6579 79.8209C18.1626 79.4837 18.7559 79.3037 19.3629 79.3037C20.1768 79.3037 20.9574 79.627 21.533 80.2026C22.1085 80.7781 22.4318 81.5587 22.4318 82.3726Z" fill="#ED1C24"/>
<path d="M38.2042 82.3726C38.2042 82.9796 38.0243 83.573 37.687 84.0776C37.3498 84.5823 36.8705 84.9757 36.3098 85.2079C35.749 85.4402 35.132 85.501 34.5366 85.3826C33.9413 85.2642 33.3945 84.9719 32.9653 84.5427C32.5361 84.1135 32.2438 83.5667 32.1254 82.9714C32.007 82.376 32.0677 81.759 32.3 81.1982C32.5323 80.6374 32.9257 80.1581 33.4303 79.8209C33.935 79.4837 34.5283 79.3037 35.1353 79.3037C35.9492 79.3037 36.7299 79.627 37.3054 80.2026C37.8809 80.7781 38.2042 81.5587 38.2042 82.3726Z" fill="#ED1C24"/>
<path d="M53.9769 82.3726C53.9769 82.9796 53.797 83.573 53.4597 84.0776C53.1225 84.5823 52.6432 84.9757 52.0825 85.2079C51.5217 85.4402 50.9046 85.501 50.3093 85.3826C49.714 85.2642 49.1672 84.9719 48.738 84.5427C48.3088 84.1135 48.0165 83.5667 47.8981 82.9714C47.7797 82.376 47.8404 81.759 48.0727 81.1982C48.305 80.6374 48.6984 80.1581 49.203 79.8209C49.7077 79.4837 50.301 79.3037 50.908 79.3037C51.722 79.3037 52.5025 79.627 53.0781 80.2026C53.6536 80.7781 53.9769 81.5587 53.9769 82.3726Z" fill="#ED1C24"/>
<path d="M69.7496 82.3726C69.7496 82.9796 69.5697 83.573 69.2325 84.0776C68.8952 84.5823 68.416 84.9757 67.8552 85.2079C67.2944 85.4402 66.6773 85.501 66.082 85.3826C65.4867 85.2642 64.9399 84.9719 64.5107 84.5427C64.0815 84.1135 63.7892 83.5667 63.6708 82.9714C63.5524 82.376 63.6131 81.759 63.8454 81.1982C64.0777 80.6374 64.4711 80.1581 64.9757 79.8209C65.4804 79.4837 66.0738 79.3037 66.6807 79.3037C67.4947 79.3037 68.2752 79.627 68.8508 80.2026C69.4263 80.7781 69.7496 81.5587 69.7496 82.3726Z" fill="#ED1C24"/>
</svg>
