<svg width="77" height="86" viewBox="0 0 77 86" fill="none" xmlns="http://www.w3.org/2000/svg">
<path d="M12.9929 4.06392C12.9929 4.87784 12.6695 5.65844 12.094 6.23397C11.5185 6.8095 10.7378 7.13284 9.9239 7.13284C9.10997 7.13284 8.32939 6.8095 7.75386 6.23397C7.17832 5.65844 6.85498 4.87784 6.85498 4.06392C6.85498 3.24999 7.17832 2.46939 7.75386 1.89386C8.32939 1.31833 9.10997 0.994995 9.9239 0.994995C10.7378 0.994995 11.5185 1.31833 12.094 1.89386C12.6695 2.46939 12.9929 3.24999 12.9929 4.06392Z" fill="#21409A"/>
<path d="M28.7653 4.06392C28.7653 4.87784 28.442 5.65844 27.8665 6.23397C27.2909 6.8095 26.5103 7.13284 25.6964 7.13284C24.8824 7.13284 24.1019 6.8095 23.5263 6.23397C22.9508 5.65844 22.6274 4.87784 22.6274 4.06392C22.6274 3.24999 22.9508 2.46939 23.5263 1.89386C24.1019 1.31833 24.8824 0.994995 25.6964 0.994995C26.5103 0.994995 27.2909 1.31833 27.8665 1.89386C28.442 2.46939 28.7653 3.24999 28.7653 4.06392Z" fill="#21409A"/>
<path d="M44.5381 4.06392C44.5381 4.87784 44.2147 5.65844 43.6392 6.23397C43.0637 6.8095 42.2831 7.13284 41.4691 7.13284C41.0663 7.13284 40.6675 7.05342 40.2954 6.89914C39.9233 6.74486 39.5853 6.51873 39.3007 6.23369C39.0161 5.94866 38.7905 5.61031 38.6367 5.238C38.483 4.86568 38.4042 4.46672 38.4048 4.06392C38.4042 3.66111 38.483 3.26215 38.6367 2.88983C38.7905 2.51752 39.0161 2.17917 39.3007 1.89414C39.5853 1.6091 39.9233 1.38297 40.2954 1.22869C40.6675 1.07441 41.0663 0.994995 41.4691 0.994995C42.2831 0.994995 43.0637 1.31833 43.6392 1.89386C44.2147 2.46939 44.5381 3.24999 44.5381 4.06392Z" fill="#21409A"/>
<path d="M60.3108 4.06411C60.3084 4.87567 59.9847 5.65324 59.4104 6.22668C58.8361 6.80011 58.0581 7.12272 57.2465 7.12393C56.8437 7.12393 56.4448 7.04451 56.0728 6.89023C55.7007 6.73595 55.3627 6.50982 55.0781 6.22478C54.7934 5.93975 54.5678 5.6014 54.4141 5.22908C54.2603 4.85677 54.1815 4.45781 54.1821 4.055C54.1815 3.6522 54.2603 3.25324 54.4141 2.88092C54.5678 2.50861 54.7934 2.17026 55.0781 1.88523C55.3627 1.60019 55.7007 1.37406 56.0728 1.21978C56.4448 1.0655 56.8437 0.986084 57.2465 0.986084C57.6499 0.986681 58.0492 1.0668 58.4216 1.22187C58.794 1.37693 59.1322 1.6039 59.4168 1.88978C59.7014 2.17566 59.9269 2.51485 60.0803 2.88794C60.2337 3.26103 60.312 3.66071 60.3108 4.06411Z" fill="#21409A"/>
<path d="M76.0875 4.06392C76.0875 4.87784 75.7642 5.65844 75.1887 6.23397C74.6131 6.8095 73.8326 7.13284 73.0186 7.13284C72.2047 7.13284 71.4241 6.8095 70.8486 6.23397C70.273 5.65844 69.9497 4.87784 69.9497 4.06392C69.9497 3.24999 70.273 2.46939 70.8486 1.89386C71.4241 1.31833 72.2047 0.994995 73.0186 0.994995C73.8326 0.994995 74.6131 1.31833 75.1887 1.89386C75.7642 2.46939 76.0875 3.24999 76.0875 4.06392Z" fill="#21409A"/>
<path d="M12.9929 19.8367C12.9929 20.4437 12.8128 21.0371 12.4756 21.5417C12.1384 22.0464 11.6591 22.4398 11.0983 22.6721C10.5376 22.9043 9.92053 22.9651 9.32522 22.8467C8.72991 22.7283 8.18305 22.436 7.75385 22.0068C7.32466 21.5776 7.03237 21.0308 6.91395 20.4355C6.79554 19.8401 6.85631 19.2231 7.08859 18.6623C7.32087 18.1015 7.71423 17.6222 8.21891 17.285C8.72359 16.9478 9.31692 16.7678 9.92389 16.7678C10.7378 16.7678 11.5185 17.0912 12.094 17.6667C12.6695 18.2422 12.9929 19.0228 12.9929 19.8367Z" fill="#21409A"/>
<path d="M28.7653 19.8367C28.7653 20.4437 28.5853 21.0371 28.2481 21.5417C27.9109 22.0464 27.4316 22.4398 26.8708 22.6721C26.31 22.9043 25.693 22.9651 25.0977 22.8467C24.5024 22.7283 23.9555 22.436 23.5263 22.0068C23.0971 21.5776 22.8048 21.0308 22.6864 20.4355C22.568 19.8401 22.6288 19.2231 22.8611 18.6623C23.0933 18.1015 23.4867 17.6222 23.9914 17.285C24.4961 16.9478 25.0894 16.7678 25.6964 16.7678C26.5103 16.7678 27.2909 17.0912 27.8665 17.6667C28.442 18.2422 28.7653 19.0228 28.7653 19.8367Z" fill="#21409A"/>
<path d="M44.5377 19.8367C44.5377 20.4437 44.3578 21.0371 44.0205 21.5417C43.6833 22.0464 43.204 22.4398 42.6433 22.6721C42.0825 22.9043 41.4654 22.9651 40.8701 22.8467C40.2748 22.7283 39.728 22.436 39.2988 22.0068C38.8696 21.5776 38.5773 21.0308 38.4589 20.4355C38.3405 19.8401 38.4012 19.2231 38.6335 18.6623C38.8658 18.1015 39.2591 17.6222 39.7638 17.285C40.2685 16.9478 40.8618 16.7678 41.4688 16.7678C42.2827 16.7678 43.0633 17.0912 43.6389 17.6667C44.2144 18.2422 44.5377 19.0228 44.5377 19.8367Z" fill="#21409A"/>
<path d="M60.3107 19.8367C60.3107 20.4439 60.1306 21.0374 59.7932 21.5422C59.4557 22.047 58.9762 22.4403 58.4152 22.6725C57.8541 22.9046 57.2368 22.9651 56.6414 22.8464C56.0459 22.7276 55.4991 22.4348 55.0701 22.0052C54.6411 21.5755 54.3492 21.0283 54.2313 20.4327C54.1134 19.8371 54.1748 19.2199 54.4077 18.6592C54.6407 18.0985 55.0348 17.6195 55.5401 17.2828C56.0453 16.9461 56.6392 16.7669 57.2463 16.7678C58.0595 16.769 58.8389 17.0929 59.4134 17.6683C59.988 18.2437 60.3107 19.0236 60.3107 19.8367Z" fill="#21409A"/>
<path d="M76.0875 19.8367C76.0875 20.4437 75.9076 21.0371 75.5703 21.5417C75.2331 22.0464 74.7538 22.4398 74.193 22.6721C73.6322 22.9043 73.0152 22.9651 72.4199 22.8467C71.8246 22.7283 71.2778 22.436 70.8486 22.0068C70.4194 21.5776 70.1271 21.0308 70.0087 20.4355C69.8903 19.8401 69.951 19.2231 70.1833 18.6623C70.4156 18.1015 70.809 17.6222 71.3136 17.285C71.8183 16.9478 72.4116 16.7678 73.0186 16.7678C73.8325 16.7678 74.6131 17.0912 75.1887 17.6667C75.7642 18.2422 76.0875 19.0228 76.0875 19.8367Z" fill="#21409A"/>
<path d="M12.9929 35.6088C12.9929 36.2158 12.8128 36.8092 12.4756 37.3138C12.1384 37.8185 11.6591 38.2119 11.0983 38.4442C10.5376 38.6764 9.92053 38.7372 9.32522 38.6188C8.72991 38.5004 8.18305 38.2081 7.75385 37.7789C7.32466 37.3497 7.03237 36.8029 6.91395 36.2076C6.79554 35.6122 6.85631 34.9952 7.08859 34.4344C7.32087 33.8736 7.71423 33.3943 8.21891 33.0571C8.72359 32.7199 9.31692 32.5399 9.92389 32.5399C10.7378 32.5399 11.5185 32.8632 12.094 33.4388C12.6695 34.0143 12.9929 34.7949 12.9929 35.6088Z" fill="#21409A"/>
<path d="M28.7653 35.6088C28.7653 36.2158 28.5853 36.8092 28.2481 37.3138C27.9109 37.8185 27.4316 38.2119 26.8708 38.4442C26.31 38.6764 25.693 38.7372 25.0977 38.6188C24.5024 38.5004 23.9555 38.2081 23.5263 37.7789C23.0971 37.3497 22.8048 36.8029 22.6864 36.2076C22.568 35.6122 22.6288 34.9952 22.8611 34.4344C23.0933 33.8736 23.4867 33.3943 23.9914 33.0571C24.4961 32.7199 25.0894 32.5399 25.6964 32.5399C26.5103 32.5399 27.2909 32.8632 27.8665 33.4388C28.442 34.0143 28.7653 34.7949 28.7653 35.6088Z" fill="#21409A"/>
<path d="M44.5377 35.6088C44.5377 36.2158 44.3578 36.8092 44.0205 37.3138C43.6833 37.8185 43.204 38.2119 42.6433 38.4442C42.0825 38.6764 41.4654 38.7372 40.8701 38.6188C40.2748 38.5004 39.728 38.2081 39.2988 37.7789C38.8696 37.3497 38.5773 36.8029 38.4589 36.2076C38.3405 35.6122 38.4012 34.9952 38.6335 34.4344C38.8658 33.8736 39.2591 33.3943 39.7638 33.0571C40.2685 32.7199 40.8618 32.5399 41.4688 32.5399C42.2827 32.5399 43.0633 32.8632 43.6389 33.4388C44.2144 34.0143 44.5377 34.7949 44.5377 35.6088Z" fill="#21409A"/>
<path d="M60.3107 35.6088C60.3107 36.2158 60.1307 36.8092 59.7935 37.3138C59.4563 37.8185 58.977 38.2119 58.4162 38.4442C57.8554 38.6764 57.2383 38.7372 56.643 38.6188C56.0477 38.5004 55.5009 38.2081 55.0717 37.7789C54.6425 37.3497 54.3502 36.8029 54.2318 36.2076C54.1134 35.6122 54.1742 34.9952 54.4065 34.4344C54.6387 33.8736 55.0321 33.3943 55.5368 33.0571C56.0415 32.7199 56.6348 32.5399 57.2418 32.5399C58.0557 32.5399 58.8363 32.8632 59.4118 33.4388C59.9873 34.0143 60.3107 34.7949 60.3107 35.6088Z" fill="#21409A"/>
<path d="M76.0875 35.6088C76.0875 36.2158 75.9076 36.8092 75.5703 37.3138C75.2331 37.8185 74.7538 38.2119 74.193 38.4442C73.6322 38.6764 73.0152 38.7372 72.4199 38.6188C71.8246 38.5004 71.2778 38.2081 70.8486 37.7789C70.4194 37.3497 70.1271 36.8029 70.0087 36.2076C69.8903 35.6122 69.951 34.9952 70.1833 34.4344C70.4156 33.8736 70.809 33.3943 71.3136 33.0571C71.8183 32.7199 72.4116 32.5399 73.0186 32.5399C73.8325 32.5399 74.6131 32.8632 75.1887 33.4388C75.7642 34.0143 76.0875 34.7949 76.0875 35.6088Z" fill="#21409A"/>
<path d="M12.9929 51.3816C12.9938 51.9888 12.8145 52.5826 12.4778 53.0879C12.1412 53.5931 11.6622 53.9872 11.1015 54.2202C10.5408 54.4532 9.92361 54.5146 9.328 54.3967C8.73239 54.2788 8.18512 53.9869 7.75547 53.5578C7.32582 53.1288 7.03307 52.582 6.91429 51.9866C6.7955 51.3911 6.856 50.7738 7.08815 50.2128C7.32029 49.6518 7.71369 49.1722 8.21847 48.8348C8.72325 48.4974 9.31673 48.3173 9.9239 48.3173C10.737 48.3173 11.517 48.64 12.0924 49.2145C12.6678 49.7891 12.9917 50.5685 12.9929 51.3816Z" fill="#21409A"/>
<path d="M28.7653 51.3816C28.7662 51.9888 28.587 52.5826 28.2503 53.0879C27.9136 53.5931 27.4347 53.9872 26.874 54.2202C26.3133 54.4532 25.6961 54.5146 25.1005 54.3967C24.5048 54.2788 23.9576 53.9869 23.5279 53.5578C23.0983 53.1288 22.8055 52.582 22.6867 51.9866C22.568 51.3911 22.6285 50.7738 22.8606 50.2128C23.0928 49.6518 23.4861 49.1722 23.9909 48.8348C24.4957 48.4974 25.0892 48.3173 25.6964 48.3173C26.5095 48.3173 27.2894 48.64 27.8648 49.2145C28.4402 49.7891 28.7641 50.5685 28.7653 51.3816Z" fill="#21409A"/>
<path d="M44.5377 51.3816C44.5386 51.9888 44.3594 52.5826 44.0228 53.0879C43.6861 53.5931 43.2071 53.9872 42.6464 54.2202C42.0857 54.4532 41.4685 54.5146 40.8729 54.3967C40.2773 54.2788 39.73 53.9869 39.3004 53.5578C38.8707 53.1288 38.578 52.582 38.4592 51.9866C38.3404 51.3911 38.4009 50.7738 38.6331 50.2128C38.8652 49.6518 39.2586 49.1722 39.7633 48.8348C40.2681 48.4974 40.8616 48.3173 41.4688 48.3173C42.282 48.3173 43.0619 48.64 43.6373 49.2145C44.2127 49.7891 44.5365 50.5685 44.5377 51.3816Z" fill="#21409A"/>
<path d="M60.3107 51.3816C60.3116 51.9888 60.1324 52.5826 59.7957 53.0879C59.459 53.5931 58.98 53.9872 58.4193 54.2202C57.8586 54.4532 57.2415 54.5146 56.6459 54.3967C56.0503 54.2788 55.503 53.9869 55.0733 53.5578C54.6437 53.1288 54.3509 52.582 54.2322 51.9866C54.1134 51.3911 54.1739 50.7738 54.406 50.2128C54.6382 49.6518 55.0315 49.1722 55.5363 48.8348C56.0411 48.4974 56.6346 48.3173 57.2418 48.3173C58.0549 48.3173 58.8348 48.64 59.4102 49.2145C59.9856 49.7891 60.3095 50.5685 60.3107 51.3816Z" fill="#21409A"/>
<path d="M76.0875 51.3816C76.0884 51.9888 75.9092 52.5826 75.5726 53.0879C75.2359 53.5931 74.7569 53.9872 74.1962 54.2202C73.6355 54.4532 73.0183 54.5146 72.4227 54.3967C71.8271 54.2788 71.2798 53.9869 70.8502 53.5578C70.4205 53.1288 70.1278 52.582 70.009 51.9866C69.8902 51.3911 69.9507 50.7738 70.1829 50.2128C70.415 49.6518 70.8084 49.1722 71.3131 48.8348C71.8179 48.4974 72.4115 48.3173 73.0186 48.3173C73.8318 48.3173 74.6116 48.64 75.1871 49.2145C75.7625 49.7891 76.0863 50.5685 76.0875 51.3816Z" fill="#21409A"/>
<path d="M12.9929 67.159C12.9929 67.766 12.8128 68.3593 12.4756 68.864C12.1384 69.3687 11.6591 69.762 11.0983 69.9943C10.5376 70.2266 9.92053 70.2874 9.32522 70.169C8.72991 70.0505 8.18305 69.7583 7.75385 69.3291C7.32466 68.8999 7.03237 68.353 6.91395 67.7577C6.79554 67.1624 6.85631 66.5454 7.08859 65.9846C7.32087 65.4238 7.71423 64.9445 8.21891 64.6073C8.72359 64.2701 9.31692 64.0901 9.92389 64.0901C10.3271 64.0895 10.7265 64.1685 11.0991 64.3225C11.4717 64.4765 11.8102 64.7025 12.0953 64.9876C12.3804 65.2727 12.6065 65.6113 12.7605 65.9839C12.9145 66.3565 12.9935 66.7558 12.9929 67.159Z" fill="#21409A"/>
<path d="M28.7653 67.159C28.7653 67.766 28.5853 68.3593 28.2481 68.864C27.9109 69.3687 27.4316 69.762 26.8708 69.9943C26.31 70.2266 25.693 70.2874 25.0977 70.169C24.5024 70.0505 23.9555 69.7583 23.5263 69.3291C23.0971 68.8999 22.8048 68.353 22.6864 67.7577C22.568 67.1624 22.6288 66.5454 22.8611 65.9846C23.0933 65.4238 23.4867 64.9445 23.9914 64.6073C24.4961 64.2701 25.0894 64.0901 25.6964 64.0901C26.0995 64.0895 26.4989 64.1685 26.8715 64.3225C27.2441 64.4765 27.5827 64.7025 27.8678 64.9876C28.1529 65.2727 28.3789 65.6113 28.5329 65.9839C28.6869 66.3565 28.7659 66.7558 28.7653 67.159Z" fill="#21409A"/>
<path d="M44.5377 67.159C44.5377 67.766 44.3578 68.3593 44.0205 68.864C43.6833 69.3687 43.204 69.762 42.6433 69.9943C42.0825 70.2266 41.4654 70.2874 40.8701 70.169C40.2748 70.0505 39.728 69.7583 39.2988 69.3291C38.8696 68.8999 38.5773 68.353 38.4589 67.7577C38.3405 67.1624 38.4012 66.5454 38.6335 65.9846C38.8658 65.4238 39.2591 64.9445 39.7638 64.6073C40.2685 64.2701 40.8618 64.0901 41.4688 64.0901C41.872 64.0895 42.2713 64.1685 42.6439 64.3225C43.0165 64.4765 43.3552 64.7025 43.6402 64.9876C43.9253 65.2727 44.1513 65.6113 44.3053 65.9839C44.4594 66.3565 44.5383 66.7558 44.5377 67.159Z" fill="#21409A"/>
<path d="M60.3107 67.159C60.3107 67.766 60.1307 68.3593 59.7935 68.864C59.4563 69.3687 58.977 69.762 58.4162 69.9943C57.8554 70.2266 57.2383 70.2874 56.643 70.169C56.0477 70.0505 55.5009 69.7583 55.0717 69.3291C54.6425 68.8999 54.3502 68.353 54.2318 67.7577C54.1134 67.1624 54.1742 66.5454 54.4065 65.9846C54.6387 65.4238 55.0321 64.9445 55.5368 64.6073C56.0415 64.2701 56.6348 64.0901 57.2418 64.0901C57.645 64.0895 58.0443 64.1685 58.4169 64.3225C58.7895 64.4765 59.128 64.7025 59.4131 64.9876C59.6982 65.2727 59.9243 65.6113 60.0783 65.9839C60.2323 66.3565 60.3113 66.7558 60.3107 67.159Z" fill="#21409A"/>
<path d="M76.0875 67.159C76.0875 67.766 75.9076 68.3593 75.5703 68.864C75.2331 69.3687 74.7538 69.762 74.193 69.9943C73.6322 70.2266 73.0152 70.2874 72.4199 70.169C71.8246 70.0505 71.2778 69.7583 70.8486 69.3291C70.4194 68.8999 70.1271 68.353 70.0087 67.7577C69.8903 67.1624 69.951 66.5454 70.1833 65.9846C70.4156 65.4238 70.809 64.9445 71.3136 64.6073C71.8183 64.2701 72.4116 64.0901 73.0186 64.0901C73.4218 64.0895 73.8211 64.1685 74.1937 64.3225C74.5663 64.4765 74.9049 64.7025 75.19 64.9876C75.4751 65.2727 75.7011 65.6113 75.8551 65.9839C76.0092 66.3565 76.0881 66.7558 76.0875 67.159Z" fill="#21409A"/>
<path d="M12.9929 82.9311C12.9929 83.5381 12.8128 84.1314 12.4756 84.6361C12.1384 85.1408 11.6591 85.5341 11.0983 85.7664C10.5376 85.9987 9.92053 86.0595 9.32522 85.9411C8.72991 85.8226 8.18305 85.5304 7.75385 85.1012C7.32466 84.672 7.03237 84.1251 6.91395 83.5298C6.79554 82.9345 6.85631 82.3175 7.08859 81.7567C7.32087 81.1959 7.71423 80.7166 8.21891 80.3794C8.72359 80.0422 9.31692 79.8622 9.92389 79.8622C10.7378 79.8622 11.5185 80.1855 12.094 80.7611C12.6695 81.3366 12.9929 82.1172 12.9929 82.9311Z" fill="#21409A"/>
<path d="M28.7653 82.9311C28.7653 83.5381 28.5853 84.1314 28.2481 84.6361C27.9109 85.1408 27.4316 85.5341 26.8708 85.7664C26.31 85.9987 25.693 86.0595 25.0977 85.9411C24.5024 85.8226 23.9555 85.5304 23.5263 85.1012C23.0971 84.672 22.8048 84.1251 22.6864 83.5298C22.568 82.9345 22.6288 82.3175 22.8611 81.7567C23.0933 81.1959 23.4867 80.7166 23.9914 80.3794C24.4961 80.0422 25.0894 79.8622 25.6964 79.8622C26.5103 79.8622 27.2909 80.1855 27.8665 80.7611C28.442 81.3366 28.7653 82.1172 28.7653 82.9311Z" fill="#21409A"/>
<path d="M44.5377 82.9311C44.5377 83.5381 44.3578 84.1314 44.0205 84.6361C43.6833 85.1408 43.204 85.5341 42.6433 85.7664C42.0825 85.9987 41.4654 86.0595 40.8701 85.9411C40.2748 85.8226 39.728 85.5304 39.2988 85.1012C38.8696 84.672 38.5773 84.1251 38.4589 83.5298C38.3405 82.9345 38.4012 82.3175 38.6335 81.7567C38.8658 81.1959 39.2591 80.7166 39.7638 80.3794C40.2685 80.0422 40.8618 79.8622 41.4688 79.8622C42.2827 79.8622 43.0633 80.1855 43.6389 80.7611C44.2144 81.3366 44.5377 82.1172 44.5377 82.9311Z" fill="#21409A"/>
<path d="M60.3107 82.9311C60.3107 83.5381 60.1307 84.1314 59.7935 84.6361C59.4563 85.1408 58.977 85.5341 58.4162 85.7664C57.8554 85.9987 57.2383 86.0595 56.643 85.9411C56.0477 85.8226 55.5009 85.5304 55.0717 85.1012C54.6425 84.672 54.3502 84.1251 54.2318 83.5298C54.1134 82.9345 54.1742 82.3175 54.4065 81.7567C54.6387 81.1959 55.0321 80.7166 55.5368 80.3794C56.0415 80.0422 56.6348 79.8622 57.2418 79.8622C58.0557 79.8622 58.8363 80.1855 59.4118 80.7611C59.9873 81.3366 60.3107 82.1172 60.3107 82.9311Z" fill="#21409A"/>
<path d="M76.0875 82.9311C76.0875 83.5381 75.9076 84.1314 75.5703 84.6361C75.2331 85.1408 74.7538 85.5341 74.193 85.7664C73.6322 85.9987 73.0152 86.0595 72.4199 85.9411C71.8246 85.8226 71.2778 85.5304 70.8486 85.1012C70.4194 84.672 70.1271 84.1251 70.0087 83.5298C69.8903 82.9345 69.951 82.3175 70.1833 81.7567C70.4156 81.1959 70.809 80.7166 71.3136 80.3794C71.8183 80.0422 72.4116 79.8622 73.0186 79.8622C73.8325 79.8622 74.6131 80.1855 75.1887 80.7611C75.7642 81.3366 76.0875 82.1172 76.0875 82.9311Z" fill="#21409A"/>
</svg>
