<svg width="267" height="287" viewBox="0 0 267 287" fill="none" xmlns="http://www.w3.org/2000/svg">
<path d="M64.3271 1.87468C70.9002 3.33717 77.2335 5.72158 83.1389 8.95713C88.7936 11.9968 93.8614 16.0198 98.1045 20.8374C102.164 25.4717 105.178 30.9264 106.939 36.83C108.736 43.1495 108.867 49.8264 107.32 56.2116C106.299 61.274 104.293 66.0867 101.418 70.3765C98.7921 74.0448 95.6643 77.3261 92.1259 80.1244C88.6509 82.8222 84.9424 85.2052 81.0445 87.2449L70.0773 93.0708C66.7735 94.7937 63.6373 96.8206 60.7094 99.1251C58.0605 101.157 56.0299 103.886 54.8451 107.007C54.2649 108.433 53.3031 109.671 52.0652 110.587C51.4796 111.042 50.7979 111.357 50.072 111.509C49.3462 111.66 48.5952 111.645 47.8763 111.462L31.7302 107.883C30.9528 107.72 30.2155 107.404 29.5617 106.953C28.9079 106.501 28.3505 105.925 27.9222 105.256C27.4663 104.634 27.1633 103.913 27.0376 103.153C26.9119 102.392 26.9671 101.612 27.1986 100.877C28.4986 95.8767 30.7907 91.189 33.9388 87.0926C36.8112 83.469 40.139 80.2311 43.8398 77.4589C47.4456 74.8198 51.2671 72.4888 55.264 70.4907C59.072 68.5487 62.88 66.6829 66.193 64.8171C69.275 63.1608 72.1726 61.1824 74.8373 58.9151C77.1754 56.9578 78.7964 54.2788 79.4451 51.2995C80.0508 48.7125 80.0208 46.0172 79.3577 43.4443C78.6945 40.8714 77.4179 38.4974 75.637 36.5254C71.1844 31.664 65.2321 28.4334 58.7293 27.3487C46.6959 24.6832 36.5411 28.7322 28.2649 39.4955C27.4658 40.6703 26.4593 41.6897 25.2946 42.5036C23.98 43.1551 22.4621 43.2645 21.0677 42.8082L3.89333 39.0004C2.66831 38.7638 1.58679 38.0519 0.884993 37.0204C0.510251 36.4693 0.258454 35.844 0.146753 35.187C0.0350529 34.53 0.0660715 33.8566 0.237632 33.2126C1.69724 27.9215 4.41472 23.0618 8.15838 19.0477C12.3804 14.3926 17.3962 10.5247 22.9717 7.62442C29.068 4.43502 35.6387 2.24924 42.4308 1.15121C49.7073 -0.0322866 57.1447 0.213447 64.3271 1.87468ZM46.0865 124.409C47.5972 124.763 48.9091 125.695 49.7417 127.004C50.5743 128.314 50.8615 129.897 50.542 131.415L46.4292 150.073C46.2901 150.854 45.9874 151.597 45.5412 152.254C45.095 152.91 44.5152 153.464 43.8398 153.881C43.2024 154.32 42.4803 154.622 41.7196 154.766C40.959 154.91 40.1765 154.894 39.4225 154.719L20.9915 150.492C20.2078 150.36 19.4618 150.06 18.8046 149.613C18.1474 149.166 17.5944 148.583 17.1834 147.903C16.7567 147.26 16.4657 146.536 16.3282 145.777C16.1907 145.017 16.2096 144.238 16.3837 143.486L20.5345 124.828C20.8896 123.315 21.8196 122 23.1275 121.161C24.4354 120.323 26.0185 120.026 27.5413 120.334L46.0865 124.409Z" fill="#9EC8FF"/>
<path opacity="0.2" d="M84.6627 180.497C89.248 179.762 93.9137 179.672 98.5239 180.231C102.928 180.754 107.206 182.043 111.167 184.038C114.938 185.995 118.259 188.719 120.915 192.035C123.304 195.28 124.985 198.99 125.851 202.925C126.716 206.86 126.748 210.933 125.942 214.881C125.216 217.917 124.049 220.829 122.477 223.525C120.961 226.147 119.202 228.621 117.222 230.912C115.279 233.197 113.414 235.367 111.7 237.461C110.023 239.413 108.531 241.516 107.244 243.744C106.038 245.697 105.429 247.961 105.493 250.256C105.459 251.328 105.158 252.375 104.617 253.302C104.341 253.729 103.978 254.092 103.552 254.368C103.125 254.644 102.644 254.825 102.142 254.901L90.7175 256.729C90.1836 256.826 89.6357 256.815 89.1061 256.697C88.5764 256.58 88.0755 256.357 87.6329 256.043C87.183 255.761 86.8068 255.375 86.5353 254.918C86.2638 254.461 86.1049 253.946 86.0716 253.416C85.5929 249.873 85.8522 246.269 86.8332 242.83C87.7287 239.787 89.0083 236.869 90.6413 234.149C92.2426 231.538 94.0781 229.078 96.1249 226.8C98.1432 224.515 99.933 222.383 101.685 220.326C103.249 218.49 104.602 216.485 105.721 214.348C106.712 212.509 107.073 210.396 106.749 208.332C106.463 206.515 105.742 204.795 104.648 203.317C103.554 201.838 102.12 200.646 100.466 199.841C96.3724 197.863 91.7381 197.301 87.2902 198.241C83.2629 198.83 79.5163 200.65 76.5643 203.452C73.6122 206.254 71.5993 209.9 70.8013 213.891C70.5782 214.851 70.1917 215.766 69.6589 216.595C68.9795 217.318 68.0577 217.765 67.0695 217.851L55.036 219.793C54.1901 219.955 53.3145 219.777 52.5988 219.298C52.2322 219.046 51.9235 218.719 51.6937 218.338C51.4638 217.957 51.318 217.532 51.266 217.09C50.9079 213.311 51.4968 209.503 52.9796 206.009C54.4855 201.944 56.7034 198.179 59.5295 194.891C62.627 191.29 66.2776 188.205 70.3444 185.752C74.7324 183.091 79.595 181.306 84.6627 180.497ZM104.312 263.697C104.837 263.614 105.372 263.635 105.888 263.759C106.405 263.883 106.891 264.108 107.321 264.42C107.769 264.715 108.151 265.102 108.439 265.555C108.728 266.008 108.918 266.516 108.996 267.048L111.129 280.108C111.294 281.168 111.035 282.25 110.407 283.119C109.78 283.989 108.835 284.576 107.778 284.754L95.0206 286.848C93.9617 287.012 92.8808 286.752 92.0122 286.125C91.5705 285.826 91.1965 285.438 90.9144 284.985C90.6323 284.532 90.4485 284.026 90.3747 283.497L88.2422 270.437C88.1456 269.913 88.16 269.374 88.2847 268.856C88.4093 268.338 88.6414 267.851 88.9658 267.429C89.2647 266.987 89.653 266.613 90.1056 266.331C90.5582 266.049 91.0651 265.865 91.5933 265.791L104.312 263.697Z" fill="#9EC8FF"/>
<path opacity="0.6" d="M192.353 201.021C192.872 201.382 193.312 201.845 193.646 202.382C193.98 202.919 194.201 203.518 194.295 204.143C194.417 204.763 194.408 205.401 194.27 206.017C194.133 206.633 193.869 207.214 193.496 207.723L184.433 220.479C184.072 220.998 183.609 221.438 183.072 221.772C182.535 222.106 181.935 222.327 181.31 222.421C180.69 222.542 180.052 222.533 179.436 222.396C178.82 222.258 178.239 221.994 177.73 221.621L165.24 212.749C164.72 212.393 164.281 211.93 163.953 211.392C163.625 210.854 163.414 210.252 163.336 209.627C163.215 209.007 163.223 208.369 163.361 207.753C163.499 207.137 163.762 206.556 164.136 206.047L173.313 193.291C174.055 192.257 175.175 191.558 176.429 191.344C177.684 191.13 178.973 191.419 180.015 192.149L192.353 201.021ZM245.057 114.623C249.611 117.814 253.666 121.664 257.09 126.046C260.43 130.122 263.009 134.765 264.706 139.754C266.287 144.535 266.819 149.6 266.268 154.604C265.622 159.941 263.601 165.019 260.403 169.34C258.027 172.834 254.97 175.813 251.416 178.098C248.288 180.059 244.888 181.548 241.325 182.515C237.854 183.422 234.312 184.034 230.738 184.343L220.609 185.257C217.572 185.5 214.563 186.022 211.622 186.818C208.909 187.434 206.426 188.807 204.463 190.778C203.577 191.679 202.455 192.312 201.226 192.606C200.641 192.774 200.025 192.799 199.429 192.68C198.833 192.56 198.274 192.3 197.799 191.921L186.755 184.076C185.7 183.323 184.977 182.19 184.737 180.916C184.595 180.298 184.6 179.656 184.752 179.041C184.904 178.426 185.199 177.855 185.613 177.375C188.193 174.028 191.417 171.231 195.095 169.15C198.407 167.342 201.94 165.972 205.605 165.076C209.143 164.217 212.749 163.67 216.382 163.438C219.962 163.21 223.313 162.943 226.435 162.639C229.293 162.386 232.115 161.825 234.851 160.963C237.244 160.166 239.306 158.6 240.716 156.508C241.988 154.742 242.816 152.695 243.127 150.54C243.439 148.385 243.226 146.187 242.505 144.133C240.704 139.058 237.26 134.729 232.719 131.834C224.493 125.97 215.519 125.78 205.796 131.263C204.817 131.886 203.733 132.324 202.597 132.557C202.005 132.599 201.411 132.522 200.849 132.333C200.287 132.143 199.768 131.844 199.322 131.453L187.593 123.114C187.168 122.832 186.805 122.468 186.523 122.043C186.242 121.617 186.049 121.14 185.956 120.639C185.865 120.121 185.882 119.589 186.006 119.078C186.131 118.567 186.36 118.087 186.679 117.669C189.447 114.124 193.043 111.312 197.151 109.482C201.819 107.368 206.818 106.079 211.927 105.674C217.547 105.205 223.207 105.655 228.682 107.007C234.593 108.431 240.159 111.02 245.057 114.623Z" fill="#9EC8FF"/>
</svg>
