<svg width="1439" height="650" viewBox="0 0 1439 650" fill="none" xmlns="http://www.w3.org/2000/svg">
<rect y="0.988281" width="1438.14" height="648.414" fill="white"/>
<g filter="url(#filter0_d)">
<circle cx="1350.4" cy="336.355" r="20.0382" fill="white"/>
</g>
<path d="M1346.21 326.678L1355.89 336.356L1346.21 346.033" stroke="black" stroke-width="3"/>
<g filter="url(#filter1_d)">
<circle cx="90.8754" cy="335.116" r="20.0382" transform="rotate(-180 90.8754 335.116)" fill="white"/>
</g>
<path d="M95.0635 344.793L85.3856 335.115L95.0635 325.437" stroke="black" stroke-width="3"/>
<g opacity="0.76">
<g opacity="0.76">
<path opacity="0.76" d="M1359.53 506.748H1278.43V509.609H1359.53V506.748Z" fill="#F68D91"/>
<path opacity="0.76" d="M1359.53 493.629H1278.43V496.489H1359.53V493.629Z" fill="#F68D91"/>
<path opacity="0.76" d="M1359.53 500.191H1278.43V503.052H1359.53V500.191Z" fill="#F68D91"/>
<path opacity="0.76" d="M1359.53 513.311H1278.43V516.171H1359.53V513.311Z" fill="#F68D91"/>
<path opacity="0.76" d="M1359.53 519.873H1278.43V522.734H1359.53V519.873Z" fill="#F68D91"/>
<path opacity="0.76" d="M1359.53 526.43H1278.43V529.29H1359.53V526.43Z" fill="#F68D91"/>
<path opacity="0.76" d="M1359.53 532.992H1278.43V535.853H1359.53V532.992Z" fill="#F68D91"/>
<path opacity="0.76" d="M1359.53 539.549H1278.43V542.409H1359.53V539.549Z" fill="#F68D91"/>
<path opacity="0.76" d="M1359.53 546.111H1278.43V548.972H1359.53V546.111Z" fill="#F68D91"/>
<path opacity="0.76" d="M1359.53 552.668H1278.43V555.528H1359.53V552.668Z" fill="#F68D91"/>
<path opacity="0.76" d="M1359.53 559.23H1278.43V562.091H1359.53V559.23Z" fill="#F68D91"/>
<path opacity="0.76" d="M1359.53 565.787H1278.43V568.648H1359.53V565.787Z" fill="#F68D91"/>
<path opacity="0.76" d="M1359.53 572.35H1278.43V575.21H1359.53V572.35Z" fill="#F68D91"/>
</g>
</g>
<path d="M139.589 93.649C139.589 94.4629 139.266 95.2435 138.69 95.8191C138.114 96.3946 137.334 96.7179 136.52 96.7179C136.117 96.7179 135.718 96.6385 135.346 96.4842C134.974 96.3299 134.636 96.1038 134.351 95.8188C134.067 95.5337 133.841 95.1954 133.688 94.8231C133.534 94.4508 133.455 94.0518 133.456 93.649C133.455 93.2462 133.534 92.8472 133.688 92.4749C133.841 92.1026 134.067 91.7643 134.351 91.4792C134.636 91.1942 134.974 90.9681 135.346 90.8138C135.718 90.6595 136.117 90.5801 136.52 90.5801C137.334 90.5801 138.114 90.9034 138.69 91.4789C139.266 92.0545 139.589 92.8351 139.589 93.649Z" fill="#CCCCCC"/>
<path d="M155.366 93.649C155.366 94.4629 155.043 95.2435 154.467 95.8191C153.892 96.3946 153.111 96.7179 152.297 96.7179C151.483 96.7179 150.702 96.3946 150.127 95.8191C149.551 95.2435 149.228 94.4629 149.228 93.649C149.228 92.8351 149.551 92.0545 150.127 91.4789C150.702 90.9034 151.483 90.5801 152.297 90.5801C153.111 90.5801 153.892 90.9034 154.467 91.4789C155.043 92.0545 155.366 92.8351 155.366 93.649Z" fill="#CCCCCC"/>
<path d="M171.138 93.649C171.138 94.4629 170.815 95.2435 170.24 95.8191C169.664 96.3946 168.883 96.7179 168.069 96.7179C167.255 96.7179 166.475 96.3946 165.899 95.8191C165.324 95.2435 165 94.4629 165 93.649C165 92.8351 165.324 92.0545 165.899 91.4789C166.475 90.9034 167.255 90.5801 168.069 90.5801C168.883 90.5801 169.664 90.9034 170.24 91.4789C170.815 92.0545 171.138 92.8351 171.138 93.649Z" fill="#CCCCCC"/>
<path d="M186.911 93.649C186.911 94.4629 186.588 95.2435 186.012 95.8191C185.437 96.3946 184.656 96.7179 183.842 96.7179C183.439 96.7179 183.041 96.6385 182.668 96.4842C182.296 96.3299 181.958 96.1038 181.674 95.8188C181.389 95.5337 181.164 95.1954 181.01 94.8231C180.856 94.4508 180.777 94.0518 180.778 93.649C180.777 93.2462 180.856 92.8472 181.01 92.4749C181.164 92.1026 181.389 91.7643 181.674 91.4792C181.958 91.1942 182.296 90.9681 182.668 90.8138C183.041 90.6595 183.439 90.5801 183.842 90.5801C184.656 90.5801 185.437 90.9034 186.012 91.4789C186.588 92.0545 186.911 92.8351 186.911 93.649Z" fill="#CCCCCC"/>
<path d="M202.684 93.6483C202.681 94.4599 202.358 95.2375 201.783 95.8109C201.209 96.3843 200.431 96.707 199.62 96.7082C199.217 96.7082 198.818 96.6287 198.446 96.4745C198.074 96.3202 197.736 96.094 197.451 95.809C197.166 95.524 196.941 95.1856 196.787 94.8133C196.633 94.441 196.555 94.042 196.555 93.6392C196.555 93.2364 196.633 92.8375 196.787 92.4652C196.941 92.0928 197.166 91.7545 197.451 91.4695C197.736 91.1844 198.074 90.9583 198.446 90.804C198.818 90.6497 199.217 90.5703 199.62 90.5703C200.023 90.5709 200.422 90.651 200.795 90.8061C201.167 90.9612 201.505 91.1881 201.79 91.474C202.074 91.7599 202.3 92.0991 202.453 92.4722C202.607 92.8453 202.685 93.2449 202.684 93.6483Z" fill="#CCCCCC"/>
<path d="M218.461 93.649C218.461 94.4629 218.137 95.2435 217.562 95.8191C216.986 96.3946 216.206 96.7179 215.392 96.7179C214.578 96.7179 213.797 96.3946 213.222 95.8191C212.646 95.2435 212.323 94.4629 212.323 93.649C212.323 92.8351 212.646 92.0545 213.222 91.4789C213.797 90.9034 214.578 90.5801 215.392 90.5801C216.206 90.5801 216.986 90.9034 217.562 91.4789C218.137 92.0545 218.461 92.8351 218.461 93.649Z" fill="#CCCCCC"/>
<path d="M139.589 109.42C139.589 110.027 139.409 110.621 139.071 111.125C138.734 111.63 138.255 112.024 137.694 112.256C137.133 112.488 136.516 112.549 135.921 112.43C135.326 112.312 134.779 112.02 134.35 111.591C133.92 111.161 133.628 110.615 133.51 110.019C133.391 109.424 133.452 108.807 133.684 108.246C133.917 107.685 134.31 107.206 134.815 106.869C135.319 106.532 135.913 106.352 136.52 106.352C137.334 106.352 138.114 106.675 138.69 107.25C139.265 107.826 139.589 108.607 139.589 109.42Z" fill="#CCCCCC"/>
<path d="M155.366 109.42C155.366 110.027 155.186 110.621 154.849 111.125C154.511 111.63 154.032 112.024 153.471 112.256C152.911 112.488 152.294 112.549 151.698 112.43C151.103 112.312 150.556 112.02 150.127 111.591C149.698 111.161 149.405 110.615 149.287 110.019C149.169 109.424 149.229 108.807 149.462 108.246C149.694 107.685 150.087 107.206 150.592 106.869C151.097 106.532 151.69 106.352 152.297 106.352C153.111 106.352 153.892 106.675 154.467 107.25C155.043 107.826 155.366 108.607 155.366 109.42Z" fill="#CCCCCC"/>
<path d="M171.138 109.42C171.138 110.027 170.958 110.621 170.621 111.125C170.284 111.63 169.805 112.024 169.244 112.256C168.683 112.488 168.066 112.549 167.471 112.43C166.875 112.312 166.329 112.02 165.899 111.591C165.47 111.161 165.178 110.615 165.059 110.019C164.941 109.424 165.002 108.807 165.234 108.246C165.466 107.685 165.86 107.206 166.364 106.869C166.869 106.532 167.462 106.352 168.069 106.352C168.883 106.352 169.664 106.675 170.239 107.25C170.815 107.826 171.138 108.607 171.138 109.42Z" fill="#CCCCCC"/>
<path d="M186.911 109.42C186.911 110.027 186.731 110.621 186.394 111.125C186.056 111.63 185.577 112.024 185.016 112.256C184.456 112.488 183.838 112.549 183.243 112.43C182.648 112.312 182.101 112.02 181.672 111.591C181.243 111.161 180.95 110.615 180.832 110.019C180.714 109.424 180.774 108.807 181.007 108.246C181.239 107.685 181.632 107.206 182.137 106.869C182.642 106.532 183.235 106.352 183.842 106.352C184.656 106.352 185.436 106.675 186.012 107.25C186.587 107.826 186.911 108.607 186.911 109.42Z" fill="#CCCCCC"/>
<path d="M202.684 109.42C202.684 110.028 202.504 110.621 202.166 111.126C201.829 111.631 201.349 112.024 200.788 112.256C200.227 112.488 199.61 112.549 199.014 112.43C198.419 112.311 197.872 112.019 197.443 111.589C197.014 111.159 196.722 110.612 196.604 110.016C196.486 109.421 196.548 108.804 196.781 108.243C197.014 107.682 197.408 107.203 197.913 106.867C198.418 106.53 199.012 106.351 199.619 106.352C200.433 106.353 201.212 106.677 201.786 107.252C202.361 107.827 202.684 108.607 202.684 109.42Z" fill="#CCCCCC"/>
<path d="M218.461 109.42C218.461 110.027 218.281 110.621 217.943 111.125C217.606 111.63 217.127 112.024 216.566 112.256C216.005 112.488 215.388 112.549 214.793 112.43C214.198 112.312 213.651 112.02 213.222 111.591C212.792 111.161 212.5 110.615 212.382 110.019C212.263 109.424 212.324 108.807 212.556 108.246C212.789 107.685 213.182 107.206 213.687 106.869C214.191 106.532 214.785 106.352 215.392 106.352C216.206 106.352 216.986 106.675 217.562 107.25C218.137 107.826 218.461 108.607 218.461 109.42Z" fill="#CCCCCC"/>
<path d="M139.589 125.194C139.589 125.801 139.409 126.394 139.071 126.899C138.734 127.404 138.255 127.797 137.694 128.029C137.133 128.262 136.516 128.322 135.921 128.204C135.326 128.085 134.779 127.793 134.35 127.364C133.92 126.935 133.628 126.388 133.51 125.793C133.391 125.197 133.452 124.58 133.684 124.019C133.917 123.459 134.31 122.979 134.815 122.642C135.319 122.305 135.913 122.125 136.52 122.125C137.334 122.125 138.114 122.448 138.69 123.024C139.265 123.599 139.589 124.38 139.589 125.194Z" fill="#CCCCCC"/>
<path d="M155.366 125.194C155.366 125.801 155.186 126.394 154.849 126.899C154.511 127.404 154.032 127.797 153.471 128.029C152.911 128.262 152.294 128.322 151.698 128.204C151.103 128.085 150.556 127.793 150.127 127.364C149.698 126.935 149.405 126.388 149.287 125.793C149.169 125.197 149.229 124.58 149.462 124.019C149.694 123.459 150.087 122.979 150.592 122.642C151.097 122.305 151.69 122.125 152.297 122.125C153.111 122.125 153.892 122.448 154.467 123.024C155.043 123.599 155.366 124.38 155.366 125.194Z" fill="#CCCCCC"/>
<path d="M171.138 125.194C171.138 125.801 170.958 126.394 170.621 126.899C170.284 127.404 169.805 127.797 169.244 128.029C168.683 128.262 168.066 128.322 167.471 128.204C166.875 128.085 166.329 127.793 165.899 127.364C165.47 126.935 165.178 126.388 165.059 125.793C164.941 125.197 165.002 124.58 165.234 124.019C165.466 123.459 165.86 122.979 166.364 122.642C166.869 122.305 167.462 122.125 168.069 122.125C168.883 122.125 169.664 122.448 170.239 123.024C170.815 123.599 171.138 124.38 171.138 125.194Z" fill="#CCCCCC"/>
<path d="M186.911 125.194C186.911 125.801 186.731 126.394 186.394 126.899C186.056 127.404 185.577 127.797 185.016 128.029C184.456 128.262 183.838 128.322 183.243 128.204C182.648 128.085 182.101 127.793 181.672 127.364C181.243 126.935 180.95 126.388 180.832 125.793C180.714 125.197 180.774 124.58 181.007 124.019C181.239 123.459 181.632 122.979 182.137 122.642C182.642 122.305 183.235 122.125 183.842 122.125C184.656 122.125 185.436 122.448 186.012 123.024C186.587 123.599 186.911 124.38 186.911 125.194Z" fill="#CCCCCC"/>
<path d="M202.684 125.194C202.684 125.801 202.504 126.394 202.167 126.899C201.829 127.404 201.35 127.797 200.789 128.029C200.228 128.262 199.611 128.322 199.016 128.204C198.421 128.085 197.874 127.793 197.445 127.364C197.016 126.935 196.723 126.388 196.605 125.793C196.486 125.197 196.547 124.58 196.78 124.019C197.012 123.459 197.405 122.979 197.91 122.642C198.415 122.305 199.008 122.125 199.615 122.125C200.429 122.125 201.209 122.448 201.785 123.024C202.36 123.599 202.684 124.38 202.684 125.194Z" fill="#CCCCCC"/>
<path d="M218.461 125.194C218.461 125.801 218.281 126.394 217.943 126.899C217.606 127.404 217.127 127.797 216.566 128.029C216.005 128.262 215.388 128.322 214.793 128.204C214.198 128.085 213.651 127.793 213.222 127.364C212.792 126.935 212.5 126.388 212.382 125.793C212.263 125.197 212.324 124.58 212.556 124.019C212.789 123.459 213.182 122.979 213.687 122.642C214.191 122.305 214.785 122.125 215.392 122.125C216.206 122.125 216.986 122.448 217.562 123.024C218.137 123.599 218.461 124.38 218.461 125.194Z" fill="#CCCCCC"/>
<path d="M139.589 140.967C139.589 141.574 139.41 142.168 139.073 142.673C138.737 143.178 138.258 143.572 137.697 143.805C137.136 144.038 136.519 144.1 135.924 143.982C135.328 143.864 134.781 143.572 134.351 143.143C133.921 142.714 133.629 142.167 133.51 141.572C133.391 140.976 133.452 140.359 133.684 139.798C133.916 139.237 134.309 138.757 134.814 138.42C135.319 138.082 135.912 137.902 136.52 137.902C137.333 137.902 138.113 138.225 138.688 138.8C139.263 139.374 139.587 140.154 139.589 140.967Z" fill="#CCCCCC"/>
<path d="M155.366 140.967C155.367 141.574 155.188 142.168 154.851 142.673C154.514 143.178 154.035 143.572 153.475 143.805C152.914 144.038 152.297 144.1 151.701 143.982C151.105 143.864 150.558 143.572 150.129 143.143C149.699 142.714 149.406 142.167 149.287 141.572C149.169 140.976 149.229 140.359 149.461 139.798C149.693 139.237 150.087 138.757 150.592 138.42C151.096 138.082 151.69 137.902 152.297 137.902C153.11 137.902 153.89 138.225 154.465 138.8C155.041 139.374 155.365 140.154 155.366 140.967Z" fill="#CCCCCC"/>
<path d="M171.138 140.967C171.139 141.574 170.96 142.168 170.623 142.673C170.287 143.178 169.808 143.572 169.247 143.805C168.686 144.038 168.069 144.1 167.474 143.982C166.878 143.864 166.331 143.572 165.901 143.143C165.471 142.714 165.179 142.167 165.06 141.572C164.941 140.976 165.002 140.359 165.234 139.798C165.466 139.237 165.859 138.757 166.364 138.42C166.869 138.082 167.462 137.902 168.069 137.902C168.883 137.902 169.662 138.225 170.238 138.8C170.813 139.374 171.137 140.154 171.138 140.967Z" fill="#CCCCCC"/>
<path d="M186.911 140.967C186.912 141.574 186.732 142.168 186.396 142.673C186.059 143.178 185.58 143.572 185.019 143.805C184.459 144.038 183.842 144.1 183.246 143.982C182.65 143.864 182.103 143.572 181.673 143.143C181.244 142.714 180.951 142.167 180.832 141.572C180.713 140.976 180.774 140.359 181.006 139.798C181.238 139.237 181.632 138.757 182.136 138.42C182.641 138.082 183.235 137.902 183.842 137.902C184.655 137.902 185.435 138.225 186.01 138.8C186.586 139.374 186.91 140.154 186.911 140.967Z" fill="#CCCCCC"/>
<path d="M202.684 140.967C202.685 141.574 202.505 142.168 202.169 142.673C201.832 143.178 201.353 143.572 200.792 143.805C200.232 144.038 199.615 144.1 199.019 143.982C198.423 143.864 197.876 143.572 197.446 143.143C197.017 142.714 196.724 142.167 196.605 141.572C196.486 140.976 196.547 140.359 196.779 139.798C197.011 139.237 197.405 138.757 197.909 138.42C198.414 138.082 199.008 137.902 199.615 137.902C200.428 137.902 201.208 138.225 201.783 138.8C202.359 139.374 202.683 140.154 202.684 140.967Z" fill="#CCCCCC"/>
<path d="M218.461 140.967C218.461 141.574 218.282 142.168 217.946 142.673C217.609 143.178 217.13 143.572 216.569 143.805C216.009 144.038 215.391 144.1 214.796 143.982C214.2 143.864 213.653 143.572 213.223 143.143C212.794 142.714 212.501 142.167 212.382 141.572C212.263 140.976 212.324 140.359 212.556 139.798C212.788 139.237 213.181 138.757 213.686 138.42C214.191 138.082 214.785 137.902 215.392 137.902C216.205 137.902 216.985 138.225 217.56 138.8C218.136 139.374 218.459 140.154 218.461 140.967Z" fill="#CCCCCC"/>
<path d="M139.589 156.743C139.589 157.35 139.409 157.943 139.071 158.448C138.734 158.952 138.255 159.346 137.694 159.578C137.133 159.81 136.516 159.871 135.921 159.753C135.326 159.634 134.779 159.342 134.35 158.913C133.92 158.484 133.628 157.937 133.51 157.341C133.391 156.746 133.452 156.129 133.684 155.568C133.917 155.008 134.31 154.528 134.815 154.191C135.319 153.854 135.913 153.674 136.52 153.674C136.923 153.673 137.322 153.752 137.695 153.906C138.067 154.06 138.406 154.286 138.691 154.571C138.976 154.856 139.202 155.195 139.356 155.568C139.51 155.94 139.589 156.34 139.589 156.743Z" fill="#CCCCCC"/>
<path d="M155.366 156.743C155.366 157.35 155.186 157.943 154.849 158.448C154.511 158.952 154.032 159.346 153.471 159.578C152.911 159.81 152.294 159.871 151.698 159.753C151.103 159.634 150.556 159.342 150.127 158.913C149.698 158.484 149.405 157.937 149.287 157.341C149.169 156.746 149.229 156.129 149.462 155.568C149.694 155.008 150.087 154.528 150.592 154.191C151.097 153.854 151.69 153.674 152.297 153.674C152.7 153.673 153.1 153.752 153.472 153.906C153.845 154.06 154.183 154.286 154.468 154.571C154.753 154.856 154.98 155.195 155.134 155.568C155.288 155.94 155.367 156.34 155.366 156.743Z" fill="#CCCCCC"/>
<path d="M171.138 156.743C171.138 157.35 170.958 157.943 170.621 158.448C170.284 158.952 169.805 159.346 169.244 159.578C168.683 159.81 168.066 159.871 167.471 159.753C166.875 159.634 166.329 159.342 165.899 158.913C165.47 158.484 165.178 157.937 165.059 157.341C164.941 156.746 165.002 156.129 165.234 155.568C165.466 155.008 165.86 154.528 166.364 154.191C166.869 153.854 167.462 153.674 168.069 153.674C168.473 153.673 168.872 153.752 169.245 153.906C169.617 154.06 169.956 154.286 170.241 154.571C170.526 154.856 170.752 155.195 170.906 155.568C171.06 155.94 171.139 156.34 171.138 156.743Z" fill="#CCCCCC"/>
<path d="M186.911 156.743C186.911 157.35 186.731 157.943 186.394 158.448C186.056 158.952 185.577 159.346 185.016 159.578C184.456 159.81 183.838 159.871 183.243 159.753C182.648 159.634 182.101 159.342 181.672 158.913C181.243 158.484 180.95 157.937 180.832 157.341C180.714 156.746 180.774 156.129 181.007 155.568C181.239 155.008 181.632 154.528 182.137 154.191C182.642 153.854 183.235 153.674 183.842 153.674C184.245 153.673 184.644 153.752 185.017 153.906C185.39 154.06 185.728 154.286 186.013 154.571C186.298 154.856 186.524 155.195 186.678 155.568C186.832 155.94 186.911 156.34 186.911 156.743Z" fill="#CCCCCC"/>
<path d="M202.684 156.743C202.684 157.35 202.504 157.943 202.167 158.448C201.829 158.952 201.35 159.346 200.789 159.578C200.228 159.81 199.611 159.871 199.016 159.753C198.421 159.634 197.874 159.342 197.445 158.913C197.016 158.484 196.723 157.937 196.605 157.341C196.486 156.746 196.547 156.129 196.78 155.568C197.012 155.008 197.405 154.528 197.91 154.191C198.415 153.854 199.008 153.674 199.615 153.674C200.018 153.673 200.417 153.752 200.79 153.906C201.163 154.06 201.501 154.286 201.786 154.571C202.071 154.856 202.297 155.195 202.451 155.568C202.605 155.94 202.684 156.34 202.684 156.743Z" fill="#CCCCCC"/>
<path d="M218.461 156.743C218.461 157.35 218.281 157.943 217.943 158.448C217.606 158.952 217.127 159.346 216.566 159.578C216.005 159.81 215.388 159.871 214.793 159.753C214.198 159.634 213.651 159.342 213.222 158.913C212.792 158.484 212.5 157.937 212.382 157.341C212.263 156.746 212.324 156.129 212.556 155.568C212.789 155.008 213.182 154.528 213.687 154.191C214.191 153.854 214.785 153.674 215.392 153.674C215.795 153.673 216.194 153.752 216.567 153.906C216.939 154.06 217.278 154.286 217.563 154.571C217.848 154.856 218.074 155.195 218.228 155.568C218.382 155.94 218.461 156.34 218.461 156.743Z" fill="#CCCCCC"/>
<path d="M139.589 172.516C139.589 173.123 139.409 173.717 139.071 174.221C138.734 174.726 138.255 175.119 137.694 175.352C137.133 175.584 136.516 175.645 135.921 175.526C135.326 175.408 134.779 175.115 134.35 174.686C133.92 174.257 133.628 173.71 133.51 173.115C133.391 172.52 133.452 171.903 133.684 171.342C133.917 170.781 134.31 170.302 134.815 169.964C135.319 169.627 135.913 169.447 136.52 169.447C137.334 169.447 138.114 169.771 138.69 170.346C139.265 170.922 139.589 171.702 139.589 172.516Z" fill="#CCCCCC"/>
<path d="M155.366 172.516C155.366 173.123 155.186 173.717 154.849 174.221C154.511 174.726 154.032 175.119 153.471 175.352C152.911 175.584 152.294 175.645 151.698 175.526C151.103 175.408 150.556 175.115 150.127 174.686C149.698 174.257 149.405 173.71 149.287 173.115C149.169 172.52 149.229 171.903 149.462 171.342C149.694 170.781 150.087 170.302 150.592 169.964C151.097 169.627 151.69 169.447 152.297 169.447C153.111 169.447 153.892 169.771 154.467 170.346C155.043 170.922 155.366 171.702 155.366 172.516Z" fill="#CCCCCC"/>
<path d="M171.138 172.516C171.138 173.123 170.958 173.717 170.621 174.221C170.284 174.726 169.805 175.119 169.244 175.352C168.683 175.584 168.066 175.645 167.471 175.526C166.875 175.408 166.329 175.115 165.899 174.686C165.47 174.257 165.178 173.71 165.059 173.115C164.941 172.52 165.002 171.903 165.234 171.342C165.466 170.781 165.86 170.302 166.364 169.964C166.869 169.627 167.462 169.447 168.069 169.447C168.883 169.447 169.664 169.771 170.239 170.346C170.815 170.922 171.138 171.702 171.138 172.516Z" fill="#CCCCCC"/>
<path d="M186.911 172.516C186.911 173.123 186.731 173.717 186.394 174.221C186.056 174.726 185.577 175.119 185.016 175.352C184.456 175.584 183.838 175.645 183.243 175.526C182.648 175.408 182.101 175.115 181.672 174.686C181.243 174.257 180.95 173.71 180.832 173.115C180.714 172.52 180.774 171.903 181.007 171.342C181.239 170.781 181.632 170.302 182.137 169.964C182.642 169.627 183.235 169.447 183.842 169.447C184.656 169.447 185.436 169.771 186.012 170.346C186.587 170.922 186.911 171.702 186.911 172.516Z" fill="#CCCCCC"/>
<path d="M202.684 172.516C202.684 173.123 202.504 173.717 202.167 174.221C201.829 174.726 201.35 175.119 200.789 175.352C200.228 175.584 199.611 175.645 199.016 175.526C198.421 175.408 197.874 175.115 197.445 174.686C197.016 174.257 196.723 173.71 196.605 173.115C196.486 172.52 196.547 171.903 196.78 171.342C197.012 170.781 197.405 170.302 197.91 169.964C198.415 169.627 199.008 169.447 199.615 169.447C200.429 169.447 201.209 169.771 201.785 170.346C202.36 170.922 202.684 171.702 202.684 172.516Z" fill="#CCCCCC"/>
<path d="M218.461 172.516C218.461 173.123 218.281 173.717 217.943 174.221C217.606 174.726 217.127 175.119 216.566 175.352C216.005 175.584 215.388 175.645 214.793 175.526C214.198 175.408 213.651 175.115 213.222 174.686C212.792 174.257 212.5 173.71 212.382 173.115C212.263 172.52 212.324 171.903 212.556 171.342C212.789 170.781 213.182 170.302 213.687 169.964C214.191 169.627 214.785 169.447 215.392 169.447C216.206 169.447 216.986 169.771 217.562 170.346C218.137 170.922 218.461 171.702 218.461 172.516Z" fill="#CCCCCC"/>
<path d="M1318.91 240.139C1318.91 240.427 1318.82 240.708 1318.66 240.947C1318.5 241.187 1318.28 241.373 1318.01 241.483C1317.74 241.593 1317.45 241.622 1317.17 241.566C1316.88 241.51 1316.62 241.371 1316.42 241.168C1316.22 240.964 1316.08 240.705 1316.02 240.423C1315.97 240.14 1315.99 239.848 1316.1 239.582C1316.21 239.316 1316.4 239.089 1316.64 238.929C1316.88 238.769 1317.16 238.684 1317.45 238.684C1317.84 238.684 1318.21 238.837 1318.48 239.11C1318.76 239.383 1318.91 239.753 1318.91 240.139Z" fill="white"/>
<path d="M1302.42 173.045C1302.42 173.547 1302.27 174.039 1301.99 174.456C1301.71 174.874 1301.31 175.2 1300.85 175.392C1300.38 175.584 1299.87 175.635 1299.37 175.537C1298.88 175.439 1298.43 175.197 1298.07 174.841C1297.72 174.486 1297.47 174.033 1297.37 173.54C1297.28 173.048 1297.33 172.537 1297.52 172.072C1297.71 171.608 1298.04 171.211 1298.46 170.932C1298.88 170.653 1299.37 170.504 1299.87 170.504C1300.55 170.504 1301.19 170.772 1301.67 171.248C1302.15 171.725 1302.42 172.371 1302.42 173.045Z" fill="white"/>
<path d="M1278.43 122.047H1194.54V193.123H1278.43V122.047Z" fill="#C9D7FA"/>
<path d="M1207.69 159.441H1201.19V186.74H1207.69V159.441Z" fill="#ED1C24"/>
<path d="M1216.85 155.986H1210.34V186.74H1216.85V155.986Z" fill="#ED1C24"/>
<path d="M1226.01 151.111H1219.5V186.74H1226.01V151.111Z" fill="#ED1C24"/>
<path d="M1235.16 147.359H1228.65V186.742H1235.16V147.359Z" fill="#ED1C24"/>
<path d="M1244.32 143.754H1237.81V186.741H1244.32V143.754Z" fill="#ED1C24"/>
<path d="M1253.47 139.529H1246.97V186.741H1253.47V139.529Z" fill="#ED1C24"/>
<path d="M1262.63 135.031H1256.12V186.741H1262.63V135.031Z" fill="#ED1C24"/>
<path d="M1271.79 129.943H1265.28V186.74H1271.79V129.943Z" fill="#ED1C24"/>
<path d="M1207.69 164.312H1201.19V186.932H1207.69V164.312Z" fill="#5573CD"/>
<path d="M1216.85 161.451H1210.34V186.927H1216.85V161.451Z" fill="#5573CD"/>
<path d="M1226.01 157.412H1219.5V186.926H1226.01V157.412Z" fill="#5573CD"/>
<path d="M1235.16 154.305H1228.65V186.933H1235.16V154.305Z" fill="#5573CD"/>
<path d="M1244.32 151.312H1237.81V186.931H1244.32V151.312Z" fill="#5573CD"/>
<path d="M1253.47 147.816H1246.97V186.931H1253.47V147.816Z" fill="#5573CD"/>
<path d="M1262.63 144.088H1256.12V186.931H1262.63V144.088Z" fill="#5573CD"/>
<path d="M1271.79 139.875H1265.28V186.927H1271.79V139.875Z" fill="#5573CD"/>
<path d="M1222.38 128.244H1201.19V134.973H1222.38V128.244Z" fill="#5573CD"/>
<path d="M1222.38 136.771H1201.19V137.964H1222.38V136.771Z" fill="#5573CD"/>
<path d="M1222.38 139.834H1201.19V141.022H1222.38V139.834Z" fill="#5573CD"/>
<path d="M1222.38 142.902H1201.19V144.09H1222.38V142.902Z" fill="#5573CD"/>
<path opacity="0.36" d="M988.834 152.461H899.996V195.707H988.834V152.461Z" fill="#8097E9"/>
<path d="M989.398 136.994H899.432C898.793 136.994 898.181 137.265 897.729 137.747C897.277 138.229 897.023 138.883 897.023 139.565V196.174C897.021 196.513 897.082 196.848 897.202 197.162C897.323 197.476 897.5 197.761 897.724 198.001C897.948 198.241 898.214 198.432 898.507 198.562C898.8 198.692 899.115 198.759 899.432 198.759H989.398C989.715 198.759 990.03 198.692 990.323 198.562C990.616 198.432 990.882 198.241 991.106 198.001C991.33 197.761 991.507 197.476 991.628 197.162C991.748 196.848 991.809 196.513 991.807 196.174V139.565C991.807 138.883 991.553 138.229 991.101 137.747C990.649 137.265 990.037 136.994 989.398 136.994ZM988.834 195.693H899.996V152.447H988.834V195.693Z" fill="#4463BF"/>
<path d="M937.391 159.422H903.983V162.052H937.391V159.422Z" fill="#4463BF"/>
<path d="M937.391 167.209H903.983V169.84H937.391V167.209Z" fill="#4463BF"/>
<path d="M937.391 174.992H903.983V177.623H937.391V174.992Z" fill="#4463BF"/>
<path d="M921.103 182.779H903.983V185.41H921.103V182.779Z" fill="#4463BF"/>
<path d="M965.923 182.779H948.804V185.41H965.923V182.779Z" fill="#4463BF"/>
<path d="M982.211 159.422H948.804V162.052H982.211V159.422Z" fill="#4463BF"/>
<path d="M982.211 167.209H948.804V169.84H982.211V167.209Z" fill="#4463BF"/>
<path d="M982.211 174.992H948.804V177.623H982.211V174.992Z" fill="#4463BF"/>
<path opacity="0.68" d="M902.18 143.204C902.748 143.204 903.209 142.713 903.209 142.107C903.209 141.501 902.748 141.01 902.18 141.01C901.612 141.01 901.151 141.501 901.151 142.107C901.151 142.713 901.612 143.204 902.18 143.204Z" fill="#C0C8E6"/>
<path opacity="0.68" d="M907.802 142.107C907.802 142.249 907.776 142.39 907.725 142.521C907.674 142.653 907.599 142.772 907.505 142.872C907.411 142.973 907.299 143.053 907.176 143.107C907.053 143.161 906.921 143.189 906.788 143.189C906.517 143.189 906.258 143.076 906.065 142.873C905.873 142.671 905.763 142.395 905.759 142.107C905.759 141.816 905.868 141.537 906.061 141.331C906.253 141.125 906.515 141.01 906.788 141.01C907.058 141.014 907.316 141.131 907.506 141.336C907.696 141.542 907.802 141.819 907.802 142.107Z" fill="#C0C8E6"/>
<path opacity="0.68" d="M911.395 143.204C911.963 143.204 912.424 142.713 912.424 142.107C912.424 141.501 911.963 141.01 911.395 141.01C910.827 141.01 910.367 141.501 910.367 142.107C910.367 142.713 910.827 143.204 911.395 143.204Z" fill="#C0C8E6"/>
<path d="M964.077 137.054C964.077 137.294 964.011 137.53 963.885 137.73C963.76 137.93 963.581 138.086 963.373 138.178C963.164 138.271 962.935 138.295 962.714 138.248C962.492 138.201 962.289 138.085 962.129 137.914C961.97 137.744 961.861 137.527 961.817 137.291C961.773 137.055 961.795 136.81 961.882 136.588C961.968 136.365 962.114 136.175 962.302 136.041C962.49 135.907 962.71 135.836 962.936 135.836C963.239 135.836 963.529 135.964 963.743 136.193C963.957 136.421 964.077 136.731 964.077 137.054Z" fill="white"/>
<path d="M1269.5 347.203V342.975L1264.72 342.592C1264.42 341.168 1263.85 339.812 1263.06 338.593L1266.16 334.94L1263.17 331.951L1259.52 335.055C1258.3 334.262 1256.94 333.699 1255.52 333.395L1255.13 328.617H1250.85L1250.46 333.395C1249.04 333.699 1247.68 334.262 1246.47 335.055L1242.81 331.951L1239.81 334.94L1242.91 338.593C1242.12 339.813 1241.56 341.168 1241.27 342.592L1236.49 342.975V347.203L1241.27 347.586C1241.56 349.009 1242.12 350.365 1242.91 351.584L1239.86 355.276L1242.86 358.265L1246.52 355.161C1247.73 355.954 1249.09 356.517 1250.51 356.821L1250.9 361.599H1255.13L1255.52 356.821C1256.94 356.517 1258.3 355.954 1259.52 355.161L1263.17 358.265L1266.19 355.276L1263.08 351.623C1263.88 350.404 1264.44 349.048 1264.74 347.624L1269.5 347.203ZM1253.01 351.878C1251.67 351.881 1250.35 351.485 1249.23 350.741C1248.11 349.997 1247.24 348.938 1246.72 347.698C1246.21 346.458 1246.07 345.092 1246.33 343.774C1246.59 342.456 1247.23 341.243 1248.18 340.291C1249.13 339.338 1250.33 338.688 1251.65 338.422C1252.97 338.155 1254.34 338.286 1255.58 338.796C1256.82 339.306 1257.89 340.173 1258.64 341.287C1259.39 342.402 1259.79 343.713 1259.8 345.057C1259.8 345.95 1259.63 346.836 1259.29 347.662C1258.95 348.489 1258.45 349.241 1257.82 349.874C1257.19 350.508 1256.44 351.011 1255.62 351.355C1254.79 351.698 1253.91 351.876 1253.01 351.878Z" fill="#21409A"/>
<path d="M1185.68 356.425C1184.56 356.425 1183.47 356.093 1182.53 355.471C1181.6 354.849 1180.88 353.966 1180.45 352.932C1180.02 351.898 1179.91 350.76 1180.13 349.662C1180.35 348.564 1180.89 347.556 1181.68 346.765C1182.47 345.973 1183.48 345.434 1184.58 345.216C1185.67 344.998 1186.81 345.11 1187.85 345.538C1188.88 345.966 1189.77 346.692 1190.39 347.622C1191.01 348.553 1191.34 349.647 1191.34 350.766C1191.34 351.51 1191.2 352.246 1190.91 352.934C1190.63 353.621 1190.21 354.245 1189.69 354.771C1189.16 355.297 1188.54 355.714 1187.85 355.998C1187.16 356.281 1186.42 356.427 1185.68 356.425V356.425Z" stroke="url(#paint0_linear)" stroke-width="0.3" stroke-miterlimit="10"/>
<path d="M1241.03 373.988V357.599C1241.03 356.817 1240.72 356.066 1240.17 355.513C1239.62 354.959 1238.87 354.648 1238.08 354.648H1222.22C1221.4 354.649 1220.61 354.944 1220 355.479L1210.17 363.884H1166.43C1165.98 363.889 1165.54 363.982 1165.13 364.159C1164.72 364.336 1164.34 364.593 1164.03 364.915C1163.72 365.237 1163.47 365.617 1163.31 366.034C1163.14 366.452 1163.06 366.897 1163.07 367.345V373.464L1241.03 373.988Z" fill="#21409A"/>
<path d="M1240.24 396.309L1167.82 396.271L1167.84 362.842C1167.84 362.117 1168.13 361.422 1168.64 360.91C1169.15 360.397 1169.85 360.11 1170.58 360.11L1237.52 360.145C1238.25 360.145 1238.94 360.434 1239.46 360.947C1239.97 361.46 1240.26 362.155 1240.26 362.88L1240.24 396.309Z" fill="#678BF2"/>
<path d="M1164.35 413.983H1240.11C1240.76 413.983 1241.39 413.756 1241.88 413.34C1242.38 412.924 1242.71 412.346 1242.82 411.709L1246.36 365.379C1246.4 365.23 1246.4 365.075 1246.37 364.926C1246.33 364.776 1246.27 364.636 1246.18 364.514C1246.08 364.392 1245.97 364.292 1245.83 364.221C1245.7 364.15 1245.55 364.109 1245.39 364.102H1159.01C1158.85 364.107 1158.7 364.146 1158.57 364.217C1158.43 364.287 1158.31 364.387 1158.22 364.51C1158.12 364.632 1158.06 364.773 1158.03 364.924C1158 365.074 1158 365.23 1158.04 365.379L1161.59 411.709C1161.7 412.356 1162.04 412.942 1162.55 413.359C1163.05 413.777 1163.69 413.998 1164.35 413.983Z" fill="#4463BF"/>
<path d="M1036.42 394.377H1029.62C1029.02 394.382 1028.45 394.198 1027.96 393.853C1027.48 393.507 1027.12 393.018 1026.93 392.455C1026.51 391.118 1025.97 389.82 1025.32 388.575C1025.06 388.043 1024.96 387.439 1025.06 386.851C1025.16 386.263 1025.44 385.721 1025.86 385.302L1030.67 380.487C1031.21 379.951 1031.51 379.226 1031.51 378.469C1031.51 377.713 1031.21 376.987 1030.67 376.452L1025.84 371.62C1025.31 371.085 1024.58 370.785 1023.82 370.785C1023.07 370.785 1022.34 371.085 1021.81 371.62L1016.99 376.434C1016.57 376.856 1016.03 377.134 1015.44 377.23C1014.85 377.327 1014.25 377.236 1013.72 376.971C1012.47 376.325 1011.18 375.786 1009.84 375.361C1009.27 375.171 1008.78 374.807 1008.44 374.322C1008.09 373.836 1007.91 373.254 1007.92 372.659V365.869C1007.92 365.112 1007.62 364.385 1007.08 363.849C1006.54 363.313 1005.82 363.012 1005.06 363.012H998.217C997.459 363.012 996.733 363.313 996.197 363.849C995.661 364.385 995.36 365.112 995.36 365.869V372.659C995.365 373.254 995.182 373.836 994.837 374.322C994.492 374.807 994.002 375.171 993.437 375.361C992.101 375.786 990.803 376.325 989.558 376.971C989.025 377.236 988.422 377.327 987.834 377.23C987.247 377.134 986.705 376.856 986.284 376.434L981.487 371.62C980.951 371.085 980.225 370.785 979.469 370.785C978.713 370.785 977.987 371.085 977.451 371.62L972.602 376.452C972.068 376.987 971.768 377.713 971.768 378.469C971.768 379.226 972.068 379.951 972.602 380.487L977.417 385.302C977.84 385.721 978.12 386.263 978.217 386.851C978.313 387.439 978.221 388.043 977.954 388.575C977.308 389.82 976.769 391.118 976.343 392.455C976.156 393.018 975.796 393.507 975.313 393.853C974.831 394.198 974.252 394.382 973.658 394.377H966.852C966.477 394.377 966.106 394.451 965.761 394.595C965.415 394.739 965.101 394.95 964.837 395.215C964.573 395.481 964.364 395.796 964.223 396.143C964.081 396.489 964.009 396.861 964.011 397.235V404.076C964.009 404.45 964.081 404.82 964.223 405.166C964.365 405.512 964.574 405.826 964.838 406.09C965.102 406.354 965.416 406.563 965.762 406.705C966.108 406.847 966.478 406.919 966.852 406.917H973.658C974.253 406.916 974.833 407.103 975.315 407.452C975.797 407.8 976.157 408.292 976.343 408.857C976.775 410.191 977.314 411.488 977.954 412.736C978.221 413.269 978.313 413.872 978.217 414.46C978.12 415.048 977.84 415.59 977.417 416.01L972.602 420.807C972.068 421.343 971.768 422.068 971.768 422.825C971.768 423.581 972.068 424.307 972.602 424.842L977.451 429.675C977.715 429.941 978.03 430.153 978.376 430.297C978.722 430.442 979.094 430.516 979.469 430.516C979.844 430.516 980.216 430.442 980.562 430.297C980.908 430.153 981.223 429.941 981.487 429.675L986.284 424.877C986.703 424.454 987.246 424.174 987.834 424.077C988.422 423.981 989.025 424.073 989.558 424.34C990.803 424.986 992.101 425.525 993.437 425.951C994 426.138 994.49 426.498 994.835 426.98C995.181 427.463 995.364 428.042 995.36 428.635V435.442C995.36 435.817 995.434 436.187 995.578 436.533C995.721 436.879 995.932 437.193 996.198 437.457C996.463 437.721 996.778 437.93 997.125 438.071C997.472 438.213 997.843 438.285 998.217 438.282H1005.06C1005.43 438.285 1005.8 438.213 1006.15 438.071C1006.5 437.93 1006.81 437.721 1007.08 437.457C1007.34 437.193 1007.55 436.879 1007.7 436.533C1007.84 436.187 1007.92 435.817 1007.92 435.442V428.635C1007.91 428.042 1008.1 427.463 1008.44 426.98C1008.79 426.498 1009.28 426.138 1009.84 425.951C1011.18 425.525 1012.47 424.986 1013.72 424.34C1014.25 424.073 1014.85 423.981 1015.44 424.077C1016.03 424.174 1016.57 424.454 1016.99 424.877L1021.81 429.675C1022.07 429.941 1022.39 430.153 1022.73 430.297C1023.08 430.442 1023.45 430.516 1023.82 430.516C1024.2 430.516 1024.57 430.442 1024.92 430.297C1025.26 430.153 1025.58 429.941 1025.84 429.675L1030.67 424.842C1031.21 424.307 1031.51 423.581 1031.51 422.825C1031.51 422.068 1031.21 421.343 1030.67 420.807L1025.86 416.01C1025.44 415.59 1025.16 415.048 1025.06 414.46C1024.96 413.872 1025.06 413.269 1025.32 412.736C1025.96 411.488 1026.5 410.191 1026.93 408.857C1027.12 408.292 1027.48 407.8 1027.96 407.452C1028.44 407.103 1029.02 406.916 1029.62 406.917H1036.42C1036.8 406.919 1037.17 406.847 1037.52 406.706C1037.86 406.564 1038.18 406.355 1038.44 406.091C1038.71 405.827 1038.92 405.513 1039.06 405.167C1039.21 404.822 1039.28 404.451 1039.28 404.076V397.235C1039.28 396.477 1038.98 395.75 1038.45 395.214C1037.91 394.678 1037.18 394.377 1036.42 394.377ZM1001.65 414.849C998.837 414.853 996.09 414.023 993.752 412.464C991.414 410.906 989.591 408.689 988.513 406.094C987.436 403.499 987.152 400.643 987.698 397.887C988.244 395.131 989.595 392.599 991.581 390.611C993.566 388.623 996.097 387.269 998.852 386.719C1001.61 386.17 1004.46 386.45 1007.06 387.524C1009.66 388.599 1011.88 390.419 1013.44 392.755C1015 395.091 1015.83 397.837 1015.83 400.647C1015.83 402.511 1015.47 404.358 1014.76 406.081C1014.04 407.804 1013 409.369 1011.68 410.688C1010.37 412.007 1008.8 413.054 1007.08 413.768C1005.36 414.482 1003.51 414.849 1001.65 414.849Z" fill="#21409A"/>
<path d="M964.907 365.909H960.629C960.245 365.925 959.866 365.813 959.553 365.59C959.239 365.368 959.008 365.047 958.897 364.679C958.624 363.841 958.288 363.025 957.893 362.237C957.716 361.904 957.653 361.523 957.712 361.151C957.771 360.779 957.95 360.437 958.222 360.176L961.253 357.162C961.429 357 961.569 356.803 961.665 356.584C961.761 356.365 961.81 356.128 961.81 355.889C961.81 355.65 961.761 355.413 961.665 355.194C961.569 354.975 961.429 354.778 961.253 354.616L958.204 351.568C958.042 351.395 957.847 351.257 957.629 351.163C957.412 351.068 957.177 351.02 956.94 351.02C956.703 351.02 956.469 351.068 956.251 351.163C956.034 351.257 955.838 351.395 955.676 351.568L952.645 354.599C952.384 354.87 952.041 355.049 951.67 355.109C951.298 355.168 950.916 355.105 950.584 354.928C949.797 354.53 948.981 354.194 948.142 353.923C947.777 353.809 947.46 353.577 947.241 353.264C947.021 352.951 946.912 352.574 946.929 352.192V347.914C946.929 347.454 946.747 347.014 946.422 346.689C946.097 346.364 945.657 346.182 945.197 346.182H940.85C940.391 346.182 939.95 346.364 939.626 346.689C939.301 347.014 939.118 347.454 939.118 347.914V352.192C939.136 352.574 939.026 352.951 938.807 353.264C938.588 353.577 938.271 353.809 937.906 353.923C937.061 354.194 936.239 354.53 935.447 354.928C935.114 355.105 934.733 355.168 934.361 355.109C933.989 355.049 933.647 354.87 933.386 354.599L930.372 351.568C930.032 351.235 929.575 351.048 929.099 351.048C928.623 351.048 928.166 351.235 927.826 351.568L924.778 354.616C924.445 354.956 924.258 355.413 924.258 355.889C924.258 356.365 924.445 356.822 924.778 357.162L927.809 360.176C928.083 360.435 928.265 360.776 928.328 361.148C928.39 361.52 928.33 361.902 928.155 362.237C927.737 363.017 927.378 363.828 927.081 364.662C926.97 365.03 926.739 365.35 926.426 365.573C926.112 365.796 925.734 365.908 925.349 365.891H921.106C920.647 365.891 920.206 366.074 919.881 366.399C919.556 366.723 919.374 367.164 919.374 367.623V371.936C919.374 372.395 919.556 372.836 919.881 373.16C920.206 373.485 920.647 373.668 921.106 373.668H925.384C925.766 373.65 926.143 373.76 926.456 373.979C926.77 374.198 927.002 374.515 927.116 374.88C927.392 375.72 927.734 376.536 928.138 377.322C928.312 377.657 928.373 378.039 928.31 378.411C928.248 378.783 928.066 379.124 927.791 379.383L924.76 382.397C924.427 382.737 924.241 383.194 924.241 383.67C924.241 384.146 924.427 384.603 924.76 384.943L927.809 387.991C928.149 388.324 928.606 388.511 929.082 388.511C929.558 388.511 930.015 388.324 930.355 387.991L933.368 384.96C933.629 384.689 933.972 384.51 934.344 384.45C934.716 384.391 935.097 384.454 935.429 384.631C936.222 385.029 937.044 385.365 937.889 385.636C938.254 385.75 938.57 385.982 938.79 386.295C939.009 386.608 939.118 386.985 939.101 387.368V391.645C939.101 392.105 939.283 392.545 939.608 392.87C939.933 393.195 940.374 393.377 940.833 393.377H945.146C945.605 393.377 946.045 393.195 946.37 392.87C946.695 392.545 946.877 392.105 946.877 391.645V387.368C946.86 386.985 946.969 386.608 947.189 386.295C947.408 385.982 947.725 385.75 948.09 385.636C948.929 385.365 949.745 385.029 950.532 384.631C950.865 384.454 951.246 384.391 951.618 384.45C951.989 384.51 952.332 384.689 952.593 384.96L955.624 387.991C955.786 388.164 955.982 388.302 956.199 388.396C956.417 388.491 956.651 388.539 956.888 388.539C957.125 388.539 957.36 388.491 957.577 388.396C957.795 388.302 957.991 388.164 958.153 387.991L961.201 384.943C961.377 384.781 961.517 384.584 961.613 384.365C961.709 384.146 961.758 383.909 961.758 383.67C961.758 383.431 961.709 383.194 961.613 382.975C961.517 382.756 961.377 382.559 961.201 382.397L958.17 379.383C957.898 379.122 957.719 378.78 957.66 378.408C957.601 378.036 957.664 377.655 957.841 377.322C958.239 376.536 958.575 375.719 958.845 374.88C958.96 374.515 959.192 374.198 959.505 373.979C959.818 373.76 960.195 373.65 960.577 373.668H964.855C965.315 373.668 965.755 373.485 966.08 373.16C966.405 372.836 966.587 372.395 966.587 371.936V367.623C966.583 367.176 966.406 366.747 966.092 366.428C965.779 366.108 965.354 365.922 964.907 365.909ZM943.015 378.794C941.243 378.798 939.509 378.275 938.034 377.293C936.559 376.31 935.408 374.912 934.729 373.275C934.049 371.638 933.87 369.836 934.215 368.098C934.56 366.359 935.413 364.762 936.666 363.509C937.92 362.255 939.517 361.402 941.255 361.057C942.994 360.712 944.796 360.891 946.433 361.571C948.069 362.251 949.468 363.401 950.45 364.876C951.433 366.351 951.956 368.085 951.952 369.857C951.952 371.031 951.721 372.193 951.272 373.277C950.823 374.362 950.164 375.347 949.335 376.177C948.505 377.007 947.519 377.665 946.435 378.114C945.351 378.563 944.189 378.794 943.015 378.794Z" fill="#21409A"/>
<path opacity="0.68" d="M1258.78 222.692C1259.45 222.692 1259.99 222.149 1259.99 221.479C1259.99 220.809 1259.45 220.266 1258.78 220.266C1258.11 220.266 1257.56 220.809 1257.56 221.479C1257.56 222.149 1258.11 222.692 1258.78 222.692Z" fill="#00A4D8"/>
<path opacity="0.68" d="M1210.32 250.503C1211 250.503 1211.54 249.96 1211.54 249.289C1211.54 248.619 1211 248.076 1210.32 248.076C1209.65 248.076 1209.11 248.619 1209.11 249.289C1209.11 249.96 1209.65 250.503 1210.32 250.503Z" fill="#00A4D8"/>
<path opacity="0.68" d="M1216.97 249.289C1216.97 249.447 1216.94 249.602 1216.88 249.747C1216.82 249.893 1216.73 250.025 1216.62 250.136C1216.51 250.247 1216.37 250.335 1216.23 250.395C1216.08 250.455 1215.93 250.486 1215.77 250.486C1215.45 250.486 1215.14 250.361 1214.92 250.137C1214.69 249.913 1214.56 249.608 1214.55 249.289C1214.55 248.968 1214.68 248.659 1214.91 248.432C1215.14 248.204 1215.45 248.076 1215.77 248.076C1216.09 248.081 1216.39 248.21 1216.62 248.437C1216.84 248.664 1216.97 248.971 1216.97 249.289Z" fill="#00A4D8"/>
<path d="M910.63 86.2656H1263.14V470.802H910.63V86.2656Z"/>
<path d="M1091.32 99.377C1091.32 99.377 1032.8 175.184 925.243 183.843C925.243 375.546 1091.32 463.619 1091.32 463.619C1091.32 463.619 1257.4 374.981 1257.4 183.843C1141.23 168.669 1091.32 99.377 1091.32 99.377Z" fill="#ED1C24"/>
<path d="M931.455 118.824H1238.8V448.313H931.455V118.824Z"/>
<path d="M1155.56 379.579C1135.24 402.293 1111.82 422.053 1086 438.283C1060.19 422.129 1036.78 402.429 1016.46 379.762C969.734 327.722 944.855 267.505 942.557 200.607C1017.83 191.117 1066.54 148.95 1085.87 128.855C1104.19 148.119 1149.83 187.028 1229.5 200.158C1227.34 267.057 1202.36 327.356 1155.56 379.579Z" fill="#ED1C24"/>
<path fill-rule="evenodd" clip-rule="evenodd" d="M1090.4 141.562L1090.6 141.763C1107.87 159.715 1151.07 196.027 1226.38 208.166L1226.62 208.204L1226.61 208.442C1224.47 270.921 1200.92 327.176 1156.55 375.936C1137.25 397.208 1115.06 415.685 1090.64 430.832L1090.5 430.92L1090.36 430.832C1065.95 415.78 1043.77 397.385 1024.47 376.185C980.201 327.608 956.677 271.37 954.46 208.908L954.451 208.661L954.696 208.63C1006.09 202.082 1053.8 178.539 1090.21 141.76L1090.4 141.562ZM955.01 209.136C957.276 271.364 980.742 327.397 1024.87 375.82L1024.87 375.821C1044.1 396.942 1066.19 415.274 1090.5 430.283C1114.82 415.179 1136.92 396.765 1156.15 375.572L1156.15 375.571C1200.38 326.963 1223.88 270.91 1226.06 208.662C1151.02 196.508 1107.84 160.401 1090.4 142.338C1053.98 179.032 1006.33 202.541 955.01 209.136Z" fill="white"/>
<path d="M1039.28 273.735H1060.93L1077.05 300.777C1077.05 300.777 1093.52 270.643 1126.79 239.496H1139.48C1139.48 239.496 1108.27 267.568 1083.58 319.94H1073.59L1039.28 273.735Z" fill="#FFFBFB"/>
<path fill-rule="evenodd" clip-rule="evenodd" d="M1026.73 263.122C1021.03 298.601 1045.23 331.971 1080.78 337.654C1116.33 343.337 1149.77 319.181 1155.46 283.702C1161.15 248.223 1136.95 214.853 1101.4 209.169C1065.85 203.486 1032.42 227.643 1026.73 263.122ZM1080.6 338.82C1044.4 333.034 1019.76 299.06 1025.56 262.935C1031.36 226.81 1065.4 202.217 1101.59 208.003C1137.78 213.789 1162.42 247.763 1156.63 283.888C1150.83 320.014 1116.79 344.606 1080.6 338.82Z" fill="white"/>
<path d="M1216.57 211.542C1216.57 212.25 1216.36 212.941 1215.96 213.529C1215.57 214.117 1215.01 214.575 1214.35 214.845C1213.7 215.115 1212.98 215.185 1212.28 215.046C1211.59 214.906 1210.95 214.565 1210.45 214.063C1209.95 213.562 1209.61 212.923 1209.47 212.229C1209.34 211.535 1209.41 210.816 1209.69 210.163C1209.96 209.511 1210.42 208.954 1211.01 208.563C1211.6 208.172 1212.3 207.965 1213.01 207.969C1213.47 207.969 1213.94 208.061 1214.37 208.241C1214.81 208.421 1215.2 208.684 1215.53 209.016C1215.86 209.348 1216.12 209.743 1216.3 210.176C1216.48 210.609 1216.57 211.074 1216.57 211.542Z" fill="#ED1C24"/>
<path d="M1091.62 149.549C1091.63 150.256 1091.42 150.949 1091.03 151.539C1090.64 152.129 1090.08 152.589 1089.42 152.862C1088.77 153.135 1088.05 153.208 1087.35 153.072C1086.66 152.936 1086.02 152.597 1085.52 152.098C1085.01 151.599 1084.67 150.963 1084.53 150.269C1084.39 149.575 1084.46 148.856 1084.73 148.202C1085 147.548 1085.46 146.989 1086.05 146.596C1086.64 146.202 1087.33 145.992 1088.04 145.992C1088.99 145.992 1089.9 146.366 1090.57 147.033C1091.24 147.699 1091.62 148.604 1091.62 149.549Z" fill="#ED1C24"/>
<path d="M1091.62 413.984C1091.62 414.69 1091.41 415.381 1091.02 415.969C1090.63 416.557 1090.07 417.015 1089.41 417.285C1088.76 417.556 1088.04 417.626 1087.34 417.488C1086.65 417.351 1086.01 417.01 1085.51 416.51C1085.01 416.011 1084.67 415.374 1084.53 414.681C1084.39 413.988 1084.46 413.269 1084.73 412.616C1085.01 411.963 1085.46 411.405 1086.05 411.012C1086.64 410.62 1087.33 410.41 1088.04 410.41C1088.99 410.41 1089.9 410.787 1090.57 411.457C1091.25 412.127 1091.62 413.036 1091.62 413.984Z" fill="#ED1C24"/>
<g style="mix-blend-mode:multiply" opacity="0.5">
<path d="M921.73 180.877C921.73 372.58 1087.81 460.653 1087.81 460.653V96.4102C1087.81 96.4102 1029.29 172.217 921.73 180.877Z" fill="black" fill-opacity="0.5"/>
</g>
<path fill-rule="evenodd" clip-rule="evenodd" d="M1091.46 89.3073L1091.02 89.6215L1090.59 89.2925L1091.04 88.709L1091.46 89.3073ZM1091.02 482.701C1091.28 483.178 1091.28 483.177 1091.28 483.176L1091.29 483.173L1091.31 483.159L1091.41 483.106C1091.46 483.081 1091.51 483.049 1091.58 483.011C1091.64 482.977 1091.71 482.938 1091.79 482.893C1092.13 482.705 1092.63 482.422 1093.28 482.045C1094.59 481.292 1096.49 480.16 1098.92 478.648C1103.78 475.623 1110.71 471.073 1119.03 464.969C1135.67 452.762 1157.85 434.334 1180.03 409.453C1224.4 359.687 1268.78 284.085 1268.78 180.786V180.311L1268.31 180.249C1206.43 172.085 1162.21 149.333 1133.46 128.631C1119.09 118.28 1108.58 108.44 1101.67 101.192C1098.22 97.5683 1095.66 94.5926 1093.97 92.525C1093.13 91.4912 1092.5 90.6845 1092.08 90.1373C1091.87 89.8638 1091.72 89.6551 1091.61 89.5154C1091.56 89.4456 1091.52 89.3929 1091.5 89.3581L1091.47 89.3192L1091.46 89.3098L1091.46 89.3073C1091.46 89.3069 1091.46 89.3073 1091.02 89.6215C1090.59 89.2925 1090.59 89.292 1090.59 89.2925L1090.58 89.306L1090.55 89.349C1090.52 89.3874 1090.47 89.4452 1090.41 89.5218C1090.29 89.675 1090.11 89.9034 1089.87 90.2022C1089.39 90.7998 1088.66 91.6793 1087.7 92.8029C1085.77 95.0502 1082.89 98.2741 1079.07 102.173C1071.43 109.972 1060.06 120.471 1045.1 131.262C1015.19 152.843 970.979 175.586 913.758 180.246L913.26 180.287V180.786C913.26 284.384 957.64 359.986 1002.01 409.677C1024.19 434.522 1046.37 452.893 1063.01 465.054C1071.33 471.135 1078.26 475.663 1083.12 478.673C1085.55 480.178 1087.46 481.303 1088.76 482.052C1089.41 482.427 1089.91 482.708 1090.25 482.896C1090.42 482.989 1090.55 483.06 1090.63 483.107L1090.73 483.16L1090.76 483.174L1090.76 483.177C1090.76 483.177 1090.76 483.178 1090.77 483.157C1090.8 483.119 1090.85 483.01 1091.02 482.704L1090.76 483.178L1091.02 483.316L1091.28 483.178L1091.02 482.701ZM1091.01 90.5153C1090.92 90.6231 1090.82 90.7459 1090.71 90.8831C1090.22 91.4886 1089.49 92.3762 1088.52 93.5082C1086.58 95.7721 1083.68 99.0137 1079.85 102.931C1072.17 110.766 1060.75 121.307 1045.74 132.14C1015.8 153.743 971.569 176.513 914.344 181.285C914.486 284.292 958.644 359.484 1002.82 408.956C1024.94 433.732 1047.06 452.053 1063.65 464.179C1071.94 470.242 1078.86 474.755 1083.69 477.752C1086.11 479.25 1088.01 480.369 1089.3 481.113C1089.95 481.485 1090.44 481.763 1090.78 481.948C1090.87 482.001 1090.95 482.046 1091.02 482.083C1091.03 482.08 1091.03 482.076 1091.04 482.073C1091.1 482.037 1091.18 481.995 1091.26 481.947C1091.6 481.761 1092.09 481.481 1092.74 481.107C1094.03 480.359 1095.93 479.234 1098.35 477.728C1103.18 474.716 1110.1 470.182 1118.39 464.096C1134.98 451.923 1157.1 433.545 1179.23 408.731C1223.4 359.181 1267.56 283.981 1267.7 181.261C1205.86 173.017 1161.63 150.25 1132.83 129.51C1118.39 119.115 1107.84 109.23 1100.89 101.94C1097.41 98.2948 1094.84 95.2982 1093.13 93.2108C1092.28 92.167 1091.64 91.3505 1091.22 90.7938C1091.14 90.6923 1091.07 90.5994 1091.01 90.5153Z" fill="#21409A"/>
<path d="M1179.27 265.693C1179.27 265.996 1179.18 266.291 1179.01 266.543C1178.84 266.794 1178.6 266.99 1178.32 267.106C1178.04 267.222 1177.73 267.252 1177.43 267.193C1177.14 267.134 1176.86 266.988 1176.65 266.774C1176.44 266.561 1176.29 266.288 1176.23 265.991C1176.17 265.695 1176.2 265.387 1176.32 265.108C1176.43 264.829 1176.63 264.59 1176.88 264.422C1177.13 264.254 1177.43 264.164 1177.73 264.164C1178.14 264.164 1178.53 264.325 1178.82 264.612C1179.1 264.899 1179.27 265.288 1179.27 265.693Z" fill="white"/>
<path d="M1204.56 235.676C1204.56 236.333 1204.37 236.976 1204 237.522C1203.63 238.069 1203.11 238.495 1202.51 238.747C1201.9 238.998 1201.23 239.064 1200.58 238.936C1199.94 238.808 1199.34 238.491 1198.88 238.026C1198.41 237.561 1198.09 236.969 1197.96 236.324C1197.84 235.679 1197.9 235.011 1198.15 234.404C1198.41 233.796 1198.83 233.277 1199.38 232.912C1199.93 232.547 1200.57 232.352 1201.23 232.352C1202.11 232.352 1202.96 232.702 1203.59 233.325C1204.21 233.949 1204.56 234.794 1204.56 235.676Z" fill="white"/>
<path d="M1108.41 243.504C1108.41 243.81 1108.32 244.111 1108.16 244.367C1107.99 244.623 1107.75 244.824 1107.46 244.944C1107.18 245.063 1106.87 245.096 1106.57 245.038C1106.27 244.981 1105.99 244.835 1105.77 244.619C1105.55 244.404 1105.4 244.128 1105.34 243.828C1105.28 243.528 1105.31 243.216 1105.43 242.933C1105.54 242.649 1105.74 242.407 1106 242.236C1106.25 242.066 1106.55 241.975 1106.86 241.975C1107.27 241.975 1107.66 242.135 1107.95 242.421C1108.24 242.708 1108.4 243.097 1108.41 243.504Z" fill="white"/>
<path d="M1090.91 386.289C1090.92 386.662 1090.81 387.027 1090.6 387.338C1090.4 387.65 1090.11 387.894 1089.76 388.038C1089.42 388.183 1089.04 388.223 1088.67 388.152C1088.31 388.081 1087.97 387.904 1087.7 387.641C1087.44 387.379 1087.26 387.043 1087.18 386.678C1087.11 386.313 1087.14 385.934 1087.29 385.589C1087.43 385.244 1087.67 384.95 1087.98 384.742C1088.29 384.535 1088.66 384.424 1089.03 384.424C1089.28 384.422 1089.52 384.468 1089.75 384.561C1089.98 384.654 1090.19 384.791 1090.36 384.964C1090.54 385.138 1090.68 385.344 1090.77 385.571C1090.87 385.799 1090.91 386.043 1090.91 386.289Z" fill="white"/>
<path d="M1010.14 128.627V123.927L1004.82 123.492C1004.48 121.91 1003.85 120.404 1002.97 119.047L1006.43 114.985L1003.1 111.715L999.035 115.177C997.68 114.292 996.171 113.669 994.587 113.337L994.153 108.023H989.449L989.015 113.337C987.431 113.669 985.922 114.292 984.567 115.177L980.503 111.715L977.18 115.049L980.63 119.111C979.746 120.465 979.121 121.973 978.79 123.556L973.473 123.99V128.691L978.79 129.126C979.121 130.709 979.746 132.216 980.63 133.571L977.18 137.633L980.503 140.967L984.567 137.505C985.922 138.389 987.431 139.013 989.015 139.344L989.449 144.658H994.153L994.587 139.344C996.171 139.013 997.68 138.389 999.035 137.505L1003.1 140.967L1006.43 137.633L1002.97 133.571C1003.85 132.214 1004.48 130.708 1004.82 129.126L1010.14 128.627ZM991.801 133.826C990.307 133.826 988.847 133.383 987.604 132.554C986.362 131.724 985.394 130.545 984.822 129.166C984.251 127.786 984.101 126.269 984.393 124.804C984.684 123.34 985.403 121.995 986.46 120.939C987.516 119.883 988.862 119.164 990.327 118.873C991.793 118.582 993.311 118.731 994.692 119.302C996.072 119.874 997.251 120.841 998.081 122.083C998.911 123.324 999.354 124.784 999.354 126.277C999.351 128.278 998.554 130.196 997.138 131.611C995.722 133.026 993.803 133.823 991.801 133.826Z" fill="#21409A"/>
<defs>
<filter id="filter0_d" x="1326.36" y="312.316" width="48.0763" height="48.0763" filterUnits="userSpaceOnUse" color-interpolation-filters="sRGB">
<feFlood flood-opacity="0" result="BackgroundImageFix"/>
<feColorMatrix in="SourceAlpha" type="matrix" values="0 0 0 0 0 0 0 0 0 0 0 0 0 0 0 0 0 0 127 0"/>
<feOffset/>
<feGaussianBlur stdDeviation="2"/>
<feColorMatrix type="matrix" values="0 0 0 0 0 0 0 0 0 0 0 0 0 0 0 0 0 0 0.25 0"/>
<feBlend mode="normal" in2="BackgroundImageFix" result="effect1_dropShadow"/>
<feBlend mode="normal" in="SourceGraphic" in2="effect1_dropShadow" result="shape"/>
</filter>
<filter id="filter1_d" x="66.8374" y="311.078" width="48.0763" height="48.0763" filterUnits="userSpaceOnUse" color-interpolation-filters="sRGB">
<feFlood flood-opacity="0" result="BackgroundImageFix"/>
<feColorMatrix in="SourceAlpha" type="matrix" values="0 0 0 0 0 0 0 0 0 0 0 0 0 0 0 0 0 0 127 0"/>
<feOffset/>
<feGaussianBlur stdDeviation="2"/>
<feColorMatrix type="matrix" values="0 0 0 0 0 0 0 0 0 0 0 0 0 0 0 0 0 0 0.25 0"/>
<feBlend mode="normal" in2="BackgroundImageFix" result="effect1_dropShadow"/>
<feBlend mode="normal" in="SourceGraphic" in2="effect1_dropShadow" result="shape"/>
</filter>
<linearGradient id="paint0_linear" x1="7769.61" y1="1873.31" x2="7719.26" y2="1963.76" gradientUnits="userSpaceOnUse">
<stop stop-color="#00FFFF"/>
<stop offset="1" stop-color="#0091ED"/>
</linearGradient>
</defs>
</svg>
