<svg width="113" height="87" viewBox="0 0 113 87" fill="none" xmlns="http://www.w3.org/2000/svg">
<path fill-rule="evenodd" clip-rule="evenodd" d="M83.0356 48.2281C85.6115 46.2127 91.6637 40.3369 93.1723 37.1344C84.568 24.7581 71.3425 14.2715 57.9651 26.8422C58.5196 28.5167 59.6108 29.5513 60.0371 31.5577C60.6811 31.0733 60.216 31.4411 60.7616 30.8969C64.2558 27.4163 68.1018 23.5829 75.3943 26.8362C79.8663 28.8277 85.2328 33.8722 87.3914 37.1344C86.0438 39.419 82.4095 42.7859 80.1704 44.574C77.2517 46.9004 74.2524 48.7872 69.3212 48.6706C64.1276 47.4745 61.1045 45.3814 59.5601 41.0277L58.8893 38.0883C58.4451 28.4779 53.1531 22.934 46.4032 21.6423V21.7111C46.1069 23.0702 46.1509 24.4817 46.5314 25.8196L46.7491 26.5641C49.6023 27.4761 51.9963 29.5932 53.3409 33.304L53.9998 36.0759C54.7213 42.3015 54.6497 43.1716 57.9054 47.4386C64.3721 55.9188 75.3793 54.2323 83.0564 48.2221L83.0356 48.2281ZM39.1525 21.8127C39.0324 23.372 39.1328 24.9404 39.4506 26.4714C33.5594 27.8529 27.6801 32.3053 25.4798 37.4813C30.1219 42.2357 35.6166 49.0563 43.0044 48.6676C47.2887 48.4404 50.7829 45.7133 52.6105 42.8278L54.9032 47.4715C48.046 56.3105 36.5378 53.6732 28.9651 47.3609C24.8716 43.9491 20.5963 39.416 19.7437 37.1344C21.5325 34.1831 25.1489 30.0746 29.0605 26.8661C31.982 24.41 35.4394 22.6787 39.1525 21.8127Z" fill="#21409A"/>
<path fill-rule="evenodd" clip-rule="evenodd" d="M67.4338 10.5636C65.4243 7.98009 59.5689 1.91001 56.3728 0.396973C44.3399 8.81136 34.0959 21.6273 45.2254 34.7124C46.4567 36.1596 49.5395 38.5996 51.0749 40.0259C52.0319 40.8243 51.8262 40.7017 53.0068 40.5612L53.1738 40.5403C53.0068 39.4817 52.6282 35.3732 52.0498 34.8111C51.4714 34.2489 50.4041 33.4774 49.9628 33.0169C46.4955 29.5154 42.8761 25.5415 46.1198 18.2334C48.1054 13.7482 53.132 8.36582 56.3847 6.20093C58.6655 7.5495 62.0196 11.1945 63.8024 13.4432C65.5229 15.3556 66.7907 17.6329 67.5113 20.1053H67.559C69.0466 19.8262 70.5655 19.7537 72.0728 19.89C71.2094 16.4842 69.6275 13.3038 67.4338 10.5636Z" fill="#ED1C24"/>
<path fill-rule="evenodd" clip-rule="evenodd" d="M13.897 84.7293C15.179 84.7293 16.0615 83.883 16.2195 82.6182V81.8976H13.7927V82.7258H15.3698C15.3237 83.0736 15.1473 83.3907 14.8766 83.6129C14.6058 83.835 14.2609 83.9455 13.9119 83.9219C12.9549 83.9219 12.3228 83.2342 12.3228 82.1069C12.3228 80.9796 12.9579 80.2799 13.906 80.2799C14.2485 80.267 14.5848 80.3743 14.8569 80.5833C15.129 80.7924 15.3199 81.0901 15.3967 81.4251H16.2314C16.151 80.9873 15.9636 80.5763 15.6859 80.229C15.4554 79.9885 15.177 79.7995 14.8687 79.6743C14.5605 79.5491 14.2294 79.4905 13.897 79.5024C12.4361 79.5024 11.4165 80.5819 11.4165 82.1218C11.4165 83.6618 12.4361 84.7293 13.8911 84.7293H13.897ZM20.4054 82.1816C20.5813 81.9873 20.8407 81.8826 21.3892 81.8826V81.0812C20.7602 81.0812 20.4084 81.2337 20.1371 81.5926V81.15H19.3559V84.6396H20.152V83.0727C20.1239 82.7526 20.2141 82.4334 20.4054 82.1757V82.1816ZM25.7719 84.7293C26.0119 84.7357 26.2506 84.6924 26.4731 84.6021C26.6956 84.5117 26.8971 84.3763 27.0651 84.2042C27.233 84.0322 27.3637 83.8272 27.449 83.6021C27.5343 83.3771 27.5723 83.1368 27.5607 82.8963C27.5685 82.6523 27.5277 82.4092 27.4406 82.1813C27.3536 81.9533 27.2221 81.745 27.0539 81.5686C26.8887 81.398 26.69 81.2636 26.4704 81.174C26.2507 81.0845 26.0149 81.0417 25.7778 81.0483C25.304 81.0675 24.8558 81.2698 24.5273 81.6129C24.1988 81.9559 24.0153 82.4131 24.0153 82.8888C24.0153 83.3645 24.1988 83.8217 24.5273 84.1648C24.8558 84.5078 25.304 84.7101 25.7778 84.7293H25.7719ZM25.7719 81.76C26.3413 81.76 26.6931 82.1846 26.6931 82.8903C26.6931 83.596 26.3294 84.0385 25.7659 84.0326C25.2024 84.0266 24.8775 83.602 24.8775 82.8963C24.8621 82.5975 24.9483 82.3023 25.1219 82.059C25.202 81.9592 25.3046 81.88 25.4212 81.828C25.5379 81.776 25.6653 81.7527 25.7928 81.76H25.7719ZM34.0095 84.6426L35.1394 81.144H34.3136L33.6159 83.3478L32.969 81.144H32.2594L31.6214 83.3478L30.9148 81.144H30.0412L31.1831 84.6426H31.9583L32.6112 82.4836L33.2254 84.6426H34.0095ZM37.7779 80.543H38.5978V79.6011H37.7779V80.543ZM37.7779 84.6426H38.5769V81.0782H37.7779V84.6426ZM43.9196 84.6426H44.7574V82.4926C44.7574 81.6434 44.3549 81.0424 43.4634 81.0483C43.2833 81.0465 43.1046 81.0816 42.9385 81.1515C42.7724 81.2215 42.6223 81.3247 42.4975 81.455V81.156H41.6925V84.6545H42.5303V82.663C42.5187 82.5536 42.5298 82.443 42.563 82.3381C42.5961 82.2332 42.6504 82.1362 42.7227 82.0534C42.7949 81.9706 42.8834 81.9036 42.9827 81.8567C43.0819 81.8098 43.1898 81.784 43.2995 81.7809C43.7198 81.7809 43.9524 82.0381 43.9524 82.5584V84.6515L43.9196 84.6426ZM49.3696 86.0121C50.5621 86.0121 51.1346 85.414 51.1346 84.3734V81.144H50.3147V81.4102C50.1966 81.2942 50.0567 81.203 49.9032 81.1419C49.7496 81.0808 49.5854 81.0511 49.4203 81.0543C49.1558 81.0415 48.8921 81.093 48.6518 81.2044C48.4114 81.3159 48.2015 81.4839 48.0399 81.6942C47.7844 82.0713 47.6512 82.5182 47.6583 82.974C47.6485 83.4405 47.8003 83.8959 48.0876 84.2628C48.2446 84.4431 48.4399 84.5859 48.6592 84.6806C48.8785 84.7753 49.1161 84.8195 49.3547 84.81C49.5407 84.8168 49.7263 84.7862 49.9004 84.7199C50.0745 84.6537 50.2336 84.5532 50.3683 84.4243C50.3639 84.6428 50.2862 84.8535 50.1477 85.0223C50.0591 85.1268 49.9468 85.2085 49.8202 85.2606C49.6937 85.3126 49.5565 85.3334 49.4203 85.3213C49.2327 85.3264 49.0463 85.2896 48.8747 85.2137C48.7878 85.1798 48.7142 85.1188 48.6648 85.0396C48.6154 84.9603 48.5928 84.8673 48.6004 84.7741H47.7954C47.7898 84.9747 47.8395 85.1728 47.9389 85.3469C48.0383 85.521 48.1836 85.6642 48.3589 85.7609C48.675 85.9241 49.026 86.0072 49.3815 86.0031L49.3696 86.0121ZM50.1596 82.1069C50.2992 82.3416 50.3695 82.6112 50.3624 82.8843C50.3683 83.1782 50.293 83.468 50.1447 83.7216C50.0658 83.8421 49.9569 83.9399 49.8288 84.0054C49.7008 84.0709 49.5579 84.1019 49.4143 84.0953C48.7286 84.0953 48.5199 83.4973 48.5199 82.8993C48.5066 82.6168 48.5828 82.3373 48.7375 82.1009C48.8207 81.988 48.9311 81.8981 49.0583 81.8395C49.1855 81.781 49.3254 81.7557 49.465 81.766C49.6003 81.7577 49.7354 81.7848 49.8571 81.8446C49.9789 81.9043 50.0831 81.9947 50.1596 82.1069ZM59.2797 80.3726H61.0447V79.5951H56.674V80.3726H58.4091V84.6396H59.2797V80.3756V80.3726ZM65.4661 84.7263C65.7061 84.7327 65.9448 84.6894 66.1673 84.5991C66.3898 84.5087 66.5913 84.3733 66.7593 84.2012C66.9272 84.0292 67.0579 83.8242 67.1432 83.5991C67.2284 83.3741 67.2665 83.1338 67.2549 82.8933C67.2627 82.6493 67.2218 82.4062 67.1348 82.1783C67.0478 81.9503 66.9163 81.742 66.7481 81.5656C66.5829 81.395 66.3842 81.2606 66.1646 81.1711C65.9449 81.0815 65.7091 81.0387 65.472 81.0454C64.9982 81.0645 64.55 81.2668 64.2215 81.6099C63.893 81.9529 63.7095 82.4102 63.7095 82.8858C63.7095 83.3615 63.893 83.8187 64.2215 84.1618C64.55 84.5048 64.9982 84.7071 65.472 84.7263H65.4661ZM65.4661 81.757C66.0385 81.757 66.3873 82.1816 66.3873 82.8873C66.3873 83.593 66.0266 84.0355 65.4601 84.0296C64.8937 84.0236 64.5508 83.602 64.5508 82.8933C64.5354 82.5945 64.6216 82.2993 64.7953 82.056C64.8754 81.9564 64.9781 81.8774 65.0947 81.8254C65.2113 81.7734 65.3386 81.75 65.4661 81.757ZM71.6853 86.0121C72.8778 86.0121 73.4502 85.414 73.4502 84.3734V81.144H72.6393V81.4102C72.5213 81.2942 72.3814 81.203 72.2278 81.1419C72.0742 81.0808 71.9101 81.0511 71.7449 81.0543C71.4804 81.0415 71.2168 81.093 70.9764 81.2044C70.7361 81.3159 70.5261 81.4839 70.3645 81.6942C70.1091 82.0713 69.9758 82.5182 69.9829 82.974C69.9732 83.4405 70.1249 83.8959 70.4122 84.2628C70.5692 84.4431 70.7646 84.5859 70.9838 84.6806C71.2031 84.7753 71.4408 84.8195 71.6793 84.81C71.8654 84.8168 72.0509 84.7862 72.225 84.7199C72.3991 84.6537 72.5582 84.5532 72.693 84.4243C72.6886 84.6428 72.6109 84.8535 72.4723 85.0223C72.3838 85.1268 72.2715 85.2085 72.1449 85.2606C72.0183 85.3126 71.8811 85.3334 71.7449 85.3213C71.5573 85.3264 71.371 85.2896 71.1993 85.2137C71.1127 85.1794 71.0394 85.1183 70.99 85.0392C70.9407 84.9601 70.9179 84.8672 70.925 84.7741H70.12C70.1145 84.9747 70.1641 85.1728 70.2635 85.3469C70.3629 85.521 70.5082 85.6642 70.6835 85.7609C70.9996 85.9241 71.3507 86.0072 71.7061 86.0031L71.6853 86.0121ZM72.4515 82.1069C72.591 82.3416 72.6613 82.6112 72.6542 82.8843C72.6602 83.1782 72.5848 83.468 72.4366 83.7216C72.3576 83.8421 72.2487 83.9399 72.1207 84.0054C71.9926 84.0709 71.8497 84.1019 71.7061 84.0953C71.0204 84.0953 70.8117 83.4973 70.8117 82.8993C70.7984 82.6168 70.8746 82.3373 71.0293 82.1009C71.1125 81.988 71.2229 81.8981 71.3501 81.8395C71.4773 81.781 71.6172 81.7557 71.7568 81.766C71.8906 81.7581 72.0241 81.7848 72.1447 81.8434C72.2652 81.9021 72.3688 81.9907 72.4455 82.1009L72.4515 82.1069ZM78.9032 84.4004C79.224 84.1425 79.4368 83.7733 79.4995 83.3657H78.7571C78.617 83.895 78.3457 84.0236 77.8418 84.0236C77.6044 84.0203 77.3765 83.9295 77.2017 83.7685C77.0268 83.6074 76.9172 83.3874 76.8937 83.1504H79.4816V82.7916C79.4816 81.8019 78.8853 81.0454 77.8239 81.0454C77.581 81.045 77.3406 81.0943 77.1173 81.1902C76.8941 81.2861 76.6926 81.4266 76.5252 81.6032C76.3578 81.7797 76.2281 81.9886 76.1438 82.2171C76.0595 82.4456 76.0225 82.6889 76.0351 82.9322C76.0237 83.1658 76.0601 83.3992 76.1422 83.6181C76.2242 83.837 76.3502 84.0367 76.5123 84.2048C76.6743 84.373 76.8691 84.506 77.0844 84.5957C77.2998 84.6854 77.5312 84.7298 77.7643 84.7263C78.1689 84.7465 78.5683 84.6284 78.8972 84.3914L78.9032 84.4004ZM78.3934 81.9903C78.5259 82.1419 78.6145 82.327 78.6498 82.5255H76.9236C76.9513 82.3078 77.0576 82.1078 77.2224 81.9634C77.3873 81.8191 77.5991 81.7403 77.818 81.7421C77.927 81.7351 78.0362 81.754 78.1366 81.7971C78.2371 81.8402 78.3261 81.9063 78.3964 81.9903H78.3934ZM82.4809 83.7545C82.4809 85.103 83.7837 84.7891 84.2697 84.3944V83.6917C83.6734 84.0505 83.2888 84.1013 83.2888 83.6917V81.7839H84.1832V81.1052H83.2888V80.1812H82.5017V81.1052H82.0009V81.7839H82.4779V83.7664L82.4809 83.7545ZM89.3619 84.6515H90.1997V82.4657C90.1997 81.6045 89.7972 80.9885 88.9028 80.9945C88.7248 80.9894 88.5476 81.0207 88.382 81.0865C88.2164 81.1523 88.066 81.2513 87.9398 81.3773V79.6071H87.102V84.6515H87.9398V82.6152C87.9274 82.5049 87.9378 82.3931 87.9705 82.287C88.0031 82.1809 88.0572 82.0827 88.1294 81.9985C88.2016 81.9143 88.2903 81.8459 88.39 81.7977C88.4898 81.7495 88.5983 81.7224 88.709 81.7182C89.1293 81.7182 89.3619 81.9813 89.3619 82.5135V84.6426V84.6515ZM95.9418 84.4123C96.2627 84.1544 96.4754 83.7853 96.5381 83.3777H95.7957C95.6556 83.907 95.3843 84.0356 94.8804 84.0356C94.6432 84.0317 94.4157 83.9406 94.241 83.7797C94.0662 83.6187 93.9564 83.3991 93.9324 83.1624H96.5232V82.8036C96.5232 81.8138 95.909 81.0573 94.8626 81.0573C94.6197 81.057 94.3793 81.1063 94.156 81.2022C93.9327 81.2981 93.7312 81.4386 93.5638 81.6151C93.3965 81.7917 93.2667 82.0006 93.1824 82.2291C93.0982 82.4575 93.0612 82.7008 93.0737 82.9441C93.0619 83.1776 93.0979 83.411 93.1796 83.6298C93.2614 83.8487 93.3871 84.0485 93.5489 84.2167C93.7107 84.3849 93.9053 84.5179 94.1205 84.6077C94.3356 84.6974 94.5669 84.7418 94.8 84.7382C95.2045 84.7585 95.6039 84.6404 95.9329 84.4033L95.9418 84.4123ZM95.432 82.0022C95.5645 82.1539 95.6532 82.3389 95.6884 82.5375H93.9622C93.9899 82.3197 94.0962 82.1198 94.2611 81.9754C94.4259 81.831 94.6378 81.7523 94.8566 81.754C94.9656 81.7471 95.0748 81.7659 95.1753 81.809C95.2757 81.8521 95.3647 81.9183 95.435 82.0022H95.432ZM100.5 82.1906C100.676 81.9962 100.933 81.8916 101.481 81.8916V81.0902C100.855 81.0902 100.503 81.2427 100.232 81.6015V81.15H99.4509V84.6396H100.247V83.0727C100.224 82.7531 100.318 82.4361 100.512 82.1816L100.5 82.1906Z" fill="#6D6E71"/>
<path fill-rule="evenodd" clip-rule="evenodd" d="M0.764307 70.1611C1.6358 70.7178 2.56067 71.1856 3.52507 71.5575C4.23457 71.8152 4.98269 71.9497 5.73726 71.9552C6.35765 71.9845 6.97134 71.8159 7.49032 71.4738C7.69402 71.3393 7.86099 71.1558 7.97606 70.9402C8.09112 70.7245 8.15065 70.4834 8.14921 70.2388C8.14921 69.5212 7.3651 68.7048 5.79391 67.8078L5.20061 67.4549L4.00806 66.7821C2.99263 66.2466 2.11417 65.4833 1.44108 64.5515C0.880409 63.7221 0.587906 62.7396 0.603315 61.7377C0.590802 61.072 0.729841 60.4123 1.00986 59.8086C1.28987 59.205 1.70349 58.6733 2.21923 58.2541C3.28259 57.3451 4.66098 56.8906 6.35441 56.8906C7.03581 56.8971 7.71491 56.9712 8.38176 57.1119C9.20491 57.2848 10.0157 57.5125 10.8086 57.7936V61.9291C10.0449 61.4408 9.23624 61.0272 8.39368 60.6941C7.77652 60.4346 7.11839 60.2868 6.44981 60.2575C5.95563 60.2299 5.46589 60.3642 5.05452 60.6403C4.89093 60.7585 4.75885 60.9152 4.66994 61.0967C4.58102 61.2782 4.53802 61.4788 4.54471 61.6809C4.54404 61.9926 4.64918 62.2953 4.84285 62.5391C5.09114 62.846 5.40226 63.0958 5.75515 63.2717L7.81827 64.4139C9.54747 65.3768 10.7092 66.2628 11.3035 67.0722C11.9084 67.9111 12.2226 68.9257 12.1979 69.9607C12.2275 70.7445 12.0859 71.5252 11.7831 72.2483C11.4803 72.9714 11.0235 73.6195 10.4449 74.147C9.27418 75.2055 7.72187 75.7348 5.78795 75.7348C5.07066 75.7279 4.35536 75.6579 3.65029 75.5255C2.79189 75.3651 1.94447 75.1504 1.11313 74.8826L0.761328 70.173L0.764307 70.1611ZM18.6526 75.1487V66.7762L12.3589 57.5066H17.4273L21.1033 63.0982L25.158 57.5066H29.6122L22.8236 66.6147V75.1666L18.6526 75.1487ZM30.6676 75.1487V56.9085H31.0701L42.0297 67.2127V57.4886H45.9055V75.8275H45.5388L34.5404 65.5233V75.1547L30.6676 75.1487ZM49.9333 75.1487V57.4886H60.7766V61.1307H54.0238V64.3242H59.8196V67.9393H54.0238V71.4319H60.881V75.1487H49.9333ZM68.8502 60.7061H68.1586V65.595H69.053C70.1144 65.595 70.9223 65.3797 71.4828 64.9522C71.7607 64.7341 71.982 64.4519 72.1279 64.1297C72.2737 63.8074 72.3398 63.4546 72.3206 63.1012C72.3206 62.258 72.0493 61.651 71.5067 61.2712C70.964 60.8915 70.0816 60.7061 68.8592 60.7061H68.8502ZM64.08 75.1487V57.4886H68.6058C69.7373 57.4631 70.8682 57.5633 71.9777 57.7877C72.7418 57.9617 73.4634 58.287 74.1005 58.7445C74.7409 59.1961 75.2643 59.7949 75.6269 60.4908C75.9819 61.1674 76.1662 61.921 76.1636 62.6856C76.1862 63.7229 75.8918 64.7424 75.3199 65.607C74.7101 66.4807 73.8639 67.1614 72.8811 67.5686L78.2476 75.1607H73.4744L68.7757 68.2264H68.1794V75.1607L64.08 75.1487ZM94.8807 65.3618V73.9437C93.7786 74.5073 92.6217 74.9562 91.4283 75.2833C90.3659 75.5789 89.2691 75.7317 88.1667 75.7378C85.4854 75.7378 83.2613 74.8507 81.4943 73.0765C79.7273 71.3023 78.8429 69.0577 78.8409 66.3426C78.8409 63.6135 79.7353 61.3569 81.5241 59.5728C83.313 57.7887 85.5818 56.8916 88.3306 56.8816C89.3341 56.8773 90.3326 57.0213 91.2941 57.3092C92.254 57.6049 93.1659 58.039 94.0012 58.598L93.551 63.0175C92.8495 62.2749 92.0242 61.6607 91.1123 61.2024C90.3163 60.818 89.4437 60.6196 88.5602 60.6224C87.8327 60.6004 87.1086 60.7301 86.4337 61.0034C85.7589 61.2768 85.1479 61.6877 84.6397 62.2101C84.1274 62.7336 83.7257 63.3553 83.4588 64.0382C83.1919 64.7211 83.0652 65.451 83.0864 66.1841C83.0864 67.8626 83.5833 69.2291 84.5771 70.2837C85.0731 70.8099 85.6754 71.2239 86.3439 71.4977C87.0123 71.7715 87.7313 71.899 88.4529 71.8714C88.8246 71.8704 89.1955 71.8384 89.562 71.7758C89.9547 71.7053 90.343 71.6114 90.7247 71.4947V68.95H87.3975V65.3618H94.8807ZM101.338 75.1637V66.7911L95.0477 57.5215H100.116L103.792 63.1132L107.847 57.5215H112.301L105.512 66.6296V75.1816L101.338 75.1637Z" fill="#21409A"/>
</svg>
