<svg width="771" height="432" viewBox="0 0 771 432" fill="none" xmlns="http://www.w3.org/2000/svg">
<path d="M111.853 40.0519C217.147 1.02917 324.17 35.5308 396.742 110.672C469.314 185.813 621.645 58.8068 702.427 133.826C757.558 185.023 732.307 316.654 656.711 373.67C553.964 451.159 241.489 411.838 173.887 398.652C96.0135 383.456 39.0833 337.36 15.9529 281.411C-39.7735 146.603 65.3233 57.309 111.853 40.0519Z" fill="#E7F3FE"/>
<path d="M471.749 94.2647C472.113 91.0483 472.295 87.8141 472.297 84.5773C472.297 82.8493 472.239 81.134 472.14 79.4313L456.103 74.26C455.134 67.6294 453.221 61.1709 450.423 55.08L461.067 42.0177C458.616 37.7095 455.799 33.6195 452.646 29.7927L436.606 35.0172C431.914 30.2273 426.568 26.1227 420.727 22.8251L421.639 6.00311C417.125 3.95067 412.441 2.2932 407.64 1.04937L397.736 14.6937C391.12 13.5793 384.38 13.403 377.715 14.1699L368.546 0.0196533C363.685 1.00723 358.918 2.41326 354.3 4.22198L354.321 21.0693C348.313 24.0517 342.758 27.8667 337.82 32.4011L322.087 26.3291C318.732 29.9868 315.699 33.9253 313.019 38.1012L322.949 51.7101C319.83 57.6447 317.577 63.9932 316.256 70.5637L299.97 74.8899C299.607 78.1064 299.424 81.3405 299.423 84.5773C299.423 86.3053 299.481 88.0207 299.58 89.7233L315.617 94.9048C316.586 101.535 318.499 107.994 321.296 114.085L310.652 127.147C313.104 131.455 315.921 135.545 319.074 139.372L335.113 134.148C339.805 138.934 345.15 143.035 350.991 146.33L350.078 163.152C354.592 165.204 359.276 166.861 364.078 168.105L373.989 154.461C380.605 155.575 387.345 155.752 394.01 154.985L403.179 169.135C408.043 168.148 412.812 166.742 417.432 164.933L417.412 148.085C423.417 145.102 428.97 141.286 433.905 136.751L449.638 142.823C452.99 139.168 456.022 135.233 458.7 131.061L448.771 117.452C451.89 111.518 454.144 105.169 455.464 98.5986L471.749 94.2647ZM385.86 118.421C379.154 118.422 372.599 116.437 367.023 112.718C361.447 108.999 357.101 103.713 354.535 97.5284C351.968 91.3437 351.297 84.5381 352.605 77.9723C353.913 71.4065 357.142 65.3755 361.884 60.6418C366.625 55.9082 372.667 52.6846 379.244 51.3787C385.821 50.0728 392.638 50.7433 398.833 53.3053C405.028 55.8674 410.323 60.206 414.048 65.7723C417.773 71.3387 419.761 77.8829 419.761 84.5773C419.761 93.5533 416.189 102.162 409.832 108.509C403.474 114.855 394.851 118.421 385.86 118.421Z" fill="#9EC8FF"/>
<path d="M432.098 123.178C431.857 123.177 431.622 123.109 431.419 122.98C431.215 122.851 431.053 122.667 430.951 122.449C430.849 122.231 430.811 121.989 430.842 121.751C430.873 121.512 430.971 121.288 431.125 121.103C437.406 113.546 441.634 104.504 443.404 94.8455C445.174 85.1868 444.426 75.2359 441.232 65.949C441.172 65.7908 441.145 65.6223 441.152 65.4535C441.159 65.2847 441.2 65.119 441.272 64.9662C441.344 64.8133 441.446 64.6764 441.572 64.5636C441.698 64.4507 441.845 64.3642 442.005 64.3091C442.165 64.254 442.334 64.2315 442.503 64.2428C442.672 64.2541 442.837 64.2991 442.988 64.3751C443.139 64.4511 443.274 64.5565 443.383 64.6851C443.493 64.8138 443.576 64.9631 443.627 65.1242C446.962 74.8216 447.744 85.2126 445.896 95.2985C444.048 105.385 439.632 114.826 433.074 122.717C432.955 122.861 432.806 122.977 432.638 123.056C432.469 123.136 432.285 123.177 432.098 123.178Z" fill="white"/>
<path d="M427.19 43.2953C426.867 43.2948 426.557 43.1718 426.323 42.9512C420.652 37.6043 413.942 33.4769 406.609 30.8249C406.452 30.7681 406.308 30.6811 406.186 30.5689C406.063 30.4566 405.964 30.3213 405.893 30.1707C405.751 29.8666 405.736 29.5186 405.851 29.2032C405.966 28.8878 406.201 28.631 406.506 28.4891C406.811 28.3472 407.159 28.332 407.475 28.4467C415.133 31.2185 422.139 35.531 428.059 41.117C428.244 41.2908 428.372 41.516 428.427 41.7634C428.482 42.0108 428.461 42.2691 428.368 42.5047C428.274 42.7402 428.112 42.9423 427.902 43.0846C427.692 43.227 427.443 43.303 427.19 43.3029V43.2953Z" fill="white"/>
<path d="M372.71 29.188C372.4 29.1883 372.102 29.0756 371.87 28.8713C371.638 28.6669 371.489 28.3849 371.451 28.0785C371.413 27.7721 371.489 27.4624 371.663 27.2077C371.838 26.953 372.101 26.771 372.401 26.696C377.2 25.4907 382.13 24.8823 387.079 24.8845C387.415 24.8845 387.737 25.0178 387.975 25.255C388.213 25.4922 388.346 25.814 388.346 26.1495C388.346 26.485 388.213 26.8068 387.975 27.044C387.737 27.2812 387.415 27.4145 387.079 27.4145C382.339 27.4125 377.616 27.9954 373.019 29.1501C372.918 29.175 372.814 29.1877 372.71 29.188Z" fill="white"/>
<path d="M199.265 308.566C199.517 306.338 199.643 304.098 199.643 301.856C199.643 300.659 199.607 299.47 199.534 298.291L188.429 294.704C187.757 290.111 186.433 285.636 184.496 281.416L191.86 272.359C190.164 269.376 188.214 266.543 186.031 263.894L174.921 267.511C171.672 264.196 167.97 261.355 163.925 259.074L164.556 247.421C161.429 246 158.185 244.852 154.86 243.99L147.999 253.44C143.417 252.669 138.748 252.547 134.132 253.078L127.781 243.277C124.415 243.963 121.114 244.937 117.915 246.189L117.93 257.857C113.77 259.922 109.922 262.562 106.5 265.7L95.603 261.503C93.2809 264.034 91.1807 266.76 89.3256 269.649L96.2037 279.074C94.0437 283.185 92.4821 287.582 91.5659 292.133L80.2858 295.129C80.0357 297.358 79.9096 299.598 79.9082 301.841C79.9082 303.038 79.9487 304.227 80.0172 305.406L91.125 308.993C91.796 313.586 93.1204 318.06 95.0582 322.278L87.6935 331.326C89.3899 334.31 91.34 337.143 93.5224 339.794L104.63 336.173C107.88 339.489 111.583 342.331 115.629 344.613L114.995 356.251C118.122 357.674 121.368 358.822 124.694 359.682L131.565 350.26C134.281 350.718 137.031 350.948 139.786 350.948C141.672 350.947 143.558 350.839 145.432 350.625L151.783 360.423C155.15 359.74 158.451 358.767 161.649 357.514V345.843C165.81 343.779 169.658 341.139 173.079 338L183.976 342.197C186.297 339.667 188.397 336.942 190.251 334.053L183.375 324.626C185.526 320.517 187.079 316.122 187.985 311.574L199.265 308.566ZM139.773 325.299C135.129 325.299 130.589 323.924 126.727 321.348C122.865 318.772 119.855 315.111 118.078 310.827C116.301 306.544 115.836 301.83 116.742 297.283C117.648 292.735 119.884 288.558 123.168 285.28C126.452 282.001 130.637 279.768 135.192 278.864C139.747 277.959 144.469 278.423 148.76 280.198C153.05 281.972 156.718 284.977 159.298 288.832C161.879 292.687 163.256 297.22 163.256 301.856C163.255 308.074 160.781 314.036 156.377 318.432C151.973 322.828 146.001 325.299 139.773 325.299Z" fill="#9EC8FF"/>
<path d="M171.801 328.98C171.561 328.98 171.325 328.912 171.122 328.783C170.918 328.654 170.756 328.469 170.654 328.252C170.552 328.034 170.514 327.792 170.545 327.553C170.576 327.315 170.674 327.09 170.828 326.906C175.133 321.723 178.032 315.522 179.246 308.898C180.46 302.275 179.948 295.451 177.759 289.082C177.66 288.768 177.687 288.427 177.836 288.133C177.985 287.838 178.242 287.613 178.555 287.506C178.867 287.398 179.209 287.417 179.507 287.557C179.806 287.697 180.038 287.949 180.154 288.257C182.485 295.038 183.031 302.303 181.739 309.354C180.447 316.406 177.361 323.007 172.777 328.525C172.658 328.668 172.509 328.783 172.34 328.861C172.171 328.94 171.987 328.981 171.801 328.98Z" fill="white"/>
<path d="M168.401 273.652C168.078 273.651 167.768 273.528 167.534 273.308C163.645 269.641 159.043 266.81 154.013 264.992C153.701 264.875 153.447 264.639 153.308 264.337C153.168 264.034 153.154 263.689 153.267 263.376C153.381 263.063 153.614 262.807 153.916 262.664C154.217 262.522 154.563 262.503 154.878 262.613C160.232 264.55 165.131 267.564 169.27 271.468C169.456 271.642 169.585 271.867 169.64 272.115C169.696 272.363 169.675 272.622 169.582 272.858C169.488 273.094 169.325 273.297 169.114 273.439C168.904 273.582 168.655 273.658 168.401 273.657V273.652Z" fill="white"/>
<path d="M130.665 263.881C130.355 263.881 130.057 263.769 129.825 263.564C129.593 263.36 129.444 263.078 129.406 262.771C129.368 262.465 129.444 262.155 129.619 261.901C129.793 261.646 130.056 261.464 130.356 261.389C133.712 260.547 137.159 260.122 140.619 260.124C140.955 260.124 141.278 260.257 141.515 260.494C141.753 260.732 141.887 261.053 141.887 261.389C141.887 261.724 141.753 262.046 141.515 262.283C141.278 262.521 140.955 262.654 140.619 262.654C137.368 262.652 134.129 263.051 130.976 263.843C130.875 263.869 130.77 263.882 130.665 263.881Z" fill="white"/>
<path d="M523.512 158.722C523.512 158.069 523.495 157.419 523.459 156.773L531.782 150.102C531.138 146.817 530.123 143.616 528.758 140.559L518.013 139.747C515.569 135.9 512.412 132.556 508.71 129.895L508.674 119.203C505.651 117.618 502.454 116.387 499.148 115.534L491.798 123.425C487.37 122.943 482.891 123.293 478.592 124.458L470.171 117.801C467.017 119.172 464.032 120.902 461.275 122.957L462.869 133.556C459.706 136.697 457.162 140.404 455.368 144.483L444.891 146.909C443.99 150.199 443.471 153.582 443.343 156.991L452.57 162.304C453.029 166.857 454.37 171.278 456.519 175.321L451.899 184.993C453.879 187.697 456.156 190.171 458.688 192.368L468.572 188.5C472.531 191.079 476.968 192.839 481.621 193.676L486.284 203.262C486.839 203.282 487.396 203.298 487.959 203.298C490.703 203.295 493.442 203.041 496.14 202.539L499.29 192.383C503.82 190.861 507.995 188.441 511.566 185.269L521.956 187.601C524.099 185.091 525.957 182.352 527.496 179.435L521.467 170.595C522.823 166.783 523.515 162.767 523.512 158.722ZM487.558 174.365C484.596 174.365 481.699 173.487 479.236 171.844C476.772 170.201 474.852 167.865 473.719 165.133C472.585 162.4 472.288 159.393 472.866 156.492C473.444 153.591 474.871 150.926 476.966 148.835C479.061 146.744 481.73 145.319 484.636 144.742C487.542 144.165 490.554 144.461 493.291 145.593C496.028 146.725 498.368 148.642 500.014 151.101C501.66 153.561 502.539 156.452 502.539 159.41C502.539 161.374 502.151 163.318 501.398 165.133C500.646 166.947 499.542 168.596 498.151 169.984C496.76 171.373 495.109 172.475 493.291 173.226C491.474 173.978 489.526 174.365 487.558 174.365Z" fill="#9EC8FF"/>
<g opacity="0.8">
<path opacity="0.8" d="M661.99 72.57H649.116C646.725 72.5673 644.433 71.618 642.743 69.9305C641.053 68.2429 640.102 65.9548 640.099 63.5682V50.7158C640.102 48.3297 641.054 46.0423 642.744 44.3552C644.434 42.6682 646.726 41.7193 649.116 41.7166H661.99C664.38 41.7193 666.672 42.6682 668.362 44.3552C670.053 46.0423 671.004 48.3297 671.007 50.7158V63.5682C671.005 65.9548 670.054 68.2429 668.363 69.9305C666.673 71.618 664.381 72.5673 661.99 72.57ZM649.116 45.2586C647.666 45.26 646.277 45.8353 645.251 46.8583C644.226 47.8814 643.649 49.2687 643.647 50.7158V63.5682C643.648 65.0158 644.225 66.4038 645.25 67.4274C646.276 68.451 647.666 69.0266 649.116 69.028H661.99C663.44 69.0266 664.831 68.451 665.856 67.4274C666.881 66.4038 667.458 65.0158 667.459 63.5682V50.7158C667.457 49.2687 666.88 47.8814 665.855 46.8583C664.83 45.8353 663.44 45.26 661.99 45.2586H649.116Z" fill="#9EC8FF"/>
</g>
<g opacity="0.8">
<path opacity="0.8" d="M601.406 72.57H588.529C586.139 72.5666 583.848 71.6171 582.158 69.9296C580.468 68.2421 579.517 65.9544 579.515 63.5682V50.7158C579.517 48.3299 580.468 46.0425 582.158 44.3554C583.848 42.6683 586.139 41.7193 588.529 41.7166H601.406C603.796 41.7193 606.087 42.6683 607.777 44.3554C609.467 46.0425 610.418 48.3299 610.42 50.7158V63.5682C610.418 65.9544 609.467 68.2421 607.777 69.9296C606.087 71.6171 603.796 72.5666 601.406 72.57ZM588.529 45.2586C587.08 45.2606 585.691 45.8362 584.666 46.8592C583.641 47.8822 583.065 49.2691 583.063 50.7158V63.5682C583.064 65.0154 583.64 66.4029 584.665 67.4265C585.69 68.45 587.079 69.026 588.529 69.028H601.406C602.855 69.026 604.245 68.45 605.27 67.4265C606.295 66.4029 606.871 65.0154 606.872 63.5682V50.7158C606.87 49.2691 606.294 47.8822 605.269 46.8592C604.244 45.8362 602.855 45.2606 601.406 45.2586H588.529Z" fill="#9EC8FF"/>
</g>
<path d="M595.772 65.0862H595.699C595.478 65.0752 595.262 65.0163 595.067 64.9137C594.871 64.811 594.7 64.667 594.566 64.4916L585.313 52.4438C585.079 52.1236 584.98 51.7247 585.037 51.3323C585.093 50.94 585.301 50.5853 585.616 50.344C585.931 50.1028 586.329 49.9942 586.723 50.0415C587.117 50.0887 587.477 50.2881 587.726 50.5969L595.886 61.2229L617.192 38.4352C617.328 38.2875 617.492 38.1681 617.674 38.0839C617.856 37.9997 618.053 37.9524 618.254 37.9446C618.455 37.9369 618.655 37.9689 618.843 38.0389C619.031 38.1088 619.204 38.2152 619.35 38.3521C619.497 38.4889 619.615 38.6534 619.698 38.836C619.781 39.0187 619.826 39.2159 619.832 39.4163C619.838 39.6166 619.805 39.8162 619.733 40.0035C619.661 40.1907 619.553 40.3619 619.415 40.5072L596.885 64.6055C596.742 64.7575 596.57 64.8786 596.379 64.9613C596.187 65.044 595.981 65.0865 595.772 65.0862Z" fill="#F37168"/>
<path d="M704.538 404.491C651.825 401.918 472.535 406.277 418.004 407.975C363.474 409.672 300.178 405.733 267.298 399.939C234.418 394.146 44.3644 400.445 52.9886 416.012C61.6128 431.58 137.667 422.98 223.914 429.242C310.16 435.504 504.129 428.46 547.881 429.242C591.633 430.024 631.766 427.678 688.141 424.546C744.517 421.414 735.092 405.981 704.538 404.491Z" fill="#CCE2FF"/>
<path d="M165.813 78.7128H55.6372V258.993H165.813V78.7128Z" fill="#99BBEB"/>
<path d="M162.191 82.3864H61.4077V252.122H162.191V82.3864Z" fill="white"/>
<path d="M91.5532 150.451C95.3547 142.302 101.766 139.693 112.309 139.693C124.864 139.693 131.382 144.247 133.23 150.843C110.748 151.152 91.5532 150.451 91.5532 150.451Z" fill="#9BD6E8"/>
<path d="M107.927 100.066C102.605 101.554 102.846 104.537 101.085 107.302C99.3232 110.067 95.4635 111.914 95.0023 113.758C94.541 115.603 96.1883 119.446 94.242 121.601C92.2957 123.757 91.6241 124.827 92.3945 126.98C93.1649 129.133 94.8578 132.513 95.0124 132.976C95.167 133.439 97.3211 136.665 99.9391 137.125C102.557 137.586 107.484 138.355 109.947 139.43C112.41 140.506 120.338 138.054 124.729 138.208C129.121 138.363 132.119 135.127 131.813 132.976C131.506 130.826 135.054 126.52 135.046 122.831C135.046 118.869 130.426 115.914 129.195 113.3C127.963 110.687 129.329 106.077 124.722 103.355C121.802 101.627 119.795 101.781 117.486 101.012C115.178 100.243 111.313 99.1223 107.927 100.066Z" fill="#3A384D"/>
<path d="M114.392 146.198C113.191 147.969 112.309 148.042 111.006 146.198C109.967 144.731 107.927 141.391 107.927 139.709V122.836C107.929 122.021 108.254 121.241 108.831 120.665C109.408 120.089 110.19 119.764 111.006 119.762H114.392C115.209 119.763 115.991 120.088 116.569 120.664C117.146 121.24 117.472 122.021 117.474 122.836V139.711C117.474 141.399 115.472 144.609 114.392 146.198Z" fill="#F09959"/>
<path d="M114.392 119.76H111.006C110.19 119.762 109.408 120.086 108.83 120.663C108.253 121.24 107.929 122.021 107.927 122.836V137.89C111.729 139.099 115.201 136.695 117.474 133.988V122.836C117.473 122.02 117.147 121.239 116.57 120.662C115.992 120.085 115.209 119.761 114.392 119.76Z" fill="#E38540"/>
<path d="M112.699 133.857C118.354 133.857 122.938 127.621 122.938 119.929C122.938 112.237 118.354 106.001 112.699 106.001C107.045 106.001 102.461 112.237 102.461 119.929C102.461 127.621 107.045 133.857 112.699 133.857Z" fill="#F09959"/>
<path d="M117.474 108.845C111.007 119.759 101.46 118.682 101.46 118.682C101.46 118.682 101.691 104.233 109.273 103.464C116.856 102.695 121.321 105.741 122.862 110.748C124.403 115.755 122.862 119.066 122.862 119.066C121.251 117.716 119.985 116.004 119.167 114.07C118.47 112.374 117.904 110.627 117.474 108.845Z" fill="#3A384D"/>
<path d="M102.815 124.495C104.159 123.858 104.472 121.709 103.514 119.696C102.556 117.683 100.69 116.568 99.3464 117.205C98.0025 117.842 97.6896 119.991 98.6476 122.004C99.6055 124.017 101.471 125.132 102.815 124.495Z" fill="#F09959"/>
<path d="M121.428 119.714C120.472 121.738 120.784 123.876 122.13 124.521C123.475 125.166 125.338 124.043 126.296 122.031C127.254 120.02 126.942 117.87 125.596 117.224C124.251 116.579 122.385 117.703 121.428 119.714Z" fill="#F09959"/>
<path d="M116.549 127.484C116.549 127.484 114.825 129.713 112.699 129.713C110.573 129.713 108.85 127.484 108.85 127.484H116.549Z" fill="white"/>
<path d="M124.889 172.545H99.0395C98.2572 172.523 97.5145 172.197 96.9691 171.636C96.4237 171.076 96.1187 170.325 96.1187 169.544C96.1187 168.762 96.4237 168.012 96.9691 167.451C97.5145 166.891 98.2572 166.564 99.0395 166.542H124.889C125.672 166.564 126.414 166.891 126.96 167.451C127.505 168.012 127.81 168.762 127.81 169.544C127.81 170.325 127.505 171.076 126.96 171.636C126.414 172.197 125.672 172.523 124.889 172.545Z" fill="#99BBEB"/>
<path d="M129.623 181.767H94.2954C93.513 181.745 92.7703 181.418 92.2249 180.858C91.6796 180.297 91.3745 179.547 91.3745 178.765C91.3745 177.984 91.6796 177.233 92.2249 176.673C92.7703 176.112 93.513 175.786 94.2954 175.764H129.623C130.406 175.786 131.148 176.112 131.694 176.673C132.239 177.233 132.544 177.984 132.544 178.765C132.544 179.547 132.239 180.297 131.694 180.858C131.148 181.418 130.406 181.745 129.623 181.767Z" fill="#99BBEB"/>
<path d="M154.926 214.928H68.9931C68.5418 214.911 68.1148 214.72 67.8016 214.395C67.4884 214.07 67.3135 213.637 67.3135 213.186C67.3135 212.735 67.4884 212.302 67.8016 211.977C68.1148 211.652 68.5418 211.461 68.9931 211.444H154.926C155.377 211.461 155.804 211.652 156.117 211.977C156.43 212.302 156.605 212.735 156.605 213.186C156.605 213.637 156.43 214.07 156.117 214.395C155.804 214.72 155.377 214.911 154.926 214.928Z" fill="#99BBEB"/>
<path d="M154.926 223.024H68.9931C68.5418 223.007 68.1148 222.816 67.8016 222.491C67.4884 222.166 67.3135 221.733 67.3135 221.282C67.3135 220.831 67.4884 220.398 67.8016 220.073C68.1148 219.748 68.5418 219.557 68.9931 219.54H154.926C155.377 219.557 155.804 219.748 156.117 220.073C156.43 220.398 156.605 220.831 156.605 221.282C156.605 221.733 156.43 222.166 156.117 222.491C155.804 222.816 155.377 223.007 154.926 223.024Z" fill="#99BBEB"/>
<path d="M154.926 231.12H68.9931C68.5418 231.103 68.1148 230.912 67.8016 230.587C67.4884 230.262 67.3135 229.829 67.3135 229.378C67.3135 228.927 67.4884 228.494 67.8016 228.169C68.1148 227.844 68.5418 227.653 68.9931 227.636H154.926C155.377 227.653 155.804 227.844 156.117 228.169C156.43 228.494 156.605 228.927 156.605 229.378C156.605 229.829 156.43 230.262 156.117 230.587C155.804 230.912 155.377 231.103 154.926 231.12Z" fill="#99BBEB"/>
<path d="M142.905 152.452H81.0131C80.1872 152.451 79.3954 152.124 78.8114 151.541C78.2275 150.958 77.8991 150.167 77.8984 149.343V92.395C77.8991 91.5706 78.2275 90.7801 78.8114 90.1971C79.3954 89.6142 80.1872 89.2863 81.0131 89.2857H142.905C143.729 89.289 144.519 89.618 145.1 90.2007C145.682 90.7834 146.009 91.5723 146.01 92.395V149.343C146.009 150.166 145.682 150.954 145.1 151.537C144.519 152.12 143.729 152.449 142.905 152.452ZM81.0131 91.8157C80.8598 91.8176 80.7133 91.8793 80.6049 91.9875C80.4965 92.0958 80.4347 92.242 80.4327 92.395V149.343C80.4347 149.496 80.4965 149.642 80.6049 149.75C80.7133 149.859 80.8598 149.92 81.0131 149.922H142.905C143.059 149.92 143.205 149.859 143.314 149.75C143.422 149.642 143.484 149.496 143.486 149.343V92.395C143.484 92.242 143.422 92.0958 143.314 91.9875C143.205 91.8793 143.059 91.8176 142.905 91.8157H81.0131Z" fill="#99BBEB"/>
<path d="M89.9439 189.598L91.7357 193.223L95.7424 193.805L92.8432 196.626L93.5274 200.608L89.9439 198.728L86.3605 200.608L87.0447 196.626L84.1455 193.805L88.1522 193.223L89.9439 189.598Z" fill="#99BBEB"/>
<path d="M104.62 189.598L106.411 193.223L110.418 193.805L107.519 196.626L108.203 200.608L104.62 198.728L101.036 200.608L101.721 196.626L98.8213 193.805L102.828 193.223L104.62 189.598Z" fill="#99BBEB"/>
<path d="M119.298 189.598L121.09 193.223L125.097 193.805L122.198 196.626L122.882 200.608L119.298 198.728L115.715 200.608L116.399 196.626L113.5 193.805L117.507 193.223L119.298 189.598Z" fill="#99BBEB"/>
<path d="M133.975 189.598L135.766 193.223L139.773 193.805L136.874 196.626L137.558 200.608L133.975 198.728L130.391 200.608L131.075 196.626L128.176 193.805L132.183 193.223L133.975 189.598Z" fill="#99BBEB"/>
<path d="M411.441 78.7128H301.266V258.993H411.441V78.7128Z" fill="#99BBEB"/>
<path d="M407.817 82.3864H307.033V252.122H407.817V82.3864Z" fill="white"/>
<path d="M341.969 119.011C341.969 127.084 346.837 140.113 358.325 139.696C369.813 139.278 372.355 126.859 372.801 123.355C373.247 119.851 341.969 119.011 341.969 119.011Z" fill="#7A4E34"/>
<path d="M337.181 150.451C340.983 142.302 347.394 139.693 357.937 139.693C370.489 139.693 377.007 144.247 378.855 150.843C356.376 151.152 337.181 150.451 337.181 150.451Z" fill="#D54A41"/>
<path d="M360.02 146.198C358.816 147.969 357.937 148.042 356.632 146.198C355.595 144.731 353.553 141.391 353.553 139.709V122.836C353.555 122.021 353.88 121.241 354.457 120.665C355.034 120.089 355.816 119.764 356.632 119.762H360.02C360.836 119.764 361.618 120.089 362.195 120.665C362.772 121.241 363.097 122.021 363.099 122.836V139.711C363.099 141.399 361.097 144.609 360.02 146.198Z" fill="#F09959"/>
<path d="M360.02 119.76H356.632C355.815 119.762 355.033 120.086 354.456 120.663C353.879 121.24 353.554 122.021 353.553 122.836V137.89C357.354 139.099 360.829 136.695 363.099 133.988V122.836C363.098 122.021 362.773 121.24 362.196 120.663C361.619 120.086 360.837 119.762 360.02 119.76Z" fill="#E38540"/>
<path d="M358.325 133.857C363.98 133.857 368.564 127.621 368.564 119.929C368.564 112.237 363.98 106.001 358.325 106.001C352.67 106.001 348.086 112.237 348.086 119.929C348.086 127.621 352.67 133.857 358.325 133.857Z" fill="#F09959"/>
<path d="M363.959 109.343C362.742 113.627 360.076 113.576 356.356 114.983C352.636 116.39 350.862 117.804 349.645 120.549C348.092 124.043 350.35 134.231 350.35 134.231C350.35 134.231 340.935 127.2 342.022 116.139C343.109 105.078 349.645 100.795 355.791 100.795C361.936 100.795 364.278 104.534 364.278 104.534C364.278 104.534 367.552 104.549 370.649 108.21C374.813 113.133 373.531 125.09 370.649 129.374C367.768 133.657 365.834 134.998 365.91 134.808C365.986 134.618 368.599 124.779 367.193 118.697C365.786 112.615 363.959 109.343 363.959 109.343Z" fill="#7A4E34"/>
<path d="M362.184 127.484C362.184 127.484 360.461 129.713 358.335 129.713C356.209 129.713 354.488 127.484 354.488 127.484H362.184Z" fill="white"/>
<path d="M370.515 172.545H344.665C344.263 172.557 343.862 172.488 343.487 172.342C343.112 172.197 342.77 171.978 342.482 171.698C342.193 171.418 341.963 171.083 341.807 170.713C341.65 170.343 341.569 169.945 341.569 169.544C341.569 169.142 341.65 168.744 341.807 168.374C341.963 168.004 342.193 167.669 342.482 167.389C342.77 167.11 343.112 166.89 343.487 166.745C343.862 166.599 344.263 166.53 344.665 166.542H370.515C371.297 166.564 372.04 166.891 372.585 167.451C373.13 168.012 373.435 168.762 373.435 169.544C373.435 170.325 373.13 171.076 372.585 171.636C372.04 172.197 371.297 172.523 370.515 172.545Z" fill="#99BBEB"/>
<path d="M375.249 181.767H339.924C339.521 181.779 339.121 181.71 338.746 181.564C338.371 181.419 338.029 181.199 337.74 180.92C337.452 180.64 337.222 180.305 337.066 179.935C336.909 179.565 336.828 179.167 336.828 178.765C336.828 178.364 336.909 177.966 337.066 177.596C337.222 177.226 337.452 176.891 337.74 176.611C338.029 176.331 338.371 176.112 338.746 175.967C339.121 175.821 339.521 175.752 339.924 175.764H375.249C376.031 175.786 376.774 176.112 377.319 176.673C377.865 177.233 378.17 177.984 378.17 178.765C378.17 179.547 377.865 180.297 377.319 180.858C376.774 181.418 376.031 181.745 375.249 181.767Z" fill="#99BBEB"/>
<path d="M400.551 214.928H314.621C314.386 214.937 314.152 214.899 313.933 214.815C313.713 214.731 313.513 214.605 313.344 214.442C313.175 214.279 313.04 214.084 312.948 213.868C312.856 213.653 312.809 213.421 312.809 213.186C312.809 212.952 312.856 212.719 312.948 212.504C313.04 212.288 313.175 212.093 313.344 211.93C313.513 211.768 313.713 211.641 313.933 211.557C314.152 211.474 314.386 211.435 314.621 211.444H400.551C400.786 211.435 401.02 211.474 401.24 211.557C401.459 211.641 401.659 211.768 401.829 211.93C401.998 212.093 402.133 212.288 402.225 212.504C402.316 212.719 402.364 212.952 402.364 213.186C402.364 213.421 402.316 213.653 402.225 213.868C402.133 214.084 401.998 214.279 401.829 214.442C401.659 214.605 401.459 214.731 401.24 214.815C401.02 214.899 400.786 214.937 400.551 214.928Z" fill="#99BBEB"/>
<path d="M400.551 223.024H314.621C314.386 223.033 314.152 222.994 313.933 222.911C313.713 222.827 313.513 222.701 313.344 222.538C313.175 222.375 313.04 222.18 312.948 221.964C312.856 221.749 312.809 221.517 312.809 221.282C312.809 221.048 312.856 220.815 312.948 220.6C313.04 220.384 313.175 220.189 313.344 220.026C313.513 219.864 313.713 219.737 313.933 219.653C314.152 219.57 314.386 219.531 314.621 219.54H400.551C400.786 219.531 401.02 219.57 401.24 219.653C401.459 219.737 401.659 219.864 401.829 220.026C401.998 220.189 402.133 220.384 402.225 220.6C402.316 220.815 402.364 221.048 402.364 221.282C402.364 221.517 402.316 221.749 402.225 221.964C402.133 222.18 401.998 222.375 401.829 222.538C401.659 222.701 401.459 222.827 401.24 222.911C401.02 222.994 400.786 223.033 400.551 223.024Z" fill="#99BBEB"/>
<path d="M400.551 231.12H314.621C314.386 231.129 314.152 231.09 313.933 231.007C313.713 230.923 313.513 230.797 313.344 230.634C313.175 230.471 313.04 230.276 312.948 230.06C312.856 229.845 312.809 229.613 312.809 229.378C312.809 229.144 312.856 228.911 312.948 228.696C313.04 228.48 313.175 228.285 313.344 228.122C313.513 227.96 313.713 227.833 313.933 227.749C314.152 227.666 314.386 227.627 314.621 227.636H400.551C400.786 227.627 401.02 227.666 401.24 227.749C401.459 227.833 401.659 227.96 401.829 228.122C401.998 228.285 402.133 228.48 402.225 228.696C402.316 228.911 402.364 229.144 402.364 229.378C402.364 229.613 402.316 229.845 402.225 230.06C402.133 230.276 401.998 230.471 401.829 230.634C401.659 230.797 401.459 230.923 401.24 231.007C401.02 231.09 400.786 231.129 400.551 231.12Z" fill="#99BBEB"/>
<path d="M388.541 152.452H326.639C325.813 152.451 325.021 152.124 324.437 151.541C323.853 150.958 323.525 150.167 323.524 149.343V92.395C323.525 91.5706 323.853 90.7801 324.437 90.1971C325.021 89.6142 325.813 89.2863 326.639 89.2857H388.541C389.367 89.2863 390.159 89.6142 390.743 90.1971C391.327 90.7801 391.655 91.5706 391.656 92.395V149.343C391.655 150.167 391.327 150.958 390.743 151.541C390.159 152.124 389.367 152.451 388.541 152.452ZM326.639 91.8157C326.485 91.8176 326.339 91.8793 326.23 91.9875C326.122 92.0958 326.06 92.242 326.058 92.395V149.343C326.06 149.496 326.122 149.642 326.23 149.75C326.339 149.859 326.485 149.92 326.639 149.922H388.541C388.694 149.92 388.841 149.859 388.949 149.75C389.058 149.642 389.119 149.496 389.121 149.343V92.395C389.119 92.242 389.058 92.0958 388.949 91.9875C388.841 91.8793 388.694 91.8176 388.541 91.8157H326.639Z" fill="#99BBEB"/>
<path d="M335.569 189.598L337.361 193.223L341.368 193.805L338.469 196.626L339.153 200.608L335.569 198.728L331.986 200.608L332.67 196.626L329.771 193.805L333.778 193.223L335.569 189.598Z" fill="#99BBEB"/>
<path d="M350.248 189.598L352.04 193.223L356.047 193.805L353.147 196.626L353.832 200.608L350.248 198.728L346.665 200.608L347.349 196.626L344.45 193.805L348.456 193.223L350.248 189.598Z" fill="#99BBEB"/>
<path d="M364.924 189.598L366.716 193.223L370.723 193.805L367.824 196.626L368.508 200.608L364.924 198.728L361.341 200.608L362.025 196.626L359.126 193.805L363.133 193.223L364.924 189.598Z" fill="#99BBEB"/>
<path d="M379.6 189.598L381.395 193.223L385.401 193.805L382.502 196.626L383.186 200.608L379.6 198.728L376.017 200.608L376.701 196.626L373.802 193.805L377.808 193.223L379.6 189.598Z" fill="#99BBEB"/>
<path opacity="0.2" d="M313.65 257.189H139.773L152.072 79.3807H319.918L313.65 257.189Z" fill="#99BBEB"/>
<path d="M308.521 45.7342H158.038V291.969H308.521V45.7342Z" fill="#99BBEB"/>
<path d="M303.577 50.7512H165.919V282.585H303.577V50.7512Z" fill="white"/>
<path d="M221.919 99.4461C221.823 99.1602 219.413 85.349 219.132 79.9803C218.85 74.6117 227.778 73.8426 227.778 73.8426C227.778 73.8426 235.077 69.911 240.361 71.9248C245.645 73.9387 249.231 77.3264 251.641 81.5388C254.051 85.7513 249.53 98.9072 249.53 98.9072L221.919 99.4461Z" fill="#2E2D3D"/>
<path d="M205.355 143.817C205.322 143.59 205.974 138.155 205.996 137.935C207.213 126.492 221.344 123.261 235.442 123.261C252.009 123.261 263.248 126.297 265.043 138.188C265.096 138.537 266.056 143.984 266.003 144.351C235.298 144.774 205.355 143.817 205.355 143.817Z" fill="#D5E1E8"/>
<path d="M238.288 132.154C236.646 134.573 235.442 134.684 233.661 132.154C232.244 130.153 227.515 125.576 227.515 123.271L229.456 100.248C229.46 99.1358 229.904 98.0699 230.691 97.283C231.479 96.4962 232.546 96.0524 233.661 96.0484H238.288C239.403 96.0517 240.471 96.4953 241.259 97.2821C242.048 98.069 242.492 99.1353 242.495 100.248L243.397 123.271C243.397 125.581 239.761 129.986 238.288 132.154Z" fill="#F09959"/>
<path d="M238.288 96.0433H233.661C232.546 96.0473 231.479 96.4911 230.691 97.278C229.904 98.0648 229.46 99.1307 229.456 100.243L227.771 120.673C232.966 122.325 239.981 118.968 243.083 115.271L242.495 100.243C242.492 99.1303 242.047 98.064 241.259 97.2771C240.471 96.4902 239.403 96.0466 238.288 96.0433Z" fill="#E38540"/>
<path d="M220.098 124.951L227.516 138.638C227.516 138.638 231.484 135.377 231.869 136.017C232.255 136.657 231.165 144.726 231.165 144.726C231.165 144.726 240.002 144.844 240.387 144.473C240.772 144.101 238.593 135.709 239.49 135.709C240.387 135.709 243.084 138.14 243.084 138.14L251.366 124.964L249.546 124.521L235.978 131.797L221.466 124.668L220.098 124.951Z" fill="#BDCCD4"/>
<path d="M228.58 131.258L234.089 134.947L232.381 144.743L239.809 144.328L237.954 135.42L242.521 131.258L240.377 129.239H230.724L228.58 131.258Z" fill="#D54A41"/>
<path d="M227.898 118.244L221.085 124.716C221.085 124.716 228.027 137.039 228.41 137.039C228.792 137.039 234.302 130.244 234.302 130.244L237.827 130.183L243.402 136.017L249.872 124.587L243.283 117.604C243.283 117.604 237.647 128.483 236.623 128.736C235.599 128.989 235.592 129.121 234.763 128.483C233.934 127.845 227.898 118.244 227.898 118.244Z" fill="#D5E1E8"/>
<path d="M235.975 115.299C243.698 115.299 249.959 106.782 249.959 96.2761C249.959 85.7699 243.698 77.253 235.975 77.253C228.252 77.253 221.991 85.7699 221.991 96.2761C221.991 106.782 228.252 115.299 235.975 115.299Z" fill="#F09959"/>
<path d="M223.423 95.9826C224.73 98.7327 224.302 101.668 222.465 102.538C220.627 103.408 218.08 101.885 216.773 99.135C215.465 96.3849 215.893 93.4526 217.728 92.5823C219.563 91.712 222.115 93.235 223.423 95.9826Z" fill="#F09959"/>
<path d="M247.888 95.9826C246.581 98.7327 247.009 101.668 248.844 102.538C250.679 103.408 253.228 101.885 254.536 99.135C255.843 96.3849 255.418 93.4526 253.58 92.5823C251.743 91.712 249.206 93.235 247.888 95.9826Z" fill="#F09959"/>
<path d="M242.178 104.084C242.178 104.084 239.391 108.574 235.974 108.574C232.558 108.574 229.771 104.084 229.771 104.084H242.178Z" fill="white"/>
<path d="M227.771 83.3351C233.534 79.3073 236.135 79.9803 240.443 86.5963C244.751 93.2122 249.954 93.3312 249.954 93.3312L250.626 86.4698C250.626 86.4698 244.186 74.0323 235.542 75.6641C226.897 77.296 221.983 85.0631 221.983 85.0631C221.983 85.0631 221.562 99.6207 222.769 100.119C223.975 100.618 224.112 95.4184 224.976 94.3634C225.84 93.3084 224.112 88.3217 225.265 86.0144C226.418 83.707 227.771 83.3351 227.771 83.3351Z" fill="#2E2D3D"/>
<path d="M246.31 90.8163C248.322 93.0149 247.559 101.748 248.616 101.652C249.673 101.556 250.058 93.3033 249.769 92.4456C249.48 91.588 246.31 90.8163 246.31 90.8163Z" fill="#2E2D3D"/>
<path d="M267.083 173.896H202.844C201.772 173.87 200.754 173.426 200.005 172.66C199.257 171.894 198.838 170.867 198.838 169.797C198.838 168.727 199.257 167.699 200.005 166.933C200.754 166.167 201.772 165.723 202.844 165.697H267.083C267.631 165.683 268.176 165.779 268.686 165.979C269.196 166.179 269.661 166.479 270.054 166.861C270.446 167.243 270.758 167.699 270.971 168.204C271.183 168.708 271.293 169.249 271.293 169.797C271.293 170.344 271.183 170.885 270.971 171.39C270.758 171.894 270.446 172.35 270.054 172.732C269.661 173.114 269.196 173.414 268.686 173.614C268.176 173.814 267.631 173.91 267.083 173.896Z" fill="#99BBEB"/>
<path d="M259.09 186.493H210.84C210.292 186.507 209.747 186.411 209.236 186.211C208.726 186.011 208.261 185.711 207.869 185.329C207.477 184.947 207.165 184.491 206.952 183.986C206.739 183.482 206.629 182.941 206.629 182.393C206.629 181.846 206.739 181.305 206.952 180.8C207.165 180.296 207.477 179.84 207.869 179.458C208.261 179.076 208.726 178.776 209.236 178.576C209.747 178.376 210.292 178.28 210.84 178.294H259.09C260.161 178.32 261.18 178.764 261.928 179.53C262.677 180.296 263.096 181.323 263.096 182.393C263.096 183.463 262.677 184.491 261.928 185.257C261.18 186.023 260.161 186.467 259.09 186.493Z" fill="#99BBEB"/>
<path d="M293.65 231.793H176.279C175.966 231.793 175.657 231.731 175.368 231.612C175.079 231.492 174.816 231.317 174.595 231.096C174.374 230.876 174.198 230.613 174.078 230.325C173.959 230.036 173.897 229.727 173.897 229.415C173.897 229.102 173.959 228.793 174.078 228.505C174.198 228.216 174.374 227.954 174.595 227.733C174.816 227.512 175.079 227.337 175.368 227.218C175.657 227.098 175.966 227.037 176.279 227.037H293.65C293.962 227.037 294.272 227.098 294.561 227.218C294.85 227.337 295.113 227.512 295.334 227.733C295.555 227.954 295.731 228.216 295.85 228.505C295.97 228.793 296.032 229.102 296.032 229.415C296.032 229.727 295.97 230.036 295.85 230.325C295.731 230.613 295.555 230.876 295.334 231.096C295.113 231.317 294.85 231.492 294.561 231.612C294.272 231.731 293.962 231.793 293.65 231.793Z" fill="#99BBEB"/>
<path d="M293.65 242.849H176.279C175.647 242.849 175.041 242.599 174.595 242.153C174.148 241.707 173.897 241.102 173.897 240.471C173.897 239.84 174.148 239.235 174.595 238.789C175.041 238.343 175.647 238.093 176.279 238.093H293.65C294.281 238.093 294.887 238.343 295.334 238.789C295.781 239.235 296.032 239.84 296.032 240.471C296.032 241.102 295.781 241.707 295.334 242.153C294.887 242.599 294.281 242.849 293.65 242.849Z" fill="#99BBEB"/>
<path d="M293.65 253.908H176.28C175.661 253.888 175.074 253.628 174.644 253.184C174.213 252.74 173.973 252.146 173.973 251.528C173.973 250.91 174.213 250.317 174.644 249.873C175.074 249.428 175.661 249.169 176.28 249.149H293.65C294.269 249.169 294.855 249.428 295.286 249.873C295.716 250.317 295.957 250.91 295.957 251.528C295.957 252.146 295.716 252.74 295.286 253.184C294.855 253.628 294.269 253.888 293.65 253.908Z" fill="#99BBEB"/>
<path d="M277.233 145.991H192.694C191.686 145.991 190.719 145.591 190.006 144.879C189.293 144.167 188.893 143.202 188.893 142.196V64.4234C188.893 63.4169 189.293 62.4516 190.006 61.7399C190.719 61.0282 191.686 60.6284 192.694 60.6284H277.233C278.241 60.6284 279.208 61.0282 279.921 61.7399C280.634 62.4516 281.034 63.4169 281.034 64.4234V142.206C281.031 143.21 280.63 144.173 279.917 144.883C279.204 145.592 278.239 145.991 277.233 145.991ZM192.694 63.1685C192.358 63.1685 192.036 63.3018 191.798 63.539C191.56 63.7762 191.427 64.098 191.427 64.4335V142.206C191.427 142.541 191.56 142.863 191.798 143.1C192.036 143.337 192.358 143.471 192.694 143.471H277.233C277.569 143.471 277.891 143.337 278.129 143.1C278.366 142.863 278.5 142.541 278.5 142.206V64.4234C278.5 64.0879 278.366 63.7661 278.129 63.5289C277.891 63.2916 277.569 63.1584 277.233 63.1584L192.694 63.1685Z" fill="#99BBEB"/>
<path d="M194.711 197.188L197.159 202.139L202.631 202.933L198.672 206.786L199.607 212.228L194.711 209.658L189.817 212.228L190.75 206.786L186.792 202.933L192.263 202.139L194.711 197.188Z" fill="#99BBEB"/>
<path d="M214.757 197.188L217.206 202.139L222.68 202.933L218.719 206.786L219.654 212.228L214.757 209.658L209.864 212.228L210.799 206.786L206.838 202.933L212.312 202.139L214.757 197.188Z" fill="#99BBEB"/>
<path d="M234.804 197.188L237.252 202.139L242.726 202.933L238.765 206.786L239.7 212.228L234.804 209.658L229.91 212.228L230.845 206.786L226.884 202.933L232.358 202.139L234.804 197.188Z" fill="#99BBEB"/>
<path d="M254.852 197.188L257.298 202.139L262.772 202.933L258.811 206.786L259.746 212.228L254.852 209.658L249.956 212.228L250.891 206.786L246.93 202.933L252.404 202.139L254.852 197.188Z" fill="#99BBEB"/>
<path d="M275.218 197.188L277.664 202.139L283.138 202.933L279.177 206.786L280.112 212.228L275.218 209.658L270.322 212.228L271.257 206.786L267.296 202.933L272.77 202.139L275.218 197.188Z" fill="#99BBEB"/>
<path d="M550.208 276.716H357.103C355.943 276.716 355.002 277.655 355.002 278.813V281.958C355.002 283.116 355.943 284.055 357.103 284.055H550.208C551.368 284.055 552.309 283.116 552.309 281.958V278.813C552.309 277.655 551.368 276.716 550.208 276.716Z" fill="#2E5B9A"/>
<path d="M599.929 178.347C602.544 187.553 596.155 197.043 589.115 199.037C582.075 201.031 577.052 194.774 574.436 185.565C571.821 176.356 575.405 167.275 582.445 165.282C589.485 163.288 597.311 169.135 599.929 178.347Z" fill="#F09959"/>
<path d="M560.459 356.788C560.459 356.788 578.501 384.762 580.939 385.976C583.377 387.191 589.467 387.494 587.181 392.048C584.895 396.602 583.982 414.55 581.859 415.461C579.735 416.372 561.453 418.497 564.192 415.461C566.932 412.425 568.62 413.943 570.003 408.468C571.387 402.993 573.331 392.658 570.741 390.528C568.151 388.397 552.307 369.258 552.307 369.258L560.459 356.788Z" fill="#F09959"/>
<path d="M469.656 368.8C469.656 368.8 447.727 404.885 443.664 408.129C439.602 411.372 426.201 416.225 437.166 417.047C448.132 417.869 453.411 413.399 460.315 411.372C467.218 409.346 475.748 408.129 472.499 402.856C469.251 397.584 470.599 386.08 477.604 378.783C484.608 371.487 469.656 368.8 469.656 368.8Z" fill="#F09959"/>
<path d="M581.573 285.125C581.573 285.125 527.283 283.709 505.76 301.343C493.169 320.399 462.712 376.623 460.343 382.809C461.967 384.43 471.106 387.363 475.168 386.953C487.148 372.691 502.985 360.362 509.282 349.175C517.042 335.391 519.435 328.497 532.025 327.283C544.615 326.068 573.045 322.01 581.573 322.01C590.101 322.01 581.573 285.125 581.573 285.125Z" fill="#6791C9"/>
<path d="M628.916 417.146H626.07L605.664 332.148H611.923L628.916 417.146Z" fill="#2E5B9A"/>
<path d="M543.667 417.146H546.513L569.93 329.142H563.67L543.667 417.146Z" fill="#2E5B9A"/>
<path d="M612.501 281.414L580.939 286.853C580.939 286.853 538.994 287.238 519.822 290.803C502.379 294.046 499.801 313.826 519.822 341.076C531.191 356.555 540.803 368.906 560.459 382.821C565.46 379.158 567.373 377.761 568.754 368.952C567.332 367.004 563.65 354.817 562.507 352.431C551.632 329.742 537.121 321.492 536.911 319.258C539.349 315.306 601.456 339.862 613.804 325.418C625.603 311.622 612.501 281.414 612.501 281.414Z" fill="#75A1DE"/>
<path d="M613.811 210.078C605.499 208.912 597.034 210.49 589.115 216.213C582.196 223.254 574.368 234.864 574.846 254.019C575.455 278.345 571.076 279.906 575.645 286.595C594.7 294.438 627.289 328.201 619.615 292.02C614.057 265.819 631.802 246.29 617.488 217.228C616.323 214.862 614.865 212.568 613.811 210.078Z" fill="#F37168"/>
<path d="M574.842 263.173C574.472 275.855 572.678 279.59 574.049 283.567C581.816 284.359 596.026 287.461 599.576 292.422C603.631 298.097 607.701 298.909 605.806 294.719C603.91 290.529 598.9 284.584 606.617 264.177C614.333 243.77 617.988 229.984 610.418 215.793L574.842 263.173Z" fill="#D54A41"/>
<path d="M613.811 210.078C608.695 197.98 607.438 184.388 607.438 184.388L594.034 188.34C594.034 188.34 601.649 205.37 594.34 211.449C592.518 212.947 590.774 214.537 589.115 216.213C597.034 210.49 605.499 208.912 613.811 210.078Z" fill="#F09959"/>
<path d="M607.84 187.604C607.047 186.898 606.066 186.02 605.01 185.099L594.072 188.328L594.049 188.388C594.302 188.99 597.09 195.472 597.463 201.714C600.719 199.743 604.287 196.525 608.36 190.906C608.152 189.658 607.977 188.548 607.84 187.604Z" fill="#E38540"/>
<path d="M604.392 213.883C590.587 218.69 592.118 233.217 579.416 254.616C572.827 265.698 566.745 265.531 566.745 265.531C555.358 265.472 543.983 264.753 532.679 263.378C521.001 261.953 520.261 265.424 528.371 268.321C544.75 274.168 561.75 280.465 575.455 278.947C589.161 277.429 612.605 242.515 613.812 233.427C615.484 220.863 611.343 211.454 604.392 213.883Z" fill="#F09959"/>
<path d="M597.283 335.69C596.424 335.69 595.547 335.69 594.645 335.657C583.395 335.381 575.736 333.828 569.585 332.578C562.401 331.121 558.435 330.319 553.837 332.515C553.416 332.725 552.957 332.85 552.486 332.881C552.016 332.912 551.545 332.849 551.099 332.697C550.653 332.544 550.242 332.304 549.891 331.991C549.539 331.678 549.253 331.298 549.05 330.874C548.847 330.449 548.73 329.989 548.707 329.519C548.684 329.049 548.756 328.579 548.916 328.137C549.077 327.695 549.325 327.289 549.645 326.943C549.964 326.598 550.35 326.319 550.779 326.124C557.527 322.903 563.179 324.049 570.997 325.636C576.877 326.83 584.196 328.315 594.819 328.576C606.71 328.872 613.958 327.111 617.628 323.042C620.902 319.417 621.86 313.327 620.644 303.878C620.228 300.642 619.81 297.952 619.443 295.579C618.406 288.882 617.719 284.447 618.568 277.616C619.356 271.266 621.462 262.808 626.343 246.404C626.477 245.958 626.696 245.543 626.99 245.181C627.284 244.82 627.646 244.521 628.056 244.299C628.466 244.078 628.916 243.94 629.379 243.892C629.843 243.844 630.311 243.888 630.758 244.02C631.205 244.153 631.621 244.373 631.982 244.666C632.344 244.96 632.644 245.321 632.866 245.731C633.088 246.14 633.227 246.589 633.274 247.051C633.322 247.514 633.279 247.982 633.145 248.428C624.052 278.995 624.514 281.97 626.455 294.502C626.83 296.918 627.253 299.655 627.682 302.98C629.182 314.633 627.664 322.519 622.899 327.791C617.998 333.218 610.038 335.69 597.283 335.69Z" fill="#2E5B9A"/>
<path d="M471.159 399.213C456.607 406.317 448.774 410.391 444.108 410.001C443.008 409.91 442.096 409.799 441.32 409.677C436.13 412.741 427.845 416.359 437.166 417.047C448.132 417.859 453.411 413.399 460.315 411.372C467.218 409.346 475.749 408.129 472.5 402.856C471.841 401.731 471.387 400.497 471.159 399.213Z" fill="#D54A41"/>
<path d="M582.525 386.571C582.168 398.072 580.584 409.47 573.539 411.618C571.902 412.134 570.173 412.289 568.47 412.071C567.36 413.439 566.009 413.455 564.192 415.466C561.453 418.502 579.727 416.379 581.859 415.466C583.99 414.553 584.9 396.615 587.181 392.053C589.059 388.311 585.283 387.439 582.525 386.571Z" fill="#D54A41"/>
<path d="M526.473 277.72H480.245C479.568 277.72 478.906 277.527 478.336 277.164C477.766 276.801 477.311 276.283 477.026 275.671L458.346 235.532C457.962 234.682 457.93 233.716 458.255 232.842C458.581 231.968 459.239 231.258 460.085 230.865C460.932 230.472 461.9 230.429 462.779 230.743C463.658 231.058 464.377 231.706 464.78 232.547L482.52 270.636H526.485C527.426 270.636 528.329 271.009 528.994 271.674C529.659 272.338 530.033 273.239 530.033 274.178C530.033 275.117 529.659 276.018 528.994 276.683C528.329 277.347 527.426 277.72 526.485 277.72H526.473Z" fill="#75A1DE"/>
<path d="M536.145 263.79C526.804 263.656 517.539 258.097 512.936 258.907C508.334 259.717 493.308 270.125 495.196 270.53C497.084 270.935 509.003 264.772 509.409 264.678C509.814 264.584 512.389 268.946 518.75 270.55C525.111 272.154 518.796 265.789 538.517 271.737C551.351 275.602 536.145 263.79 536.145 263.79Z" fill="#F09959"/>
<path d="M612.438 199.037L613.811 210.078C613.811 210.078 601.725 210.797 595.709 214.174C589.692 217.552 580.817 227.325 580.817 227.325L588.071 214.86L589.115 206.885L612.438 199.037Z" fill="#F2E5DE"/>
<path d="M607.293 212.552C598.317 210.872 594.163 218.905 588.342 232.013C582.52 245.121 572.584 261.045 570.602 263.097C568.62 265.148 537.299 263.097 537.299 263.097C537.299 263.097 536.351 272.151 537.299 273.234C538.247 274.317 543.662 274.178 543.662 274.178C543.662 274.178 545.829 275.906 547.859 277.272C549.889 278.638 567.082 281.206 575.07 280.802C583.058 280.397 590.367 279.721 591.449 278.504C592.531 277.287 614.346 243.77 615.687 231.742C617.027 219.715 611.875 213.41 607.293 212.552Z" fill="#F2E5DE"/>
<path d="M580.818 157.414C563.838 158.223 566.502 183.725 566.502 183.725C566.502 183.725 570.911 185.084 580.151 183.564C579.442 180.826 579.746 173.833 579.746 173.833C579.746 173.833 580.818 179.508 582.181 182.956C584.135 183.849 586.345 183.058 590.101 182.149C592.032 190.245 597.483 193.676 601.214 194.847C605.339 196.143 609.704 197.686 614.577 195.255C619.45 192.823 616.772 167.953 614.182 162.954C610.299 155.448 603.842 148.731 592.673 152.278C587.072 154.056 580.818 157.414 580.818 157.414Z" fill="#303C60"/>
<path d="M610.347 187.698L617.288 197.818C617.288 197.818 609.594 217.01 631.972 225.703C649.496 232.514 647.431 244.511 639.514 256.569C631.597 268.627 644.25 279.19 644.25 279.19C644.25 279.19 646.182 265.824 663.209 263.302C686.426 259.861 693 228.744 675.658 213.185C661.309 200.307 656.942 210.971 647.228 199.417C637.514 187.862 619.179 195.667 619.179 195.667L612.458 185.881L610.347 187.698Z" fill="#303C60"/>
<path d="M683.646 244.529C683.538 244.529 683.433 244.501 683.34 244.448C683.247 244.395 683.169 244.319 683.114 244.227C683.059 244.134 683.03 244.03 683.028 243.923C683.026 243.815 683.052 243.71 683.103 243.616C688.932 232.964 684.178 220.061 681.783 216.565C681.53 216.196 681.276 215.806 681.023 215.421C678.668 211.755 675.739 207.189 660.105 204.38C656.341 203.702 653.293 201.468 650.066 199.103C643.399 194.217 635.844 188.682 619.427 196.224C619.353 196.263 619.271 196.286 619.187 196.293C619.104 196.299 619.02 196.288 618.94 196.261C618.861 196.234 618.788 196.191 618.726 196.134C618.664 196.078 618.614 196.009 618.579 195.933C618.545 195.857 618.526 195.774 618.525 195.69C618.523 195.606 618.539 195.523 618.571 195.446C618.603 195.368 618.65 195.298 618.71 195.24C618.77 195.181 618.842 195.135 618.92 195.105C635.996 187.262 643.865 193.023 650.807 198.111C653.916 200.388 656.851 202.541 660.335 203.171C676.497 206.076 679.596 210.893 682.072 214.764C682.325 215.151 682.559 215.523 682.802 215.874C685.311 219.538 690.301 233.055 684.188 244.21C684.134 244.307 684.056 244.387 683.96 244.443C683.865 244.499 683.756 244.529 683.646 244.529Z" fill="#303C60"/>
<path d="M606.639 198.071C605.431 198.063 604.226 197.967 603.033 197.782C597.092 196.892 589.122 193.522 588.498 174.597C588.491 174.514 588.501 174.429 588.527 174.35C588.554 174.27 588.596 174.197 588.652 174.134C588.707 174.071 588.775 174.02 588.851 173.984C588.928 173.949 589.01 173.929 589.094 173.926C589.178 173.923 589.262 173.938 589.34 173.968C589.418 173.999 589.49 174.045 589.549 174.104C589.609 174.163 589.656 174.234 589.688 174.312C589.719 174.39 589.735 174.473 589.733 174.557C589.986 182.357 591.54 188.13 594.34 191.713C596.466 194.432 599.287 195.976 603.21 196.563C608.71 197.385 612.354 196.37 614.042 193.55C614.126 193.409 614.262 193.307 614.422 193.266C614.581 193.226 614.75 193.251 614.891 193.334C615.032 193.418 615.134 193.555 615.174 193.714C615.215 193.873 615.19 194.041 615.106 194.182C613.558 196.77 610.717 198.071 606.639 198.071Z" fill="#303C60"/>
<path d="M375.7 417.146H380.261L398.009 281.715H387.973L375.7 417.146Z" fill="#2E5B9A"/>
<path d="M530.507 417.146H525.945L508.198 281.715H518.236L530.507 417.146Z" fill="#2E5B9A"/>
<path d="M709.417 302.828C717.309 310.023 713.877 317.216 708.044 330.579C702.21 343.943 701.181 393.273 701.181 393.273L705.996 392.587C705.996 392.587 705.309 341.883 711.825 328.181C718.34 314.478 721.09 307.625 726.924 312.077C732.758 316.53 709.417 302.828 709.417 302.828Z" fill="#74B570"/>
<path d="M705.073 293.512C706.031 289.249 711.723 284.635 719.336 280.723C718.203 287.01 714.574 297.292 718.322 299.402C723.391 302.246 718.817 287.891 720.771 280C728.28 276.381 736.238 273.775 744.436 272.25L744.405 272.336C739.942 283.643 734.109 288.096 736.511 289.808C738.318 291.099 744.205 278.039 751.97 271.339C757.799 271.028 762.741 271.818 765.655 274.122C770.169 277.69 773.197 280.855 768.658 291.716C766.066 293.568 762.705 294.894 758.803 295.283C748.508 296.311 743.703 296.655 750.911 300.09C754.439 301.768 760.354 299.994 765.151 298.916C763.595 301.778 761.682 305.016 759.358 308.708C757.977 310.917 756.363 312.971 754.542 314.835C751.225 315.47 748.331 315.478 746.8 314.823C741.985 312.766 729.641 306.256 726.551 309.004C723.53 311.688 749.433 313.386 747.637 320.204C735.082 327.425 720.715 323.999 718.175 317.358C714.787 308.442 702.194 306.347 705.073 293.512Z" fill="#9CD499"/>
<path d="M731.037 342.228C717.309 331.948 703.238 341.542 696.033 352.504C688.828 363.467 693.973 388.134 693.973 388.134C693.973 388.134 696.718 388.134 696.718 387.107C696.718 386.08 689.168 357.987 707.014 345.309C718.178 337.38 726.232 341.198 727.261 344.967C728.29 348.737 722.8 355.593 722.8 355.593L731.037 342.228Z" fill="#74B570"/>
<path d="M699.465 321.099C713.191 321.099 717.654 342.351 713.878 354.675C710.102 366.999 704.954 389.961 704.954 389.961L701.525 386.535C701.525 386.535 714.567 354.331 711.478 339.943C708.388 325.555 700.834 323.154 699.468 323.154C698.102 323.154 699.465 321.099 699.465 321.099Z" fill="#9CD499"/>
<path d="M710.978 354.769C711.921 353.483 713.16 352.441 714.59 351.733C714.408 352.724 714.17 353.705 713.878 354.67C712.157 360.289 710.152 368.112 708.48 374.966C708.327 374.088 708.094 372.734 707.719 370.649C707.633 370.143 707.567 369.62 707.519 369.053C708.936 364.359 710.091 359.59 710.978 354.769Z" fill="#74B570"/>
<path d="M714.732 354.872C740.812 343.91 727.071 328.864 750.065 338.799C751.684 339.5 753.658 341.266 755.64 343.697C753.283 344.413 750.798 344.612 748.357 344.282C741.491 343.255 743.894 348.735 755.22 350.101C757.023 350.284 758.802 350.658 760.526 351.219C765.922 361.564 768.352 375.176 756.935 379.907C754.685 380.84 751.905 381.372 748.808 381.571C745.285 378.788 749.669 362.596 744.246 364.833C739.03 366.976 745.878 378.7 744.94 381.652C739.793 381.559 734.094 380.721 728.647 379.375C726.493 378.171 724.846 376.555 724.339 374.427C722.623 367.234 733.947 362.789 734.291 356.613C734.606 350.943 730.14 369.086 718.308 371.755C707.608 366.768 702.539 359.998 714.732 354.872Z" fill="#9CD499"/>
<path d="M696.147 335.488C698.892 329.669 691.684 328.295 692.029 332.748C692.333 336.694 692.366 346.288 688.311 348.899C681.319 348.14 671.805 345.329 664.616 341.056C664.522 340.444 664.628 339.818 664.917 339.27C668.007 333.102 687.911 327.963 681.732 325.909C676.813 324.272 668.192 333.934 661.245 338.812C657.074 335.652 654.278 331.885 654.278 327.68C654.278 321.987 661.207 315.536 670.166 312.465C674.198 312.872 677.941 315.073 683.793 318.382C692.435 323.27 690.435 315.366 682.272 310.676C689.325 311.04 696.358 314.048 701.545 321.236C701.545 321.236 701.054 324.307 704.31 329.061C713.198 342.025 702.942 349.595 690.683 349.101C691.37 345.663 694.249 339.513 696.147 335.488Z" fill="#9CD499"/>
<path d="M730.211 341.646C736.922 346.822 744.378 352.876 753.527 356.988C762.675 361.099 760.848 374.498 760.848 374.498C760.848 374.498 762.219 362.925 754.593 358.966C746.968 355.007 741.935 350.288 736.139 349.372C730.343 348.456 727.14 347.546 727.14 347.546C727.14 347.546 728.969 343.892 727.9 342.521C726.83 341.15 730.211 341.646 730.211 341.646Z" fill="#74B570"/>
<path d="M763.291 280.85C738.734 287.397 720.735 303.083 717.38 306.888C714.024 310.694 714.024 311.761 714.024 311.761L716.617 316.634L717.836 316.027C717.836 316.027 715.854 311.913 721.039 306.585C729.983 297.393 740.867 290.14 748.344 286.942C755.82 283.744 763.291 280.85 763.291 280.85Z" fill="#74B570"/>
<path d="M704.886 416.551H695.509C692.305 416.551 689.232 415.281 686.967 413.019C684.701 410.757 683.428 407.689 683.428 404.491V382.971H716.967V404.491C716.967 407.689 715.694 410.757 713.428 413.019C711.163 415.281 708.09 416.551 704.886 416.551Z" fill="#75A1DE"/>
<path d="M716.964 386.819H683.423V389.177H716.964V386.819Z" fill="white"/>
<path d="M716.964 391.117H683.423V392.504H716.964V391.117Z" fill="white"/>
<path d="M83.639 387.254H91.6398C93.3305 387.254 94.7012 385.886 94.7012 384.198V377.62C94.7012 375.932 93.3305 374.563 91.6398 374.563H83.639C81.9483 374.563 80.5776 375.932 80.5776 377.62V384.198C80.5776 385.886 81.9483 387.254 83.639 387.254Z" fill="#9EC8FF"/>
<path d="M57.9588 387.254H65.9596C67.6504 387.254 69.021 385.886 69.021 384.198V377.62C69.021 375.932 67.6504 374.563 65.9596 374.563H57.9588C56.2681 374.563 54.8974 375.932 54.8974 377.62V384.198C54.8974 385.886 56.2681 387.254 57.9588 387.254Z" fill="#9EC8FF"/>
<path d="M32.2762 387.254H40.277C41.9677 387.254 43.3384 385.886 43.3384 384.198V377.62C43.3384 375.932 41.9677 374.563 40.277 374.563H32.2762C30.5855 374.563 29.2148 375.932 29.2148 377.62V384.198C29.2148 385.886 30.5855 387.254 32.2762 387.254Z" fill="#9EC8FF"/>
<path d="M763.088 142.78V150.77C763.088 151.58 762.766 152.358 762.192 152.931C761.618 153.504 760.839 153.826 760.027 153.826H753.438C752.626 153.826 751.847 153.504 751.273 152.931C750.699 152.358 750.377 151.58 750.377 150.77V142.78C750.379 141.971 750.702 141.195 751.276 140.624C751.85 140.052 752.627 139.731 753.438 139.731H760.027C760.838 139.731 761.616 140.051 762.19 140.623C762.764 141.195 763.087 141.971 763.088 142.78Z" fill="#9EC8FF"/>
<path d="M763.088 168.417V176.406C763.089 176.809 763.009 177.207 762.855 177.579C762.701 177.95 762.474 178.288 762.189 178.572C761.903 178.856 761.565 179.081 761.192 179.233C760.819 179.386 760.42 179.464 760.017 179.462H753.428C752.619 179.457 751.846 179.133 751.276 178.56C750.706 177.988 750.386 177.213 750.386 176.406V168.417C750.388 167.611 750.709 166.838 751.279 166.267C751.848 165.697 752.621 165.373 753.428 165.368H760.017C760.419 165.366 760.818 165.444 761.19 165.596C761.562 165.749 761.901 165.973 762.186 166.256C762.472 166.539 762.698 166.876 762.853 167.247C763.008 167.617 763.088 168.015 763.088 168.417Z" fill="#9EC8FF"/>
<path d="M763.088 194.053V202.043C763.088 202.853 762.766 203.629 762.192 204.202C761.619 204.775 760.841 205.096 760.03 205.096H753.44C752.628 205.096 751.85 204.774 751.276 204.201C750.702 203.628 750.379 202.851 750.379 202.04V194.05C750.381 193.242 750.704 192.467 751.278 191.896C751.851 191.325 752.628 191.004 753.438 191.004H760.027C760.838 191.004 761.616 191.324 762.19 191.896C762.764 192.468 763.087 193.244 763.088 194.053Z" fill="#9EC8FF"/>
</svg>
