<svg width="63" height="59" viewBox="0 0 63 59" fill="none" xmlns="http://www.w3.org/2000/svg">
<path d="M30.1299 58.6996C46.3311 58.6996 59.4648 45.5659 59.4648 29.3646C59.4648 13.1634 46.3311 0.0296631 30.1299 0.0296631C13.9286 0.0296631 0.794922 13.1634 0.794922 29.3646C0.794922 45.5659 13.9286 58.6996 30.1299 58.6996Z" fill="#21409A"/>
<path d="M46.2505 44.1527C46.1497 44.3874 46.0806 44.6431 45.9411 44.8567C45.8015 45.0706 45.6101 45.2457 45.3847 45.3655C45.1592 45.4853 44.9071 45.546 44.6519 45.5418H44.475C34.9101 45.5418 25.3453 45.5418 15.7805 45.5418C15.3058 45.5418 14.878 45.4374 14.5323 45.1019C14.3053 44.9 14.1422 44.636 14.0631 44.3425C13.984 44.049 13.9923 43.7388 14.087 43.4499C14.271 42.8234 14.7081 42.4503 15.341 42.3119C15.4859 42.2853 15.6332 42.2739 15.7805 42.2779C25.3461 42.2779 34.9109 42.2779 44.475 42.2779C45.4231 42.2779 46.0091 42.7472 46.227 43.6682C46.227 43.6787 46.2423 43.6858 46.2505 43.694V44.1527Z" fill="white"/>
<path d="M43.6648 28.9971C43.6648 32.423 43.6648 35.8485 43.6648 39.2735C43.6702 39.3799 43.6643 39.4864 43.6473 39.5915C43.6121 39.7395 43.5275 39.8711 43.4076 39.9645C43.2876 40.058 43.1394 40.1076 42.9874 40.1054C41.7186 40.1054 40.4497 40.1054 39.1809 40.1054C39.0934 40.1076 39.0063 40.0922 38.9248 40.0603C38.8433 40.0283 38.7689 39.9804 38.7062 39.9193C38.6434 39.8582 38.5935 39.7852 38.5592 39.7045C38.525 39.6239 38.5073 39.5372 38.507 39.4495C38.507 39.4026 38.507 39.3557 38.507 39.3076C38.507 32.43 38.507 25.5517 38.507 18.6725C38.5033 18.5608 38.5152 18.449 38.5422 18.3405C38.6254 18.0519 38.8773 17.8888 39.2242 17.8888H42.9253C43.4105 17.8888 43.6648 18.1446 43.6648 18.6338C43.6648 21.2619 43.6648 23.8899 43.6648 26.518V28.9971Z" fill="white"/>
<path d="M36.3625 31.9242V39.352C36.3625 39.8413 36.0965 40.1111 35.6113 40.1111H31.9782C31.4531 40.1111 31.1965 39.8542 31.1965 39.3262V33.0142C31.1965 30.1788 31.1965 27.3423 31.1965 24.5046C31.1792 24.3088 31.2343 24.1134 31.3512 23.9555C31.4208 23.8753 31.508 23.8124 31.606 23.7716C31.704 23.7309 31.8102 23.7135 31.9161 23.7209C33.1548 23.7209 34.3948 23.7209 35.6347 23.7209C36.0941 23.7209 36.3613 23.986 36.3613 24.4448C36.3613 25.6032 36.3613 26.7615 36.3613 27.9199L36.3625 31.9242Z" fill="white"/>
<path d="M32.3298 15.3483C31.6513 14.7464 30.9914 14.1669 30.3375 13.5767C30.3024 13.5422 30.2748 13.5009 30.2562 13.4553C30.2377 13.4097 30.2287 13.3608 30.2297 13.3116C30.2437 13.1802 30.3773 13.1872 30.4852 13.1872C33.1947 13.1872 35.9043 13.1895 38.6139 13.1942C38.7417 13.1942 38.8694 13.1942 38.9315 13.3339C38.9937 13.4735 38.9034 13.5556 38.8308 13.6495L33.9085 20.0718C33.8839 20.1047 33.8639 20.1504 33.8311 20.1668C33.7667 20.1985 33.6788 20.249 33.6272 20.2279C33.5927 20.2095 33.5628 20.1837 33.5397 20.1522C33.5166 20.1207 33.5008 20.0844 33.4936 20.046C33.4502 19.5767 33.4209 19.1074 33.387 18.6381C33.3565 18.2099 33.3272 17.7805 33.2955 17.3288C33.2276 17.3546 33.1783 17.3698 33.135 17.3909C31.2059 18.3413 29.2772 19.2924 27.349 20.2443C27.2819 20.2784 27.2256 20.3304 27.1861 20.3945C26.1243 22.1794 25.0648 23.965 24.0077 25.7515C23.628 26.3933 23.1217 26.5563 22.4326 26.2712C20.5223 25.4805 18.6119 24.6921 16.7016 23.906C16.2117 23.7042 15.7195 23.5059 15.2332 23.2959C15.0198 23.2118 14.8389 23.0616 14.717 22.8671C14.5951 22.6727 14.5386 22.4443 14.5558 22.2153C14.6132 21.6956 14.9261 21.3201 15.4254 21.2322C15.6216 21.1976 15.8234 21.2141 16.0113 21.2803C16.8235 21.5935 17.6275 21.9326 18.4326 22.2646C19.7562 22.8121 21.0782 23.3596 22.3986 23.9072C22.5158 23.9541 22.558 23.9271 22.6166 23.8262C23.5541 22.2376 24.5034 20.6526 25.4398 19.0605C25.6076 18.7687 25.8614 18.5359 26.1665 18.3941C27.683 17.6584 29.1913 16.9064 30.702 16.1649L32.1763 15.4375C32.2244 15.407 32.2689 15.3788 32.3298 15.3483Z" fill="white"/>
<path d="M16.5932 34.5468C16.5932 32.957 16.6049 31.3673 16.5873 29.7775C16.5873 29.3024 16.8768 28.9879 17.3702 28.995C18.5797 29.0149 19.7891 29.002 21.0033 29.0009C21.5033 29.0009 21.7537 29.2508 21.7545 29.7506C21.7545 32.948 21.7545 36.1455 21.7545 39.343C21.7545 39.8499 21.4967 40.1103 20.9951 40.1103C19.7844 40.1103 18.5738 40.1009 17.362 40.1103C17.2597 40.1161 17.1574 40.1005 17.0615 40.0643C16.9657 40.0281 16.8785 39.9723 16.8055 39.9003C16.7325 39.8284 16.6754 39.7419 16.6378 39.6466C16.6003 39.5512 16.583 39.449 16.5873 39.3465C16.6002 37.7498 16.5932 36.1471 16.5932 34.5468Z" fill="white"/>
<path d="M23.8956 36.0106V32.6786C23.8956 32.1635 24.137 31.9136 24.6491 31.9125C25.8641 31.9125 27.0794 31.9125 28.2951 31.9125C28.812 31.9125 29.0557 32.1682 29.0557 32.6927C29.0557 34.9023 29.0557 37.1115 29.0557 39.3203C29.0557 39.8577 28.8014 40.1123 28.2647 40.1123H24.6866C24.1534 40.1123 23.8909 39.8554 23.8909 39.325C23.8909 38.2206 23.8909 37.1162 23.8909 36.0118L23.8956 36.0106Z" fill="white"/>
<circle cx="52.8258" cy="12.0142" r="9.5306" fill="#ED1C24"/>
<path d="M47.9778 11.3806L51.2698 14.7374L58.0775 8.51318" stroke="white" stroke-width="1.5"/>
</svg>
