<svg width="21" height="22" viewBox="0 0 21 22" fill="none" xmlns="http://www.w3.org/2000/svg">
<path d="M10.3648 5.20694C9.33227 5.20189 8.32144 5.51344 7.46049 6.10207C6.59953 6.69069 5.92718 7.52993 5.52863 8.51344C5.13007 9.49695 5.02325 10.5806 5.2217 11.6268C5.42014 12.6731 5.91493 13.635 6.64336 14.3906C7.37179 15.1463 8.30107 15.6617 9.31348 15.8715C10.3259 16.0814 11.3758 15.9762 12.3303 15.5694C13.2848 15.1626 14.1008 14.4724 14.675 13.5863C15.2492 12.7002 15.5558 11.6581 15.5558 10.592C15.559 9.88595 15.4272 9.18635 15.1677 8.53315C14.9083 7.87996 14.5265 7.28611 14.0441 6.78574C13.5618 6.28536 12.9884 5.88833 12.357 5.61739C11.7256 5.34646 11.0486 5.20694 10.3648 5.20694ZM10.3648 14.0628C9.69107 14.078 9.0282 13.8854 8.46108 13.5095C7.89397 13.1335 7.4484 12.5914 7.1814 11.9525C6.9144 11.3136 6.83811 10.607 6.9623 9.92295C7.08649 9.23905 7.4055 8.60893 7.87851 8.11327C8.35153 7.61762 8.95702 7.27899 9.61752 7.14065C10.278 7.00232 10.9635 7.0706 11.5862 7.33677C12.2089 7.60294 12.7405 8.0549 13.113 8.63478C13.4855 9.21465 13.6819 9.89615 13.6771 10.592C13.6709 11.5017 13.3215 12.3732 12.703 13.0213C12.0846 13.6693 11.2458 14.0429 10.3648 14.0628ZM20.4254 6.27886C20.4079 5.40706 20.2492 4.54442 19.9557 3.72675C19.7087 3.03104 19.3114 2.40261 18.7939 1.88923C18.2879 1.35379 17.671 0.943694 16.9894 0.689744C16.2011 0.373534 15.3633 0.209184 14.5176 0.204834C13.4299 0.204834 13.0839 0.204834 10.3401 0.204834C7.59636 0.204834 7.25029 0.204834 6.16266 0.204834C5.31666 0.206244 4.47834 0.370704 3.69079 0.689744C3.00925 0.943694 2.39232 1.35379 1.88632 1.88923C1.36882 2.40261 0.971491 3.03104 0.724531 3.72675C0.431078 4.54442 0.272333 5.40706 0.254883 6.27886C0.254883 7.37627 0.254883 7.73357 0.254883 10.592C0.254883 13.4504 0.254883 13.7821 0.254883 14.9051C0.269488 15.7772 0.428323 16.6403 0.724531 17.4572C0.964951 18.1562 1.36321 18.7861 1.88632 19.2947C2.39798 19.8291 3.01277 20.2464 3.69079 20.5197C4.48198 20.8255 5.31797 20.9895 6.16266 21.0046C7.25029 21.0046 7.59636 21.0046 10.3401 21.0046C13.0839 21.0046 13.4299 21.0046 14.5176 21.0046C15.3623 20.9895 16.1983 20.8255 16.9894 20.5197C17.6675 20.2464 18.2823 19.8291 18.7939 19.2947C19.317 18.7861 19.7153 18.1562 19.9557 17.4572C20.2519 16.6403 20.4108 15.7772 20.4254 14.9051C20.4254 13.7821 20.4254 13.4248 20.4254 10.592C20.4254 7.7591 20.4748 7.37627 20.4254 6.27886ZM18.6209 14.803C18.6288 15.4666 18.5112 16.1254 18.2748 16.7426C18.1206 17.1962 17.8668 17.6067 17.5333 17.9421C17.2072 18.303 16.7995 18.5748 16.3468 18.7332C15.746 18.9664 15.1099 19.0873 14.4681 19.0905C13.4052 19.0905 13.0839 19.0905 10.3895 19.0905C7.69522 19.0905 7.37388 19.0905 6.28626 19.0905C5.64473 19.0846 5.00906 18.9638 4.40763 18.7332C3.96551 18.5675 3.56747 18.2964 3.24585 17.9421C2.91229 17.6067 2.65848 17.1962 2.50429 16.7426C2.2679 16.1254 2.15035 15.4666 2.15823 14.803C2.15823 13.7055 2.15823 13.3738 2.15823 10.592C2.15823 7.81014 2.15823 7.45283 2.15823 6.35542C2.15035 5.69181 2.2679 5.03295 2.50429 4.4158C2.65848 3.96222 2.91229 3.55167 3.24585 3.2163C3.58051 2.87826 3.97491 2.60969 4.40763 2.42515C5.01243 2.20743 5.64602 2.08697 6.28626 2.0679C7.37388 2.0679 7.69522 2.0679 10.3895 2.0679C13.0839 2.0679 13.4052 2.0679 14.4681 2.0679C15.1087 2.08407 15.7427 2.20461 16.3468 2.42515C16.7901 2.60314 17.1938 2.8723 17.5333 3.2163C17.8668 3.55167 18.1206 3.96222 18.2748 4.4158C18.5112 5.03295 18.6288 5.69181 18.6209 6.35542C18.6209 7.45283 18.6209 7.78462 18.6209 10.592C18.6209 13.3993 18.6209 13.7055 18.6209 14.803ZM17.0142 5.00281C17.019 5.25729 16.9501 5.5075 16.8162 5.72121C16.6823 5.93493 16.4896 6.10234 16.2627 6.20207C16.0359 6.3018 15.7854 6.32923 15.5434 6.28081C15.3013 6.23239 15.0789 6.11039 14.9045 5.93041C14.7302 5.75043 14.612 5.52069 14.5651 5.27081C14.5182 5.02092 14.5448 4.76229 14.6414 4.52811C14.738 4.29392 14.9002 4.09492 15.1072 3.95667C15.3142 3.81842 15.5565 3.74726 15.803 3.7523C16.1199 3.75898 16.4216 3.89367 16.6435 4.12747C16.8653 4.36127 16.9895 4.67552 16.9894 5.00281H17.0142Z" fill="#3C6FC8"/>
</svg>
