<svg width="50" height="45" viewBox="0 0 50 45" fill="none" xmlns="http://www.w3.org/2000/svg">
<rect x="0.743652" y="19.71" width="49" height="25.1901" rx="6" fill="#21409A"/>
<path d="M15.5815 0.731445V22.1258" stroke="black"/>
<path d="M36.8037 0.731445L36.9722 22.1258" stroke="black"/>
<path d="M7.07965 34.3638C6.83365 34.4958 6.58765 34.5438 6.32365 34.5438C5.51965 34.5438 4.96165 33.9858 4.96165 33.1998C4.96165 32.4018 5.51965 31.8558 6.33565 31.8558C6.76165 31.8558 7.11565 32.0058 7.42165 32.3298L8.04565 31.7538C7.63765 31.2798 7.02565 31.0278 6.28765 31.0278C4.94965 31.0278 3.97765 31.9338 3.97765 33.1998C3.97765 34.4658 4.94965 35.3718 6.26965 35.3718C6.86965 35.3718 7.50565 35.1858 7.96765 34.8378V33.1338H7.07965V34.3638ZM9.69856 32.4978V32.0718H8.80456V35.2998H9.74056V33.7758C9.74056 33.1578 10.0826 32.8758 10.5986 32.8758C10.6706 32.8758 10.7306 32.8818 10.8086 32.8878V32.0238C10.3106 32.0238 9.92656 32.1858 9.69856 32.4978ZM12.6495 32.0238C12.1335 32.0238 11.6115 32.1618 11.2575 32.4138L11.5935 33.0678C11.8275 32.8818 12.1815 32.7678 12.5235 32.7678C13.0275 32.7678 13.2675 33.0018 13.2675 33.4038H12.5235C11.5395 33.4038 11.1375 33.7998 11.1375 34.3698C11.1375 34.9278 11.5875 35.3478 12.3435 35.3478C12.8175 35.3478 13.1535 35.1918 13.3275 34.8978V35.2998H14.2035V33.4578C14.2035 32.4798 13.6335 32.0238 12.6495 32.0238ZM12.5775 34.7178C12.2475 34.7178 12.0495 34.5618 12.0495 34.3278C12.0495 34.1118 12.1875 33.9498 12.6255 33.9498H13.2675V34.2798C13.1595 34.5738 12.8895 34.7178 12.5775 34.7178ZM16.9587 32.0238C16.5567 32.0238 16.2267 32.1498 15.9867 32.4138V30.8478H15.0507V35.2998H15.9447V34.9278C16.1787 35.2098 16.5267 35.3478 16.9587 35.3478C17.8647 35.3478 18.5667 34.6998 18.5667 33.6858C18.5667 32.6718 17.8647 32.0238 16.9587 32.0238ZM16.7967 34.5798C16.3287 34.5798 15.9747 34.2438 15.9747 33.6858C15.9747 33.1278 16.3287 32.7918 16.7967 32.7918C17.2647 32.7918 17.6187 33.1278 17.6187 33.6858C17.6187 34.2438 17.2647 34.5798 16.7967 34.5798ZM25.6924 35.2998L25.6804 31.0998H24.8824L23.3344 33.7098L21.7624 31.0998H20.9584V35.2998H21.8704V32.8338L23.1004 34.8558H23.5384L24.7744 32.7798L24.7804 35.2998H25.6924ZM29.7849 33.6978C29.7849 32.6598 29.0529 32.0238 28.1049 32.0238C27.1209 32.0238 26.3829 32.7198 26.3829 33.6858C26.3829 34.6458 27.1089 35.3478 28.2249 35.3478C28.8069 35.3478 29.2569 35.1678 29.5569 34.8258L29.0589 34.2858C28.8369 34.4958 28.5909 34.5978 28.2489 34.5978C27.7569 34.5978 27.4149 34.3518 27.3249 33.9498H29.7669C29.7729 33.8718 29.7849 33.7698 29.7849 33.6978ZM28.1109 32.7318C28.5309 32.7318 28.8369 32.9958 28.9029 33.4038H27.3129C27.3789 32.9898 27.6849 32.7318 28.1109 32.7318ZM35.0653 31.0998V33.6498L32.9773 31.0998H32.1733V35.2998H33.1333V32.7498L35.2273 35.2998H36.0253V31.0998H35.0653ZM38.489 35.3478C39.515 35.3478 40.259 34.6578 40.259 33.6858C40.259 32.7138 39.515 32.0238 38.489 32.0238C37.463 32.0238 36.713 32.7138 36.713 33.6858C36.713 34.6578 37.463 35.3478 38.489 35.3478ZM38.489 34.5798C38.021 34.5798 37.661 34.2438 37.661 33.6858C37.661 33.1278 38.021 32.7918 38.489 32.7918C38.957 32.7918 39.311 33.1278 39.311 33.6858C39.311 34.2438 38.957 34.5798 38.489 34.5798ZM45.1527 32.0718L44.3667 34.2558L43.5987 32.0718H42.8067L42.0147 34.2558L41.2527 32.0718H40.3707L41.5347 35.2998H42.4347L43.1847 33.2958L43.9107 35.2998H44.8107L45.9807 32.0718H45.1527Z" fill="white"/>
</svg>
