<svg width="5" height="7" viewBox="0 0 5 7" fill="none" xmlns="http://www.w3.org/2000/svg">
<path d="M4.42041 6.16353C4.42041 6.35583 3.54045 6.51212 2.45459 6.51212C1.36873 6.51212 0.48877 6.35583 0.48877 6.16353C0.48877 5.97123 1.36873 5.81494 2.45459 5.81494C3.54045 5.81494 4.42041 5.97055 4.42041 6.16353Z" fill="#575151"/>
<path d="M2.18896 6.00993H2.79101L3.04243 3.87695L2.26303 4.44163L2.18896 6.00993Z" fill="#575151"/>
<path d="M4.03387 2.06967C4.03387 1.0504 3.20759 0.224121 2.18832 0.224121C1.16906 0.224121 0.342773 1.0504 0.342773 2.06967C0.342773 2.29323 0.388301 2.50455 0.461688 2.70297H0.456251L0.47256 2.73763C0.493625 2.79199 0.520125 2.84363 0.546626 2.89527L1.93147 5.84706C2.03339 6.0645 2.34257 6.0645 2.44518 5.84706L3.83477 2.88644C3.85856 2.83819 3.88302 2.79131 3.90272 2.74102L3.92107 2.70229H3.91495C3.98834 2.50455 4.03387 2.29323 4.03387 2.06967ZM2.26307 3.01283C1.76363 3.01283 1.35864 2.60784 1.35864 2.1084C1.35864 1.60896 1.76363 1.20397 2.26307 1.20397C2.76251 1.20397 3.16749 1.60896 3.16749 2.1084C3.16749 2.60784 2.76251 3.01283 2.26307 3.01283Z" fill="#575151"/>
<path d="M4.5617 2.06967C4.5617 1.0504 3.73542 0.224121 2.71615 0.224121C1.69689 0.224121 0.870605 1.0504 0.870605 2.06967C0.870605 2.29323 0.916133 2.50455 0.98952 2.70297H0.984083L1.00039 2.73763C1.02146 2.79199 1.04796 2.84363 1.07446 2.89527L2.4593 5.84706C2.56122 6.0645 2.8704 6.0645 2.97301 5.84706L4.3626 2.88644C4.38639 2.83819 4.41085 2.79131 4.43055 2.74102L4.4489 2.70229H4.44279C4.51617 2.50455 4.5617 2.29323 4.5617 2.06967ZM2.7909 3.01283C2.29146 3.01283 1.88647 2.60784 1.88647 2.1084C1.88647 1.60896 2.29146 1.20397 2.7909 1.20397C3.29034 1.20397 3.69533 1.60896 3.69533 2.1084C3.69533 2.60784 3.29034 3.01283 2.7909 3.01283Z" fill="#575151"/>
</svg>
