<svg width="9" height="8" viewBox="0 0 9 8" fill="none" xmlns="http://www.w3.org/2000/svg">
<path d="M8.18533 7.63247C8.16214 7.69021 8.14623 7.75316 8.11414 7.8057C8.08203 7.85835 8.03799 7.90143 7.98612 7.93092C7.93426 7.9604 7.87626 7.97533 7.81754 7.97432H7.77683C5.57624 7.97432 3.37566 7.97432 1.17508 7.97432C1.06587 7.97432 0.967455 7.94862 0.887913 7.86605C0.835685 7.81636 0.798161 7.75141 0.779957 7.67918C0.761753 7.60695 0.763662 7.5306 0.785452 7.45952C0.827785 7.30535 0.928359 7.21353 1.07396 7.17946C1.1073 7.17291 1.14119 7.17011 1.17508 7.17109C3.37584 7.17109 5.57642 7.17109 7.77683 7.17109C7.99496 7.17109 8.12978 7.28658 8.17993 7.51323C8.17993 7.51583 8.18344 7.51756 8.18533 7.51958V7.63247Z" fill="#575151"/>
<path d="M7.59062 3.90405C7.59062 4.74712 7.59062 5.5901 7.59062 6.43298C7.59186 6.45914 7.59051 6.48537 7.58658 6.51123C7.57848 6.54765 7.55903 6.58003 7.53143 6.60302C7.50383 6.62602 7.46974 6.63824 7.43477 6.63769C7.14285 6.63769 6.85092 6.63769 6.559 6.63769C6.53886 6.63822 6.51883 6.63445 6.50008 6.62659C6.48132 6.61873 6.46422 6.60693 6.44978 6.5919C6.43534 6.57687 6.42385 6.5589 6.41598 6.53904C6.40811 6.51919 6.40402 6.49786 6.40396 6.47629C6.40396 6.46474 6.40396 6.45319 6.40396 6.44135C6.40396 4.74885 6.40396 3.05616 6.40396 1.36328C6.40312 1.33577 6.40584 1.30827 6.41205 1.28157C6.43119 1.21054 6.48916 1.17041 6.56897 1.17041H7.42048C7.53211 1.17041 7.59062 1.23335 7.59062 1.35375C7.59062 2.00049 7.59062 2.64723 7.59062 3.29397V3.90405Z" fill="#575151"/>
<path d="M5.91095 4.62316V6.45107C5.91095 6.57147 5.84974 6.63788 5.73811 6.63788H4.90224C4.78144 6.63788 4.72239 6.57465 4.72239 6.44472V4.89139C4.72239 4.19364 4.72239 3.4956 4.72239 2.79727C4.71843 2.74909 4.73109 2.70102 4.75799 2.66215C4.774 2.64241 4.79407 2.62692 4.81662 2.6169C4.83917 2.60688 4.86359 2.6026 4.88795 2.60441C5.17296 2.60441 5.45823 2.60441 5.7435 2.60441C5.8492 2.60441 5.91068 2.66966 5.91068 2.78255C5.91068 3.06762 5.91068 3.35268 5.91068 3.63775L5.91095 4.62316Z" fill="#575151"/>
<path d="M4.98305 0.544541C4.82693 0.396425 4.67513 0.253796 4.52467 0.108568C4.5166 0.100075 4.51024 0.0899049 4.50598 0.0786842C4.50171 0.0674635 4.49963 0.0554284 4.49987 0.0433162C4.5031 0.0109791 4.53384 0.0127115 4.55865 0.0127115C5.18204 0.0127115 5.80544 0.0132889 6.42884 0.0144438C6.45823 0.0144438 6.48762 0.0144439 6.50191 0.048802C6.5162 0.0831602 6.49544 0.103371 6.47872 0.126469L5.34625 1.70694C5.34059 1.71503 5.33601 1.72629 5.32846 1.73033C5.31363 1.73813 5.2934 1.75054 5.28154 1.74534C5.27361 1.74083 5.26673 1.73447 5.26141 1.72672C5.25609 1.71897 5.25246 1.71004 5.2508 1.70059C5.24082 1.5851 5.23408 1.46961 5.22626 1.35412C5.21925 1.24874 5.21251 1.14307 5.20523 1.03191C5.18959 1.03826 5.17827 1.04201 5.16829 1.04721C4.72447 1.28108 4.28074 1.51513 3.8371 1.74939C3.82168 1.75779 3.80872 1.77058 3.79962 1.78634C3.55533 2.22559 3.31158 2.66503 3.06837 3.10466C2.98101 3.26259 2.86453 3.30272 2.70598 3.23256C2.26648 3.03796 1.82697 2.84394 1.38746 2.65049C1.27476 2.60083 1.16151 2.55204 1.04961 2.50036C1.00052 2.47967 0.958897 2.44269 0.930852 2.39484C0.902807 2.34699 0.889808 2.29078 0.893761 2.23444C0.906973 2.10654 0.978965 2.01415 1.09383 1.99249C1.13897 1.98398 1.1854 1.98805 1.22865 2.00433C1.4155 2.08142 1.60048 2.16486 1.78572 2.24657C2.09022 2.38131 2.39437 2.51605 2.69816 2.65078C2.72512 2.66233 2.73483 2.65569 2.74831 2.63086C2.96402 2.23993 3.18243 1.84986 3.39787 1.45806C3.43647 1.38625 3.49486 1.32897 3.56504 1.29407C3.91395 1.11304 4.26097 0.927967 4.60853 0.745493L4.94773 0.566484C4.95878 0.558977 4.96903 0.552048 4.98305 0.544541Z" fill="#575151"/>
<path d="M1.36185 5.26861C1.36185 4.87739 1.36454 4.48617 1.3605 4.09495C1.3605 3.97802 1.4271 3.90064 1.54061 3.90237C1.81888 3.90728 2.09714 3.90411 2.37648 3.90382C2.49153 3.90382 2.54914 3.96531 2.54932 4.08831C2.54932 4.87518 2.54932 5.66205 2.54932 6.44892C2.54932 6.57364 2.49 6.63774 2.3746 6.63774C2.09606 6.63774 1.81753 6.63543 1.53873 6.63774C1.5152 6.63917 1.49165 6.63532 1.46961 6.62642C1.44756 6.61752 1.42749 6.60377 1.4107 6.58606C1.39391 6.56836 1.38077 6.54709 1.37213 6.52361C1.36348 6.50014 1.35952 6.47499 1.3605 6.44978C1.36346 6.05683 1.36185 5.66243 1.36185 5.26861Z" fill="#575151"/>
<path d="M3.04258 5.62814V4.80816C3.04258 4.68141 3.09813 4.61992 3.21596 4.61963C3.49548 4.61963 3.77509 4.61963 4.05479 4.61963C4.1737 4.61963 4.22979 4.68257 4.22979 4.81163C4.22979 5.35539 4.22979 5.89906 4.22979 6.44263C4.22979 6.57486 4.17128 6.63751 4.04778 6.63751H3.22459C3.1019 6.63751 3.0415 6.57429 3.0415 6.44378C3.0415 6.172 3.0415 5.90021 3.0415 5.62843L3.04258 5.62814Z" fill="#575151"/>
</svg>
